<svg width="1920" height="495" viewBox="0 0 1920 495" fill="none" xmlns="http://www.w3.org/2000/svg">
<rect width="1920" height="495" fill="#1B212E"/>
<g opacity="0.06" clip-path="url(#clip0_4537_589)">
<rect x="96" y="406" width="96" height="96" stroke="#D9D9D9"/>
<circle cx="96" cy="406" r="4" fill="#D9D9D9"/>
<circle cx="192" cy="406" r="4" fill="#D9D9D9"/>
<rect x="96" y="310" width="96" height="96" stroke="#D9D9D9"/>
<circle cx="96" cy="310" r="4" fill="#D9D9D9"/>
<circle cx="192" cy="310" r="4" fill="#D9D9D9"/>
<circle cx="192" cy="406" r="4" fill="#D9D9D9"/>
<circle cx="96" cy="406" r="4" fill="#D9D9D9"/>
<rect y="310" width="96" height="96" stroke="#D9D9D9"/>
<circle cy="310" r="4" fill="#D9D9D9"/>
<circle cx="96" cy="310" r="4" fill="#D9D9D9"/>
<circle cx="96" cy="406" r="4" fill="#D9D9D9"/>
<circle cy="406" r="4" fill="#D9D9D9"/>
<rect y="406" width="96" height="96" stroke="#D9D9D9"/>
<circle cy="406" r="4" fill="#D9D9D9"/>
<circle cx="96" cy="406" r="4" fill="#D9D9D9"/>
<rect x="288" y="406" width="96" height="96" stroke="#D9D9D9"/>
<circle cx="288" cy="406" r="4" fill="#D9D9D9"/>
<circle cx="384" cy="406" r="4" fill="#D9D9D9"/>
<rect x="288" y="310" width="96" height="96" stroke="#D9D9D9"/>
<circle cx="288" cy="310" r="4" fill="#D9D9D9"/>
<circle cx="384" cy="310" r="4" fill="#D9D9D9"/>
<circle cx="384" cy="406" r="4" fill="#D9D9D9"/>
<circle cx="288" cy="406" r="4" fill="#D9D9D9"/>
<rect x="192" y="310" width="96" height="96" stroke="#D9D9D9"/>
<circle cx="192" cy="310" r="4" fill="#D9D9D9"/>
<circle cx="288" cy="310" r="4" fill="#D9D9D9"/>
<circle cx="288" cy="406" r="4" fill="#D9D9D9"/>
<circle cx="192" cy="406" r="4" fill="#D9D9D9"/>
<rect x="192" y="406" width="96" height="96" stroke="#D9D9D9"/>
<circle cx="192" cy="406" r="4" fill="#D9D9D9"/>
<circle cx="288" cy="406" r="4" fill="#D9D9D9"/>
<rect x="480" y="406" width="96" height="96" stroke="#D9D9D9"/>
<circle cx="480" cy="406" r="4" fill="#D9D9D9"/>
<circle cx="576" cy="406" r="4" fill="#D9D9D9"/>
<rect x="480" y="310" width="96" height="96" stroke="#D9D9D9"/>
<circle cx="480" cy="310" r="4" fill="#D9D9D9"/>
<circle cx="576" cy="310" r="4" fill="#D9D9D9"/>
<circle cx="576" cy="406" r="4" fill="#D9D9D9"/>
<circle cx="480" cy="406" r="4" fill="#D9D9D9"/>
<rect x="384" y="310" width="96" height="96" stroke="#D9D9D9"/>
<circle cx="384" cy="310" r="4" fill="#D9D9D9"/>
<circle cx="480" cy="310" r="4" fill="#D9D9D9"/>
<circle cx="480" cy="406" r="4" fill="#D9D9D9"/>
<circle cx="384" cy="406" r="4" fill="#D9D9D9"/>
<rect x="384" y="406" width="96" height="96" stroke="#D9D9D9"/>
<circle cx="384" cy="406" r="4" fill="#D9D9D9"/>
<circle cx="480" cy="406" r="4" fill="#D9D9D9"/>
<rect x="672" y="406" width="96" height="96" stroke="#D9D9D9"/>
<circle cx="672" cy="406" r="4" fill="#D9D9D9"/>
<circle cx="768" cy="406" r="4" fill="#D9D9D9"/>
<rect x="672" y="310" width="96" height="96" stroke="#D9D9D9"/>
<circle cx="672" cy="310" r="4" fill="#D9D9D9"/>
<circle cx="768" cy="310" r="4" fill="#D9D9D9"/>
<circle cx="768" cy="406" r="4" fill="#D9D9D9"/>
<circle cx="672" cy="406" r="4" fill="#D9D9D9"/>
<rect x="576" y="310" width="96" height="96" stroke="#D9D9D9"/>
<circle cx="576" cy="310" r="4" fill="#D9D9D9"/>
<circle cx="672" cy="310" r="4" fill="#D9D9D9"/>
<circle cx="672" cy="406" r="4" fill="#D9D9D9"/>
<circle cx="576" cy="406" r="4" fill="#D9D9D9"/>
<rect x="576" y="406" width="96" height="96" stroke="#D9D9D9"/>
<circle cx="576" cy="406" r="4" fill="#D9D9D9"/>
<circle cx="672" cy="406" r="4" fill="#D9D9D9"/>
<rect x="864" y="406" width="96" height="96" stroke="#D9D9D9"/>
<circle cx="864" cy="406" r="4" fill="#D9D9D9"/>
<circle cx="960" cy="406" r="4" fill="#D9D9D9"/>
<rect x="864" y="310" width="96" height="96" stroke="#D9D9D9"/>
<circle cx="864" cy="310" r="4" fill="#D9D9D9"/>
<circle cx="960" cy="310" r="4" fill="#D9D9D9"/>
<circle cx="960" cy="406" r="4" fill="#D9D9D9"/>
<circle cx="864" cy="406" r="4" fill="#D9D9D9"/>
<rect x="768" y="310" width="96" height="96" stroke="#D9D9D9"/>
<circle cx="768" cy="310" r="4" fill="#D9D9D9"/>
<circle cx="864" cy="310" r="4" fill="#D9D9D9"/>
<circle cx="864" cy="406" r="4" fill="#D9D9D9"/>
<circle cx="768" cy="406" r="4" fill="#D9D9D9"/>
<rect x="768" y="406" width="96" height="96" stroke="#D9D9D9"/>
<circle cx="768" cy="406" r="4" fill="#D9D9D9"/>
<circle cx="864" cy="406" r="4" fill="#D9D9D9"/>
<rect x="1056" y="406" width="96" height="96" stroke="#D9D9D9"/>
<circle cx="1056" cy="406" r="4" fill="#D9D9D9"/>
<circle cx="1152" cy="406" r="4" fill="#D9D9D9"/>
<rect x="1056" y="310" width="96" height="96" stroke="#D9D9D9"/>
<circle cx="1056" cy="310" r="4" fill="#D9D9D9"/>
<circle cx="1152" cy="310" r="4" fill="#D9D9D9"/>
<circle cx="1152" cy="406" r="4" fill="#D9D9D9"/>
<circle cx="1056" cy="406" r="4" fill="#D9D9D9"/>
<rect x="960" y="310" width="96" height="96" stroke="#D9D9D9"/>
<circle cx="960" cy="310" r="4" fill="#D9D9D9"/>
<circle cx="1056" cy="310" r="4" fill="#D9D9D9"/>
<circle cx="1056" cy="406" r="4" fill="#D9D9D9"/>
<circle cx="960" cy="406" r="4" fill="#D9D9D9"/>
<rect x="960" y="406" width="96" height="96" stroke="#D9D9D9"/>
<circle cx="960" cy="406" r="4" fill="#D9D9D9"/>
<circle cx="1056" cy="406" r="4" fill="#D9D9D9"/>
<rect x="1248" y="406" width="96" height="96" stroke="#D9D9D9"/>
<circle cx="1248" cy="406" r="4" fill="#D9D9D9"/>
<circle cx="1344" cy="406" r="4" fill="#D9D9D9"/>
<rect x="1248" y="310" width="96" height="96" stroke="#D9D9D9"/>
<circle cx="1248" cy="310" r="4" fill="#D9D9D9"/>
<circle cx="1344" cy="310" r="4" fill="#D9D9D9"/>
<circle cx="1344" cy="406" r="4" fill="#D9D9D9"/>
<circle cx="1248" cy="406" r="4" fill="#D9D9D9"/>
<rect x="1152" y="310" width="96" height="96" stroke="#D9D9D9"/>
<circle cx="1152" cy="310" r="4" fill="#D9D9D9"/>
<circle cx="1248" cy="310" r="4" fill="#D9D9D9"/>
<circle cx="1248" cy="406" r="4" fill="#D9D9D9"/>
<circle cx="1152" cy="406" r="4" fill="#D9D9D9"/>
<rect x="1152" y="406" width="96" height="96" stroke="#D9D9D9"/>
<circle cx="1152" cy="406" r="4" fill="#D9D9D9"/>
<circle cx="1248" cy="406" r="4" fill="#D9D9D9"/>
<rect x="1440" y="406" width="96" height="96" stroke="#D9D9D9"/>
<circle cx="1440" cy="406" r="4" fill="#D9D9D9"/>
<circle cx="1536" cy="406" r="4" fill="#D9D9D9"/>
<rect x="1440" y="310" width="96" height="96" stroke="#D9D9D9"/>
<circle cx="1440" cy="310" r="4" fill="#D9D9D9"/>
<circle cx="1536" cy="310" r="4" fill="#D9D9D9"/>
<circle cx="1536" cy="406" r="4" fill="#D9D9D9"/>
<circle cx="1440" cy="406" r="4" fill="#D9D9D9"/>
<rect x="1344" y="310" width="96" height="96" stroke="#D9D9D9"/>
<circle cx="1344" cy="310" r="4" fill="#D9D9D9"/>
<circle cx="1440" cy="310" r="4" fill="#D9D9D9"/>
<circle cx="1440" cy="406" r="4" fill="#D9D9D9"/>
<circle cx="1344" cy="406" r="4" fill="#D9D9D9"/>
<rect x="1344" y="406" width="96" height="96" stroke="#D9D9D9"/>
<circle cx="1344" cy="406" r="4" fill="#D9D9D9"/>
<circle cx="1440" cy="406" r="4" fill="#D9D9D9"/>
<rect x="1632" y="406" width="96" height="96" stroke="#D9D9D9"/>
<circle cx="1632" cy="406" r="4" fill="#D9D9D9"/>
<circle cx="1728" cy="406" r="4" fill="#D9D9D9"/>
<rect x="1632" y="310" width="96" height="96" stroke="#D9D9D9"/>
<circle cx="1632" cy="310" r="4" fill="#D9D9D9"/>
<circle cx="1728" cy="310" r="4" fill="#D9D9D9"/>
<circle cx="1728" cy="406" r="4" fill="#D9D9D9"/>
<circle cx="1632" cy="406" r="4" fill="#D9D9D9"/>
<rect x="1536" y="310" width="96" height="96" stroke="#D9D9D9"/>
<circle cx="1536" cy="310" r="4" fill="#D9D9D9"/>
<circle cx="1632" cy="310" r="4" fill="#D9D9D9"/>
<circle cx="1632" cy="406" r="4" fill="#D9D9D9"/>
<circle cx="1536" cy="406" r="4" fill="#D9D9D9"/>
<rect x="1536" y="406" width="96" height="96" stroke="#D9D9D9"/>
<circle cx="1536" cy="406" r="4" fill="#D9D9D9"/>
<circle cx="1632" cy="406" r="4" fill="#D9D9D9"/>
<rect x="1824" y="406" width="96" height="96" stroke="#D9D9D9"/>
<circle cx="1824" cy="406" r="4" fill="#D9D9D9"/>
<circle cx="1920" cy="406" r="4" fill="#D9D9D9"/>
<rect x="1824" y="310" width="96" height="96" stroke="#D9D9D9"/>
<circle cx="1824" cy="310" r="4" fill="#D9D9D9"/>
<circle cx="1920" cy="310" r="4" fill="#D9D9D9"/>
<circle cx="1920" cy="406" r="4" fill="#D9D9D9"/>
<circle cx="1824" cy="406" r="4" fill="#D9D9D9"/>
<rect x="1728" y="310" width="96" height="96" stroke="#D9D9D9"/>
<circle cx="1728" cy="310" r="4" fill="#D9D9D9"/>
<circle cx="1824" cy="310" r="4" fill="#D9D9D9"/>
<circle cx="1824" cy="406" r="4" fill="#D9D9D9"/>
<circle cx="1728" cy="406" r="4" fill="#D9D9D9"/>
<rect x="1728" y="406" width="96" height="96" stroke="#D9D9D9"/>
<circle cx="1728" cy="406" r="4" fill="#D9D9D9"/>
<circle cx="1824" cy="406" r="4" fill="#D9D9D9"/>
<rect x="96" y="22" width="96" height="96" stroke="#D9D9D9"/>
<circle cx="96" cy="22" r="4" fill="#D9D9D9"/>
<circle cx="192" cy="22" r="4" fill="#D9D9D9"/>
<circle cx="192" cy="118" r="4" fill="#D9D9D9"/>
<circle cx="96" cy="118" r="4" fill="#D9D9D9"/>
<rect x="96" y="-74" width="96" height="96" stroke="#D9D9D9"/>
<circle cx="192" cy="22" r="4" fill="#D9D9D9"/>
<circle cx="96" cy="22" r="4" fill="#D9D9D9"/>
<rect y="-74" width="96" height="96" stroke="#D9D9D9"/>
<circle cx="96" cy="22" r="4" fill="#D9D9D9"/>
<circle cy="22" r="4" fill="#D9D9D9"/>
<rect y="22" width="96" height="96" stroke="#D9D9D9"/>
<circle cy="22" r="4" fill="#D9D9D9"/>
<circle cx="96" cy="22" r="4" fill="#D9D9D9"/>
<circle cx="96" cy="118" r="4" fill="#D9D9D9"/>
<circle cy="118" r="4" fill="#D9D9D9"/>
<rect x="96" y="214" width="96" height="96" stroke="#D9D9D9"/>
<circle cx="96" cy="214" r="4" fill="#D9D9D9"/>
<circle cx="192" cy="214" r="4" fill="#D9D9D9"/>
<circle cx="192" cy="310" r="4" fill="#D9D9D9"/>
<circle cx="96" cy="310" r="4" fill="#D9D9D9"/>
<rect x="96" y="118" width="96" height="96" stroke="#D9D9D9"/>
<circle cx="96" cy="118" r="4" fill="#D9D9D9"/>
<circle cx="192" cy="118" r="4" fill="#D9D9D9"/>
<circle cx="192" cy="214" r="4" fill="#D9D9D9"/>
<circle cx="96" cy="214" r="4" fill="#D9D9D9"/>
<rect y="118" width="96" height="96" stroke="#D9D9D9"/>
<circle cy="118" r="4" fill="#D9D9D9"/>
<circle cx="96" cy="118" r="4" fill="#D9D9D9"/>
<circle cx="96" cy="214" r="4" fill="#D9D9D9"/>
<circle cy="214" r="4" fill="#D9D9D9"/>
<rect y="214" width="96" height="96" stroke="#D9D9D9"/>
<circle cy="214" r="4" fill="#D9D9D9"/>
<circle cx="96" cy="214" r="4" fill="#D9D9D9"/>
<circle cx="96" cy="310" r="4" fill="#D9D9D9"/>
<circle cy="310" r="4" fill="#D9D9D9"/>
<rect x="288" y="22" width="96" height="96" stroke="#D9D9D9"/>
<circle cx="288" cy="22" r="4" fill="#D9D9D9"/>
<circle cx="384" cy="22" r="4" fill="#D9D9D9"/>
<circle cx="384" cy="118" r="4" fill="#D9D9D9"/>
<circle cx="288" cy="118" r="4" fill="#D9D9D9"/>
<rect x="288" y="-74" width="96" height="96" stroke="#D9D9D9"/>
<circle cx="384" cy="22" r="4" fill="#D9D9D9"/>
<circle cx="288" cy="22" r="4" fill="#D9D9D9"/>
<rect x="192" y="-74" width="96" height="96" stroke="#D9D9D9"/>
<circle cx="288" cy="22" r="4" fill="#D9D9D9"/>
<circle cx="192" cy="22" r="4" fill="#D9D9D9"/>
<rect x="192" y="22" width="96" height="96" stroke="#D9D9D9"/>
<circle cx="192" cy="22" r="4" fill="#D9D9D9"/>
<circle cx="288" cy="22" r="4" fill="#D9D9D9"/>
<circle cx="288" cy="118" r="4" fill="#D9D9D9"/>
<circle cx="192" cy="118" r="4" fill="#D9D9D9"/>
<rect x="288" y="214" width="96" height="96" stroke="#D9D9D9"/>
<circle cx="288" cy="214" r="4" fill="#D9D9D9"/>
<circle cx="384" cy="214" r="4" fill="#D9D9D9"/>
<circle cx="384" cy="310" r="4" fill="#D9D9D9"/>
<circle cx="288" cy="310" r="4" fill="#D9D9D9"/>
<rect x="288" y="118" width="96" height="96" stroke="#D9D9D9"/>
<circle cx="288" cy="118" r="4" fill="#D9D9D9"/>
<circle cx="384" cy="118" r="4" fill="#D9D9D9"/>
<circle cx="384" cy="214" r="4" fill="#D9D9D9"/>
<circle cx="288" cy="214" r="4" fill="#D9D9D9"/>
<rect x="192" y="118" width="96" height="96" stroke="#D9D9D9"/>
<circle cx="192" cy="118" r="4" fill="#D9D9D9"/>
<circle cx="288" cy="118" r="4" fill="#D9D9D9"/>
<circle cx="288" cy="214" r="4" fill="#D9D9D9"/>
<circle cx="192" cy="214" r="4" fill="#D9D9D9"/>
<rect x="192" y="214" width="96" height="96" stroke="#D9D9D9"/>
<circle cx="192" cy="214" r="4" fill="#D9D9D9"/>
<circle cx="288" cy="214" r="4" fill="#D9D9D9"/>
<circle cx="288" cy="310" r="4" fill="#D9D9D9"/>
<circle cx="192" cy="310" r="4" fill="#D9D9D9"/>
<rect x="480" y="22" width="96" height="96" stroke="#D9D9D9"/>
<circle cx="480" cy="22" r="4" fill="#D9D9D9"/>
<circle cx="576" cy="22" r="4" fill="#D9D9D9"/>
<circle cx="576" cy="118" r="4" fill="#D9D9D9"/>
<circle cx="480" cy="118" r="4" fill="#D9D9D9"/>
<rect x="480" y="-74" width="96" height="96" stroke="#D9D9D9"/>
<circle cx="576" cy="22" r="4" fill="#D9D9D9"/>
<circle cx="480" cy="22" r="4" fill="#D9D9D9"/>
<rect x="384" y="-74" width="96" height="96" stroke="#D9D9D9"/>
<circle cx="480" cy="22" r="4" fill="#D9D9D9"/>
<circle cx="384" cy="22" r="4" fill="#D9D9D9"/>
<rect x="384" y="22" width="96" height="96" stroke="#D9D9D9"/>
<circle cx="384" cy="22" r="4" fill="#D9D9D9"/>
<circle cx="480" cy="22" r="4" fill="#D9D9D9"/>
<circle cx="480" cy="118" r="4" fill="#D9D9D9"/>
<circle cx="384" cy="118" r="4" fill="#D9D9D9"/>
<rect x="480" y="214" width="96" height="96" stroke="#D9D9D9"/>
<circle cx="480" cy="214" r="4" fill="#D9D9D9"/>
<circle cx="576" cy="214" r="4" fill="#D9D9D9"/>
<circle cx="576" cy="310" r="4" fill="#D9D9D9"/>
<circle cx="480" cy="310" r="4" fill="#D9D9D9"/>
<rect x="480" y="118" width="96" height="96" stroke="#D9D9D9"/>
<circle cx="480" cy="118" r="4" fill="#D9D9D9"/>
<circle cx="576" cy="118" r="4" fill="#D9D9D9"/>
<circle cx="576" cy="214" r="4" fill="#D9D9D9"/>
<circle cx="480" cy="214" r="4" fill="#D9D9D9"/>
<rect x="384" y="118" width="96" height="96" stroke="#D9D9D9"/>
<circle cx="384" cy="118" r="4" fill="#D9D9D9"/>
<circle cx="480" cy="118" r="4" fill="#D9D9D9"/>
<circle cx="480" cy="214" r="4" fill="#D9D9D9"/>
<circle cx="384" cy="214" r="4" fill="#D9D9D9"/>
<rect x="384" y="214" width="96" height="96" stroke="#D9D9D9"/>
<circle cx="384" cy="214" r="4" fill="#D9D9D9"/>
<circle cx="480" cy="214" r="4" fill="#D9D9D9"/>
<circle cx="480" cy="310" r="4" fill="#D9D9D9"/>
<circle cx="384" cy="310" r="4" fill="#D9D9D9"/>
<rect x="672" y="22" width="96" height="96" stroke="#D9D9D9"/>
<circle cx="672" cy="22" r="4" fill="#D9D9D9"/>
<circle cx="768" cy="22" r="4" fill="#D9D9D9"/>
<circle cx="768" cy="118" r="4" fill="#D9D9D9"/>
<circle cx="672" cy="118" r="4" fill="#D9D9D9"/>
<rect x="672" y="-74" width="96" height="96" stroke="#D9D9D9"/>
<circle cx="768" cy="22" r="4" fill="#D9D9D9"/>
<circle cx="672" cy="22" r="4" fill="#D9D9D9"/>
<rect x="576" y="-74" width="96" height="96" stroke="#D9D9D9"/>
<circle cx="672" cy="22" r="4" fill="#D9D9D9"/>
<circle cx="576" cy="22" r="4" fill="#D9D9D9"/>
<rect x="576" y="22" width="96" height="96" stroke="#D9D9D9"/>
<circle cx="576" cy="22" r="4" fill="#D9D9D9"/>
<circle cx="672" cy="22" r="4" fill="#D9D9D9"/>
<circle cx="672" cy="118" r="4" fill="#D9D9D9"/>
<circle cx="576" cy="118" r="4" fill="#D9D9D9"/>
<rect x="672" y="214" width="96" height="96" stroke="#D9D9D9"/>
<circle cx="672" cy="214" r="4" fill="#D9D9D9"/>
<circle cx="768" cy="214" r="4" fill="#D9D9D9"/>
<circle cx="768" cy="310" r="4" fill="#D9D9D9"/>
<circle cx="672" cy="310" r="4" fill="#D9D9D9"/>
<rect x="672" y="118" width="96" height="96" stroke="#D9D9D9"/>
<circle cx="672" cy="118" r="4" fill="#D9D9D9"/>
<circle cx="768" cy="118" r="4" fill="#D9D9D9"/>
<circle cx="768" cy="214" r="4" fill="#D9D9D9"/>
<circle cx="672" cy="214" r="4" fill="#D9D9D9"/>
<rect x="576" y="118" width="96" height="96" stroke="#D9D9D9"/>
<circle cx="576" cy="118" r="4" fill="#D9D9D9"/>
<circle cx="672" cy="118" r="4" fill="#D9D9D9"/>
<circle cx="672" cy="214" r="4" fill="#D9D9D9"/>
<circle cx="576" cy="214" r="4" fill="#D9D9D9"/>
<rect x="576" y="214" width="96" height="96" stroke="#D9D9D9"/>
<circle cx="576" cy="214" r="4" fill="#D9D9D9"/>
<circle cx="672" cy="214" r="4" fill="#D9D9D9"/>
<circle cx="672" cy="310" r="4" fill="#D9D9D9"/>
<circle cx="576" cy="310" r="4" fill="#D9D9D9"/>
<rect x="864" y="22" width="96" height="96" stroke="#D9D9D9"/>
<circle cx="864" cy="22" r="4" fill="#D9D9D9"/>
<circle cx="960" cy="22" r="4" fill="#D9D9D9"/>
<circle cx="960" cy="118" r="4" fill="#D9D9D9"/>
<circle cx="864" cy="118" r="4" fill="#D9D9D9"/>
<rect x="864" y="-74" width="96" height="96" stroke="#D9D9D9"/>
<circle cx="960" cy="22" r="4" fill="#D9D9D9"/>
<circle cx="864" cy="22" r="4" fill="#D9D9D9"/>
<rect x="768" y="-74" width="96" height="96" stroke="#D9D9D9"/>
<circle cx="864" cy="22" r="4" fill="#D9D9D9"/>
<circle cx="768" cy="22" r="4" fill="#D9D9D9"/>
<rect x="768" y="22" width="96" height="96" stroke="#D9D9D9"/>
<circle cx="768" cy="22" r="4" fill="#D9D9D9"/>
<circle cx="864" cy="22" r="4" fill="#D9D9D9"/>
<circle cx="864" cy="118" r="4" fill="#D9D9D9"/>
<circle cx="768" cy="118" r="4" fill="#D9D9D9"/>
<rect x="864" y="214" width="96" height="96" stroke="#D9D9D9"/>
<circle cx="864" cy="214" r="4" fill="#D9D9D9"/>
<circle cx="960" cy="214" r="4" fill="#D9D9D9"/>
<circle cx="960" cy="310" r="4" fill="#D9D9D9"/>
<circle cx="864" cy="310" r="4" fill="#D9D9D9"/>
<rect x="864" y="118" width="96" height="96" stroke="#D9D9D9"/>
<circle cx="864" cy="118" r="4" fill="#D9D9D9"/>
<circle cx="960" cy="118" r="4" fill="#D9D9D9"/>
<circle cx="960" cy="214" r="4" fill="#D9D9D9"/>
<circle cx="864" cy="214" r="4" fill="#D9D9D9"/>
<rect x="768" y="118" width="96" height="96" stroke="#D9D9D9"/>
<circle cx="768" cy="118" r="4" fill="#D9D9D9"/>
<circle cx="864" cy="118" r="4" fill="#D9D9D9"/>
<circle cx="864" cy="214" r="4" fill="#D9D9D9"/>
<circle cx="768" cy="214" r="4" fill="#D9D9D9"/>
<rect x="768" y="214" width="96" height="96" stroke="#D9D9D9"/>
<circle cx="768" cy="214" r="4" fill="#D9D9D9"/>
<circle cx="864" cy="214" r="4" fill="#D9D9D9"/>
<circle cx="864" cy="310" r="4" fill="#D9D9D9"/>
<circle cx="768" cy="310" r="4" fill="#D9D9D9"/>
<rect x="1056" y="22" width="96" height="96" stroke="#D9D9D9"/>
<circle cx="1056" cy="22" r="4" fill="#D9D9D9"/>
<circle cx="1152" cy="22" r="4" fill="#D9D9D9"/>
<circle cx="1152" cy="118" r="4" fill="#D9D9D9"/>
<circle cx="1056" cy="118" r="4" fill="#D9D9D9"/>
<rect x="1056" y="-74" width="96" height="96" stroke="#D9D9D9"/>
<circle cx="1152" cy="22" r="4" fill="#D9D9D9"/>
<circle cx="1056" cy="22" r="4" fill="#D9D9D9"/>
<rect x="960" y="-74" width="96" height="96" stroke="#D9D9D9"/>
<circle cx="1056" cy="22" r="4" fill="#D9D9D9"/>
<circle cx="960" cy="22" r="4" fill="#D9D9D9"/>
<rect x="960" y="22" width="96" height="96" stroke="#D9D9D9"/>
<circle cx="960" cy="22" r="4" fill="#D9D9D9"/>
<circle cx="1056" cy="22" r="4" fill="#D9D9D9"/>
<circle cx="1056" cy="118" r="4" fill="#D9D9D9"/>
<circle cx="960" cy="118" r="4" fill="#D9D9D9"/>
<rect x="1056" y="214" width="96" height="96" stroke="#D9D9D9"/>
<circle cx="1056" cy="214" r="4" fill="#D9D9D9"/>
<circle cx="1152" cy="214" r="4" fill="#D9D9D9"/>
<circle cx="1152" cy="310" r="4" fill="#D9D9D9"/>
<circle cx="1056" cy="310" r="4" fill="#D9D9D9"/>
<rect x="1056" y="118" width="96" height="96" stroke="#D9D9D9"/>
<circle cx="1056" cy="118" r="4" fill="#D9D9D9"/>
<circle cx="1152" cy="118" r="4" fill="#D9D9D9"/>
<circle cx="1152" cy="214" r="4" fill="#D9D9D9"/>
<circle cx="1056" cy="214" r="4" fill="#D9D9D9"/>
<rect x="960" y="118" width="96" height="96" stroke="#D9D9D9"/>
<circle cx="960" cy="118" r="4" fill="#D9D9D9"/>
<circle cx="1056" cy="118" r="4" fill="#D9D9D9"/>
<circle cx="1056" cy="214" r="4" fill="#D9D9D9"/>
<circle cx="960" cy="214" r="4" fill="#D9D9D9"/>
<rect x="960" y="214" width="96" height="96" stroke="#D9D9D9"/>
<circle cx="960" cy="214" r="4" fill="#D9D9D9"/>
<circle cx="1056" cy="214" r="4" fill="#D9D9D9"/>
<circle cx="1056" cy="310" r="4" fill="#D9D9D9"/>
<circle cx="960" cy="310" r="4" fill="#D9D9D9"/>
<rect x="1248" y="22" width="96" height="96" stroke="#D9D9D9"/>
<circle cx="1248" cy="22" r="4" fill="#D9D9D9"/>
<circle cx="1344" cy="22" r="4" fill="#D9D9D9"/>
<circle cx="1344" cy="118" r="4" fill="#D9D9D9"/>
<circle cx="1248" cy="118" r="4" fill="#D9D9D9"/>
<rect x="1248" y="-74" width="96" height="96" stroke="#D9D9D9"/>
<circle cx="1344" cy="22" r="4" fill="#D9D9D9"/>
<circle cx="1248" cy="22" r="4" fill="#D9D9D9"/>
<rect x="1152" y="-74" width="96" height="96" stroke="#D9D9D9"/>
<circle cx="1248" cy="22" r="4" fill="#D9D9D9"/>
<circle cx="1152" cy="22" r="4" fill="#D9D9D9"/>
<rect x="1152" y="22" width="96" height="96" stroke="#D9D9D9"/>
<circle cx="1152" cy="22" r="4" fill="#D9D9D9"/>
<circle cx="1248" cy="22" r="4" fill="#D9D9D9"/>
<circle cx="1248" cy="118" r="4" fill="#D9D9D9"/>
<circle cx="1152" cy="118" r="4" fill="#D9D9D9"/>
<rect x="1248" y="214" width="96" height="96" stroke="#D9D9D9"/>
<circle cx="1248" cy="214" r="4" fill="#D9D9D9"/>
<circle cx="1344" cy="214" r="4" fill="#D9D9D9"/>
<circle cx="1344" cy="310" r="4" fill="#D9D9D9"/>
<circle cx="1248" cy="310" r="4" fill="#D9D9D9"/>
<rect x="1248" y="118" width="96" height="96" stroke="#D9D9D9"/>
<circle cx="1248" cy="118" r="4" fill="#D9D9D9"/>
<circle cx="1344" cy="118" r="4" fill="#D9D9D9"/>
<circle cx="1344" cy="214" r="4" fill="#D9D9D9"/>
<circle cx="1248" cy="214" r="4" fill="#D9D9D9"/>
<rect x="1152" y="118" width="96" height="96" stroke="#D9D9D9"/>
<circle cx="1152" cy="118" r="4" fill="#D9D9D9"/>
<circle cx="1248" cy="118" r="4" fill="#D9D9D9"/>
<circle cx="1248" cy="214" r="4" fill="#D9D9D9"/>
<circle cx="1152" cy="214" r="4" fill="#D9D9D9"/>
<rect x="1152" y="214" width="96" height="96" stroke="#D9D9D9"/>
<circle cx="1152" cy="214" r="4" fill="#D9D9D9"/>
<circle cx="1248" cy="214" r="4" fill="#D9D9D9"/>
<circle cx="1248" cy="310" r="4" fill="#D9D9D9"/>
<circle cx="1152" cy="310" r="4" fill="#D9D9D9"/>
<rect x="1440" y="22" width="96" height="96" stroke="#D9D9D9"/>
<circle cx="1440" cy="22" r="4" fill="#D9D9D9"/>
<circle cx="1536" cy="22" r="4" fill="#D9D9D9"/>
<circle cx="1536" cy="118" r="4" fill="#D9D9D9"/>
<circle cx="1440" cy="118" r="4" fill="#D9D9D9"/>
<rect x="1440" y="-74" width="96" height="96" stroke="#D9D9D9"/>
<circle cx="1536" cy="22" r="4" fill="#D9D9D9"/>
<circle cx="1440" cy="22" r="4" fill="#D9D9D9"/>
<rect x="1344" y="-74" width="96" height="96" stroke="#D9D9D9"/>
<circle cx="1440" cy="22" r="4" fill="#D9D9D9"/>
<circle cx="1344" cy="22" r="4" fill="#D9D9D9"/>
<rect x="1344" y="22" width="96" height="96" stroke="#D9D9D9"/>
<circle cx="1344" cy="22" r="4" fill="#D9D9D9"/>
<circle cx="1440" cy="22" r="4" fill="#D9D9D9"/>
<circle cx="1440" cy="118" r="4" fill="#D9D9D9"/>
<circle cx="1344" cy="118" r="4" fill="#D9D9D9"/>
<rect x="1440" y="214" width="96" height="96" stroke="#D9D9D9"/>
<circle cx="1440" cy="214" r="4" fill="#D9D9D9"/>
<circle cx="1536" cy="214" r="4" fill="#D9D9D9"/>
<circle cx="1536" cy="310" r="4" fill="#D9D9D9"/>
<circle cx="1440" cy="310" r="4" fill="#D9D9D9"/>
<rect x="1440" y="118" width="96" height="96" stroke="#D9D9D9"/>
<circle cx="1440" cy="118" r="4" fill="#D9D9D9"/>
<circle cx="1536" cy="118" r="4" fill="#D9D9D9"/>
<circle cx="1536" cy="214" r="4" fill="#D9D9D9"/>
<circle cx="1440" cy="214" r="4" fill="#D9D9D9"/>
<rect x="1344" y="118" width="96" height="96" stroke="#D9D9D9"/>
<circle cx="1344" cy="118" r="4" fill="#D9D9D9"/>
<circle cx="1440" cy="118" r="4" fill="#D9D9D9"/>
<circle cx="1440" cy="214" r="4" fill="#D9D9D9"/>
<circle cx="1344" cy="214" r="4" fill="#D9D9D9"/>
<rect x="1344" y="214" width="96" height="96" stroke="#D9D9D9"/>
<circle cx="1344" cy="214" r="4" fill="#D9D9D9"/>
<circle cx="1440" cy="214" r="4" fill="#D9D9D9"/>
<circle cx="1440" cy="310" r="4" fill="#D9D9D9"/>
<circle cx="1344" cy="310" r="4" fill="#D9D9D9"/>
<rect x="1632" y="22" width="96" height="96" stroke="#D9D9D9"/>
<circle cx="1632" cy="22" r="4" fill="#D9D9D9"/>
<circle cx="1728" cy="22" r="4" fill="#D9D9D9"/>
<circle cx="1728" cy="118" r="4" fill="#D9D9D9"/>
<circle cx="1632" cy="118" r="4" fill="#D9D9D9"/>
<rect x="1632" y="-74" width="96" height="96" stroke="#D9D9D9"/>
<circle cx="1728" cy="22" r="4" fill="#D9D9D9"/>
<circle cx="1632" cy="22" r="4" fill="#D9D9D9"/>
<rect x="1536" y="-74" width="96" height="96" stroke="#D9D9D9"/>
<circle cx="1632" cy="22" r="4" fill="#D9D9D9"/>
<circle cx="1536" cy="22" r="4" fill="#D9D9D9"/>
<rect x="1536" y="22" width="96" height="96" stroke="#D9D9D9"/>
<circle cx="1536" cy="22" r="4" fill="#D9D9D9"/>
<circle cx="1632" cy="22" r="4" fill="#D9D9D9"/>
<circle cx="1632" cy="118" r="4" fill="#D9D9D9"/>
<circle cx="1536" cy="118" r="4" fill="#D9D9D9"/>
<rect x="1632" y="214" width="96" height="96" stroke="#D9D9D9"/>
<circle cx="1632" cy="214" r="4" fill="#D9D9D9"/>
<circle cx="1728" cy="214" r="4" fill="#D9D9D9"/>
<circle cx="1728" cy="310" r="4" fill="#D9D9D9"/>
<circle cx="1632" cy="310" r="4" fill="#D9D9D9"/>
<rect x="1632" y="118" width="96" height="96" stroke="#D9D9D9"/>
<circle cx="1632" cy="118" r="4" fill="#D9D9D9"/>
<circle cx="1728" cy="118" r="4" fill="#D9D9D9"/>
<circle cx="1728" cy="214" r="4" fill="#D9D9D9"/>
<circle cx="1632" cy="214" r="4" fill="#D9D9D9"/>
<rect x="1536" y="118" width="96" height="96" stroke="#D9D9D9"/>
<circle cx="1536" cy="118" r="4" fill="#D9D9D9"/>
<circle cx="1632" cy="118" r="4" fill="#D9D9D9"/>
<circle cx="1632" cy="214" r="4" fill="#D9D9D9"/>
<circle cx="1536" cy="214" r="4" fill="#D9D9D9"/>
<rect x="1536" y="214" width="96" height="96" stroke="#D9D9D9"/>
<circle cx="1536" cy="214" r="4" fill="#D9D9D9"/>
<circle cx="1632" cy="214" r="4" fill="#D9D9D9"/>
<circle cx="1632" cy="310" r="4" fill="#D9D9D9"/>
<circle cx="1536" cy="310" r="4" fill="#D9D9D9"/>
<rect x="1824" y="22" width="96" height="96" stroke="#D9D9D9"/>
<circle cx="1824" cy="22" r="4" fill="#D9D9D9"/>
<circle cx="1920" cy="22" r="4" fill="#D9D9D9"/>
<circle cx="1920" cy="118" r="4" fill="#D9D9D9"/>
<circle cx="1824" cy="118" r="4" fill="#D9D9D9"/>
<rect x="1824" y="-74" width="96" height="96" stroke="#D9D9D9"/>
<circle cx="1920" cy="22" r="4" fill="#D9D9D9"/>
<circle cx="1824" cy="22" r="4" fill="#D9D9D9"/>
<rect x="1728" y="-74" width="96" height="96" stroke="#D9D9D9"/>
<circle cx="1824" cy="22" r="4" fill="#D9D9D9"/>
<circle cx="1728" cy="22" r="4" fill="#D9D9D9"/>
<rect x="1728" y="22" width="96" height="96" stroke="#D9D9D9"/>
<circle cx="1728" cy="22" r="4" fill="#D9D9D9"/>
<circle cx="1824" cy="22" r="4" fill="#D9D9D9"/>
<circle cx="1824" cy="118" r="4" fill="#D9D9D9"/>
<circle cx="1728" cy="118" r="4" fill="#D9D9D9"/>
<rect x="1824" y="214" width="96" height="96" stroke="#D9D9D9"/>
<circle cx="1824" cy="214" r="4" fill="#D9D9D9"/>
<circle cx="1920" cy="214" r="4" fill="#D9D9D9"/>
<circle cx="1920" cy="310" r="4" fill="#D9D9D9"/>
<circle cx="1824" cy="310" r="4" fill="#D9D9D9"/>
<rect x="1824" y="118" width="96" height="96" stroke="#D9D9D9"/>
<circle cx="1824" cy="118" r="4" fill="#D9D9D9"/>
<circle cx="1920" cy="118" r="4" fill="#D9D9D9"/>
<circle cx="1920" cy="214" r="4" fill="#D9D9D9"/>
<circle cx="1824" cy="214" r="4" fill="#D9D9D9"/>
<rect x="1728" y="118" width="96" height="96" stroke="#D9D9D9"/>
<circle cx="1728" cy="118" r="4" fill="#D9D9D9"/>
<circle cx="1824" cy="118" r="4" fill="#D9D9D9"/>
<circle cx="1824" cy="214" r="4" fill="#D9D9D9"/>
<circle cx="1728" cy="214" r="4" fill="#D9D9D9"/>
<rect x="1728" y="214" width="96" height="96" stroke="#D9D9D9"/>
<circle cx="1728" cy="214" r="4" fill="#D9D9D9"/>
<circle cx="1824" cy="214" r="4" fill="#D9D9D9"/>
<circle cx="1824" cy="310" r="4" fill="#D9D9D9"/>
<circle cx="1728" cy="310" r="4" fill="#D9D9D9"/>
<circle cx="192" cy="-74" r="95.5" stroke="#D9D9D9"/>
<circle cy="-74" r="95.5" stroke="#D9D9D9"/>
<circle cx="384" cy="-74" r="95.5" stroke="#D9D9D9"/>
<circle cx="192" cy="118" r="95.5" stroke="#D9D9D9"/>
<circle cy="118" r="95.5" stroke="#D9D9D9"/>
<circle cx="384" cy="118" r="95.5" stroke="#D9D9D9"/>
<circle cx="288" cy="22" r="95.5" stroke="#D9D9D9"/>
<circle cx="96" cy="22" r="95.5" stroke="#D9D9D9"/>
<circle cx="480" cy="22" r="95.5" stroke="#D9D9D9"/>
<circle cx="288" cy="214" r="95.5" stroke="#D9D9D9"/>
<circle cx="96" cy="214" r="95.5" stroke="#D9D9D9"/>
<circle cx="480" cy="214" r="95.5" stroke="#D9D9D9"/>
<circle cx="192" cy="310" r="95.5" stroke="#D9D9D9"/>
<circle cy="310" r="95.5" stroke="#D9D9D9"/>
<circle cx="384" cy="310" r="95.5" stroke="#D9D9D9"/>
<circle cx="768" cy="-74" r="95.5" stroke="#D9D9D9"/>
<circle cx="576" cy="-74" r="95.5" stroke="#D9D9D9"/>
<circle cx="960" cy="-74" r="95.5" stroke="#D9D9D9"/>
<circle cx="768" cy="118" r="95.5" stroke="#D9D9D9"/>
<circle cx="576" cy="118" r="95.5" stroke="#D9D9D9"/>
<circle cx="960" cy="118" r="95.5" stroke="#D9D9D9"/>
<circle cx="864" cy="22" r="95.5" stroke="#D9D9D9"/>
<circle cx="672" cy="22" r="95.5" stroke="#D9D9D9"/>
<circle cx="1056" cy="22" r="95.5" stroke="#D9D9D9"/>
<circle cx="864" cy="214" r="95.5" stroke="#D9D9D9"/>
<circle cx="672" cy="214" r="95.5" stroke="#D9D9D9"/>
<circle cx="1056" cy="214" r="95.5" stroke="#D9D9D9"/>
<circle cx="768" cy="310" r="95.5" stroke="#D9D9D9"/>
<circle cx="576" cy="310" r="95.5" stroke="#D9D9D9"/>
<circle cx="960" cy="310" r="95.5" stroke="#D9D9D9"/>
<circle cx="1344" cy="-74" r="95.5" stroke="#D9D9D9"/>
<circle cx="1152" cy="-74" r="95.5" stroke="#D9D9D9"/>
<circle cx="1536" cy="-74" r="95.5" stroke="#D9D9D9"/>
<circle cx="1344" cy="118" r="95.5" stroke="#D9D9D9"/>
<circle cx="1152" cy="118" r="95.5" stroke="#D9D9D9"/>
<circle cx="1536" cy="118" r="95.5" stroke="#D9D9D9"/>
<circle cx="1440" cy="22" r="95.5" stroke="#D9D9D9"/>
<circle cx="1248" cy="22" r="95.5" stroke="#D9D9D9"/>
<circle cx="1632" cy="22" r="95.5" stroke="#D9D9D9"/>
<circle cx="1440" cy="214" r="95.5" stroke="#D9D9D9"/>
<circle cx="1248" cy="214" r="95.5" stroke="#D9D9D9"/>
<circle cx="1632" cy="214" r="95.5" stroke="#D9D9D9"/>
<circle cx="1344" cy="310" r="95.5" stroke="#D9D9D9"/>
<circle cx="1152" cy="310" r="95.5" stroke="#D9D9D9"/>
<circle cx="1536" cy="310" r="95.5" stroke="#D9D9D9"/>
<circle cx="1920" cy="-74" r="95.5" stroke="#D9D9D9"/>
<circle cx="1728" cy="-74" r="95.5" stroke="#D9D9D9"/>
<circle cx="1920" cy="118" r="95.5" stroke="#D9D9D9"/>
<circle cx="1728" cy="118" r="95.5" stroke="#D9D9D9"/>
<circle cx="1824" cy="22" r="95.5" stroke="#D9D9D9"/>
<circle cx="1824" cy="214" r="95.5" stroke="#D9D9D9"/>
<circle cx="1920" cy="310" r="95.5" stroke="#D9D9D9"/>
<circle cx="1728" cy="310" r="95.5" stroke="#D9D9D9"/>
<circle cx="192" cy="310" r="95.5" stroke="#D9D9D9"/>
<circle cy="310" r="95.5" stroke="#D9D9D9"/>
<circle cx="384" cy="310" r="95.5" stroke="#D9D9D9"/>
<circle cx="192" cy="502" r="95.5" stroke="#D9D9D9"/>
<circle cy="502" r="95.5" stroke="#D9D9D9"/>
<circle cx="384" cy="502" r="95.5" stroke="#D9D9D9"/>
<circle cx="288" cy="406" r="95.5" stroke="#D9D9D9"/>
<circle cx="96" cy="406" r="95.5" stroke="#D9D9D9"/>
<circle cx="480" cy="406" r="95.5" stroke="#D9D9D9"/>
<circle cx="768" cy="310" r="95.5" stroke="#D9D9D9"/>
<circle cx="576" cy="310" r="95.5" stroke="#D9D9D9"/>
<circle cx="960" cy="310" r="95.5" stroke="#D9D9D9"/>
<circle cx="768" cy="502" r="95.5" stroke="#D9D9D9"/>
<circle cx="576" cy="502" r="95.5" stroke="#D9D9D9"/>
<circle cx="960" cy="502" r="95.5" stroke="#D9D9D9"/>
<circle cx="864" cy="406" r="95.5" stroke="#D9D9D9"/>
<circle cx="672" cy="406" r="95.5" stroke="#D9D9D9"/>
<circle cx="1056" cy="406" r="95.5" stroke="#D9D9D9"/>
<circle cx="1344" cy="310" r="95.5" stroke="#D9D9D9"/>
<circle cx="1152" cy="310" r="95.5" stroke="#D9D9D9"/>
<circle cx="1536" cy="310" r="95.5" stroke="#D9D9D9"/>
<circle cx="1344" cy="502" r="95.5" stroke="#D9D9D9"/>
<circle cx="1152" cy="502" r="95.5" stroke="#D9D9D9"/>
<circle cx="1536" cy="502" r="95.5" stroke="#D9D9D9"/>
<circle cx="1440" cy="406" r="95.5" stroke="#D9D9D9"/>
<circle cx="1248" cy="406" r="95.5" stroke="#D9D9D9"/>
<circle cx="1632" cy="406" r="95.5" stroke="#D9D9D9"/>
<circle cx="1920" cy="310" r="95.5" stroke="#D9D9D9"/>
<circle cx="1728" cy="310" r="95.5" stroke="#D9D9D9"/>
<circle cx="1920" cy="502" r="95.5" stroke="#D9D9D9"/>
<circle cx="1728" cy="502" r="95.5" stroke="#D9D9D9"/>
<circle cx="1824" cy="406" r="95.5" stroke="#D9D9D9"/>
</g>
<defs>
<clipPath id="clip0_4537_589">
<rect width="1920" height="1238" fill="white" transform="translate(0 -64)"/>
</clipPath>
</defs>
</svg>
