<svg width="22" height="16" viewBox="0 0 22 16" fill="none" xmlns="http://www.w3.org/2000/svg">
<g clip-path="url(#clip0_35_20748)">
<mask id="mask0_35_20748" style="mask-type:luminance" maskUnits="userSpaceOnUse" x="-1" y="0" width="24" height="17">
<path d="M20.436 0H1.5635C0.57083 0 -0.233887 0.777611 -0.233887 1.73684V14.7632C-0.233887 15.7224 0.57083 16.5 1.5635 16.5H20.436C21.4287 16.5 22.2334 15.7224 22.2334 14.7632V1.73684C22.2334 0.777611 21.4287 0 20.436 0Z" fill="white"/>
</mask>
<g mask="url(#mask0_35_20748)">
<path fill-rule="evenodd" clip-rule="evenodd" d="M-0.233887 0H22.2334V16.5H-0.233887V0Z" fill="#229E45"/>
<path fill-rule="evenodd" clip-rule="evenodd" d="M11.0487 14.9879L21.6329 8.26069L10.9856 1.51288L0.366211 8.27446L11.0487 14.9879Z" fill="#F8E509"/>
<path fill-rule="evenodd" clip-rule="evenodd" d="M15.6616 8.25C15.6616 10.6666 13.6571 12.6259 11.1822 12.6259C10.2978 12.6246 9.43362 12.3665 8.69898 11.8843C7.96434 11.4021 7.39224 10.7174 7.05491 9.91693C6.71759 9.11638 6.63019 8.23589 6.80386 7.3867C6.97749 6.53756 7.40437 5.75789 8.03044 5.14622C8.65656 4.53459 9.45379 4.11845 10.3214 3.95042C11.189 3.78239 12.088 3.87 12.9048 4.20219C13.7215 4.53437 14.4193 5.09624 14.9101 5.81673C15.4008 6.53721 15.6623 7.38397 15.6616 8.25Z" fill="#2B49A3"/>
<path fill-rule="evenodd" clip-rule="evenodd" d="M9.71159 10.8726L9.57117 10.7936L9.43074 10.8623L9.46233 10.7076L9.35 10.5907L9.50799 10.5736L9.58523 10.4361L9.65191 10.5805L9.8064 10.6079L9.69051 10.7111M12.7096 11.6151L12.5727 11.5361L12.4322 11.6048L12.4603 11.4501L12.3515 11.3367L12.5095 11.3195L12.5832 11.1786L12.6534 11.323L12.8079 11.3504L12.6885 11.457M11.4177 10.4257L11.2984 10.357L11.1755 10.4189L11.2036 10.2848L11.1053 10.1851L11.2457 10.1714L11.3089 10.0476L11.365 10.1748L11.502 10.1989L11.3966 10.2917M14.4508 9.99952L14.3315 9.93075L14.2086 9.99262L14.2366 9.85858L14.1419 9.76231L14.2788 9.74855L14.342 9.62827L14.3981 9.75202L14.5315 9.77608L14.4297 9.86544M11.365 9.10918L11.2246 9.03358L11.0842 9.10232L11.1123 8.94422L11.0035 8.83076L11.1614 8.81357L11.2351 8.67262L11.3054 8.817L11.4598 8.84452L11.3405 8.95451M7.66845 7.7514L7.52803 7.67576L7.38761 7.7445L7.42275 7.5864L7.30691 7.47294L7.46836 7.45575L7.53859 7.3148L7.60878 7.45918L7.76327 7.4867L7.64742 7.59326M8.11429 9.55949L7.97387 9.48043L7.83345 9.5492L7.86504 9.3945L7.75271 9.28108L7.9107 9.26045L7.98443 9.12294L8.05462 9.26731L8.20911 9.2948L8.09322 9.4014M12.7271 7.08793L12.6007 7.01919L12.4743 7.08106L12.5024 6.94355L12.4042 6.84043L12.5446 6.82327L12.6113 6.69952L12.671 6.83013L12.8114 6.85419L12.7061 6.94702M12.4708 8.26355L12.3761 8.20858L12.2743 8.25669L12.2953 8.1467L12.2181 8.06763L12.3304 8.05387L12.3831 7.95765L12.4287 8.06077L12.5341 8.07793L12.4568 8.15356M7.46485 9.88606L7.37009 9.83452L7.27527 9.8792L7.29635 9.77608L7.22266 9.70044L7.32794 9.68668L7.3771 9.59388L7.42275 9.69015L7.52803 9.71077L7.44733 9.77951M14.4754 10.3054L14.3981 10.2676L14.3209 10.302L14.3385 10.2229L14.2788 10.168L14.363 10.1576L14.4051 10.0889L14.4402 10.1576L14.528 10.1748L14.4613 10.2264" fill="#FFFFEF"/>
<path fill-rule="evenodd" clip-rule="evenodd" d="M7.46485 9.88587L7.37009 9.83428L7.27527 9.87897L7.29635 9.77584L7.22266 9.70024L7.32794 9.68648L7.3771 9.59369L7.42275 9.68991L7.52803 9.71053L7.44733 9.77931" fill="#FFFFEF"/>
<path fill-rule="evenodd" clip-rule="evenodd" d="M7.46485 9.88606L7.37009 9.83452L7.27527 9.8792L7.29635 9.77608L7.22266 9.70044L7.32794 9.68667L7.3771 9.59388L7.42275 9.69015L7.52803 9.71077L7.44733 9.77951M8.93224 9.88263L8.84098 9.83452L8.74621 9.8792L8.76724 9.77608L8.69355 9.70044L8.79887 9.68667L8.84799 9.59388L8.89364 9.69015L8.99897 9.7073L8.91822 9.77951M8.74972 10.3639L8.65845 10.3123L8.56364 10.3604L8.58472 10.2573L8.51098 10.1782L8.6163 10.1645L8.66546 10.0717L8.71112 10.168L8.8164 10.1886L8.73565 10.2573M11.8039 9.49419L11.7126 9.43918L11.6143 9.48733L11.6354 9.3842L11.5651 9.30513L11.6705 9.2948L11.7196 9.20201L11.7617 9.29827L11.8671 9.31543L11.7898 9.38763M10.9087 9.49076L10.8139 9.43918L10.7191 9.48733L10.7402 9.3842L10.67 9.30513L10.7753 9.2948L10.8244 9.19858L10.8665 9.29827L10.9719 9.31543L10.8946 9.38763M8.47939 9.18824L8.41971 9.1539L8.36004 9.18138L8.37406 9.11608L8.32845 9.06793L8.39514 9.06106L8.42322 9.00262L8.4513 9.06449L8.51803 9.07483L8.46887 9.11951M14.3595 10.6801L14.2682 10.6286L14.1735 10.6767L14.1945 10.5736L14.1208 10.4945L14.2261 10.4808L14.2753 10.3879L14.3209 10.4842L14.4262 10.5048L14.3455 10.5736M13.6153 10.7798L13.538 10.7317L13.4573 10.7729L13.4749 10.6836L13.4152 10.6217L13.5029 10.6114L13.5451 10.5323L13.5802 10.6148L13.6679 10.6286L13.6013 10.6904M13.9664 10.7695L13.8961 10.7283L13.8224 10.7626L13.8365 10.6836L13.7803 10.6251L13.861 10.6148L13.8996 10.5461L13.9347 10.6148L14.0155 10.632L13.9558 10.687M14.9774 9.90326L14.9072 9.86887L14.837 9.90326L14.8545 9.82419L14.7983 9.76574L14.8791 9.75545L14.9142 9.68667L14.9493 9.75888L15.023 9.77265L14.9668 9.82762M13.6048 11.2645L13.517 11.2164L13.4222 11.2576L13.4433 11.1614L13.373 11.0926L13.4784 11.0823L13.524 10.9964L13.5661 11.0857L13.6715 11.1029L13.5907 11.1682M13.6118 11.6564L13.5275 11.6083L13.4433 11.653L13.4643 11.5567L13.3976 11.488L13.4924 11.4742L13.5345 11.3883L13.5732 11.4776L13.6679 11.4948L13.5977 11.5635M12.9307 10.7695L12.864 10.7283L12.7938 10.7626L12.8079 10.687L12.7552 10.6286L12.8324 10.6217L12.8675 10.5529L12.9027 10.6217L12.9799 10.6354L12.9237 10.6904M12.2988 10.7695L12.2286 10.7283L12.1584 10.7626L12.176 10.687L12.1198 10.6286L12.2006 10.6217L12.2357 10.5529L12.2707 10.6217L12.3445 10.6354L12.2883 10.6904M11.2211 9.84481L11.1509 9.807L11.0807 9.84138L11.0982 9.76231L11.0421 9.7073L11.1193 9.69701L11.1544 9.62827L11.1895 9.69701L11.2668 9.7142L11.2106 9.76574M11.3405 11.7251L11.2843 11.6942L11.2211 11.7251L11.2351 11.6564L11.1895 11.6083L11.2562 11.6014L11.2878 11.5429L11.3159 11.6048L11.3826 11.6151L11.3335 11.6598M9.71159 8.68295L9.57117 8.60388L9.43074 8.67262L9.46233 8.51795L9.35 8.40449L9.50799 8.38387L9.58523 8.2464L9.65191 8.39077L9.8064 8.41826L9.69051 8.52482" fill="#FFFFEF"/>
<path fill-rule="evenodd" clip-rule="evenodd" d="M15.3669 9.82439C15.4539 9.60338 15.5221 9.37577 15.5706 9.14377C13.1904 7.09842 10.54 6.05002 7.19094 6.26656C7.06949 6.49669 6.96964 6.73716 6.89258 6.985C10.8595 6.61375 13.7732 8.33249 15.3669 9.82439Z" fill="white"/>
<path d="M14.2997 8.67584L14.3804 8.72057C14.3684 8.74388 14.3647 8.7705 14.3699 8.79616C14.3782 8.82104 14.3957 8.84193 14.4191 8.85461C14.4437 8.8718 14.4682 8.88209 14.4893 8.87866C14.5104 8.87866 14.5244 8.86837 14.5349 8.85461C14.541 8.84549 14.5436 8.83446 14.5419 8.82369C14.5391 8.81097 14.533 8.79916 14.5244 8.7893C14.5174 8.77897 14.4998 8.75491 14.4718 8.72743C14.4429 8.69825 14.4212 8.66295 14.4085 8.6243C14.3998 8.59504 14.4021 8.56364 14.415 8.5359C14.4279 8.50815 14.4505 8.48583 14.4788 8.47307C14.5043 8.4626 14.5325 8.46021 14.5595 8.46616C14.5925 8.47363 14.6236 8.48766 14.6508 8.50741C14.6999 8.5418 14.7315 8.57619 14.742 8.61744C14.7469 8.63672 14.7475 8.65678 14.7439 8.67636C14.7403 8.6959 14.7325 8.71449 14.721 8.73086L14.6368 8.67932C14.6473 8.65869 14.6508 8.63807 14.6438 8.62087C14.6403 8.60368 14.6262 8.58648 14.6016 8.57272C14.5836 8.55852 14.5615 8.55014 14.5384 8.54866C14.5321 8.54844 14.5258 8.54997 14.5202 8.55296C14.5146 8.556 14.51 8.56047 14.5068 8.56586C14.4998 8.57619 14.4998 8.58648 14.5033 8.60025C14.5068 8.61397 14.5244 8.6415 14.5595 8.67584C14.5946 8.71023 14.6157 8.74119 14.6297 8.76182C14.6422 8.78431 14.6479 8.80993 14.6461 8.8355C14.6442 8.86108 14.6349 8.88561 14.6192 8.90619C14.6027 8.92955 14.5795 8.94753 14.5525 8.95773C14.5262 8.96959 14.4967 8.97319 14.4682 8.96807C14.4366 8.96116 14.405 8.94744 14.3699 8.92334C14.3173 8.889 14.2857 8.85118 14.2752 8.80993C14.2637 8.76316 14.2713 8.71384 14.2962 8.67241L14.2997 8.67584ZM13.8925 8.41462L13.9803 8.4593C13.9694 8.48305 13.9669 8.50967 13.9732 8.53494C13.9822 8.55852 13.9997 8.57806 14.0224 8.58991C14.0505 8.60711 14.0715 8.61397 14.0926 8.61054C14.1137 8.61054 14.1277 8.60025 14.1382 8.58305C14.1436 8.57489 14.146 8.56521 14.1453 8.55557C14.1453 8.54523 14.1382 8.53147 14.1277 8.52118C14.1097 8.4999 14.091 8.47928 14.0715 8.4593C14.0329 8.42148 14.0083 8.39057 14.0013 8.36304C13.9956 8.34536 13.9939 8.32665 13.9963 8.30824C13.9987 8.28983 14.0052 8.27216 14.0154 8.25648C14.0287 8.23529 14.0483 8.21849 14.0715 8.20837C14.0957 8.19747 14.1226 8.19387 14.1488 8.19804C14.1813 8.20342 14.2123 8.2151 14.24 8.23243C14.2927 8.26682 14.3243 8.30116 14.3348 8.33898C14.3412 8.3583 14.3433 8.37876 14.3409 8.39895C14.3384 8.41909 14.3316 8.4385 14.3208 8.45587L14.233 8.40772C14.2436 8.38366 14.2471 8.36647 14.24 8.34932C14.233 8.33212 14.219 8.31493 14.1944 8.30116C14.175 8.28753 14.1516 8.28028 14.1277 8.28054C14.1219 8.28093 14.1164 8.28271 14.1115 8.2857C14.1066 8.2887 14.1025 8.29283 14.0996 8.29773C14.0926 8.30807 14.0926 8.31836 14.0961 8.33212C14.0996 8.34584 14.1207 8.37337 14.1558 8.40772C14.1909 8.44211 14.2154 8.46959 14.226 8.49022C14.2401 8.5118 14.2475 8.53685 14.2475 8.56243C14.2475 8.588 14.2401 8.61306 14.226 8.63459C14.2109 8.6586 14.1889 8.67771 14.1628 8.68961C14.1365 8.70146 14.1071 8.70506 14.0786 8.69994C14.0424 8.69395 14.0078 8.6811 13.9768 8.66212C13.9314 8.63841 13.8964 8.59929 13.8784 8.55209C13.8649 8.5062 13.8699 8.45696 13.8925 8.41462ZM13.394 8.28397L13.6503 7.87147L13.9592 8.06057L13.9171 8.1293L13.6924 7.99179L13.6362 8.08462L13.8468 8.2118L13.8012 8.28054L13.5906 8.15336L13.5204 8.26682L13.7556 8.40429L13.7135 8.47307L13.394 8.28397ZM12.6673 7.69961L12.706 7.63087L12.8955 7.72366L12.8077 7.89557C12.7796 7.90243 12.7446 7.90586 12.7025 7.90243C12.662 7.89804 12.6227 7.8864 12.5866 7.86804C12.5441 7.8478 12.5078 7.81697 12.4813 7.77868C12.4571 7.74311 12.4448 7.70104 12.4462 7.65836C12.4479 7.61394 12.4599 7.57043 12.4813 7.53118C12.5024 7.48984 12.5338 7.45437 12.5725 7.42805C12.6097 7.40291 12.6538 7.38971 12.6989 7.39023C12.734 7.39023 12.7691 7.40057 12.8112 7.42462C12.8674 7.44868 12.9025 7.48307 12.9201 7.52084C12.9384 7.5584 12.9421 7.60113 12.9306 7.64116L12.8358 7.61368C12.8416 7.59066 12.8391 7.56635 12.8288 7.54494C12.8183 7.52432 12.8007 7.51055 12.7726 7.49679C12.7563 7.48767 12.7381 7.48198 12.7193 7.48024C12.7006 7.47846 12.6817 7.48059 12.6638 7.4865C12.6287 7.49679 12.5971 7.52775 12.5725 7.57586C12.548 7.62397 12.5375 7.66869 12.548 7.70647C12.5528 7.7244 12.5616 7.74112 12.5738 7.75536C12.5859 7.7696 12.601 7.78106 12.6182 7.78897C12.6357 7.7993 12.6568 7.80616 12.6779 7.80616C12.6988 7.80929 12.7201 7.80929 12.7411 7.80616L12.7691 7.75119L12.6673 7.69961ZM9.50086 6.93305L9.57105 6.45182L9.71848 6.47587L9.75712 6.81273L9.89404 6.50336L10.0415 6.52398L9.97123 6.99836L9.87647 6.98459L9.93614 6.60991L9.7817 6.97087L9.68689 6.95711L9.64829 6.56866L9.59212 6.94682L9.50086 6.93305ZM9.00586 6.87461L9.05151 6.39337L9.41306 6.42772L9.40605 6.51022L9.14278 6.48616L9.13222 6.58929L9.37796 6.61334L9.36745 6.69584L9.1217 6.67179L9.11119 6.80244L9.38497 6.8265L9.37796 6.909L9.00586 6.87461Z" fill="#309E3A"/>
<path d="M7.36656 6.57556C7.36656 6.52398 7.37708 6.4862 7.39114 6.45181C7.40341 6.42737 7.42008 6.40527 7.44026 6.38651C7.45828 6.36871 7.47975 6.35468 7.50348 6.34526C7.53857 6.33492 7.57367 6.32806 7.60876 6.32806C7.6825 6.32806 7.73867 6.35555 7.78432 6.3968C7.80602 6.42307 7.8222 6.45333 7.83182 6.48581C7.84148 6.51825 7.8444 6.55229 7.84049 6.58585C7.84049 6.66149 7.81591 6.72337 7.77026 6.76805C7.7468 6.78928 7.71908 6.80543 7.68884 6.81551C7.65859 6.82558 7.62656 6.82932 7.59474 6.82649C7.56338 6.8268 7.53224 6.82089 7.50326 6.80904C7.47432 6.79723 7.44808 6.77977 7.42624 6.75776C7.38256 6.70713 7.36108 6.64161 7.36656 6.57556Z" fill="#309E3A"/>
<path d="M7.46826 6.5755C7.46826 6.62705 7.47882 6.6683 7.5034 6.69921C7.52793 6.72674 7.55957 6.74393 7.60167 6.74393C7.61992 6.74515 7.63816 6.74242 7.65519 6.7359C7.67218 6.72935 7.6875 6.71918 7.69999 6.70612C7.72452 6.67863 7.73508 6.63734 7.73859 6.57893C7.73859 6.52392 7.73158 6.48267 7.70349 6.45518C7.69204 6.44133 7.67761 6.43013 7.66121 6.4224C7.64481 6.41467 7.62688 6.41059 7.60868 6.41046C7.59021 6.4099 7.57184 6.41328 7.55485 6.4204C7.53791 6.42757 7.52272 6.43825 7.51041 6.45171C7.48233 6.47924 7.47177 6.52049 7.46826 6.5755Z" fill="#F7FFFF"/>
<path d="M7.9458 6.82358L7.95281 6.34235H8.16346C8.21613 6.34235 8.25122 6.34921 8.2758 6.35954C8.30038 6.3664 8.3179 6.3836 8.33197 6.40422C8.34603 6.42485 8.35304 6.45233 8.35304 6.48329C8.35331 6.51633 8.34078 6.54829 8.31795 6.57265C8.29198 6.59645 8.25859 6.61099 8.22314 6.6139L8.2758 6.65515C8.28982 6.66892 8.30739 6.6964 8.32846 6.73422L8.38814 6.83049H8.26879L8.19856 6.72046L8.14944 6.65172C8.14091 6.64226 8.13003 6.63513 8.11781 6.6311C8.10186 6.62654 8.08532 6.62424 8.0687 6.62424H8.04762V6.82358H7.9458Z" fill="#309E3A"/>
<path d="M8.05127 6.54856H8.1215C8.17062 6.54856 8.2022 6.54855 8.21276 6.54169C8.22328 6.54169 8.23379 6.5314 8.24085 6.5245C8.24786 6.51764 8.25136 6.50044 8.25136 6.49015C8.25136 6.46953 8.24786 6.45576 8.23734 6.4489C8.23029 6.43857 8.21627 6.43171 8.2022 6.42828H8.13202L8.05127 6.4248V6.54856Z" fill="white"/>
<path d="M8.50749 6.36652L8.69006 6.37685C8.72866 6.37685 8.76025 6.38028 8.78132 6.38714C8.80864 6.39687 8.83286 6.41345 8.85151 6.43529C8.87178 6.45931 8.88615 6.48753 8.89366 6.5178C8.90417 6.54871 8.90768 6.58653 8.90417 6.63121C8.90417 6.6663 8.89824 6.70112 8.88665 6.73434C8.87258 6.76873 8.85155 6.79621 8.82698 6.81684C8.80649 6.83334 8.78249 6.8451 8.75674 6.85123C8.73567 6.85809 8.70408 6.85809 8.66898 6.85809L8.48291 6.8478L8.50749 6.36652Z" fill="#309E3A"/>
<path d="M8.60253 6.45245L8.58496 6.77212H8.71837C8.7359 6.77212 8.74996 6.76526 8.76048 6.75497C8.77104 6.74463 8.78155 6.73087 8.78856 6.71024C8.79561 6.68962 8.80262 6.6587 8.80262 6.62088L8.79912 6.53495C8.79409 6.51685 8.78443 6.50026 8.77104 6.48684C8.75935 6.47534 8.74484 6.46704 8.72889 6.46274C8.70233 6.45697 8.67532 6.45354 8.64814 6.45245H8.60253Z" fill="white"/>
<path d="M10.9155 7.22527L11.0314 6.75775L11.1859 6.79214L11.2982 6.82649C11.3227 6.84025 11.3438 6.86088 11.3544 6.89184C11.3684 6.91932 11.3684 6.95024 11.3614 6.98806C11.3544 7.01559 11.3438 7.03964 11.3263 7.05684C11.3134 7.0719 11.2973 7.08406 11.2791 7.09235C11.2609 7.10069 11.241 7.10499 11.2209 7.10495C11.1964 7.10495 11.1613 7.09809 11.1156 7.08775L11.0559 7.07056L11.0138 7.24932L10.9155 7.22527Z" fill="#309E3A"/>
<path d="M11.1052 6.86066L11.0771 6.99127L11.1298 7.00503C11.1649 7.01189 11.193 7.01875 11.207 7.01532C11.2207 7.01346 11.2334 7.00751 11.2435 6.9983C11.2535 6.98905 11.2604 6.97698 11.2632 6.96378C11.2632 6.94659 11.2632 6.93282 11.2562 6.91906C11.2485 6.90512 11.2361 6.89418 11.2211 6.88814L11.1543 6.87095L11.1087 6.86066H11.1052Z" fill="white"/>
<path d="M11.3721 7.36006L11.5371 6.90631L11.7302 6.97509C11.7828 6.99228 11.8144 7.00944 11.8355 7.0232C11.853 7.0404 11.8671 7.05759 11.8706 7.08508C11.8741 7.11256 11.8776 7.13666 11.8706 7.16415C11.8565 7.19853 11.8355 7.22259 11.8074 7.23978C11.7793 7.25351 11.7442 7.25694 11.7021 7.25008C11.7161 7.26727 11.7302 7.28447 11.7372 7.30509L11.7652 7.39788L11.7863 7.50444L11.6775 7.46666L11.6424 7.34291C11.636 7.3149 11.6278 7.28733 11.6178 7.26041C11.6131 7.24968 11.606 7.24026 11.5967 7.23288C11.5897 7.22259 11.5757 7.21569 11.5511 7.20883L11.5336 7.20196L11.4634 7.39445L11.3721 7.36006Z" fill="#309E3A"/>
<path d="M11.5616 7.12988L11.6283 7.15393C11.6739 7.17113 11.702 7.17799 11.7161 7.17799C11.7266 7.17799 11.7371 7.17799 11.7477 7.1677C11.7582 7.16079 11.7652 7.1505 11.7687 7.13674C11.7758 7.12302 11.7758 7.10925 11.7687 7.09549C11.7635 7.08216 11.7536 7.07117 11.7406 7.06457L11.6704 7.04052L11.6002 7.01642L11.5581 7.12988H11.5616Z" fill="white"/>
<path d="M11.947 7.34261C11.959 7.30236 11.9793 7.26493 12.0066 7.23262C12.0244 7.21187 12.0458 7.19441 12.0698 7.18104C12.0916 7.16901 12.1153 7.16089 12.14 7.15698C12.1751 7.15698 12.2102 7.15698 12.2488 7.17075C12.2802 7.17834 12.3096 7.19237 12.335 7.21195C12.3604 7.23149 12.3813 7.25611 12.3963 7.28416C12.4244 7.33918 12.4244 7.40448 12.4033 7.48012C12.3859 7.54508 12.343 7.6007 12.284 7.63479C12.2313 7.66575 12.1681 7.66918 12.1014 7.64855C12.0701 7.64074 12.0408 7.62662 12.0154 7.60708C11.9901 7.58754 11.9691 7.56306 11.954 7.53514C11.9399 7.50505 11.932 7.47257 11.9308 7.43957C11.9296 7.40652 11.9351 7.37357 11.947 7.34261Z" fill="#309E3A"/>
<path d="M12.0451 7.36998C12.031 7.42156 12.0275 7.46624 12.0451 7.50063C12.0626 7.53498 12.0872 7.5556 12.1258 7.56937C12.1609 7.57966 12.196 7.57623 12.2311 7.5556C12.2662 7.53841 12.2873 7.50063 12.3049 7.44562C12.3224 7.39403 12.3224 7.35278 12.3049 7.31844C12.2979 7.30211 12.2874 7.28752 12.2741 7.27562C12.2607 7.26373 12.2448 7.25487 12.2276 7.24966C12.2103 7.24384 12.192 7.24176 12.1738 7.24354C12.1557 7.24532 12.1381 7.25092 12.1223 7.25999C12.0872 7.28062 12.0626 7.31501 12.0451 7.36998Z" fill="white"/>
<path d="M12.9058 8.01293L13.1304 7.58667L13.3165 7.6795C13.3516 7.69596 13.3836 7.71806 13.4113 7.74481C13.4288 7.762 13.4394 7.78263 13.4394 7.81011C13.4394 7.83764 13.4394 7.8617 13.4253 7.88575C13.4118 7.91667 13.3867 7.94129 13.3551 7.95449C13.32 7.96139 13.2849 7.96139 13.2463 7.94763C13.2603 7.96825 13.2674 7.98888 13.2744 8.00607C13.2814 8.0267 13.2849 8.05761 13.2884 8.10229L13.2954 8.21232L13.1901 8.16074L13.1761 8.03356C13.1744 8.00473 13.1709 7.97603 13.1655 7.94763C13.1631 7.93478 13.157 7.92284 13.148 7.91324L13.1059 7.88918L13.0883 7.87889L12.9935 8.05761L12.9058 8.01293Z" fill="#309E3A"/>
<path d="M13.1235 7.81036L13.1902 7.84475C13.2323 7.86538 13.2605 7.8791 13.271 7.8791C13.2815 7.8791 13.2955 7.8791 13.3061 7.87224C13.3166 7.86881 13.3236 7.85847 13.3306 7.84475C13.3376 7.83099 13.3412 7.81722 13.3376 7.8035C13.3333 7.78983 13.3248 7.7778 13.3131 7.76911C13.2925 7.75678 13.2715 7.74532 13.2499 7.73473L13.1797 7.70038L13.1235 7.81036Z" fill="white"/>
<path d="M14.725 8.89247C14.7477 8.85713 14.7776 8.82669 14.8128 8.80307C14.8364 8.78826 14.8626 8.7778 14.89 8.77215C14.9154 8.76703 14.9417 8.76703 14.9672 8.77215C15.0023 8.77901 15.0339 8.79278 15.0655 8.8134C15.0928 8.83008 15.1163 8.85214 15.1345 8.87814C15.1526 8.9042 15.165 8.93364 15.1708 8.96464C15.1814 9.02308 15.1638 9.08839 15.1217 9.15369C15.0864 9.21053 15.0296 9.2513 14.9637 9.26715C14.9322 9.2738 14.8998 9.27384 14.8683 9.26733C14.8368 9.26081 14.8071 9.24787 14.7811 9.22933C14.7538 9.21266 14.7304 9.1906 14.7122 9.16455C14.6941 9.13854 14.6817 9.10906 14.6758 9.0781C14.6653 9.01622 14.6829 8.95435 14.725 8.89247Z" fill="#309E3A"/>
<path d="M14.8126 8.94762C14.7775 8.9923 14.767 9.03355 14.774 9.07137C14.7766 9.08878 14.783 9.10545 14.7926 9.12026C14.8023 9.13507 14.8151 9.1477 14.8302 9.1573C14.8653 9.18135 14.9004 9.18821 14.9355 9.17792C14.9706 9.16759 15.0057 9.14353 15.0373 9.09542C15.0689 9.04727 15.0829 9.00602 15.0759 8.97167C15.0724 8.93728 15.0514 8.90637 15.0198 8.88227C14.9882 8.85821 14.9495 8.85478 14.9144 8.86512C14.8793 8.87198 14.8443 8.89946 14.8091 8.94762H14.8126Z" fill="white"/>
<path d="M10.3608 7.02924L10.4416 6.69238L10.6943 6.75083L10.6838 6.8058L10.4978 6.76455L10.4802 6.84019L10.6522 6.87801L10.6382 6.93645L10.4662 6.8952L10.4451 6.98799L10.6382 7.03267L10.6242 7.08769L10.3608 7.02924Z" fill="#309E3A"/>
</g>
</g>
<defs>
<clipPath id="clip0_35_20748">
<rect width="22.9167" height="16.5" fill="white" transform="translate(-0.458496)"/>
</clipPath>
</defs>
</svg>
