<svg width="32" height="32" viewBox="0 0 32 32" fill="none" xmlns="http://www.w3.org/2000/svg">
<g clip-path="url(#clip0_35_44581)">
<path d="M21.5067 29.3333H0V0H32V27.916L29.3333 25.2467V8H2.66667V26.6667H18.8373L21.5067 29.3333ZM30.156 29.8427L27.9893 32L11.7733 15.8387L13.9733 13.64L30.156 29.8427ZM16.724 17.488L13.9747 14.7387L12.876 15.8373L15.624 18.5867L16.724 17.488ZM18.9707 12.0413C19.264 13 20.0133 13.7493 20.972 14.0427C20.0133 14.3347 19.264 15.0853 18.9707 16.044C18.6787 15.0853 17.928 14.3347 16.9693 14.0427C17.9267 13.7493 18.6787 13 18.9707 12.0413ZM15.4653 22.1053C14.1933 22.4933 13.1987 23.488 12.8107 24.7587C12.4227 23.488 11.428 22.4933 10.1573 22.1053C11.428 21.7173 12.4227 20.7227 12.8107 19.452C13.1973 20.7227 14.1933 21.7173 15.4653 22.1053ZM21.6533 15.5747C21.8627 16.2533 22.3933 16.7827 23.0693 16.9907C22.392 17.1973 21.8613 17.7267 21.6533 18.4067C21.448 17.728 20.9173 17.1987 20.24 16.9907C20.9173 16.7827 21.448 16.252 21.6533 15.5747ZM25.8133 14.0627C24.9867 14.316 24.3373 14.964 24.084 15.7933C23.8307 14.964 23.1827 14.316 22.3533 14.0627C23.1813 13.8107 23.8293 13.1613 24.0827 12.3333C24.3373 13.1613 24.9867 13.8107 25.8133 14.0627Z" fill="#17BB87"/>
</g>
<defs>
<clipPath id="clip0_35_44581">
<rect width="32" height="32" fill="white"/>
</clipPath>
</defs>
</svg>
