<svg width="32" height="32" viewBox="0 0 32 32" fill="none" xmlns="http://www.w3.org/2000/svg">
<path d="M21.016 10.7293L15.1747 16.696L12.2213 13.8653L10.5733 15.5173L15.1747 20L22.6667 12.38L21.016 10.7293ZM16 3.392C19.3333 5.79867 22.0733 6.448 25.3333 6.61333V19.38C25.3333 23.436 23.0853 24.4827 16 28.856C8.92133 24.4853 6.66667 23.436 6.66667 19.38V6.61333C9.92933 6.448 12.6667 5.79867 16 3.392ZM16 0C11.5053 3.82133 8.688 4 4 4V19.38C4 25.5173 8.27067 27.1187 16 32C23.7293 27.1187 28 25.5173 28 19.38V4C23.312 4 20.4947 3.82133 16 0Z" fill="#17BB87"/>
</svg>
