<svg width="32" height="32" viewBox="0 0 32 32" fill="none" xmlns="http://www.w3.org/2000/svg">
<path d="M22.6667 16.86V13.808C21.1067 13.252 20.124 13.0973 19.6267 11.9C19.1293 10.7 19.72 9.884 20.4267 8.4L18.2693 6.24133C16.796 6.94133 15.972 7.54 14.768 7.04133C13.568 6.54267 13.412 5.552 12.86 4H9.80667C9.25733 5.544 9.1 6.54267 7.89867 7.04C6.69867 7.53867 5.884 6.94667 4.39733 6.24L2.24133 8.39867C2.944 9.87867 3.53867 10.6973 3.04133 11.8987C2.54133 13.1 1.544 13.2573 0 13.8067V16.8587C1.54 17.408 2.54267 17.5667 3.04 18.7667C3.54133 19.9773 2.932 20.812 2.24 22.2667L4.39733 24.4253C5.87333 23.7253 6.696 23.1267 7.89733 23.6253C9.09733 24.1227 9.256 25.116 9.80667 26.6653H12.8587C13.408 25.1213 13.5653 24.1253 14.7747 23.6227C15.9667 23.1267 16.7773 23.7173 18.268 24.4253L20.4253 22.2667C19.7253 20.7907 19.1267 19.9693 19.624 18.7667C20.1227 17.568 21.1253 17.408 22.6667 16.86ZM11.3333 19.112C9.248 19.112 7.556 17.42 7.556 15.3333C7.556 13.2467 9.248 11.5547 11.3333 11.5547C13.4187 11.5547 15.1107 13.2467 15.1107 15.3333C15.1107 17.42 13.4187 19.112 11.3333 19.112ZM32 24.7187V23.2827C31.2667 23.0213 30.804 22.948 30.5693 22.3853C30.3347 21.82 30.6133 21.4373 30.9453 20.7373L29.9293 19.7213C29.236 20.052 28.848 20.332 28.2827 20.0987C27.7173 19.8653 27.644 19.3987 27.384 18.668H25.9493C25.6907 19.3947 25.616 19.864 25.0507 20.0987C24.4853 20.3333 24.1027 20.0547 23.404 19.7213L22.388 20.7373C22.7187 21.4347 22.9987 21.82 22.764 22.3853C22.5293 22.9507 22.06 23.024 21.3333 23.2827V24.7187C22.0587 24.976 22.5293 25.052 22.764 25.616C23 26.1853 22.7133 26.5787 22.388 27.264L23.404 28.28C24.0987 27.9493 24.4867 27.6693 25.0507 27.9027C25.616 28.136 25.6893 28.604 25.9493 29.3333H27.384C27.6427 28.6067 27.7173 28.1373 28.2853 27.9013C28.8467 27.668 29.228 27.9467 29.9293 28.28L30.9453 27.264C30.616 26.5693 30.3347 26.1813 30.5693 25.6173C30.804 25.0533 31.2747 24.976 32 24.7187ZM26.6667 25.7773C25.6853 25.7773 24.8893 24.9813 24.8893 24C24.8893 23.0187 25.6853 22.2227 26.6667 22.2227C27.648 22.2227 28.444 23.0187 28.444 24C28.444 24.9813 27.648 25.7773 26.6667 25.7773Z" fill="#17BB87"/>
</svg>
