<svg width="32" height="32" viewBox="0 0 32 32" fill="none" xmlns="http://www.w3.org/2000/svg">
<g clip-path="url(#clip0_35_44561)">
<path d="M21.2133 17.7867L24.728 12.4187L24.1227 11.8773L19.2253 16.0093C18.3253 15.8253 17.356 16.1 16.7 16.8333C15.7187 17.9307 15.8133 19.6173 16.912 20.5987C18.0107 21.58 19.696 21.4853 20.6773 20.3867C21.3333 19.6533 21.4973 18.66 21.2133 17.7867ZM16 3.592V0H21.3333V3.592C19.4147 3.268 17.8773 3.27467 16 3.592ZM27.8013 6.344L29.6773 4.468L31.5627 6.35333L29.8013 8.11467C29.1853 7.46933 28.516 6.87867 27.8013 6.344ZM2.66667 12H13.3333V14.6667H2.66667V12ZM0 17.3333H10.6667V20H0V17.3333ZM4 22.6667H13.3333V25.3333H4V22.6667ZM32 18.6667C32 26.0307 26.0307 32 18.6667 32C14.9467 32 11.6 30.46 9.18533 28H13.5587C15.076 28.8413 16.8107 29.3333 18.6667 29.3333C24.548 29.3333 29.3333 24.548 29.3333 18.6667C29.3333 12.7853 24.548 8 18.6667 8C16.8107 8 15.076 8.492 13.5587 9.33333H9.18533C11.6 6.87333 14.9467 5.33333 18.6667 5.33333C26.0307 5.33333 32 11.3027 32 18.6667Z" fill="#17BB87"/>
</g>
<defs>
<clipPath id="clip0_35_44561">
<rect width="32" height="32" fill="white"/>
</clipPath>
</defs>
</svg>
