<svg width="32" height="32" viewBox="0 0 32 32" fill="none" xmlns="http://www.w3.org/2000/svg">
<g clip-path="url(#clip0_35_44567)">
<path d="M16 4.00016C23.352 4.00016 29.3333 8.7895 29.3333 14.6762C29.3333 21.2322 22.4733 25.2908 16.12 25.2908C13.5373 25.2908 11.6093 24.7615 10.2613 24.4322C8.928 25.2495 8.13467 25.8148 4.56533 26.8588C5.27867 25.0282 5.52933 23.1948 5.368 21.1722C4.25067 19.8388 2.668 17.9722 2.668 14.6762C2.66667 8.7895 8.648 4.00016 16 4.00016ZM16 1.3335C7.54933 1.3335 0 6.96816 0 14.6762C0 17.4095 0.984 20.0935 2.72933 22.1762C2.80267 24.6162 1.36533 28.1175 0.072 30.6668C3.54133 30.0402 8.47333 28.6562 10.7093 27.2855C12.6 27.7455 14.4093 27.9562 16.1213 27.9562C25.5667 27.9562 32.0013 21.5068 32.0013 14.6748C32 6.92683 24.3987 1.3335 16 1.3335Z" fill="#17BB87"/>
<path d="M26 18.9993H23.9898L23.2172 16.812H19.6973L18.9197 18.9993H16.9723L20.5399 9.52102H22.4201L26 18.9993ZM22.6981 15.3035L21.467 11.7287L20.2309 15.3035H22.6981ZM13.3468 13.4672C13.4378 13.1128 13.4919 12.846 13.5425 12.5835L11.9547 12.2715C11.9287 12.4064 11.881 12.6601 11.7958 13.0006C11.2601 12.9211 10.6897 12.9116 10.112 12.9707C10.1257 12.5791 10.1496 12.1956 10.1828 11.8267H11.9561V10.308H10.3958C10.4723 9.92085 10.5388 9.689 10.6037 9.47027L9.05352 9C8.93943 9.38351 8.84412 9.75972 8.74881 10.308H6.97909V11.8267H8.55603C8.51415 12.3174 8.48888 12.8263 8.48166 13.3411C6.73937 13.987 6 15.2185 6 16.3355C6 17.6544 7.03035 18.8137 8.66 18.6642C10.6832 18.4783 12.0341 16.9355 12.8262 15.0377C13.645 15.5145 13.9872 16.3158 13.6789 17.058C13.393 17.7441 12.5518 18.3981 10.946 18.3646V19.9992C12.7287 20.0269 14.4826 19.3437 15.1699 17.6909C15.8414 16.0766 15.0746 14.3115 13.3468 13.4672ZM11.2586 14.5834C11.0066 15.1478 10.6745 15.7084 10.2514 16.1503C10.1864 15.68 10.1424 15.1645 10.1185 14.6141C10.5034 14.563 10.8926 14.5535 11.2586 14.5834ZM8.52354 15.1113C8.5683 15.8018 8.64556 16.4368 8.75242 17.0041C7.31123 17.2702 7.25346 15.8353 8.52354 15.1113Z" fill="#17BB87"/>
</g>
<defs>
<clipPath id="clip0_35_44567">
<rect width="32" height="32" fill="white"/>
</clipPath>
</defs>
</svg>
