<svg width="32" height="32" viewBox="0 0 32 32" fill="none" xmlns="http://www.w3.org/2000/svg">
<g clip-path="url(#clip0_35_44587)">
<path d="M32 24.6456V22.3564C30.83 21.9394 30.093 21.8234 29.72 20.9253C29.347 20.0253 29.79 19.4133 30.32 18.3002L28.702 16.6811C27.597 17.2061 26.979 17.6552 26.076 17.2811C25.176 16.9071 25.059 16.1641 24.645 15H22.355C21.943 16.1581 21.825 16.9071 20.924 17.2801C20.024 17.6542 19.413 17.2101 18.298 16.6801L16.681 18.2992C17.208 19.4093 17.654 20.0233 17.281 20.9243C16.906 21.8254 16.158 21.9434 15 22.3554V24.6446C16.155 25.0566 16.907 25.1756 17.28 26.0757C17.656 26.9837 17.199 27.6097 16.68 28.7008L18.298 30.3199C19.405 29.7949 20.022 29.3458 20.923 29.7199C21.823 30.0929 21.942 30.8379 22.355 32H24.644C25.056 30.8419 25.174 30.0949 26.081 29.7179C26.975 29.3458 27.583 29.7889 28.701 30.3199L30.319 28.7008C29.794 27.5937 29.345 26.9777 29.718 26.0757C30.092 25.1766 30.844 25.0566 32 24.6456ZM23.5 26.3347C21.936 26.3347 20.667 25.0656 20.667 23.5005C20.667 21.9354 21.936 20.6663 23.5 20.6663C25.064 20.6663 26.333 21.9354 26.333 23.5005C26.333 25.0656 25.064 26.3347 23.5 26.3347Z" fill="#17BB87"/>
<path d="M8.5 12.5H3V24.5176H13V26.0547L14 27H0.5V10H8.5V12.5Z" fill="#17BB87"/>
<path d="M19 7H14V19H11V7H6L12.5 0L19 7Z" fill="#17BB87"/>
<path d="M25 13H22.5V12.5H16.5V10.0176H25V13Z" fill="#17BB87"/>
</g>
<defs>
<clipPath id="clip0_35_44587">
<rect width="32" height="32" fill="white"/>
</clipPath>
</defs>
</svg>
