<svg width="32" height="32" viewBox="0 0 32 32" fill="none" xmlns="http://www.w3.org/2000/svg">
<path d="M13.5 26V18.5L19.75 22.25L13.5 26ZM31 6.46875L30.99 6.41625L29.73 1L3.26875 6.245C1.95125 6.50625 1 7.6625 1 9.00375V27.25C1 29.3212 2.67875 31 4.75 31H27.25C29.32 31 31 29.3212 31 27.25V9.75H15.0825L31 6.46875ZM26.1375 3.19625L29.1325 5.20125L25.39 5.945L22.3925 3.93875L26.1375 3.19625ZM18.7663 4.6575L21.765 6.665L18.0238 7.40875L15.0212 5.4L18.7663 4.6575ZM11.385 6.12125L14.3888 8.13125L10.6475 8.875L7.64 6.8625L11.385 6.12125ZM14.5575 11L12.0087 13.5H8.19125L10.74 11H14.5575ZM25.78 11H29.5975L27.05 13.5H23.2313L25.78 11ZM18.265 11H22.0812L19.5325 13.5H15.7162L18.265 11ZM28.5 16V26.9375C28.5 27.8 27.8 28.5 26.9375 28.5H5.0625C4.2 28.5 3.5 27.8 3.5 26.9375V16H28.5Z" fill="#17BB87"/>
</svg>
