<svg width="32" height="33" viewBox="0 0 32 33" fill="none" xmlns="http://www.w3.org/2000/svg">
<g clip-path="url(#clip0_35_29017)">
<path d="M16 3.16667C23.352 3.16667 29.3333 9.148 29.3333 16.5C29.3333 23.852 23.352 29.8333 16 29.8333C8.648 29.8333 2.66667 23.852 2.66667 16.5C2.66667 9.148 8.648 3.16667 16 3.16667ZM16 0.5C7.164 0.5 0 7.664 0 16.5C0 25.336 7.164 32.5 16 32.5C24.836 32.5 32 25.336 32 16.5C32 7.664 24.836 0.5 16 0.5ZM12 23.1667V9.83333L24 16.6947L12 23.1667Z" fill="#17BB87"/>
</g>
<defs>
<clipPath id="clip0_35_29017">
<rect width="32" height="32" fill="white" transform="translate(0 0.5)"/>
</clipPath>
</defs>
</svg>
