<svg width="32" height="32" viewBox="0 0 32 32" fill="none" xmlns="http://www.w3.org/2000/svg">
<path d="M6.66536 26.6667V29.3333H3.9987V26.6667H6.66536ZM9.33203 24H1.33203V32H9.33203V24ZM17.332 22.6667V29.3333H14.6654V22.6667H17.332ZM19.9987 20H11.9987V32H19.9987V20ZM27.9987 17.3333V29.3333H25.332V17.3333H27.9987ZM30.6654 14.6667H22.6654V32H30.6654V14.6667ZM30.6654 0L22.6654 1.628L24.9534 3.90533L15.82 12.8827L11.8187 8.88L1.36403 19.276L3.24403 21.1667L11.8134 12.6467L15.8014 16.6373L26.8414 5.788L29.064 8.00133L30.6654 0Z" fill="#17BB87"/>
</svg>
