<svg width="32" height="32" viewBox="0 0 32 32" fill="none" xmlns="http://www.w3.org/2000/svg">
<path fill-rule="evenodd" clip-rule="evenodd" d="M29.3346 0V19.1813C29.3346 22.3693 20.4706 32 16.2533 32H2.66797V0H29.3346ZM15.1506 29.3333C20.692 29.3333 18.668 21.3333 18.668 21.3333C18.668 21.3333 26.668 23.5333 26.668 18.0573V2.66667H5.33464V29.3333H15.1506ZM16.0013 24V25.3333H9.33463V24H16.0013ZM9.33463 21.3333H16.0013V22.6667H9.33463V21.3333ZM9.33463 18.6667H22.668V20H9.33463V18.6667ZM9.33463 16H22.668V17.3333H9.33463V16ZM14.256 11.768L11.516 11.7693L10.996 13.332L9.33463 13.3333L12.152 5.748L13.6 5.74667L16.444 13.328L14.7826 13.3293L14.256 11.768ZM20.0866 9.08133L21.9666 9.08L21.968 10.4387L20.088 10.44L20.0893 12.5653L18.6573 12.5667L18.656 10.4413L16.7706 10.4427L16.7693 9.084L18.6546 9.08267L18.6533 7.04533H20.0853L20.0866 9.08133ZM11.9373 10.504L13.8333 10.5027L12.8773 7.664L11.9373 10.504Z" fill="#17BB87"/>
</svg>
