<svg width="32" height="32" viewBox="0 0 32 32" fill="none" xmlns="http://www.w3.org/2000/svg">
<path d="M32 30.6668H28.288L26.8613 26.6668H20.3613L18.9253 30.6668H15.3293L21.9173 13.3335H25.3893L32 30.6668ZM25.9027 23.9082L23.6293 17.3708L21.3467 23.9082H25.9027ZM13.5667 9.50283C13.7347 8.85483 13.8347 8.36683 13.928 7.88683L10.996 7.31616C10.948 7.56283 10.86 8.02683 10.7027 8.6495C9.71333 8.50416 8.66 8.48683 7.59333 8.59483C7.61867 7.87883 7.66267 7.1775 7.724 6.50283H10.9987V3.7255H8.11733C8.25867 3.0175 8.38133 2.5935 8.50133 2.1935L5.63867 1.3335C5.428 2.03483 5.252 2.72283 5.076 3.7255H1.808V6.50283H4.72C4.64267 7.40016 4.596 8.33083 4.58267 9.27216C1.36533 10.4535 0 12.7055 0 14.7482C0 17.1602 1.90267 19.2802 4.912 19.0068C8.648 18.6668 11.1427 15.8455 12.6053 12.3748C14.1173 13.2468 14.7493 14.7122 14.18 16.0695C13.652 17.3242 12.0987 18.5202 9.13333 18.4588V21.4482C12.4253 21.4988 15.664 20.2495 16.9333 17.2268C18.1733 14.2748 16.7573 11.0468 13.5667 9.50283ZM9.71067 11.5442C9.24533 12.5762 8.632 13.6015 7.85067 14.4095C7.73067 13.5495 7.64933 12.6068 7.60533 11.6002C8.316 11.5068 9.03467 11.4895 9.71067 11.5442ZM4.66 12.5095C4.74267 13.7722 4.88533 14.9335 5.08267 15.9708C2.42133 16.4575 2.31467 13.8335 4.66 12.5095Z" fill="#17BB87"/>
</svg>
