<svg width="32" height="33" viewBox="0 0 32 33" fill="none" xmlns="http://www.w3.org/2000/svg">
<path d="M10.946 9.41911C11.6682 5.47441 15.3805 1.56069 20.9995 1.99959C26.6185 2.43848 34.0881 9.94492 25.9416 20.3792C24.4385 22.3044 24.2034 24.6557 22.9161 28.3394C21.0466 33.689 14.3677 32.3734 12.8668 27.5704M24.7886 10.1411C24.1897 8.57082 22.1576 5.63878 18.8198 6.47318C14.6476 7.51618 14.0592 12.4403 16.6482 14.9215C17.248 14.7177 18.3623 14.346 19.0072 15.397C19.5208 16.2339 19.0217 17.2688 17.6188 18.0599M15.3315 11.296C16.8259 10.5329 20.5413 9.4654 22.4448 12.3785C24.4693 15.4768 23.0885 18.5676 21.858 19.524C20.7699 20.3697 19.1252 20.3117 18.4553 23.1741C17.6188 26.7489 13.2246 25.1617 14.8702 21.8392M10.3109 15.2462C9.41192 15.8584 8.82163 16.8902 8.82163 18.0599C8.82163 19.2295 9.41192 20.2613 10.3109 20.8735M7.59895 12.9217C6.16644 14.1324 5.25676 15.9424 5.25676 17.9649C5.25676 19.9873 6.16644 21.7973 7.59895 23.008M4.92625 10.6159C2.90747 12.4203 1.63672 15.0442 1.63672 17.9649C1.63672 20.7891 2.82492 23.3359 4.72871 25.1324" stroke="#17BB87" stroke-width="2.4"/>
</svg>
