<svg width="40" height="40" viewBox="0 0 40 40" fill="none" xmlns="http://www.w3.org/2000/svg">
<path d="M38.3337 20C38.3337 21.7367 38.077 23.4083 37.6253 25H34.1237C34.682 23.4333 35.0003 21.755 35.0003 20C35.0003 11.73 28.272 5 20.0003 5C17.157 5 14.507 5.80667 12.2437 7.19L15.3387 11.6667H3.68199L7.26866 0L10.352 4.455C13.157 2.70667 16.4487 1.66667 20.0003 1.66667C30.1237 1.66667 38.3337 9.875 38.3337 20ZM27.7437 32.82C25.482 34.1967 22.837 35 20.0003 35C11.7287 35 5.00033 28.27 5.00033 20C5.00033 18.245 5.31866 16.5667 5.87533 15H2.37533C1.92366 16.5917 1.66699 18.2633 1.66699 20C1.66699 30.125 9.87533 38.3333 20.0003 38.3333C23.5453 38.3333 26.832 37.2983 29.6337 35.555L32.722 40L36.3087 28.3517H24.652L27.7437 32.82ZM28.3337 15.6817L25.9653 13.3333L17.457 21.9717L13.9937 18.3333L11.667 20.725L17.5003 26.6667L28.3337 15.6817Z" fill="#1D252B"/>
</svg>
