<svg width="40" height="40" viewBox="0 0 40 40" fill="none" xmlns="http://www.w3.org/2000/svg">
<path d="M38.3332 20C38.3332 21.7367 38.0765 23.4083 37.6248 25H34.1232C34.6815 23.4333 34.9998 21.755 34.9998 20C34.9998 11.73 28.2715 5 19.9998 5C17.1565 5 14.5065 5.80667 12.2432 7.19L15.3382 11.6667H3.6815L7.26817 0L10.3515 4.455C13.1565 2.70667 16.4482 1.66667 19.9998 1.66667C30.1232 1.66667 38.3332 9.875 38.3332 20ZM27.7432 32.82C25.4815 34.1967 22.8365 35 19.9998 35C11.7282 35 4.99984 28.27 4.99984 20C4.99984 18.245 5.31817 16.5667 5.87484 15H2.37484C1.92317 16.5917 1.6665 18.2633 1.6665 20C1.6665 30.125 9.87484 38.3333 19.9998 38.3333C23.5448 38.3333 26.8315 37.2983 29.6332 35.555L32.7215 40L36.3082 28.3517H24.6515L27.7432 32.82ZM28.3332 15.6817L25.9648 13.3333L17.4565 21.9717L13.9932 18.3333L11.6665 20.725L17.4998 26.6667L28.3332 15.6817Z" fill="white"/>
</svg>
