<svg width="48" height="36" viewBox="0 0 48 36" fill="none" xmlns="http://www.w3.org/2000/svg">
<g clip-path="url(#clip0_35_35244)">
<path d="M51.002 0H-3V36.0013H51.002V0Z" fill="#F7B718"/>
<path d="M14.101 3.00195H6.67578V33.003H14.101V3.00195Z" fill="#DF7500"/>
<path d="M6.67527 3.00195H-0.75V33.003H6.67527V3.00195Z" fill="#005F56"/>
<path d="M48.9768 3.00195H16.3506V33.003H48.9768V3.00195Z" fill="#941E32"/>
<path fill-rule="evenodd" clip-rule="evenodd" d="M45.8776 29.0762C45.8776 29.0762 46.1836 29.6991 46.5215 29.9529C47.0223 30.3289 48.0491 30.3017 48.4849 30.7404C49.007 31.2577 48.4443 31.9412 48.449 32.0004L48.4777 32.3614C48.4777 32.3614 48.1256 32.3656 47.9773 32.3887C47.7544 32.4235 47.6674 32.6049 47.2524 32.578C46.2088 32.5102 46.2509 31.57 46.1919 30.7666C46.1395 30.4607 46.0182 30.0618 45.9493 29.7559C45.8902 29.4937 45.8776 29.0762 45.8776 29.0762L45.8776 29.0762Z" fill="#F7B718" stroke="black" stroke-width="0.0956615"/>
<path fill-rule="evenodd" clip-rule="evenodd" d="M19.4524 6.92962C19.4524 6.92962 19.1465 6.30674 18.8086 6.05299C18.3078 5.67697 17.281 5.70414 16.8452 5.26546C16.323 4.74816 16.8857 4.0647 16.881 4.00541L16.8524 3.64447C16.8524 3.64447 17.2045 3.64023 17.3528 3.61711C17.5757 3.58235 17.6626 3.40096 18.0777 3.4279C19.1213 3.49564 19.0792 4.43582 19.1382 5.23925C19.1906 5.54518 19.3119 5.94409 19.3808 6.24992C19.4399 6.51218 19.4525 6.92969 19.4525 6.92969L19.4524 6.92962Z" fill="#F7B718" stroke="black" stroke-width="0.0956615"/>
<path fill-rule="evenodd" clip-rule="evenodd" d="M45.8757 6.92962C45.8757 6.92962 46.1816 6.30674 46.5196 6.05299C47.0203 5.67697 48.0472 5.70414 48.4829 5.26546C49.0051 4.74816 48.4424 4.0647 48.4471 4.00541L48.4757 3.64447C48.4757 3.64447 48.1236 3.64023 47.9754 3.61711C47.7524 3.58235 47.6655 3.40096 47.2504 3.4279C46.2069 3.49564 46.2489 4.43582 46.1899 5.23925C46.1375 5.54518 46.0163 5.94409 45.9473 6.24992C45.8883 6.51218 45.8756 6.92969 45.8756 6.92969L45.8757 6.92962Z" fill="#F7B718" stroke="black" stroke-width="0.0956615"/>
<path fill-rule="evenodd" clip-rule="evenodd" d="M19.4524 29.0762C19.4524 29.0762 19.1465 29.6991 18.8086 29.9529C18.3078 30.3289 17.281 30.3017 16.8452 30.7404C16.323 31.2577 16.8857 31.9412 16.881 32.0004L16.8524 32.3614C16.8524 32.3614 17.2045 32.3656 17.3528 32.3887C17.5757 32.4235 17.6626 32.6049 18.0777 32.578C19.1213 32.5102 19.0792 31.57 19.1382 30.7666C19.1906 30.4607 19.3119 30.0618 19.3808 29.7559C19.4399 29.4937 19.4525 29.0762 19.4525 29.0762L19.4524 29.0762Z" fill="#F7B718" stroke="black" stroke-width="0.0956615"/>
<path d="M27.6696 26.0822L27.8657 25.9689L27.9497 26.0824C28.0615 26.2335 28.3709 26.2318 28.5762 26.0789L28.7331 25.9619L28.8646 26.0789C29.0374 26.2326 29.3601 26.2328 29.5662 26.0794C29.7105 25.9719 29.7306 25.9698 29.826 26.0515C29.8828 26.1003 30.0496 26.1558 30.1966 26.1749C30.4614 26.2092 30.4654 26.2073 30.6203 25.975C30.75 25.7803 30.7703 25.7016 30.7393 25.5128C30.7188 25.3877 30.6967 25.1863 30.6902 25.0653C30.6784 24.8461 30.6797 24.8448 30.9989 24.7336C31.1752 24.6723 31.3792 24.5899 31.4523 24.5507C31.5798 24.4823 31.9313 24.0692 31.9313 23.9878C31.9313 23.9662 31.794 23.9332 31.6262 23.9143C30.9587 23.8395 30.8457 23.481 31.2796 22.8153C31.9872 21.7295 32.4143 20.6721 32.4171 19.9985C32.4184 19.6974 32.4356 19.5963 32.4742 19.6618C32.6324 19.9294 32.3491 21.0513 31.92 21.857L31.7473 22.1814L31.9121 22.1434C32.0028 22.1226 32.5359 21.8976 33.0967 21.6436C34.632 20.9483 35.1593 20.812 36.1528 20.8539C36.9852 20.8889 37.3397 21.0515 37.9274 21.668C38.2387 21.9945 38.5386 22.2282 39.0873 22.5716C40.2562 23.3033 40.3049 23.3667 40.3605 24.2271C40.4169 25.099 40.3888 25.1462 39.7294 25.2919C39.1659 25.4164 38.8125 25.6792 38.7177 26.0442C38.6671 26.2391 38.7736 26.2447 39.0578 26.0621L39.266 25.9283L39.3586 26.0621C39.4804 26.2381 39.7391 26.2388 39.954 26.0637L40.1163 25.9315L40.2822 26.0637C40.54 26.2691 40.8828 26.2193 40.9796 25.9624C40.9982 25.913 41.0478 25.9288 41.1484 26.0161C41.3367 26.1798 41.8195 26.25 41.8716 26.1213C41.8915 26.0722 41.8537 25.951 41.7876 25.8518C41.5067 25.4306 41.4189 25.2298 41.4152 25.0005C41.4101 24.6816 41.5053 24.5278 41.868 24.2684C42.3086 23.9534 42.4447 23.5469 42.1097 23.5469C41.9028 23.5469 41.6942 23.3641 41.5612 23.066C41.2909 22.4603 41.3438 21.7812 41.7496 20.6514C42.1618 19.5038 42.2075 19.2923 42.2092 18.5248C42.2105 17.9042 42.1949 17.797 42.0537 17.4567C41.9674 17.2487 41.7922 16.939 41.6645 16.7685L41.4322 16.4584L41.7304 16.2113C42.641 15.457 42.4547 14.2223 41.3586 13.7466C41.0232 13.6011 40.9394 13.5882 40.3518 13.5922C39.9992 13.5946 39.4617 13.6409 39.1572 13.6953C38.8468 13.7507 38.3212 13.7952 37.9608 13.7967C37.3882 13.799 37.291 13.7848 37.0703 13.6674C36.8402 13.5449 36.8008 13.4868 36.7557 13.2037C36.7465 13.1455 36.7058 13.0874 36.6653 13.0747C36.587 13.05 36.2256 13.3637 36.1722 13.5026C36.1459 13.5712 36.1243 13.5664 36.0471 13.475C35.9957 13.4143 35.924 13.2748 35.8878 13.165C35.7966 12.8889 35.9086 12.682 36.2331 12.5269L36.4849 12.4065L36.3364 12.3144C36.03 12.1243 35.5091 12.2543 35.3207 12.568C35.2674 12.6567 35.2092 12.7294 35.1915 12.7296C35.1737 12.7298 35.0724 12.6452 34.9664 12.5416C34.5708 12.155 34.7068 11.5831 35.236 11.4086C35.5181 11.3155 35.7678 11.3865 35.8197 11.5746C35.899 11.8619 36.1456 11.4843 36.1014 11.1434C36.072 10.9167 36.0764 10.9088 36.2332 10.9088C36.4514 10.9088 36.9157 11.1951 37.0593 11.4182C37.2261 11.6772 37.214 12.0853 37.0304 12.3893L36.8863 12.628L37.0748 12.5903C37.3513 12.5349 37.6199 12.3632 37.7557 12.155C37.8994 11.9349 37.9148 11.5063 37.7874 11.275C37.664 11.0508 37.6781 11.0152 37.8606 11.091C38.171 11.2198 38.3369 11.3619 38.4614 11.6054C38.5735 11.8247 38.5797 11.8792 38.519 12.1074C38.4816 12.2482 38.3983 12.4335 38.3339 12.5191C38.2337 12.6524 38.2303 12.6748 38.3101 12.6748C38.4589 12.6748 38.7694 12.534 38.8797 12.4166C38.9355 12.3573 39.0167 12.2112 39.0603 12.092L39.1395 11.8753L39.2306 12.0405C39.3593 12.2741 39.6096 12.4843 39.9148 12.6151C40.243 12.7558 40.3796 12.7638 40.208 12.6321C40.0923 12.5434 39.879 11.9176 39.9436 11.8564C39.9817 11.8204 40.4273 12.1632 40.9361 12.62C41.4174 13.052 41.7198 13.1935 42.1618 13.1935C42.7265 13.1935 43.0552 12.702 42.8015 12.2372C42.6535 11.9662 42.3239 11.9286 42.1311 12.1607C42.0425 12.2674 42.0182 12.3523 42.0441 12.4642C42.0759 12.6013 42.0635 12.6196 41.9386 12.6196C41.7745 12.6196 41.4509 12.4096 40.8763 11.9301C40.0001 11.1989 38.9354 10.5792 38.1666 10.3528C37.6732 10.2075 36.6193 10.1508 36.1178 10.2426C35.575 10.3419 34.9329 10.6525 34.5832 10.985C33.9634 11.5743 33.9536 12.3584 34.557 13.0724L34.7299 13.277L34.6128 13.4588C34.4426 13.7232 34.4572 14.0791 34.649 14.3412C34.7335 14.4567 34.8187 14.5511 34.8384 14.551C34.8581 14.551 34.8796 14.4767 34.8863 14.3861C34.9033 14.1567 35.0017 14.003 35.1707 13.9422C35.3228 13.8874 35.4212 13.9133 36.118 14.1914C36.851 14.484 38.0565 14.5041 39.3383 14.2451C39.9668 14.1182 40.7078 14.1256 41.0338 14.2622C41.6314 14.5126 41.7698 15.1639 41.3306 15.6583C41.1404 15.8723 40.957 15.9595 40.3413 16.1285C39.8728 16.2571 39.7618 16.2656 38.6968 16.255C37.787 16.2459 37.46 16.2633 37.0886 16.3409C36.6854 16.4251 36.4374 16.4336 35.253 16.4037L33.8836 16.3692L34.0355 16.495C34.119 16.5641 34.237 16.6492 34.2977 16.6841C34.401 16.7433 34.3975 16.7513 34.244 16.8082C34.1538 16.8417 33.9535 16.8691 33.799 16.8691H33.5181L33.4802 17.1078C33.4594 17.2391 33.461 17.3925 33.4837 17.4485C33.5172 17.5312 33.5048 17.5431 33.4176 17.5114C33.3585 17.49 33.1939 17.4477 33.0519 17.4176C32.9098 17.3874 32.7186 17.326 32.627 17.2811C32.4729 17.2057 32.4557 17.2077 32.399 17.3082C32.3483 17.3979 31.8724 17.7521 31.8025 17.7521C31.7912 17.7521 31.7767 17.6838 31.7702 17.6003C31.7637 17.5168 31.695 17.2995 31.6176 17.1174C31.5402 16.9353 31.4594 16.7366 31.438 16.6759C31.4057 16.5843 31.3911 16.5796 31.3522 16.6483C31.3265 16.6938 31.2888 16.818 31.2686 16.9242C31.2484 17.0305 31.1766 17.2031 31.1092 17.3078L30.9866 17.4981L30.9085 17.3354C30.8245 17.1606 30.6852 16.9794 30.6347 16.9794C30.6177 16.9794 30.5887 17.0353 30.5703 17.1036C30.5318 17.2462 30.2014 17.6417 30.1207 17.6417C30.091 17.6417 30.0667 17.5299 30.0667 17.3933C30.0667 17.2567 30.0405 17.145 30.0084 17.145C29.9764 17.145 29.9501 17.1803 29.9501 17.2235C29.9501 17.3286 29.6679 17.6417 29.5733 17.6417C29.532 17.6417 29.4656 17.6789 29.4257 17.7245C29.3216 17.8432 29.2365 17.8265 29.2803 17.696C29.3008 17.6348 29.2874 17.492 29.2506 17.3787C29.2138 17.2653 29.1747 17.1447 29.1637 17.1106C29.1498 17.0676 29.0487 17.079 28.8346 17.1477C28.4888 17.2585 28.3729 17.2389 28.5507 17.0996C28.6158 17.0487 28.7147 16.8723 28.7705 16.7076C28.8264 16.5429 28.9088 16.3968 28.9537 16.3829C29.0165 16.3634 29.0132 16.3875 28.9391 16.4876C28.8862 16.5592 28.8428 16.6556 28.8426 16.702C28.8426 16.7483 28.8026 16.8583 28.7541 16.9462C28.7057 17.0342 28.6752 17.1149 28.6864 17.1256C28.6977 17.1362 28.8293 17.0862 28.9789 17.0145L29.2508 16.8841L29.252 17.0007C29.2526 17.0649 29.2854 17.2342 29.3248 17.3769L29.3965 17.6364L29.5817 17.5513C29.7709 17.4644 29.9501 17.1543 29.9501 16.9139C29.9501 16.7951 30.0182 16.8133 30.0461 16.9396C30.0542 16.9767 30.097 17.1158 30.141 17.2487L30.2211 17.4905L30.3478 17.3379C30.4176 17.2539 30.505 17.0893 30.5421 16.9719C30.6065 16.7683 30.7077 16.6808 30.7077 16.8286C30.7077 16.9352 30.9985 17.3174 31.0546 17.2846C31.0817 17.2687 31.1357 17.1252 31.1746 16.9658C31.2554 16.6342 31.3858 16.4087 31.4687 16.4572C31.4999 16.4754 31.512 16.5108 31.4957 16.5359C31.4794 16.5609 31.5463 16.7765 31.6445 17.0149C31.7427 17.2534 31.8413 17.4935 31.8637 17.5485C31.8995 17.6368 31.932 17.624 32.1424 17.4381C32.2734 17.3224 32.3923 17.1929 32.4067 17.1503C32.4283 17.0859 32.4575 17.0883 32.58 17.1643C32.7513 17.2706 33.3273 17.4419 33.3718 17.3997C33.3884 17.384 33.4055 17.2327 33.4097 17.0636L33.4174 16.7562L33.583 16.7905C33.6741 16.8094 33.8656 16.8082 34.0086 16.7879L34.2687 16.751L34.0369 16.592C33.9095 16.5046 33.7806 16.3914 33.7506 16.3406C33.7186 16.2864 33.6051 16.2404 33.4766 16.2295C33.1295 16.2 32.5141 15.8549 32.5141 15.6896C32.5141 15.6586 32.5994 15.7114 32.7035 15.8068C32.9346 16.0186 33.2556 16.1516 33.536 16.1516H33.7458L33.616 15.979C33.5415 15.8798 33.4746 15.6917 33.4589 15.537C33.4339 15.2903 33.4078 15.2511 33.1503 15.0721C32.9956 14.9645 32.804 14.8033 32.7245 14.7138L32.5799 14.5511L32.5062 14.7443C32.4656 14.8505 32.4161 14.9375 32.396 14.9375C32.376 14.9375 32.298 14.8754 32.2228 14.7995C32.1475 14.7236 32.0708 14.6618 32.0524 14.6621C32.0339 14.6624 31.9672 14.7647 31.9042 14.8893L31.7895 15.1158L31.701 14.9852C31.6522 14.9134 31.5372 14.7864 31.4452 14.7029C31.3533 14.6194 31.3049 14.5511 31.3378 14.5511C31.3706 14.5511 31.4841 14.6381 31.5899 14.7444L31.7824 14.9376L31.8607 14.796C31.9072 14.712 31.9246 14.583 31.9035 14.4786C31.8728 14.3265 31.8772 14.3177 31.9355 14.4132C31.9726 14.4739 32.0851 14.5903 32.1857 14.6718L32.3684 14.8201L32.4946 14.589C32.6201 14.3591 32.621 14.3586 32.6781 14.496C32.7545 14.6796 33.3072 15.1327 33.7778 15.3974C33.8504 15.4382 33.8198 15.2979 33.6858 14.9753C33.6503 14.8898 33.6213 14.7358 33.6213 14.6329C33.6213 14.4804 33.5773 14.4125 33.3822 14.264C33.1005 14.0497 33.0094 13.8972 32.9564 13.5514C32.9349 13.4113 32.8856 13.2555 32.8468 13.2052C32.7893 13.1305 32.7798 13.1723 32.7952 13.4323C32.8056 13.6075 32.7828 13.8254 32.7446 13.9165L32.6751 14.0821L32.6213 13.9441C32.5918 13.8682 32.4611 13.7362 32.3309 13.6508C32.2007 13.5654 32.1094 13.4812 32.1279 13.4637C32.1464 13.4462 32.2803 13.524 32.4255 13.6367C32.6467 13.8083 32.6954 13.8269 32.726 13.7513C32.762 13.6625 32.726 13.276 32.6564 13.0059C32.6217 12.871 32.6248 12.8717 32.7911 13.0381C32.9138 13.1608 32.9817 13.3071 33.0343 13.5624C33.101 13.8867 33.1347 13.9407 33.4346 14.204C33.6147 14.3621 33.7714 14.4826 33.7829 14.4717C33.7943 14.4609 33.8171 14.0518 33.8334 13.5628C33.8647 12.6249 33.8293 12.4017 33.6034 12.112L33.4874 11.9631L33.6698 11.7663C33.9078 11.5096 34.0171 11.3038 34.0645 11.0231L34.103 10.7947L33.8972 10.9897C33.7286 11.1494 33.6481 11.1847 33.4528 11.1847C33.2594 11.1847 33.1839 11.1523 33.0536 11.0135C32.8973 10.8469 32.6203 10.6866 32.3539 10.6086C32.2555 10.5798 32.2228 10.5923 32.2228 10.6589C32.2228 10.7077 32.1684 10.8485 32.102 10.9718L31.9812 11.1961L31.7281 10.9459C31.5729 10.7925 31.3886 10.673 31.2516 10.637C30.9014 10.5449 30.8825 10.5541 30.8825 10.8149C30.8825 11.2106 30.7135 11.2844 30.4095 11.0214C30.1777 10.8208 29.9854 10.7773 29.5458 10.8256L29.2064 10.8629L29.2675 11.0161C29.3185 11.1442 29.307 11.1981 29.1977 11.3434C29.0204 11.5793 28.7898 11.6814 28.435 11.6814C28.2715 11.6814 28.067 11.7152 27.9805 11.7566C27.8939 11.7979 27.6789 11.8455 27.5026 11.8624C27.3263 11.8793 27.1384 11.9094 27.0851 11.9293C27.0016 11.9605 26.9924 11.9348 27.0193 11.7449C27.0605 11.4543 26.8575 11.2399 26.5411 11.2399C26.1306 11.2399 25.9413 11.6071 26.102 12.0914C26.133 12.1846 26.1734 12.3316 26.192 12.4181C26.2112 12.5078 26.3961 12.7458 26.6226 12.9724C26.8409 13.1908 27.0472 13.4181 27.0811 13.4775C27.1149 13.5368 27.2269 13.6321 27.3299 13.6892L27.5171 13.7929L27.4924 13.5926C27.4653 13.3724 27.5133 13.3378 27.6304 13.4932C27.6723 13.5488 27.7787 13.6385 27.8668 13.6927C28.0057 13.7781 28.0271 13.7798 28.0271 13.7057C28.0271 13.6587 28.0554 13.5503 28.09 13.4648L28.1529 13.3094L28.262 13.5208C28.322 13.6371 28.5172 13.9013 28.6958 14.108C29.0422 14.509 29.2533 14.9572 29.1443 15.0604C29.1002 15.1023 28.9807 15.099 28.7331 15.0493C28.5412 15.0107 28.3038 14.9903 28.2056 15.004C28.0051 15.0318 27.9893 15.006 28.1126 14.8515C28.2428 14.6885 28.2221 14.6616 27.9663 14.6616C27.6704 14.6616 26.9357 14.5197 26.6537 14.4081C26.3795 14.2996 26.3162 14.3267 26.2355 14.5867C26.1992 14.7038 26.1327 14.9159 26.0877 15.0581L26.006 15.3166L26.3026 15.288C26.4658 15.2723 26.6757 15.2366 26.769 15.2086C26.8624 15.1806 26.9472 15.1658 26.9575 15.1756C26.9679 15.1854 26.9263 15.2864 26.8651 15.4001L26.7538 15.6067L26.9388 15.569C27.0406 15.5483 27.1936 15.4975 27.279 15.4562C27.4275 15.3844 27.4394 15.3896 27.5565 15.5776C27.7005 15.8088 27.8158 15.7993 27.8413 15.5541C27.8678 15.3007 27.9511 15.3382 28.108 15.6741C28.2588 15.997 28.4157 16.1111 28.4459 15.9196C28.4559 15.856 28.5371 15.7525 28.6264 15.6896C28.8071 15.5624 28.9432 15.6006 29.0212 15.8004C29.102 16.0072 28.9218 16.2203 28.3978 16.538C27.348 17.1743 26.7378 18.0446 26.5636 19.1538C26.4065 20.1543 26.8972 21.1882 27.8818 21.9308C28.3529 22.2861 29.1013 22.6612 29.0537 22.5181C28.8517 21.9103 28.8584 20.7507 29.065 20.555C29.096 20.5257 29.0853 20.6467 29.0413 20.8239C28.8773 21.4842 28.9485 22.0103 29.369 23.2433C29.7493 24.3585 29.6966 24.8352 29.1584 25.1503C28.9855 25.2515 28.8742 25.2681 28.4095 25.2625C27.9051 25.2564 27.8502 25.2665 27.6882 25.3955C27.5313 25.5206 27.3277 25.9313 27.3277 26.123C27.3277 26.2268 27.443 26.2131 27.6696 26.0823L27.6696 26.0822ZM31.7565 16.4104C31.7565 16.3294 31.5187 16.11 31.2778 15.9686C31.0886 15.8576 31.0573 15.8542 31.0569 15.9448C31.0562 16.0823 30.934 16.4277 30.886 16.4277C30.8589 16.4277 30.8189 16.3602 30.797 16.2777C30.7751 16.1952 30.6834 16.0326 30.5932 15.9164L30.4291 15.7051L30.3013 15.9008C30.1822 16.0834 29.9759 16.2621 29.8843 16.2621C29.8625 16.2621 29.8582 16.166 29.8748 16.0485C29.8929 15.9209 29.879 15.8196 29.8401 15.7969C29.8044 15.776 29.7752 15.7833 29.7752 15.8131C29.7752 15.8819 29.4887 16.2069 29.4281 16.2069C29.4031 16.2069 29.3681 16.1138 29.3503 16C29.3326 15.8861 29.3024 15.7061 29.2832 15.5998C29.2641 15.4936 29.3049 15.5657 29.3739 15.7599L29.4994 16.1132L29.637 15.8979C29.7127 15.7795 29.7747 15.6501 29.7749 15.6104C29.7749 15.5707 29.8007 15.553 29.8318 15.5713C29.8629 15.5895 29.9062 15.7318 29.928 15.8876L29.9677 16.1707L30.1191 16.0047C30.2024 15.9134 30.3 15.7912 30.336 15.7331C30.4002 15.6294 30.4038 15.6295 30.5316 15.7378C30.6031 15.7985 30.7132 15.9437 30.7761 16.0605C30.839 16.1773 30.899 16.2642 30.9092 16.2537C30.9195 16.2431 30.9426 16.1228 30.9605 15.9862C30.9784 15.8496 30.9944 15.7328 30.996 15.7266C31.0049 15.6927 31.4521 15.9834 31.6175 16.1306C31.7239 16.2252 31.8249 16.2893 31.842 16.2731C31.8591 16.257 31.8731 16.1174 31.8731 15.963C31.8731 15.7237 31.8477 15.6596 31.7014 15.5288C31.5331 15.3784 31.5284 15.3776 31.4662 15.4876C31.3855 15.6304 31.2903 15.6324 31.2903 15.4914C31.2903 15.3885 30.9724 14.9928 30.8896 14.9928C30.8682 14.9928 30.8012 15.0797 30.7408 15.1859C30.6804 15.2922 30.6154 15.379 30.5964 15.3789C30.5149 15.3784 30.0666 14.8786 30.0668 14.7884C30.0668 14.7166 30.097 14.735 30.1756 14.8548C30.2353 14.9459 30.3546 15.0818 30.4407 15.1569C30.615 15.3089 30.6783 15.272 30.7456 14.979C30.7648 14.8955 30.7981 14.8272 30.8196 14.8272C30.8941 14.8272 31.2843 15.2417 31.3392 15.3791L31.3943 15.5171L31.4361 15.3653C31.4871 15.1797 31.5434 15.1728 31.6249 15.3421C31.6589 15.4129 31.827 15.56 31.9984 15.669L32.3101 15.8672L32.3727 15.6678C32.4071 15.5582 32.4527 15.4952 32.4739 15.5278C32.5057 15.5765 32.4247 15.9068 32.3636 15.9779C32.3544 15.9886 32.2534 15.9298 32.1391 15.8472L31.9313 15.6971L31.9305 15.9658C31.9299 16.1136 31.9139 16.2904 31.8946 16.3587C31.8568 16.4922 31.7565 16.5298 31.7565 16.4104ZM30.2024 14.2681C29.832 13.9588 29.7757 13.8881 29.7839 13.7415L29.7927 13.5855L29.8168 13.7361C29.8309 13.8241 29.9296 13.956 30.0539 14.0531L30.2669 14.2193L30.3977 14.0679C30.4697 13.9847 30.5295 13.8855 30.5307 13.8476C30.5337 13.7487 30.5514 13.757 30.8022 13.9746C31.0251 14.1679 31.0285 14.1688 31.0617 14.0436C31.0801 13.9737 31.0736 13.8422 31.0471 13.7514C30.9743 13.5016 30.9886 13.4639 31.0989 13.6146C31.1538 13.6896 31.2422 13.7957 31.2953 13.8503C31.3876 13.9454 31.3933 13.9442 31.4276 13.8227C31.4474 13.7529 31.4639 13.6252 31.4643 13.5388L31.4651 13.3819L31.6661 13.6096C31.8537 13.8223 31.871 13.8302 31.9283 13.7288C31.962 13.6691 31.99 13.5255 31.9905 13.4097C31.9911 13.2601 32.0069 13.2224 32.045 13.2793C32.1085 13.3745 32.0644 13.6335 31.947 13.8542L31.8628 14.0126L31.7523 13.8404C31.6109 13.6203 31.5638 13.6238 31.4731 13.8614C31.3873 14.0859 31.3316 14.103 31.2481 13.9304C31.194 13.8186 31.1837 13.8323 31.1453 14.0671L31.1027 14.3279L30.5916 13.9313L30.4767 14.0619C30.4135 14.1338 30.361 14.2236 30.3599 14.2615C30.3576 14.3437 30.2961 14.3463 30.2024 14.2681ZM33.4975 13.1162C33.3627 12.9948 33.2698 12.8789 33.2911 12.8587C33.3124 12.8385 33.3364 12.8327 33.3444 12.8458C33.3524 12.859 33.4626 12.9749 33.5893 13.1034C33.8811 13.3993 33.8211 13.4077 33.4975 13.1162ZM29.1083 12.6625C28.9856 12.4967 28.9941 12.3868 29.1434 12.2071C29.2513 12.0772 29.3006 12.0596 29.489 12.0835C29.6098 12.0988 29.8699 12.2056 30.0668 12.3208C30.2944 12.4538 30.5297 12.5428 30.7119 12.565C30.8698 12.5842 30.9989 12.5914 30.9989 12.5811C30.9989 12.5707 30.9333 12.4639 30.8532 12.3437C30.6629 12.0582 30.6694 12.0276 30.884 12.1986C31.1043 12.3742 31.3679 12.4255 31.9567 12.4076L32.2444 12.3989L32.0775 12.2339C31.8441 12.0032 31.9159 11.9825 32.1737 12.2062C32.4154 12.416 32.4003 12.4308 31.8915 12.4816C31.6752 12.5032 31.4427 12.4875 31.2494 12.4384C30.9603 12.3648 30.949 12.3659 31.0038 12.4629C31.0354 12.5187 31.0865 12.5644 31.1174 12.5644C31.1484 12.5644 31.1737 12.5928 31.1737 12.6274C31.1737 12.7338 30.5491 12.6402 30.2507 12.4891C29.5688 12.1439 29.483 12.114 29.3207 12.1651C29.2304 12.1936 29.14 12.2769 29.1089 12.3603C29.005 12.6388 29.3999 12.8552 29.5627 12.6091C29.6099 12.5377 29.5989 12.4889 29.5159 12.4021C29.4023 12.2832 29.413 12.2663 29.5664 12.322C29.6753 12.3616 29.6899 12.623 29.5886 12.719C29.4727 12.8288 29.2082 12.7977 29.1083 12.6625ZM31.7942 11.9747C31.709 11.894 31.7758 11.8742 32.1581 11.8671C32.631 11.8583 32.9182 11.7795 33.257 11.5656C33.5285 11.3942 33.6021 11.4279 33.3444 11.6056C33.1093 11.7677 32.7427 11.8924 32.3886 11.9305C32.2172 11.9489 32.0219 11.9745 31.9545 11.9873C31.8871 12.0001 31.815 11.9944 31.7942 11.9747ZM35.8561 26.0603L36.0676 25.9243L36.2112 26.0603C36.3993 26.2384 36.6196 26.2344 36.8005 26.0496C36.8794 25.969 36.9503 25.9131 36.958 25.9254C36.9656 25.9378 37.0008 25.9975 37.0362 26.0582C37.0809 26.1351 37.1728 26.1737 37.3387 26.1854C37.5385 26.1995 37.5922 26.1802 37.6716 26.0654L37.7663 25.9285L37.9746 26.0624C38.5447 26.4288 38.8485 26.0444 38.5937 25.2789C38.4641 24.8896 38.5354 24.6708 38.9529 24.1754C39.129 23.9665 39.2732 23.7435 39.2734 23.6799C39.2734 23.5784 39.2408 23.5648 39.0065 23.5695C38.7822 23.574 38.7166 23.5499 38.5986 23.4199C38.4066 23.2086 38.418 22.9665 38.6326 22.6979L38.8041 22.4834L38.4999 22.2769C38.3326 22.1634 38.0309 21.8947 37.8294 21.68C37.377 21.1976 36.9321 20.9688 36.3455 20.917L35.9522 20.8822L35.9528 21.1799C35.9535 21.5632 36.1334 21.9318 36.6244 22.5564C37.1826 23.2665 37.2216 23.3764 37.2442 24.3045L37.2633 25.0895L37.1018 25.2427C36.9558 25.3812 36.89 25.3989 36.419 25.426C35.9706 25.4519 35.8764 25.475 35.7448 25.5916C35.57 25.7464 35.5178 25.8306 35.4638 26.0444C35.4324 26.169 35.4451 26.1962 35.535 26.1962C35.5953 26.1962 35.7397 26.135 35.8561 26.0603ZM23.8569 24.0316C23.9067 23.9641 23.9476 23.8552 23.9476 23.7895C23.9476 23.6903 23.9919 23.6638 24.21 23.6328L24.4724 23.5955L24.2974 23.4561C24.0895 23.2904 24.0702 23.1609 24.2535 23.1606C24.436 23.1606 24.7451 22.9711 24.7921 22.8309C24.814 22.7657 24.8002 22.6786 24.7611 22.6339C24.6587 22.5171 24.4664 22.5347 24.4306 22.6641C24.3922 22.8033 24.3279 22.8036 24.1821 22.6655C23.9628 22.4578 23.9579 22.0279 24.172 21.7776C24.2729 21.6596 24.272 21.6518 24.1433 21.53C24.005 21.399 23.9062 21.1396 23.9712 21.0781C23.9919 21.0585 24.1012 21.0741 24.2141 21.1128C24.3745 21.1677 24.4379 21.1686 24.504 21.1166C24.7042 20.9592 24.4873 20.7568 24.1662 20.8015C24.0369 20.8194 23.9836 20.8015 23.965 20.7344C23.951 20.6836 23.8379 20.6172 23.7106 20.585C23.483 20.5275 23.4814 20.5282 23.4814 20.685C23.4814 20.8568 23.3833 20.8892 23.1969 20.779C23.0455 20.6894 22.8987 20.7589 22.8987 20.9202C22.8987 21.0707 23.05 21.1449 23.3211 21.1274C23.5291 21.114 23.5369 21.2687 23.3393 21.491L23.1973 21.6509L23.3098 21.8126C23.4765 22.052 23.4624 22.4497 23.2804 22.6472L23.1376 22.802L23.044 22.6779C22.9138 22.5053 22.7358 22.5169 22.687 22.7011C22.655 22.8217 22.6815 22.8768 22.8325 23.0046C22.934 23.0905 23.0822 23.1608 23.1618 23.1608C23.3588 23.1608 23.3511 23.3157 23.1463 23.4722L22.9861 23.5947L23.2337 23.6331C23.3699 23.6543 23.4814 23.694 23.4814 23.7215C23.4814 23.8267 23.653 24.1542 23.7082 24.1542C23.7401 24.1542 23.807 24.099 23.8569 24.0315L23.8569 24.0316ZM27.0816 22.634C27.3066 22.5453 27.7936 22.1329 27.7936 22.031C27.7936 21.999 27.6592 21.8512 27.4949 21.7025C27.1492 21.3897 26.7731 20.8629 26.6757 20.5549C26.6249 20.3943 26.3794 20.1194 25.6879 19.4487L24.7677 18.5563L24.5025 18.6234C24.3566 18.6604 24.1786 18.6915 24.107 18.6926C23.9835 18.6945 23.9857 18.7016 24.1499 18.8286L24.3231 18.9627L24.5659 18.8279C24.8013 18.6973 24.8097 18.6965 24.8387 18.8016C24.8557 18.8631 24.819 18.9698 24.754 19.0482C24.6909 19.1241 24.6549 19.2103 24.6741 19.2396C24.6933 19.269 24.6326 19.3304 24.5394 19.376C24.3666 19.4606 24.2467 19.7392 24.3831 19.7392C24.5057 19.7392 24.7763 19.4054 24.7451 19.2925C24.7291 19.2347 24.7368 19.1753 24.7622 19.1604C24.8676 19.0987 24.861 19.3608 24.754 19.4897C24.6909 19.5656 24.6549 19.6518 24.6741 19.6811C24.6933 19.7105 24.6326 19.7719 24.5394 19.8175C24.3678 19.9016 24.2466 20.1807 24.3818 20.1807C24.5143 20.1807 24.7803 19.8618 24.7474 19.7425C24.7302 19.68 24.7368 19.6168 24.7622 19.6019C24.8332 19.5604 24.8715 19.7672 24.8116 19.8686C24.7795 19.9229 24.7798 19.997 24.8123 20.0558C24.8713 20.1623 24.8115 20.3668 24.7029 20.4304C24.6563 20.4576 24.6879 20.5111 24.8008 20.5964C24.9642 20.7198 24.9674 20.7327 24.9674 21.2773C24.9674 21.7323 24.9857 21.8498 25.0693 21.929C25.1632 22.0178 25.1713 22.0182 25.1713 21.9329C25.1713 21.8398 25.3348 21.726 25.4685 21.726C25.5079 21.726 25.7543 21.9348 26.016 22.19C26.2793 22.4468 26.5548 22.6653 26.6328 22.6792C26.7104 22.693 26.7943 22.7077 26.8194 22.7119C26.8445 22.716 26.9624 22.6809 27.0816 22.634ZM24.268 20.4321C24.268 20.2854 23.9655 20.1288 23.6035 20.0882C23.3113 20.0555 23.3065 20.0573 23.3065 20.2033C23.3065 20.3241 23.3525 20.3716 23.5542 20.4595C23.8783 20.6006 24.268 20.5856 24.268 20.4321ZM24.5999 20.4187C24.7475 20.2848 24.8175 20.1255 24.7287 20.1255C24.6265 20.1255 24.3555 20.3687 24.3555 20.4604C24.3555 20.6034 24.4058 20.5948 24.5999 20.4187ZM24.2851 19.9851C24.2976 19.9023 24.2464 19.8471 24.093 19.7777C23.7619 19.6282 23.3661 19.559 23.2709 19.6339C23.0953 19.7719 23.2123 19.9572 23.496 19.9905C23.6102 20.0039 23.7651 20.0387 23.8402 20.0679C24.0582 20.1526 24.2656 20.114 24.2851 19.9851ZM24.2851 19.5418C24.3029 19.4237 24.2274 19.3814 23.611 19.1645C23.1509 19.0025 22.9472 19.0789 23.0942 19.3583C23.1455 19.4556 23.2315 19.5 23.4243 19.5289C23.5677 19.5504 23.7637 19.5924 23.8599 19.6222C24.1167 19.702 24.2652 19.6739 24.2851 19.5418ZM24.5941 19.1263C24.6871 19.032 24.7631 18.9207 24.7631 18.879C24.7631 18.7438 24.3959 18.9831 24.349 19.1489C24.2929 19.3477 24.3839 19.3393 24.5941 19.1263ZM24.2854 19.0983C24.3056 18.9638 24.082 18.8424 23.6421 18.749C23.3194 18.6805 23.1771 18.7194 23.2013 18.8693C23.2144 18.9512 23.3219 19.011 23.6268 19.1062C24.1148 19.2584 24.2615 19.2567 24.2854 19.0983ZM24.7155 18.4723C25.2791 18.2214 25.3279 17.5887 24.7964 17.4225C24.5757 17.3536 24.4348 17.3907 24.3504 17.5402C24.2857 17.6547 24.3289 17.8628 24.4174 17.8628C24.4473 17.8628 24.4717 17.9013 24.4717 17.9483C24.4717 18.168 23.6112 18.2676 23.2583 18.0887C23.1343 18.0259 23.0803 17.8628 23.1835 17.8628C23.2606 17.8628 23.3139 17.6965 23.2745 17.579C23.2208 17.4188 23.0594 17.3633 22.8253 17.4245C22.2969 17.5627 22.3118 18.1835 22.8497 18.4469C23.2908 18.6629 24.2577 18.6761 24.7155 18.4723ZM24.3648 17.9861C24.3974 17.9552 24.3833 17.9077 24.3285 17.8647C24.2087 17.7705 24.2151 17.6304 24.3465 17.4701C24.4452 17.3497 24.4576 17.1694 24.4915 15.3517C24.5501 12.2191 24.783 9.86276 25.0901 9.29748C25.2123 9.07244 25.1952 9.07154 24.8793 9.28646C24.4724 9.56332 24.1626 9.92386 23.8881 10.4399C23.3698 11.4142 23.1897 12.7251 23.1897 15.5231C23.1897 17.1119 23.2005 17.3197 23.291 17.4691C23.377 17.6109 23.3816 17.6633 23.3212 17.8148C23.282 17.913 23.2643 18.0069 23.2817 18.0234C23.3974 18.133 24.2403 18.1039 24.3647 17.9861L24.3648 17.9861ZM29.1006 14.999C29.1182 14.9719 29.0792 14.8353 29.0139 14.6954C28.912 14.4773 28.871 14.4411 28.7259 14.4411C28.2713 14.4411 27.5405 14.2379 26.7871 13.9021C26.352 13.7082 26.2018 13.6637 26.1496 13.7131C26.0165 13.8391 26.2377 14.1384 26.5803 14.2957C26.8843 14.4352 27.7339 14.6067 28.1215 14.6067C28.3464 14.6067 28.3517 14.6168 28.2237 14.8018L28.1296 14.9378L28.384 14.9443C28.5239 14.9479 28.717 14.9698 28.8132 14.993C29.0629 15.0532 29.0652 15.0532 29.1006 14.999Z" fill="black" stroke="black" stroke-width="0.250203"/>
<path d="M27.6696 26.0822L27.8657 25.9689L27.9497 26.0824C28.0615 26.2335 28.3709 26.2318 28.5762 26.0789L28.7331 25.9619L28.8646 26.0789C29.0374 26.2326 29.3601 26.2328 29.5662 26.0794C29.7105 25.9719 29.7306 25.9698 29.826 26.0515C29.8828 26.1003 30.0496 26.1558 30.1966 26.1749C30.4614 26.2092 30.4654 26.2073 30.6203 25.975C30.75 25.7803 30.7703 25.7016 30.7393 25.5128C30.7188 25.3877 30.6967 25.1863 30.6902 25.0653C30.6784 24.8461 30.6797 24.8448 30.9989 24.7336C31.1752 24.6723 31.3792 24.5899 31.4523 24.5507C31.5798 24.4823 31.9313 24.0692 31.9313 23.9878C31.9313 23.9662 31.794 23.9332 31.6262 23.9143C30.9587 23.8395 30.8457 23.481 31.2796 22.8153C31.9872 21.7295 32.4143 20.6721 32.4171 19.9985C32.4184 19.6974 32.4356 19.5963 32.4742 19.6618C32.6324 19.9294 32.3491 21.0513 31.92 21.857L31.7473 22.1814L31.9121 22.1434C32.0028 22.1226 32.5359 21.8976 33.0967 21.6436C34.632 20.9483 35.1593 20.812 36.1528 20.8539C36.9852 20.8889 37.3397 21.0515 37.9274 21.668C38.2387 21.9945 38.5386 22.2282 39.0873 22.5716C40.2562 23.3033 40.3049 23.3667 40.3605 24.2271C40.4169 25.099 40.3888 25.1462 39.7294 25.2919C39.1659 25.4164 38.8125 25.6792 38.7177 26.0442C38.6671 26.2391 38.7736 26.2447 39.0578 26.0621L39.266 25.9283L39.3586 26.0621C39.4804 26.2381 39.7391 26.2388 39.954 26.0637L40.1163 25.9315L40.2822 26.0637C40.54 26.2691 40.8828 26.2193 40.9796 25.9624C40.9982 25.913 41.0478 25.9288 41.1484 26.0161C41.3367 26.1798 41.8195 26.25 41.8716 26.1213C41.8915 26.0722 41.8537 25.951 41.7876 25.8518C41.5067 25.4306 41.4189 25.2298 41.4152 25.0005C41.4101 24.6816 41.5053 24.5278 41.868 24.2684C42.3086 23.9534 42.4447 23.5469 42.1097 23.5469C41.9028 23.5469 41.6942 23.3641 41.5612 23.066C41.2909 22.4603 41.3438 21.7812 41.7496 20.6514C42.1618 19.5038 42.2075 19.2923 42.2092 18.5248C42.2105 17.9042 42.1949 17.797 42.0537 17.4567C41.9674 17.2487 41.7922 16.939 41.6645 16.7685L41.4322 16.4584L41.7304 16.2113C42.641 15.457 42.4547 14.2223 41.3586 13.7466C41.0232 13.6011 40.9394 13.5882 40.3518 13.5922C39.9992 13.5946 39.4617 13.6409 39.1572 13.6953C38.8468 13.7507 38.3212 13.7952 37.9608 13.7967C37.3882 13.799 37.291 13.7848 37.0703 13.6674C36.8402 13.5449 36.8008 13.4868 36.7557 13.2037C36.7465 13.1455 36.7058 13.0874 36.6653 13.0747C36.587 13.05 36.2256 13.3637 36.1722 13.5026C36.1459 13.5712 36.1243 13.5664 36.0471 13.475C35.9957 13.4143 35.924 13.2748 35.8878 13.165C35.7966 12.8889 35.9086 12.682 36.2331 12.5269L36.4849 12.4065L36.3364 12.3144C36.03 12.1243 35.5091 12.2543 35.3207 12.568C35.2674 12.6567 35.2092 12.7294 35.1915 12.7296C35.1737 12.7298 35.0724 12.6452 34.9664 12.5416C34.5708 12.155 34.7068 11.5831 35.236 11.4086C35.5181 11.3155 35.7678 11.3865 35.8197 11.5746C35.899 11.8619 36.1456 11.4843 36.1014 11.1434C36.072 10.9167 36.0764 10.9088 36.2332 10.9088C36.4514 10.9088 36.9157 11.1951 37.0593 11.4182C37.2261 11.6772 37.214 12.0853 37.0304 12.3893L36.8863 12.628L37.0748 12.5903C37.3513 12.5349 37.6199 12.3632 37.7557 12.155C37.8994 11.9349 37.9148 11.5063 37.7874 11.275C37.664 11.0508 37.6781 11.0152 37.8606 11.091C38.171 11.2198 38.3369 11.3619 38.4614 11.6054C38.5735 11.8247 38.5797 11.8792 38.519 12.1074C38.4816 12.2482 38.3983 12.4335 38.3339 12.5191C38.2337 12.6524 38.2303 12.6748 38.3101 12.6748C38.4589 12.6748 38.7694 12.534 38.8797 12.4166C38.9355 12.3573 39.0167 12.2112 39.0603 12.092L39.1395 11.8753L39.2306 12.0405C39.3593 12.2741 39.6096 12.4843 39.9148 12.6151C40.243 12.7558 40.3796 12.7638 40.208 12.6321C40.0923 12.5434 39.879 11.9176 39.9436 11.8564C39.9817 11.8204 40.4273 12.1632 40.9361 12.62C41.4174 13.052 41.7198 13.1935 42.1618 13.1935C42.7265 13.1935 43.0552 12.702 42.8015 12.2372C42.6535 11.9662 42.3239 11.9286 42.1311 12.1607C42.0425 12.2674 42.0182 12.3523 42.0441 12.4642C42.0759 12.6013 42.0635 12.6196 41.9386 12.6196C41.7745 12.6196 41.4509 12.4096 40.8763 11.9301C40.0001 11.1989 38.9354 10.5792 38.1666 10.3528C37.6732 10.2075 36.6193 10.1508 36.1178 10.2426C35.575 10.3419 34.9329 10.6525 34.5832 10.985C33.9634 11.5743 33.9536 12.3584 34.557 13.0724L34.7299 13.277L34.6128 13.4588C34.4426 13.7232 34.4572 14.0791 34.649 14.3412C34.7335 14.4567 34.8187 14.5511 34.8384 14.551C34.8581 14.551 34.8796 14.4767 34.8863 14.3861C34.9033 14.1567 35.0017 14.003 35.1707 13.9422C35.3228 13.8874 35.4212 13.9133 36.118 14.1914C36.851 14.484 38.0565 14.5041 39.3383 14.2451C39.9668 14.1182 40.7078 14.1256 41.0338 14.2622C41.6314 14.5126 41.7698 15.1639 41.3306 15.6583C41.1404 15.8723 40.957 15.9595 40.3413 16.1285C39.8728 16.2571 39.7618 16.2656 38.6968 16.255C37.787 16.2459 37.46 16.2633 37.0886 16.3409C36.6854 16.4251 36.4374 16.4336 35.253 16.4037L33.8836 16.3692L34.0355 16.495C34.119 16.5641 34.237 16.6492 34.2977 16.6841C34.401 16.7433 34.3975 16.7513 34.244 16.8082C34.1538 16.8417 33.9535 16.8691 33.799 16.8691H33.5181L33.4802 17.1078C33.4594 17.2391 33.461 17.3925 33.4837 17.4485C33.5172 17.5312 33.5048 17.5431 33.4176 17.5114C33.3585 17.49 33.1939 17.4477 33.0519 17.4176C32.9098 17.3874 32.7186 17.326 32.627 17.2811C32.4729 17.2057 32.4557 17.2077 32.399 17.3082C32.3483 17.3979 31.8724 17.7521 31.8025 17.7521C31.7912 17.7521 31.7767 17.6838 31.7702 17.6003C31.7637 17.5168 31.695 17.2995 31.6176 17.1174C31.5402 16.9353 31.4594 16.7366 31.438 16.6759C31.4057 16.5843 31.3911 16.5796 31.3522 16.6483C31.3265 16.6938 31.2888 16.818 31.2686 16.9242C31.2484 17.0305 31.1766 17.2031 31.1092 17.3078L30.9866 17.4981L30.9085 17.3354C30.8245 17.1606 30.6852 16.9794 30.6347 16.9794C30.6177 16.9794 30.5887 17.0353 30.5703 17.1036C30.5318 17.2462 30.2014 17.6417 30.1207 17.6417C30.091 17.6417 30.0667 17.5299 30.0667 17.3933C30.0667 17.2567 30.0405 17.145 30.0084 17.145C29.9764 17.145 29.9501 17.1803 29.9501 17.2235C29.9501 17.3286 29.6679 17.6417 29.5733 17.6417C29.532 17.6417 29.4656 17.6789 29.4257 17.7245C29.3216 17.8432 29.2365 17.8265 29.2803 17.696C29.3008 17.6348 29.2874 17.492 29.2506 17.3787C29.2138 17.2653 29.1747 17.1447 29.1637 17.1106C29.1498 17.0676 29.0487 17.079 28.8346 17.1477C28.4888 17.2585 28.3729 17.2389 28.5507 17.0996C28.6158 17.0487 28.7147 16.8723 28.7705 16.7076C28.8264 16.5429 28.9088 16.3968 28.9537 16.3829C29.0165 16.3634 29.0132 16.3875 28.9391 16.4876C28.8862 16.5592 28.8428 16.6556 28.8426 16.702C28.8426 16.7483 28.8026 16.8583 28.7541 16.9462C28.7057 17.0342 28.6752 17.1149 28.6864 17.1256C28.6977 17.1362 28.8293 17.0862 28.9789 17.0145L29.2508 16.8841L29.252 17.0007C29.2526 17.0649 29.2854 17.2342 29.3248 17.3769L29.3965 17.6364L29.5817 17.5513C29.7709 17.4644 29.9501 17.1543 29.9501 16.9139C29.9501 16.7951 30.0182 16.8133 30.0461 16.9396C30.0542 16.9767 30.097 17.1158 30.141 17.2487L30.2211 17.4905L30.3478 17.3379C30.4176 17.2539 30.505 17.0893 30.5421 16.9719C30.6065 16.7683 30.7077 16.6808 30.7077 16.8286C30.7077 16.9352 30.9985 17.3174 31.0546 17.2846C31.0817 17.2687 31.1357 17.1252 31.1746 16.9658C31.2554 16.6342 31.3858 16.4087 31.4687 16.4572C31.4999 16.4754 31.512 16.5108 31.4957 16.5359C31.4794 16.5609 31.5463 16.7765 31.6445 17.0149C31.7427 17.2534 31.8413 17.4935 31.8637 17.5485C31.8995 17.6368 31.932 17.624 32.1424 17.4381C32.2734 17.3224 32.3923 17.1929 32.4067 17.1503C32.4283 17.0859 32.4575 17.0883 32.58 17.1643C32.7513 17.2706 33.3273 17.4419 33.3718 17.3997C33.3884 17.384 33.4055 17.2327 33.4097 17.0636L33.4174 16.7562L33.583 16.7905C33.6741 16.8094 33.8656 16.8082 34.0086 16.7879L34.2687 16.751L34.0369 16.592C33.9095 16.5046 33.7806 16.3914 33.7506 16.3406C33.7186 16.2864 33.6051 16.2404 33.4766 16.2295C33.1295 16.2 32.5141 15.8549 32.5141 15.6896C32.5141 15.6586 32.5994 15.7114 32.7035 15.8068C32.9346 16.0186 33.2556 16.1516 33.536 16.1516H33.7458L33.616 15.979C33.5415 15.8798 33.4746 15.6917 33.4589 15.537C33.4339 15.2903 33.4078 15.2511 33.1503 15.0721C32.9956 14.9645 32.804 14.8033 32.7245 14.7138L32.5799 14.5511L32.5062 14.7443C32.4656 14.8505 32.4161 14.9375 32.396 14.9375C32.376 14.9375 32.298 14.8754 32.2228 14.7995C32.1475 14.7236 32.0708 14.6618 32.0524 14.6621C32.0339 14.6624 31.9672 14.7647 31.9042 14.8893L31.7895 15.1158L31.701 14.9852C31.6522 14.9134 31.5372 14.7864 31.4452 14.7029C31.3533 14.6194 31.3049 14.5511 31.3378 14.5511C31.3706 14.5511 31.4841 14.6381 31.5899 14.7444L31.7824 14.9376L31.8607 14.796C31.9072 14.712 31.9246 14.583 31.9035 14.4786C31.8728 14.3265 31.8772 14.3177 31.9355 14.4132C31.9726 14.4739 32.0851 14.5903 32.1857 14.6718L32.3684 14.8201L32.4946 14.589C32.6201 14.3591 32.621 14.3586 32.6781 14.496C32.7545 14.6796 33.3072 15.1327 33.7778 15.3974C33.8504 15.4382 33.8198 15.2979 33.6858 14.9753C33.6503 14.8898 33.6213 14.7358 33.6213 14.6329C33.6213 14.4804 33.5773 14.4125 33.3822 14.264C33.1005 14.0497 33.0094 13.8972 32.9564 13.5514C32.9349 13.4113 32.8856 13.2555 32.8468 13.2052C32.7893 13.1305 32.7798 13.1723 32.7952 13.4323C32.8056 13.6075 32.7828 13.8254 32.7446 13.9165L32.6751 14.0821L32.6213 13.9441C32.5918 13.8682 32.4611 13.7362 32.3309 13.6508C32.2007 13.5654 32.1094 13.4812 32.1279 13.4637C32.1464 13.4462 32.2803 13.524 32.4255 13.6367C32.6467 13.8083 32.6954 13.8269 32.726 13.7513C32.762 13.6625 32.726 13.276 32.6564 13.0059C32.6217 12.871 32.6248 12.8717 32.7911 13.0381C32.9138 13.1608 32.9817 13.3071 33.0343 13.5624C33.101 13.8867 33.1347 13.9407 33.4346 14.204C33.6147 14.3621 33.7714 14.4826 33.7829 14.4717C33.7943 14.4609 33.8171 14.0518 33.8334 13.5628C33.8647 12.6249 33.8293 12.4017 33.6034 12.112L33.4874 11.9631L33.6698 11.7663C33.9078 11.5096 34.0171 11.3038 34.0645 11.0231L34.103 10.7947L33.8972 10.9897C33.7286 11.1494 33.6481 11.1847 33.4528 11.1847C33.2594 11.1847 33.1839 11.1523 33.0536 11.0135C32.8973 10.8469 32.6203 10.6866 32.3539 10.6086C32.2555 10.5798 32.2228 10.5923 32.2228 10.6589C32.2228 10.7077 32.1684 10.8485 32.102 10.9718L31.9812 11.1961L31.7281 10.9459C31.5729 10.7925 31.3886 10.673 31.2516 10.637C30.9014 10.5449 30.8825 10.5541 30.8825 10.8149C30.8825 11.2106 30.7135 11.2844 30.4095 11.0214C30.1777 10.8208 29.9854 10.7773 29.5458 10.8256L29.2064 10.8629L29.2675 11.0161C29.3185 11.1442 29.307 11.1981 29.1977 11.3434C29.0204 11.5793 28.7898 11.6814 28.435 11.6814C28.2715 11.6814 28.067 11.7152 27.9805 11.7566C27.8939 11.7979 27.6789 11.8455 27.5026 11.8624C27.3263 11.8793 27.1384 11.9094 27.0851 11.9293C27.0016 11.9605 26.9924 11.9348 27.0193 11.7449C27.0605 11.4543 26.8575 11.2399 26.5411 11.2399C26.1306 11.2399 25.9413 11.6071 26.102 12.0914C26.133 12.1846 26.1734 12.3316 26.192 12.4181C26.2112 12.5078 26.3961 12.7458 26.6226 12.9724C26.8409 13.1908 27.0472 13.4181 27.0811 13.4775C27.1149 13.5368 27.2269 13.6321 27.3299 13.6892L27.5171 13.7929L27.4924 13.5926C27.4653 13.3724 27.5133 13.3378 27.6304 13.4932C27.6723 13.5488 27.7787 13.6385 27.8668 13.6927C28.0057 13.7781 28.0271 13.7798 28.0271 13.7057C28.0271 13.6587 28.0554 13.5503 28.09 13.4648L28.1529 13.3094L28.262 13.5208C28.322 13.6371 28.5172 13.9013 28.6958 14.108C29.0422 14.509 29.2533 14.9572 29.1443 15.0604C29.1002 15.1023 28.9807 15.099 28.7331 15.0493C28.5412 15.0107 28.3038 14.9903 28.2056 15.004C28.0051 15.0318 27.9893 15.006 28.1126 14.8515C28.2428 14.6885 28.2221 14.6616 27.9663 14.6616C27.6704 14.6616 26.9357 14.5197 26.6537 14.4081C26.3795 14.2996 26.3162 14.3267 26.2355 14.5867C26.1992 14.7038 26.1327 14.9159 26.0877 15.0581L26.006 15.3166L26.3026 15.288C26.4658 15.2723 26.6757 15.2366 26.769 15.2086C26.8624 15.1806 26.9472 15.1658 26.9575 15.1756C26.9679 15.1854 26.9263 15.2864 26.8651 15.4001L26.7538 15.6067L26.9388 15.569C27.0406 15.5483 27.1936 15.4975 27.279 15.4562C27.4275 15.3844 27.4394 15.3896 27.5565 15.5776C27.7005 15.8088 27.8158 15.7993 27.8413 15.5541C27.8678 15.3007 27.9511 15.3382 28.108 15.6741C28.2588 15.997 28.4157 16.1111 28.4459 15.9196C28.4559 15.856 28.5371 15.7525 28.6264 15.6896C28.8071 15.5624 28.9432 15.6006 29.0212 15.8004C29.102 16.0072 28.9218 16.2203 28.3978 16.538C27.348 17.1743 26.7378 18.0446 26.5636 19.1538C26.4065 20.1543 26.8972 21.1882 27.8818 21.9308C28.3529 22.2861 29.1013 22.6612 29.0537 22.5181C28.8517 21.9103 28.8584 20.7507 29.065 20.555C29.096 20.5257 29.0853 20.6467 29.0413 20.8239C28.8773 21.4842 28.9485 22.0103 29.369 23.2433C29.7493 24.3585 29.6966 24.8352 29.1584 25.1503C28.9855 25.2515 28.8742 25.2681 28.4095 25.2625C27.9051 25.2564 27.8502 25.2665 27.6882 25.3955C27.5313 25.5206 27.3277 25.9313 27.3277 26.123C27.3277 26.2268 27.443 26.2131 27.6696 26.0823L27.6696 26.0822ZM31.7565 16.4104C31.7565 16.3294 31.5187 16.11 31.2778 15.9686C31.0886 15.8576 31.0573 15.8542 31.0569 15.9448C31.0562 16.0823 30.934 16.4277 30.886 16.4277C30.8589 16.4277 30.8189 16.3602 30.797 16.2777C30.7751 16.1952 30.6834 16.0326 30.5932 15.9164L30.4291 15.7051L30.3013 15.9008C30.1822 16.0834 29.9759 16.2621 29.8843 16.2621C29.8625 16.2621 29.8582 16.166 29.8748 16.0485C29.8929 15.9209 29.879 15.8196 29.8401 15.7969C29.8044 15.776 29.7752 15.7833 29.7752 15.8131C29.7752 15.8819 29.4887 16.2069 29.4281 16.2069C29.4031 16.2069 29.3681 16.1138 29.3503 16C29.3326 15.8861 29.3024 15.7061 29.2832 15.5998C29.2641 15.4936 29.3049 15.5657 29.3739 15.7599L29.4994 16.1132L29.637 15.8979C29.7127 15.7795 29.7747 15.6501 29.7749 15.6104C29.7749 15.5707 29.8007 15.553 29.8318 15.5713C29.8629 15.5895 29.9062 15.7318 29.928 15.8876L29.9677 16.1707L30.1191 16.0047C30.2024 15.9134 30.3 15.7912 30.336 15.7331C30.4002 15.6294 30.4038 15.6295 30.5316 15.7378C30.6031 15.7985 30.7132 15.9437 30.7761 16.0605C30.839 16.1773 30.899 16.2642 30.9092 16.2537C30.9195 16.2431 30.9426 16.1228 30.9605 15.9862C30.9784 15.8496 30.9944 15.7328 30.996 15.7266C31.0049 15.6927 31.4521 15.9834 31.6175 16.1306C31.7239 16.2252 31.8249 16.2893 31.842 16.2731C31.8591 16.257 31.8731 16.1174 31.8731 15.963C31.8731 15.7237 31.8477 15.6596 31.7014 15.5288C31.5331 15.3784 31.5284 15.3776 31.4662 15.4876C31.3855 15.6304 31.2903 15.6324 31.2903 15.4914C31.2903 15.3885 30.9724 14.9928 30.8896 14.9928C30.8682 14.9928 30.8012 15.0797 30.7408 15.1859C30.6804 15.2922 30.6154 15.379 30.5964 15.3789C30.5149 15.3784 30.0666 14.8786 30.0668 14.7884C30.0668 14.7166 30.097 14.735 30.1756 14.8548C30.2353 14.9459 30.3546 15.0818 30.4407 15.1569C30.615 15.3089 30.6783 15.272 30.7456 14.979C30.7648 14.8955 30.7981 14.8272 30.8196 14.8272C30.8941 14.8272 31.2843 15.2417 31.3392 15.3791L31.3943 15.5171L31.4361 15.3653C31.4871 15.1797 31.5434 15.1728 31.6249 15.3421C31.6589 15.4129 31.827 15.56 31.9984 15.669L32.3101 15.8672L32.3727 15.6678C32.4071 15.5582 32.4527 15.4952 32.4739 15.5278C32.5057 15.5765 32.4247 15.9068 32.3636 15.9779C32.3544 15.9886 32.2534 15.9298 32.1391 15.8472L31.9313 15.6971L31.9305 15.9658C31.9299 16.1136 31.9139 16.2904 31.8946 16.3587C31.8568 16.4922 31.7565 16.5298 31.7565 16.4104ZM30.2024 14.2681C29.832 13.9588 29.7757 13.8881 29.7839 13.7415L29.7927 13.5855L29.8168 13.7361C29.8309 13.8241 29.9296 13.956 30.0539 14.0531L30.2669 14.2193L30.3977 14.0679C30.4697 13.9847 30.5295 13.8855 30.5307 13.8476C30.5337 13.7487 30.5514 13.757 30.8022 13.9746C31.0251 14.1679 31.0285 14.1688 31.0617 14.0436C31.0801 13.9737 31.0736 13.8422 31.0471 13.7514C30.9743 13.5016 30.9886 13.4639 31.0989 13.6146C31.1538 13.6896 31.2422 13.7957 31.2953 13.8503C31.3876 13.9454 31.3933 13.9442 31.4276 13.8227C31.4474 13.7529 31.4639 13.6252 31.4643 13.5388L31.4651 13.3819L31.6661 13.6096C31.8537 13.8223 31.871 13.8302 31.9283 13.7288C31.962 13.6691 31.99 13.5255 31.9905 13.4097C31.9911 13.2601 32.0069 13.2224 32.045 13.2793C32.1085 13.3745 32.0644 13.6335 31.947 13.8542L31.8628 14.0126L31.7523 13.8404C31.6109 13.6203 31.5638 13.6238 31.4731 13.8614C31.3873 14.0859 31.3316 14.103 31.2481 13.9304C31.194 13.8186 31.1837 13.8323 31.1453 14.0671L31.1027 14.3279L30.5916 13.9313L30.4767 14.0619C30.4135 14.1338 30.361 14.2236 30.3599 14.2615C30.3576 14.3437 30.2961 14.3463 30.2024 14.2681ZM33.4975 13.1162C33.3627 12.9948 33.2698 12.8789 33.2911 12.8587C33.3124 12.8385 33.3364 12.8327 33.3444 12.8458C33.3524 12.859 33.4626 12.9749 33.5893 13.1034C33.8811 13.3993 33.8211 13.4077 33.4975 13.1162ZM29.1083 12.6625C28.9856 12.4967 28.9941 12.3868 29.1434 12.2071C29.2513 12.0772 29.3006 12.0596 29.489 12.0835C29.6098 12.0988 29.8699 12.2056 30.0668 12.3208C30.2944 12.4538 30.5297 12.5428 30.7119 12.565C30.8698 12.5842 30.9989 12.5914 30.9989 12.5811C30.9989 12.5707 30.9333 12.4639 30.8532 12.3437C30.6629 12.0582 30.6694 12.0276 30.884 12.1986C31.1043 12.3742 31.3679 12.4255 31.9567 12.4076L32.2444 12.3989L32.0775 12.2339C31.8441 12.0032 31.9159 11.9825 32.1737 12.2062C32.4154 12.416 32.4003 12.4308 31.8915 12.4816C31.6752 12.5032 31.4427 12.4875 31.2494 12.4384C30.9603 12.3648 30.949 12.3659 31.0038 12.4629C31.0354 12.5187 31.0865 12.5644 31.1174 12.5644C31.1484 12.5644 31.1737 12.5928 31.1737 12.6274C31.1737 12.7338 30.5491 12.6402 30.2507 12.4891C29.5688 12.1439 29.483 12.114 29.3207 12.1651C29.2304 12.1936 29.14 12.2769 29.1089 12.3603C29.005 12.6388 29.3999 12.8552 29.5627 12.6091C29.6099 12.5377 29.5989 12.4889 29.5159 12.4021C29.4023 12.2832 29.413 12.2663 29.5664 12.322C29.6753 12.3616 29.6899 12.623 29.5886 12.719C29.4727 12.8288 29.2082 12.7977 29.1083 12.6625ZM31.7942 11.9747C31.709 11.894 31.7758 11.8742 32.1581 11.8671C32.631 11.8583 32.9182 11.7795 33.257 11.5656C33.5285 11.3942 33.6021 11.4279 33.3444 11.6056C33.1093 11.7677 32.7427 11.8924 32.3886 11.9305C32.2172 11.9489 32.0219 11.9745 31.9545 11.9873C31.8871 12.0001 31.815 11.9944 31.7942 11.9747ZM35.8561 26.0603L36.0676 25.9243L36.2112 26.0603C36.3993 26.2384 36.6196 26.2344 36.8005 26.0496C36.8794 25.969 36.9503 25.9131 36.958 25.9254C36.9656 25.9378 37.0008 25.9975 37.0362 26.0582C37.0809 26.1351 37.1728 26.1737 37.3387 26.1854C37.5385 26.1995 37.5922 26.1802 37.6716 26.0654L37.7663 25.9285L37.9746 26.0624C38.5447 26.4288 38.8485 26.0444 38.5937 25.2789C38.4641 24.8896 38.5354 24.6708 38.9529 24.1754C39.129 23.9665 39.2732 23.7435 39.2734 23.6799C39.2734 23.5784 39.2408 23.5648 39.0065 23.5695C38.7822 23.574 38.7166 23.5499 38.5986 23.4199C38.4066 23.2086 38.418 22.9665 38.6326 22.6979L38.8041 22.4834L38.4999 22.2769C38.3326 22.1634 38.0309 21.8947 37.8294 21.68C37.377 21.1976 36.9321 20.9688 36.3455 20.917L35.9522 20.8822L35.9528 21.1799C35.9535 21.5632 36.1334 21.9318 36.6244 22.5564C37.1826 23.2665 37.2216 23.3764 37.2442 24.3045L37.2633 25.0895L37.1018 25.2427C36.9558 25.3812 36.89 25.3989 36.419 25.426C35.9706 25.4519 35.8764 25.475 35.7448 25.5916C35.57 25.7464 35.5178 25.8306 35.4638 26.0444C35.4324 26.169 35.4451 26.1962 35.535 26.1962C35.5953 26.1962 35.7397 26.135 35.8561 26.0603ZM23.8569 24.0316C23.9067 23.9641 23.9476 23.8552 23.9476 23.7895C23.9476 23.6903 23.9919 23.6638 24.21 23.6328L24.4724 23.5955L24.2974 23.4561C24.0895 23.2904 24.0702 23.1609 24.2535 23.1606C24.436 23.1606 24.7451 22.9711 24.7921 22.8309C24.814 22.7657 24.8002 22.6786 24.7611 22.6339C24.6587 22.5171 24.4664 22.5347 24.4306 22.6641C24.3922 22.8033 24.3279 22.8036 24.1821 22.6655C23.9628 22.4578 23.9579 22.0279 24.172 21.7776C24.2729 21.6596 24.272 21.6518 24.1433 21.53C24.005 21.399 23.9062 21.1396 23.9712 21.0781C23.9919 21.0585 24.1012 21.0741 24.2141 21.1128C24.3745 21.1677 24.4379 21.1686 24.504 21.1166C24.7042 20.9592 24.4873 20.7568 24.1662 20.8015C24.0369 20.8194 23.9836 20.8015 23.965 20.7344C23.951 20.6836 23.8379 20.6172 23.7106 20.585C23.483 20.5275 23.4814 20.5282 23.4814 20.685C23.4814 20.8568 23.3833 20.8892 23.1969 20.779C23.0455 20.6894 22.8987 20.7589 22.8987 20.9202C22.8987 21.0707 23.05 21.1449 23.3211 21.1274C23.5291 21.114 23.5369 21.2687 23.3393 21.491L23.1973 21.6509L23.3098 21.8126C23.4765 22.052 23.4624 22.4497 23.2804 22.6472L23.1376 22.802L23.044 22.6779C22.9138 22.5053 22.7358 22.5169 22.687 22.7011C22.655 22.8217 22.6815 22.8768 22.8325 23.0046C22.934 23.0905 23.0822 23.1608 23.1618 23.1608C23.3588 23.1608 23.3511 23.3157 23.1463 23.4722L22.9861 23.5947L23.2337 23.6331C23.3699 23.6543 23.4814 23.694 23.4814 23.7215C23.4814 23.8267 23.653 24.1542 23.7082 24.1542C23.7401 24.1542 23.807 24.099 23.8569 24.0315L23.8569 24.0316ZM27.0816 22.634C27.3066 22.5453 27.7936 22.1329 27.7936 22.031C27.7936 21.999 27.6592 21.8512 27.4949 21.7025C27.1492 21.3897 26.7731 20.8629 26.6757 20.5549C26.6249 20.3943 26.3794 20.1194 25.6879 19.4487L24.7677 18.5563L24.5025 18.6234C24.3566 18.6604 24.1786 18.6915 24.107 18.6926C23.9835 18.6945 23.9857 18.7016 24.1499 18.8286L24.3231 18.9627L24.5659 18.8279C24.8013 18.6973 24.8097 18.6965 24.8387 18.8016C24.8557 18.8631 24.819 18.9698 24.754 19.0482C24.6909 19.1241 24.6549 19.2103 24.6741 19.2396C24.6933 19.269 24.6326 19.3304 24.5394 19.376C24.3666 19.4606 24.2467 19.7392 24.3831 19.7392C24.5057 19.7392 24.7763 19.4054 24.7451 19.2925C24.7291 19.2347 24.7368 19.1753 24.7622 19.1604C24.8676 19.0987 24.861 19.3608 24.754 19.4897C24.6909 19.5656 24.6549 19.6518 24.6741 19.6811C24.6933 19.7105 24.6326 19.7719 24.5394 19.8175C24.3678 19.9016 24.2466 20.1807 24.3818 20.1807C24.5143 20.1807 24.7803 19.8618 24.7474 19.7425C24.7302 19.68 24.7368 19.6168 24.7622 19.6019C24.8332 19.5604 24.8715 19.7672 24.8116 19.8686C24.7795 19.9229 24.7798 19.997 24.8123 20.0558C24.8713 20.1623 24.8115 20.3668 24.7029 20.4304C24.6563 20.4576 24.6879 20.5111 24.8008 20.5964C24.9642 20.7198 24.9674 20.7327 24.9674 21.2773C24.9674 21.7323 24.9857 21.8498 25.0693 21.929C25.1632 22.0178 25.1713 22.0182 25.1713 21.9329C25.1713 21.8398 25.3348 21.726 25.4685 21.726C25.5079 21.726 25.7543 21.9348 26.016 22.19C26.2793 22.4468 26.5548 22.6653 26.6328 22.6792C26.7104 22.693 26.7943 22.7077 26.8194 22.7119C26.8445 22.716 26.9624 22.6809 27.0816 22.634ZM24.268 20.4321C24.268 20.2854 23.9655 20.1288 23.6035 20.0882C23.3113 20.0555 23.3065 20.0573 23.3065 20.2033C23.3065 20.3241 23.3525 20.3716 23.5542 20.4595C23.8783 20.6006 24.268 20.5856 24.268 20.4321ZM24.5999 20.4187C24.7475 20.2848 24.8175 20.1255 24.7287 20.1255C24.6265 20.1255 24.3555 20.3687 24.3555 20.4604C24.3555 20.6034 24.4058 20.5948 24.5999 20.4187ZM24.2851 19.9851C24.2976 19.9023 24.2464 19.8471 24.093 19.7777C23.7619 19.6282 23.3661 19.559 23.2709 19.6339C23.0953 19.7719 23.2123 19.9572 23.496 19.9905C23.6102 20.0039 23.7651 20.0387 23.8402 20.0679C24.0582 20.1526 24.2656 20.114 24.2851 19.9851ZM24.2851 19.5418C24.3029 19.4237 24.2274 19.3814 23.611 19.1645C23.1509 19.0025 22.9472 19.0789 23.0942 19.3583C23.1455 19.4556 23.2315 19.5 23.4243 19.5289C23.5677 19.5504 23.7637 19.5924 23.8599 19.6222C24.1167 19.702 24.2652 19.6739 24.2851 19.5418ZM24.5941 19.1263C24.6871 19.032 24.7631 18.9207 24.7631 18.879C24.7631 18.7438 24.3959 18.9831 24.349 19.1489C24.2929 19.3477 24.3839 19.3393 24.5941 19.1263ZM24.2854 19.0983C24.3056 18.9638 24.082 18.8424 23.6421 18.749C23.3194 18.6805 23.1771 18.7194 23.2013 18.8693C23.2144 18.9512 23.3219 19.011 23.6268 19.1062C24.1148 19.2584 24.2615 19.2567 24.2854 19.0983ZM24.7155 18.4723C25.2791 18.2214 25.3279 17.5887 24.7964 17.4225C24.5757 17.3536 24.4348 17.3907 24.3504 17.5402C24.2857 17.6547 24.3289 17.8628 24.4174 17.8628C24.4473 17.8628 24.4717 17.9013 24.4717 17.9483C24.4717 18.168 23.6112 18.2676 23.2583 18.0887C23.1343 18.0259 23.0803 17.8628 23.1835 17.8628C23.2606 17.8628 23.3139 17.6965 23.2745 17.579C23.2208 17.4188 23.0594 17.3633 22.8253 17.4245C22.2969 17.5627 22.3118 18.1835 22.8497 18.4469C23.2908 18.6629 24.2577 18.6761 24.7155 18.4723ZM24.3648 17.9861C24.3974 17.9552 24.3833 17.9077 24.3285 17.8647C24.2087 17.7705 24.2151 17.6304 24.3465 17.4701C24.4452 17.3497 24.4576 17.1694 24.4915 15.3517C24.5501 12.2191 24.783 9.86276 25.0901 9.29748C25.2123 9.07244 25.1952 9.07154 24.8793 9.28646C24.4724 9.56332 24.1626 9.92386 23.8881 10.4399C23.3698 11.4142 23.1897 12.7251 23.1897 15.5231C23.1897 17.1119 23.2005 17.3197 23.291 17.4691C23.377 17.6109 23.3816 17.6633 23.3212 17.8148C23.282 17.913 23.2643 18.0069 23.2817 18.0234C23.3974 18.133 24.2403 18.1039 24.3647 17.9861L24.3648 17.9861ZM29.1006 14.999C29.1182 14.9719 29.0792 14.8353 29.0139 14.6954C28.912 14.4773 28.871 14.4411 28.7259 14.4411C28.2713 14.4411 27.5405 14.2379 26.7871 13.9021C26.352 13.7082 26.2018 13.6637 26.1496 13.7131C26.0165 13.8391 26.2377 14.1384 26.5803 14.2957C26.8843 14.4352 27.7339 14.6067 28.1215 14.6067C28.3464 14.6067 28.3517 14.6168 28.2237 14.8018L28.1296 14.9378L28.384 14.9443C28.5239 14.9479 28.717 14.9698 28.8132 14.993C29.0629 15.0532 29.0652 15.0532 29.1006 14.999Z" fill="#F7B718"/>
</g>
<defs>
<clipPath id="clip0_35_35244">
<rect width="54.002" height="36.0013" fill="white" transform="translate(-3)"/>
</clipPath>
</defs>
</svg>
