<svg width="48" height="36" viewBox="0 0 48 36" fill="none" xmlns="http://www.w3.org/2000/svg">
<g clip-path="url(#clip0_35_33795)">
<path d="M-3 0.0214844H51V36.0242H-3V0.0214844Z" fill="white"/>
<path d="M-3 0.0214844H51V12.0224H-3V0.0214844Z" fill="#FF6820"/>
<path d="M-3 24.0234H51V36.0244H-3V24.0234Z" fill="#046A38"/>
<path d="M23.9992 23.5735C27.0644 23.5735 29.5492 21.0885 29.5492 18.0231C29.5492 14.9577 27.0644 12.4727 23.9992 12.4727C20.934 12.4727 18.4492 14.9577 18.4492 18.0231C18.4492 21.0885 20.934 23.5735 23.9992 23.5735Z" fill="#07038D"/>
<path d="M23.9992 22.8234C26.6502 22.8234 28.7992 20.6742 28.7992 18.023C28.7992 15.3719 26.6502 13.2227 23.9992 13.2227C21.3483 13.2227 19.1992 15.3719 19.1992 18.023C19.1992 20.6742 21.3483 22.8234 23.9992 22.8234Z" fill="white"/>
<path d="M23.9991 18.9826C24.5293 18.9826 24.9591 18.5528 24.9591 18.0226C24.9591 17.4923 24.5293 17.0625 23.9991 17.0625C23.4689 17.0625 23.0391 17.4923 23.0391 18.0226C23.0391 18.5528 23.4689 18.9826 23.9991 18.9826Z" fill="#07038D"/>
<path d="M23.9984 13.2266L24.1784 16.1152L23.9984 17.5455L23.8184 16.1152L23.9984 13.2266Z" fill="#07038D"/>
<path d="M24.5967 13.4751C24.7117 13.4902 24.8172 13.4093 24.8324 13.2943C24.8475 13.1793 24.7666 13.0738 24.6516 13.0587C24.5366 13.0435 24.4311 13.1245 24.4159 13.2395C24.4008 13.3544 24.4818 13.4599 24.5967 13.4751Z" fill="#07038D"/>
<path d="M23.9997 22.8262L23.8197 19.9375L23.9997 18.5073L24.1797 19.9375L23.9997 22.8262Z" fill="#07038D"/>
<path d="M23.4013 22.5777C23.2863 22.5625 23.1808 22.6435 23.1657 22.7585C23.1506 22.8734 23.2315 22.9789 23.3465 22.9941C23.4615 23.0092 23.567 22.9283 23.5821 22.8133C23.5972 22.6983 23.5163 22.5928 23.4013 22.5777Z" fill="#07038D"/>
<path d="M25.2403 13.3903L24.6666 16.2272L24.1225 17.5621L24.3188 16.134L25.2403 13.3903Z" fill="#07038D"/>
<path d="M25.754 13.7848C25.8611 13.8292 25.984 13.7783 26.0284 13.6712C26.0728 13.564 26.0219 13.4412 25.9147 13.3968C25.8076 13.3524 25.6847 13.4033 25.6403 13.5104C25.596 13.6176 25.6468 13.7404 25.754 13.7848Z" fill="#07038D"/>
<path d="M22.7578 22.6624L23.3315 19.8256L23.8755 18.4906L23.6792 19.9187L22.7578 22.6624Z" fill="#07038D"/>
<path d="M22.244 22.266C22.1369 22.2216 22.0141 22.2725 21.9697 22.3796C21.9253 22.4868 21.9762 22.6096 22.0833 22.654C22.1905 22.6984 22.3133 22.6475 22.3577 22.5404C22.4021 22.4332 22.3512 22.3104 22.244 22.266Z" fill="#07038D"/>
<path d="M26.3961 13.8674L25.1078 16.459L24.2368 17.6076L24.796 16.279L26.3961 13.8674Z" fill="#07038D"/>
<path d="M26.7898 14.3829C26.8819 14.4535 27.0137 14.4362 27.0843 14.3442C27.1549 14.2522 27.1375 14.1203 27.0455 14.0497C26.9535 13.9791 26.8217 13.9965 26.7511 14.0885C26.6805 14.1805 26.6978 14.3123 26.7898 14.3829Z" fill="#07038D"/>
<path d="M21.6 22.1834L22.8883 19.5918L23.7592 18.4431L23.2001 19.7718L21.6 22.1834Z" fill="#07038D"/>
<path d="M21.2063 21.6678C21.1142 21.5972 20.9824 21.6146 20.9118 21.7066C20.8412 21.7986 20.8586 21.9305 20.9506 22.0011C21.0426 22.0717 21.1744 22.0543 21.245 21.9623C21.3156 21.8703 21.2983 21.7385 21.2063 21.6678Z" fill="#07038D"/>
<path d="M27.391 14.6312L25.4758 16.8011L24.3372 17.6851L25.2212 16.5465L27.391 14.6312Z" fill="#07038D"/>
<path d="M27.6384 15.2289C27.709 15.321 27.8408 15.3383 27.9328 15.2677C28.0248 15.1971 28.0422 15.0653 27.9716 14.9733C27.901 14.8812 27.7692 14.8639 27.6772 14.9345C27.5851 15.0051 27.5678 15.1369 27.6384 15.2289Z" fill="#07038D"/>
<path d="M20.6032 21.4176L22.5184 19.2477L23.6569 18.3637L22.7729 19.5023L20.6032 21.4176Z" fill="#07038D"/>
<path d="M20.3577 20.816C20.2871 20.724 20.1553 20.7066 20.0633 20.7772C19.9713 20.8478 19.9539 20.9797 20.0245 21.0717C20.0951 21.1637 20.2269 21.181 20.3189 21.1104C20.411 21.0398 20.4283 20.908 20.3577 20.816Z" fill="#07038D"/>
<path d="M28.1584 15.6246L25.7469 17.2249L24.4183 17.7841L25.5669 16.9131L28.1584 15.6246Z" fill="#07038D"/>
<path d="M28.2412 16.2669C28.2855 16.374 28.4084 16.4249 28.5155 16.3805C28.6227 16.3361 28.6736 16.2133 28.6292 16.1061C28.5848 15.999 28.462 15.9481 28.3548 15.9925C28.2477 16.0369 28.1968 16.1597 28.2412 16.2669Z" fill="#07038D"/>
<path d="M19.8416 20.4203L22.2531 18.82L23.5817 18.2608L22.4331 19.1318L19.8416 20.4203Z" fill="#07038D"/>
<path d="M19.7588 19.7781C19.7145 19.6709 19.5916 19.62 19.4845 19.6644C19.3773 19.7088 19.3264 19.8316 19.3708 19.9388C19.4152 20.0459 19.538 20.0968 19.6452 20.0524C19.7523 20.0081 19.8032 19.8852 19.7588 19.7781Z" fill="#07038D"/>
<path d="M28.6384 16.7832L25.8949 17.7048L24.4669 17.9011L25.8018 17.357L28.6384 16.7832Z" fill="#07038D"/>
<path d="M28.5524 17.4251C28.5676 17.5401 28.673 17.6211 28.788 17.6059C28.903 17.5908 28.984 17.4853 28.9688 17.3703C28.9537 17.2553 28.8482 17.1744 28.7332 17.1895C28.6182 17.2047 28.5373 17.3102 28.5524 17.4251Z" fill="#07038D"/>
<path d="M19.3616 19.2636L22.1051 18.3421L23.5331 18.1458L22.1982 18.6898L19.3616 19.2636Z" fill="#07038D"/>
<path d="M19.4476 18.6217C19.4324 18.5067 19.327 18.4258 19.212 18.4409C19.097 18.4561 19.016 18.5616 19.0312 18.6766C19.0463 18.7915 19.1518 18.8725 19.2668 18.8574C19.3818 18.8422 19.4627 18.7367 19.4476 18.6217Z" fill="#07038D"/>
<path d="M28.7988 18.0237L25.9104 18.2038L24.4802 18.0238L25.9104 17.8438L28.7988 18.0237Z" fill="#07038D"/>
<path d="M28.5503 18.6241C28.5352 18.7391 28.6161 18.8446 28.7311 18.8597C28.8461 18.8749 28.9516 18.7939 28.9667 18.6789C28.9819 18.5639 28.9009 18.4584 28.7859 18.4433C28.671 18.4282 28.5655 18.5091 28.5503 18.6241Z" fill="#07038D"/>
<path d="M19.2012 18.0231L22.0896 17.8431L23.5198 18.0231L22.0896 18.2031L19.2012 18.0231Z" fill="#07038D"/>
<path d="M19.4497 17.4247C19.4648 17.3097 19.3839 17.2043 19.2689 17.1891C19.1539 17.174 19.0484 17.2549 19.0333 17.3699C19.0181 17.4849 19.0991 17.5904 19.2141 17.6055C19.329 17.6207 19.4345 17.5397 19.4497 17.4247Z" fill="#07038D"/>
<path d="M28.637 19.2618L25.8004 18.688L24.4656 18.144L25.8936 18.3403L28.637 19.2618Z" fill="#07038D"/>
<path d="M28.2406 19.7774C28.1962 19.8846 28.2471 20.0074 28.3543 20.0518C28.4614 20.0962 28.5842 20.0453 28.6286 19.9382C28.673 19.831 28.6221 19.7082 28.515 19.6638C28.4078 19.6194 28.285 19.6703 28.2406 19.7774Z" fill="#07038D"/>
<path d="M19.363 16.7812L22.1996 17.355L23.5344 17.899L22.1064 17.7027L19.363 16.7812Z" fill="#07038D"/>
<path d="M19.7594 16.2675C19.8038 16.1603 19.7529 16.0375 19.6457 15.9931C19.5386 15.9487 19.4158 15.9996 19.3714 16.1068C19.327 16.2139 19.3779 16.3368 19.485 16.3811C19.5922 16.4255 19.715 16.3746 19.7594 16.2675Z" fill="#07038D"/>
<path d="M28.16 20.4254L25.5685 19.137L24.42 18.2659L25.7485 18.8252L28.16 20.4254Z" fill="#07038D"/>
<path d="M27.6444 20.8191C27.5738 20.9111 27.5912 21.043 27.6832 21.1136C27.7752 21.1842 27.907 21.1668 27.9776 21.0748C28.0482 20.9828 28.0309 20.851 27.9389 20.7804C27.8469 20.7097 27.715 20.7271 27.6444 20.8191Z" fill="#07038D"/>
<path d="M19.8459 15.6254L22.4373 16.9138L23.5859 17.7848L22.2573 17.2256L19.8459 15.6254Z" fill="#07038D"/>
<path d="M20.3614 15.2297C20.432 15.1377 20.4147 15.0059 20.3227 14.9353C20.2306 14.8646 20.0988 14.882 20.0282 14.974C19.9576 15.066 19.975 15.1979 20.067 15.2685C20.159 15.3391 20.2908 15.3217 20.3614 15.2297Z" fill="#07038D"/>
<path d="M27.3962 21.4203L25.2264 19.5049L24.3424 18.3663L25.481 19.2504L27.3962 21.4203Z" fill="#07038D"/>
<path d="M26.7945 21.6677C26.7025 21.7383 26.6852 21.8701 26.7558 21.9621C26.8264 22.0541 26.9582 22.0715 27.0502 22.0009C27.1422 21.9303 27.1596 21.7985 27.089 21.7064C27.0184 21.6144 26.8865 21.5971 26.7945 21.6677Z" fill="#07038D"/>
<path d="M20.6058 14.6325L22.7755 16.5478L23.6595 17.6864L22.521 16.8024L20.6058 14.6325Z" fill="#07038D"/>
<path d="M21.2074 14.3851C21.2994 14.3145 21.3168 14.1826 21.2462 14.0906C21.1756 13.9986 21.0438 13.9812 20.9518 14.0518C20.8597 14.1225 20.8424 14.2543 20.913 14.3463C20.9836 14.4383 21.1154 14.4557 21.2074 14.3851Z" fill="#07038D"/>
<path d="M26.3988 22.1798L24.7987 19.7682L24.2395 18.4396L25.1105 19.5882L26.3988 22.1798Z" fill="#07038D"/>
<path d="M25.7546 22.2626C25.6475 22.307 25.5966 22.4299 25.641 22.537C25.6854 22.6442 25.8082 22.6951 25.9154 22.6507C26.0225 22.6063 26.0734 22.4834 26.029 22.3763C25.9846 22.2691 25.8618 22.2182 25.7546 22.2626Z" fill="#07038D"/>
<path d="M21.6012 13.867L23.2013 16.2787L23.7605 17.6073L22.8895 16.4587L21.6012 13.867Z" fill="#07038D"/>
<path d="M22.2454 13.7842C22.3525 13.7399 22.4034 13.617 22.359 13.5099C22.3146 13.4027 22.1918 13.3518 22.0846 13.3962C21.9775 13.4406 21.9266 13.5634 21.971 13.6706C22.0154 13.7777 22.1382 13.8286 22.2454 13.7842Z" fill="#07038D"/>
<path d="M25.2422 22.6618L24.3207 19.9182L24.1244 18.4901L24.6684 19.825L25.2422 22.6618Z" fill="#07038D"/>
<path d="M24.6003 22.5758C24.4853 22.591 24.4043 22.6965 24.4195 22.8115C24.4346 22.9264 24.5401 23.0074 24.6551 22.9923C24.7701 22.9771 24.851 22.8716 24.8359 22.7566C24.8207 22.6416 24.7152 22.5607 24.6003 22.5758Z" fill="#07038D"/>
<path d="M22.7598 13.387L23.6813 16.1307L23.8775 17.5588L23.3335 16.2238L22.7598 13.387Z" fill="#07038D"/>
<path d="M23.4017 13.473C23.5167 13.4579 23.5976 13.3524 23.5825 13.2374C23.5673 13.1224 23.4618 13.0414 23.3469 13.0566C23.2319 13.0717 23.1509 13.1772 23.1661 13.2922C23.1812 13.4072 23.2867 13.4881 23.4017 13.473Z" fill="#07038D"/>
</g>
<defs>
<clipPath id="clip0_35_33795">
<rect width="54" height="36.0027" fill="white" transform="translate(-3 0.0214844)"/>
</clipPath>
</defs>
</svg>
