<svg width="48" height="36" viewBox="0 0 48 36" fill="none" xmlns="http://www.w3.org/2000/svg">
<g clip-path="url(#clip0_35_34103)">
<mask id="mask0_35_34103" style="mask-type:luminance" maskUnits="userSpaceOnUse" x="-1" y="0" width="50" height="38">
<path d="M44.5883 0H3.4118C1.24598 0 -0.509766 1.75575 -0.509766 3.92157V33.3333C-0.509766 35.4992 1.24598 37.2549 3.4118 37.2549H44.5883C46.7541 37.2549 48.5098 35.4992 48.5098 33.3333V3.92157C48.5098 1.75575 46.7541 0 44.5883 0Z" fill="white"/>
</mask>
<g mask="url(#mask0_35_34103)">
<path d="M-0.509766 0H48.5098V37.2549H-0.509766V0Z" fill="#032EA1"/>
<path d="M-0.509766 9.31445H48.5098V27.9419H-0.509766V9.31445Z" fill="#E00025"/>
<path d="M18.8223 17.5566H29.2818V21.6361H18.8223V17.5566Z" fill="white" stroke="black" stroke-width="0.0906863" stroke-linejoin="bevel"/>
<path d="M28.7486 19.8029H29.0704V21.3396H28.7486V19.8029ZM18.8223 19.0484H29.2818V19.5141H18.8223V19.0484ZM18.8223 18.3965H29.2818V18.8249H18.8223V18.3965Z" fill="white" stroke="black" stroke-width="0.0906863" stroke-linejoin="bevel"/>
<path d="M18.8223 17.7617H29.2818V18.1622H18.8223V17.7617Z" fill="white" stroke="black" stroke-width="0.0816176" stroke-linejoin="bevel"/>
<path d="M21.5796 19.8008H21.9104V21.3375H21.5796V19.8008ZM26.0832 19.8008H26.4141V21.3375H26.0832V19.8008ZM18.9141 19.8008H19.2357V21.3375H18.9141V19.8008ZM19.5575 19.8008H19.8792V21.3375H19.5575V19.8008ZM20.2468 19.8008H20.5685V21.3375H20.2468V19.8008ZM20.9361 19.8008H21.2578V21.3375H20.9361V19.8008ZM26.7082 19.8008H27.0391V21.3375H26.7082V19.8008ZM27.3975 19.8008H27.7284V21.3375H27.3975V19.8008ZM28.0869 19.8008H28.4178V21.3375H28.0869V19.8008Z" fill="white" stroke="black" stroke-width="0.0906863" stroke-linejoin="bevel"/>
<path d="M14.7324 21.8413C14.9246 21.7353 15.0693 21.5586 15.1368 21.3477H32.885C32.9524 21.5586 33.0972 21.7353 33.2894 21.8413H14.7324Z" fill="white" stroke="black" stroke-width="0.0906863"/>
<path d="M23.7872 11.3443C23.7872 11.3443 23.778 10.9624 23.9986 10.9531C24.2099 10.9531 24.2007 11.3443 24.2007 11.3443H23.7872ZM22.6383 16.4203V15.908C22.6383 15.6472 22.3809 15.6286 22.3809 15.4423C22.3809 15.4423 22.3441 15.1629 22.4177 15.0325C22.5188 15.4051 22.6934 15.3399 22.6934 15.1816C22.6934 15.0512 22.6015 14.9208 22.3901 14.5948C22.3166 14.4923 22.3625 14.1664 22.4544 14.0453C22.4912 14.3247 22.5371 14.4644 22.6566 14.4644C22.7301 14.4644 22.7853 14.4178 22.7853 14.2781C22.7853 14.0918 22.6658 13.9987 22.6015 13.8311C22.5698 13.7476 22.5625 13.6568 22.5804 13.5692C22.5984 13.4817 22.6407 13.4013 22.7026 13.3374C22.7486 13.6169 22.7393 13.7286 22.8588 13.7286C23.107 13.6448 22.8588 13.2816 22.8037 13.1884C22.7486 13.086 22.8956 12.8718 22.8956 12.8718C22.9691 13.1232 22.9875 13.1418 23.0794 13.1139C23.1897 13.086 23.1713 12.9276 23.0427 12.7972C22.9599 12.7041 22.9691 12.583 23.061 12.4899C23.153 12.6669 23.2633 12.6575 23.2724 12.5458L23.1989 12.136H24.7982L24.7154 12.5365C24.6971 12.6482 24.8441 12.6762 24.936 12.4899C25.028 12.583 25.0372 12.7134 24.9544 12.7972C24.8257 12.9276 24.8074 13.086 24.9177 13.1139C25.0095 13.1418 25.028 13.1139 25.1015 12.8718C25.1015 12.8718 25.2393 13.0115 25.1934 13.1884C25.1383 13.2816 24.89 13.6541 25.1383 13.7286C25.2577 13.7286 25.2486 13.6169 25.2944 13.3374C25.3547 13.4022 25.3955 13.4831 25.4118 13.5707C25.4281 13.6581 25.4192 13.7485 25.3864 13.8311C25.3312 13.9987 25.2026 14.0918 25.2026 14.2781C25.2026 14.4178 25.2669 14.4644 25.3404 14.4644C25.4599 14.4644 25.5059 14.334 25.5427 14.0453C25.6345 14.1664 25.6805 14.4923 25.607 14.6041C25.3956 14.9208 25.2944 15.0512 25.2944 15.1816C25.2944 15.3399 25.4783 15.4051 25.5702 15.0325C25.653 15.1629 25.6162 15.4423 25.6162 15.4423C25.6162 15.6286 25.3681 15.6472 25.3588 15.908V16.4203H22.6383ZM23.3 12.136L23.2633 11.8472H24.7246L24.6879 12.136H23.3ZM23.3919 11.8379L23.3736 11.6051H24.6143L24.5868 11.8379H23.3919ZM23.6034 11.5958L23.5757 11.3536H24.403L24.3938 11.5958H23.6034ZM26.6364 21.8409C26.4526 21.7757 26.1769 21.5708 26.1769 21.3752V19.1119L26.4158 18.7953H21.5813L21.811 19.1119V21.3752C21.811 21.5708 21.6272 21.7757 21.4434 21.8409H26.6364Z" fill="white" stroke="black" stroke-width="0.0906863"/>
<path d="M22.4277 19.8008H22.7586V21.3375H22.4277V19.8008ZM25.2219 19.8008H25.5527V21.3375H25.2219V19.8008Z" fill="white" stroke="black" stroke-width="0.0906863" stroke-linejoin="bevel"/>
<path d="M21.4897 16.2246V18.7952H26.4529V16.2246C26.3956 16.2458 26.344 16.2805 26.3024 16.3259C26.2609 16.3712 26.2306 16.4259 26.2139 16.4854V17.5844H21.7378V16.4854C21.7378 16.4854 21.6826 16.2991 21.4805 16.2246H21.4897Z" fill="white" stroke="black" stroke-width="0.0906863"/>
<path d="M25.7714 21.8391C25.6059 21.7739 25.2567 21.569 25.2567 21.3734V18.8401C25.2935 18.7004 25.4772 18.6166 25.5967 18.5234H22.3155C22.4717 18.6166 22.6464 18.6818 22.7107 18.8401V21.3734C22.7107 21.569 22.4349 21.7739 22.2695 21.8391H25.7714Z" fill="white" stroke="black" stroke-width="0.0906863"/>
<path d="M26.2144 18.5532V16.7277H25.7641V16.5508H22.1979V16.7371H21.7383V18.5532H26.2144ZM25.0747 21.841C24.9093 21.7758 24.6795 21.5709 24.6795 21.3753V19.2145L24.8082 19.0189H23.1813L23.3192 19.2052V21.3753C23.3192 21.5709 23.0802 21.7758 22.924 21.841H25.0747Z" fill="white" stroke="black" stroke-width="0.0906863"/>
<path d="M23.5762 19.0176H24.4034V21.8396H23.5762V19.0176Z" fill="white" stroke="black" stroke-width="0.0906863"/>
<path d="M24.8359 18.3949C24.8359 18.2087 25.369 18.1993 25.6448 18.041H22.3359C22.6116 18.1993 23.1355 18.2087 23.1355 18.3949L23.2458 18.7582L24.6246 18.8141L24.8359 18.3949Z" fill="white" stroke="black" stroke-width="0.0906863" stroke-linejoin="bevel"/>
<path d="M25.478 16.42C25.478 15.9636 25.4964 15.796 25.6342 15.796V17.2303C25.2941 17.3607 25.0552 17.7891 25.0552 17.7891H22.9229C22.9229 17.7891 22.6838 17.3607 22.3438 17.2303V15.7866C22.5092 15.7866 22.5092 15.9729 22.5092 16.4107L25.478 16.42ZM25.6342 16.2337C25.6342 15.7121 26.0846 15.6562 26.0846 15.6562V16.1219C25.9099 16.1126 25.8273 16.271 25.8273 16.4945C25.8273 16.7273 25.9651 16.7273 25.9651 16.7273V18.0499H25.6342V16.2337Z" fill="white" stroke="black" stroke-width="0.0906863"/>
<path d="M22.3448 16.2337C22.3448 15.7121 21.8945 15.6562 21.8945 15.6562V16.1219C22.0691 16.1126 22.1519 16.271 22.1519 16.4945C22.1519 16.7273 22.0139 16.7273 22.0139 16.7273V18.0499H22.3448V16.2337Z" fill="white" stroke="black" stroke-width="0.0906863"/>
<path d="M23.2187 12.6309H24.7996M23.0349 13.1338H24.965M22.8511 13.7392H25.1396M22.6581 14.475H25.3694M22.5938 15.3132H25.3879" stroke="black" stroke-width="0.072549"/>
<path d="M21.748 18.0703H26.2149M23.1634 18.0703H24.8178V18.685H23.1634V18.0703Z" stroke="black" stroke-width="0.0906863"/>
<path d="M22.959 16.6909C23.2348 17.0261 23.198 17.5943 23.198 17.9296H24.7972C24.7972 17.5943 24.7605 17.0261 25.0362 16.6909H22.959ZM23.8506 12.8722L23.63 12.7511V12.4252C23.7218 12.4531 23.8138 12.4624 23.8321 12.6114C23.8597 12.3972 23.9241 12.4159 24.0067 12.332C24.0987 12.4159 24.1447 12.3972 24.1814 12.6114C24.1814 12.4624 24.2917 12.4531 24.3744 12.4252V12.7511L24.163 12.8629L23.8506 12.8722Z" fill="white" stroke="black" stroke-width="0.0906863"/>
<path d="M23.8325 13.4034L23.4648 13.1427V12.8539C23.6028 12.8819 23.7406 12.9005 23.759 13.0588C23.7957 12.826 23.8785 12.7142 24.0071 12.6211C24.1266 12.7142 24.2094 12.826 24.2553 13.0588C24.2645 12.9005 24.4116 12.8819 24.531 12.8539V13.152L24.1726 13.4034H23.8325Z" fill="white" stroke="black" stroke-width="0.0906863"/>
<path d="M23.8066 14.2311L23.393 13.8585V13.4208C23.5401 13.458 23.7055 13.4767 23.7239 13.7095C23.7699 13.3835 23.8617 13.2066 23.9996 13.0762C24.1466 13.2066 24.2386 13.3835 24.2937 13.7095C24.3121 13.4767 24.4775 13.458 24.6246 13.4208V13.8585L24.2018 14.2311H23.8066ZM24.5787 14.7247L24.2111 15.2556H23.779L23.4022 14.7247H24.5787ZM23.1816 15.6095C23.3655 15.712 23.439 15.9262 23.4573 16.3173H24.5235C24.5419 15.9262 24.6155 15.712 24.7993 15.6095H23.1816Z" fill="white" stroke="black" stroke-width="0.0906863"/>
<path d="M24.8165 14.7168V14.1953C24.7374 14.2123 24.6639 14.2495 24.6028 14.3032C24.5417 14.357 24.495 14.4255 24.4673 14.5026C24.4673 14.3163 24.2375 13.9158 23.9894 13.7109C23.7412 13.9345 23.5022 14.307 23.5114 14.4933C23.4654 14.3536 23.3459 14.2418 23.1621 14.1953V14.7261L24.8165 14.7168Z" fill="white" stroke="black" stroke-width="0.0906863" stroke-linejoin="bevel"/>
<path d="M24.8913 15.6094V15.0878C24.6983 15.1437 24.5696 15.2462 24.5145 15.3952C24.5145 15.2089 24.2663 14.8084 23.9906 14.6035C23.7148 14.8364 23.4575 15.1996 23.4667 15.3952C23.4207 15.2555 23.2829 15.1437 23.0898 15.0878V15.6187L24.8913 15.6094Z" fill="white" stroke="black" stroke-width="0.0906863" stroke-linejoin="bevel"/>
<path d="M25.1112 16.6988V16.0841C24.9199 16.1446 24.7546 16.2694 24.6425 16.438C24.6425 16.112 24.2749 15.5997 23.99 15.4414C23.6958 15.6091 23.3373 16.1306 23.3373 16.438C23.2225 16.2683 23.0539 16.1435 22.8594 16.0841V16.6988H25.1112Z" fill="white" stroke="black" stroke-width="0.0906863" stroke-linejoin="bevel"/>
<path d="M24.9833 18.0682V17.4349C24.7628 17.5187 24.7076 17.7236 24.634 17.8727C24.6616 17.23 24.2848 16.55 23.9907 16.373C23.6966 16.55 23.3105 17.2485 23.3473 17.8632C23.2737 17.7329 23.2094 17.5187 22.998 17.4349V18.0589L24.9833 18.0682Z" fill="white" stroke="black" stroke-width="0.0906863" stroke-linejoin="bevel"/>
<path d="M24.8338 19.0189V18.3856C24.604 18.4415 24.5948 18.5253 24.5212 18.665C24.5489 18.2831 24.2823 17.8454 23.9882 17.6777C23.694 17.8454 23.4367 18.2831 23.455 18.665C23.3815 18.5253 23.3724 18.4415 23.1426 18.3856V19.0189H24.8338Z" fill="white" stroke="black" stroke-width="0.0906863"/>
<path d="M15.1474 21.347V19.447C15.083 19.2048 14.8717 18.9813 14.7246 18.944V17.2676L15.0646 17.4539L15.4599 19.2141V21.3563L15.1474 21.347Z" fill="white" stroke="black" stroke-width="0.0906863"/>
<path d="M15.1474 21.3567V19.4474C15.083 19.2053 14.8717 18.9817 14.7246 18.9445V17.1562C14.9543 17.1562 15.0646 17.4543 15.0646 17.4543L15.4599 19.2146V21.3474L15.1474 21.3567Z" fill="white" stroke="black" stroke-width="0.0906863"/>
<path d="M14.8984 21.841C15.0547 21.7758 15.2844 21.5709 15.2844 21.3753V18.991L15.1741 18.8047H19.1907L19.0344 18.991V21.3753C19.0412 21.474 19.0737 21.5691 19.1286 21.651C19.1835 21.7328 19.2588 21.7983 19.347 21.841H14.8984Z" fill="white" stroke="black" stroke-width="0.0906863"/>
<path d="M18.5301 21.8425C18.3738 21.7773 18.1441 21.5724 18.1441 21.3768V19.1135L18.475 18.7969H15.7544L16.0853 19.1135V21.3768C16.0853 21.5724 15.8555 21.7773 15.6992 21.8425H18.5301Z" fill="white" stroke="black" stroke-width="0.0906863"/>
<path d="M18.1533 21.8416C17.9971 21.7764 17.7581 21.5715 17.7581 21.3759V19.3269L17.9787 19.0195H16.2508L16.4714 19.3269V21.3759C16.4714 21.5715 16.2416 21.7764 16.0762 21.8416H18.1533Z" fill="white" stroke="black" stroke-width="0.0906863"/>
<path d="M16.7104 19.0195H17.5283V21.8509H16.7012L16.7104 19.0195Z" fill="white" stroke="black" stroke-width="0.0906863"/>
<path d="M15.5798 19.8013H15.9107V21.3381H15.5798V19.8013ZM18.4107 19.8013H18.7324V21.3381H18.4015L18.4107 19.8013ZM15.2949 17.2121H15.6993V18.7954H15.2949V17.2121ZM15.2949 16.9141H15.6901V17.2121H15.2949V16.9141ZM18.567 17.5567H19.1277V18.7675H18.567V17.5567Z" fill="white"/>
<path d="M15.2949 17.2121H15.6993V18.7954H15.2949V17.2121ZM15.2949 17.2121H15.6901V16.9141H15.2949V17.2121ZM15.5798 19.8013H15.9107V21.3381H15.5798V19.8013ZM18.4107 19.8013H18.7324V21.3381H18.4015L18.4107 19.8013ZM18.567 17.5567H19.1277V18.7675H18.567V17.5567Z" stroke="black" stroke-width="0.0906863" stroke-linejoin="bevel"/>
<path d="M15.6908 18.7768V16.0759C15.8011 16.0759 15.8195 16.4764 16.0768 16.4764C16.2147 16.4764 16.2055 16.3087 16.1228 16.1783C16.0584 16.0572 15.9758 15.8989 16.0861 15.5916C16.1687 15.8244 16.371 15.8989 16.3342 15.7592C16.2699 15.5077 16.0768 15.4612 16.2239 15.0793C16.2699 15.396 16.472 15.3866 16.4261 15.2004C16.371 14.9862 16.2514 14.893 16.3985 14.595C16.4812 14.9396 16.5823 14.921 16.5823 14.7067C16.5823 14.3901 16.5823 14.0548 16.9684 13.9337C16.9684 13.9337 16.996 13.6543 17.143 13.6543C17.2809 13.6543 17.3084 13.9337 17.3084 13.9337C17.7037 14.0548 17.6945 14.3994 17.6945 14.7067C17.6945 14.921 17.7956 14.9396 17.8783 14.595C18.0254 14.893 17.9059 14.9862 17.8508 15.2004C17.8048 15.3866 18.0069 15.396 18.0529 15.0793C18.2 15.4612 18.0069 15.5077 17.9426 15.7592C17.9059 15.8989 18.1081 15.8244 18.1908 15.5916C18.3011 15.8989 18.2184 16.0572 18.154 16.1783C18.0805 16.3087 18.0621 16.4764 18.2 16.4764C18.4573 16.4764 18.4758 16.0852 18.5861 16.0852V18.7768H15.6908ZM15.0566 16.7371V18.7955H15.2863V16.7371C15.2037 16.6906 15.1302 16.6906 15.0566 16.7371Z" fill="white" stroke="black" stroke-width="0.0906863"/>
<path d="M15.0723 18.0709C15.3573 18.2199 15.6422 18.3969 15.7157 18.7974H15.0723V18.0709ZM19.0429 17.4562V18.7974H19.2267V17.4562C19.1716 17.4283 19.0888 17.419 19.0429 17.4562Z" fill="white" stroke="black" stroke-width="0.0906863"/>
<path d="M19.2283 18.0689C18.9434 18.2087 18.6585 18.3763 18.585 18.7861H19.2283V18.0689ZM17.335 14.9302L17.5004 14.7905V14.6042C17.4453 14.6042 17.4085 14.6322 17.3625 14.6974C17.3447 14.6375 17.3151 14.582 17.2757 14.5339C17.2362 14.4859 17.1875 14.4465 17.1327 14.418C17.0771 14.4444 17.0272 14.482 16.9863 14.5285C16.9452 14.5748 16.9137 14.629 16.8938 14.6881C16.8478 14.6229 16.8203 14.6136 16.7559 14.5949V14.7812L16.9213 14.9302H17.335Z" fill="white" stroke="black" stroke-width="0.0906863"/>
<path d="M17.4268 15.3871L17.5004 15.2101V14.9773C17.4453 14.9773 17.4085 15.0052 17.3625 15.0704C17.3447 15.0106 17.3151 14.9551 17.2757 14.9071C17.2362 14.8591 17.1875 14.8196 17.1327 14.791C17.0771 14.8176 17.0272 14.8551 16.9863 14.9016C16.9452 14.948 16.9137 15.0022 16.8938 15.0611C16.8478 14.9959 16.8203 14.9866 16.7559 14.9773V15.2101L16.8294 15.3871H17.4268Z" fill="white" stroke="black" stroke-width="0.0906863"/>
<path d="M17.4455 16.0017L17.6844 15.6943V15.3963C17.5926 15.3963 17.5466 15.4429 17.4823 15.5453C17.4179 15.3311 17.2984 15.2939 17.133 15.1914C16.9583 15.2845 16.8388 15.3311 16.7837 15.536C16.7102 15.4336 16.6642 15.4056 16.5723 15.3963V15.6943L16.8205 16.0017H17.4455Z" fill="white" stroke="black" stroke-width="0.0906863"/>
<path d="M17.5095 16.6074C17.5095 16.6074 17.8037 16.356 17.8128 16.2163V15.8903C17.7025 15.8996 17.6014 15.9275 17.5187 16.0672C17.4451 15.7972 17.3348 15.7226 17.1327 15.6016C16.9213 15.7226 16.811 15.7972 16.7466 16.0672C16.6547 15.9275 16.5628 15.8996 16.4434 15.881V16.2163C16.5205 16.364 16.6233 16.4965 16.7466 16.6074H17.5095Z" fill="white" stroke="black" stroke-width="0.0906863"/>
<path d="M17.6289 17.7244C17.6289 17.7244 18.0333 17.2866 18.0426 17.1097V16.6067C17.8955 16.6254 17.7484 16.7278 17.6381 16.942C17.5462 16.5229 17.3991 16.2342 17.1326 16.0293C16.8569 16.2342 16.7098 16.5229 16.6179 16.942C16.5076 16.7278 16.3697 16.6254 16.2227 16.6067V17.1097C16.2502 17.2866 16.6271 17.7244 16.6271 17.7244H17.6289Z" fill="white" stroke="black" stroke-width="0.0906863"/>
<path d="M17.6289 18.3849C17.6289 18.3849 17.969 18.0403 18.0426 17.8912V17.3883C17.8955 17.4069 17.7484 17.5094 17.6381 17.7143C17.6135 17.5449 17.5562 17.3819 17.4695 17.235C17.3828 17.0879 17.2682 16.9597 17.1326 16.8574C16.8569 17.0623 16.7098 17.2952 16.6179 17.7143C16.5076 17.5094 16.3697 17.4069 16.2227 17.3883V17.8912C16.3146 18.0403 16.6271 18.3849 16.6271 18.3849H17.6289Z" fill="white" stroke="black" stroke-width="0.0906863"/>
<path d="M17.7655 18.7772C17.6736 18.3395 17.5817 18.0135 17.1129 17.6875C16.635 18.0135 16.5523 18.3395 16.4512 18.7772H17.7655Z" fill="white" stroke="black" stroke-width="0.0906863"/>
<path d="M18.0149 19.0181V18.3847C17.7943 18.4779 17.6014 18.5989 17.5279 18.7386C17.4543 18.3847 17.298 18.2357 17.105 18.0215C16.912 18.2357 16.7833 18.394 16.7006 18.7386C16.6271 18.5989 16.434 18.4685 16.2227 18.3847V19.0181H18.0149Z" fill="white" stroke="black" stroke-width="0.0906863"/>
<path d="M32.8593 21.347V19.447C32.9237 19.2048 33.1351 18.9813 33.2822 18.944V17.2676L32.9421 17.4539L32.5469 19.2141V21.3563L32.8593 21.347Z" fill="white" stroke="black" stroke-width="0.0906863"/>
<path d="M32.8593 21.3567V19.4474C32.9237 19.2053 33.1351 18.9817 33.2822 18.9445V17.1562C33.0524 17.1562 32.9421 17.4543 32.9421 17.4543L32.5469 19.2146V21.3474L32.8593 21.3567Z" fill="white" stroke="black" stroke-width="0.0906863"/>
<path d="M33.1087 21.841C32.9524 21.7758 32.7226 21.5709 32.7226 21.3753V18.991L32.8329 18.8047H28.8163L28.9726 18.991V21.3753C28.9658 21.474 28.9334 21.5691 28.8785 21.6509C28.8236 21.7327 28.7482 21.7983 28.6602 21.841H33.1087Z" fill="white" stroke="black" stroke-width="0.0906863"/>
<path d="M29.4766 21.8425C29.6327 21.7773 29.8625 21.5724 29.8625 21.3768V19.1135L29.5317 18.7969H32.2523L31.9214 19.1135V21.3768C31.9214 21.5724 32.1512 21.7773 32.3074 21.8425H29.4766Z" fill="white" stroke="black" stroke-width="0.0906863"/>
<path d="M29.8555 21.8416C30.0117 21.7764 30.2507 21.5715 30.2507 21.3759V19.3269L30.0301 19.0195H31.758L31.5374 19.3269V21.3759C31.5374 21.5715 31.7672 21.7764 31.9326 21.8416H29.8555Z" fill="white" stroke="black" stroke-width="0.0906863"/>
<path d="M31.2985 19.0195H30.4805V21.8509H31.3077L31.2985 19.0195Z" fill="white" stroke="black" stroke-width="0.0906863"/>
<path d="M32.4287 19.8013H32.0978V21.3381H32.4287V19.8013ZM29.5978 19.8013H29.2762V21.3381H29.607L29.5978 19.8013ZM32.7136 17.2121H32.3092V18.7954H32.7136V17.2121ZM32.7136 16.9141H32.3184V17.2121H32.7136V16.9141ZM29.4415 17.5567H28.8809V18.7675H29.4415V17.5567Z" fill="white"/>
<path d="M32.7136 17.2121H32.3092V18.7954H32.7136V17.2121ZM32.7136 17.2121H32.3184V16.9141H32.7136V17.2121ZM32.4287 19.8013H32.0978V21.3381H32.4287V19.8013ZM29.5978 19.8013H29.2762V21.3381H29.607L29.5978 19.8013ZM29.4415 17.5567H28.8809V18.7675H29.4415V17.5567Z" stroke="black" stroke-width="0.0906863" stroke-linejoin="bevel"/>
<path d="M32.3171 18.7768V16.0759C32.2068 16.0759 32.1884 16.4764 31.9311 16.4764C31.7932 16.4764 31.8024 16.3087 31.8851 16.1783C31.9494 16.0572 32.0322 15.8989 31.9219 15.5916C31.8391 15.8244 31.637 15.8989 31.6737 15.7592C31.7381 15.5077 31.9311 15.4612 31.784 15.0793C31.7381 15.396 31.5359 15.3866 31.5818 15.2004C31.637 14.9862 31.7565 14.893 31.6094 14.595C31.5267 14.9396 31.4256 14.921 31.4256 14.7067C31.4256 14.3901 31.4256 14.0548 31.0395 13.9337C31.0395 13.9337 31.012 13.6543 30.8649 13.6543C30.7271 13.6543 30.6994 13.9337 30.6994 13.9337C30.3042 14.0548 30.3134 14.3994 30.3134 14.7067C30.3134 14.921 30.2124 14.9396 30.1296 14.595C29.9826 14.893 30.1021 14.9862 30.1572 15.2004C30.2031 15.3866 30.0009 15.396 29.955 15.0793C29.808 15.4612 30.0009 15.5077 30.0653 15.7592C30.1021 15.8989 29.8998 15.8244 29.8171 15.5916C29.7068 15.8989 29.7895 16.0572 29.8538 16.1783C29.9274 16.3087 29.9458 16.4764 29.808 16.4764C29.5506 16.4764 29.5322 16.0852 29.4219 16.0852V18.7768H32.3171ZM32.9513 16.7371V18.7955H32.7215V16.7371C32.8042 16.6906 32.8778 16.6906 32.9513 16.7371Z" fill="white" stroke="black" stroke-width="0.0906863"/>
<path d="M32.9337 18.0709C32.6488 18.2199 32.3639 18.3969 32.2904 18.7974H32.9337V18.0709ZM28.9631 17.4562V18.7974H28.7793V17.4562C28.8345 17.4283 28.9172 17.419 28.9631 17.4562Z" fill="white" stroke="black" stroke-width="0.0906863"/>
<path d="M28.7793 18.0689C29.0642 18.2087 29.3491 18.3763 29.4226 18.7861H28.7793V18.0689ZM30.6726 14.9302L30.5072 14.7905V14.6042C30.5623 14.6042 30.5991 14.6322 30.6451 14.6974C30.6629 14.6376 30.6924 14.582 30.7319 14.534C30.7714 14.486 30.82 14.4466 30.8749 14.418C30.9305 14.4445 30.9803 14.4821 31.0214 14.5285C31.0624 14.5749 31.0938 14.6291 31.1138 14.6881C31.1598 14.6229 31.1873 14.6136 31.2517 14.5949V14.7812L31.0863 14.9302H30.6726Z" fill="white" stroke="black" stroke-width="0.0906863"/>
<path d="M30.5813 15.3871L30.5078 15.2101V14.9773C30.5629 14.9773 30.5997 15.0052 30.6457 15.0704C30.6635 15.0106 30.693 14.955 30.7325 14.9071C30.7719 14.8591 30.8206 14.8196 30.8755 14.791C30.931 14.8176 30.9809 14.8551 31.0219 14.9015C31.063 14.948 31.0944 15.0022 31.1144 15.0611C31.1604 14.9959 31.1879 14.9866 31.2522 14.9773V15.2101L31.1787 15.3871H30.5813Z" fill="white" stroke="black" stroke-width="0.0906863"/>
<path d="M30.5612 16.0017L30.3223 15.6943V15.3963C30.4141 15.3963 30.4601 15.4429 30.5244 15.5453C30.5887 15.3311 30.7082 15.2939 30.8737 15.1914C31.0483 15.2845 31.1679 15.3311 31.223 15.536C31.2965 15.4336 31.3425 15.4056 31.4343 15.3963V15.6943L31.1862 16.0017H30.5612Z" fill="white" stroke="black" stroke-width="0.0906863"/>
<path d="M30.4985 16.6074C30.4985 16.6074 30.2044 16.356 30.1953 16.2163V15.8903C30.3056 15.8996 30.4067 15.9275 30.4894 16.0672C30.563 15.7972 30.6733 15.7226 30.8754 15.6016C31.0868 15.7226 31.1971 15.7972 31.2615 16.0672C31.3533 15.9275 31.4453 15.8996 31.5647 15.881V16.2163C31.4876 16.3639 31.3848 16.4965 31.2615 16.6074H30.4985Z" fill="white" stroke="black" stroke-width="0.0906863"/>
<path d="M30.3785 17.7244C30.3785 17.7244 29.9741 17.2866 29.9648 17.1097V16.6067C30.1119 16.6254 30.259 16.7278 30.3693 16.942C30.4612 16.5229 30.6083 16.2342 30.8747 16.0293C31.1505 16.2342 31.2976 16.5229 31.3895 16.942C31.4997 16.7278 31.6377 16.6254 31.7847 16.6067V17.1097C31.7571 17.2866 31.3803 17.7244 31.3803 17.7244H30.3785Z" fill="white" stroke="black" stroke-width="0.0906863"/>
<path d="M30.3785 18.3849C30.3785 18.3849 30.0384 18.0403 29.9648 17.8912V17.3883C30.1119 17.4069 30.259 17.5094 30.3693 17.7143C30.3939 17.5449 30.4511 17.3819 30.5379 17.235C30.6246 17.0879 30.7391 16.9597 30.8747 16.8574C31.1505 17.0623 31.2976 17.2952 31.3895 17.7143C31.4997 17.5094 31.6377 17.4069 31.7847 17.3883V17.8912C31.6928 18.0403 31.3803 18.3849 31.3803 18.3849H30.3785Z" fill="white" stroke="black" stroke-width="0.0906863"/>
<path d="M30.2422 18.7772C30.3341 18.3395 30.426 18.0135 30.8947 17.6875C31.3727 18.0135 31.4554 18.3395 31.5565 18.7772H30.2422Z" fill="white" stroke="black" stroke-width="0.0906863"/>
<path d="M29.9941 19.0181V18.3847C30.2147 18.4779 30.4078 18.5989 30.4813 18.7386C30.5548 18.3847 30.7111 18.2357 30.9041 18.0215C31.0971 18.2357 31.2258 18.394 31.3086 18.7386C31.3821 18.5989 31.575 18.4685 31.7865 18.3847V19.0181H29.9941Z" fill="white" stroke="black" stroke-width="0.0906863"/>
<path d="M12.7303 24.1514H35.2762V25.3156H12.7303V24.1514ZM12.1328 25.3156H35.8737V26.4798H12.1328V25.3156ZM13.9159 22.4004H34.0813V23.1548H13.9159V22.4004Z" fill="white" stroke="black" stroke-width="0.0906863"/>
<path d="M13.3281 23.1541H34.6884V24.1414H13.3281V23.1541ZM14.2656 21.8223H33.7509V22.3997H14.2656V21.8223Z" fill="white" stroke="black" stroke-width="0.0906863"/>
<path d="M16.3809 21.8223H17.8514V26.4791H16.3809V21.8223Z" fill="white" stroke="black" stroke-width="0.0906863"/>
<path d="M16.7104 21.8223H17.5283V26.4791H16.7012L16.7104 21.8223ZM23.2361 21.8223H24.7067V26.4791H23.2361V21.8223Z" fill="white" stroke="black" stroke-width="0.0906863"/>
<path d="M23.5762 21.8223H24.4034V26.4791H23.5762V21.8223ZM30.1478 21.8223H31.6184V26.4791H30.1478V21.8223Z" fill="white" stroke="black" stroke-width="0.0906863"/>
<path d="M30.4688 21.8223H31.2959V26.4791H30.4688V21.8223Z" fill="white" stroke="black" stroke-width="0.0906863"/>
<path d="M15.1465 21.3457H32.8854M16.6906 25.8908H17.5362M16.6906 25.304H17.5362M16.6906 24.7266H17.5362M16.6906 24.1398H17.5362M16.6906 23.5624H17.5362M16.6906 22.9756H17.5362M16.6906 22.3982H17.5362M23.5839 25.8908H24.3744M23.5839 25.304H24.3744M23.5839 24.7266H24.3744M23.5839 24.1398H24.3744M23.5839 23.5624H24.3744M23.5839 22.9756H24.3744M23.5839 22.3982H24.3744M30.4589 25.8908H31.3045M30.4589 25.304H31.3045M30.4589 24.7266H31.3045M30.4589 24.1398H31.3045M30.4589 23.5624H31.3045M30.4589 22.9756H31.3045M30.4589 22.3982H31.3045" stroke="black" stroke-width="0.0906863"/>
</g>
</g>
<defs>
<clipPath id="clip0_35_34103">
<rect width="50" height="37.2549" fill="white" transform="translate(-1)"/>
</clipPath>
</defs>
</svg>
