<svg width="48" height="36" viewBox="0 0 48 36" fill="none" xmlns="http://www.w3.org/2000/svg">
<g clip-path="url(#clip0_35_33512)">
<g clip-path="url(#clip1_35_33512)">
<mask id="mask0_35_33512" style="mask-type:luminance" maskUnits="userSpaceOnUse" x="-1" y="-1" width="50" height="37">
<path d="M44.5883 -1H3.4118C1.24598 -1 -0.509766 0.743733 -0.509766 2.89474V32.1053C-0.509766 34.2563 1.24598 36 3.4118 36H44.5883C46.7541 36 48.5098 34.2563 48.5098 32.1053V2.89474C48.5098 0.743733 46.7541 -1 44.5883 -1Z" fill="white"/>
</mask>
<g mask="url(#mask0_35_33512)">
<path d="M-0.509766 -1H48.5098V17.5H-0.509766V-1Z" fill="#0038A8"/>
<path d="M-0.509766 17.5H48.5098V36H-0.509766V17.5Z" fill="#CE1126"/>
<path d="M31.33 17.5L-0.509766 36V-1" fill="white"/>
<path d="M1.53524 2.26758L2.63051 3.23883L3.90196 2.52966L3.33518 3.87862L4.40747 4.8807L2.95221 4.75737L2.3318 6.0832L2.00245 4.65717L0.5625 4.47216L1.81097 3.70133L1.53524 2.26758ZM26.3361 15.5491L26.3668 17.0136L27.7454 17.4993L26.3668 17.9771L26.3361 19.4418L25.4553 18.2778L24.0613 18.7018L24.8884 17.4993L24.0613 16.2968L25.4553 16.7207L26.3361 15.5491ZM2.33946 28.9153L2.95221 30.2411L4.40747 30.1178L3.34283 31.1198L3.90962 32.4689L2.63818 31.7673L1.53524 32.7232L1.81097 31.2818L0.5625 30.5264L2.01011 30.3414L2.33946 28.9153ZM11.0864 9.72156L10.6116 10.1994L10.8489 13.8223L10.6192 13.8455L10.1825 10.5386L9.79196 10.9241L10.3741 13.8841C9.90343 13.9772 9.45569 14.1633 9.05667 14.4314L7.39461 11.9339H6.84314L8.8652 14.5778C8.80227 14.6272 8.74097 14.6786 8.68137 14.7319L6.29932 11.9955H5.6253V12.6739L8.33671 15.0634L8.18352 15.2561L5.55637 13.2289V13.7761L8.04565 15.4489C7.78523 15.8496 7.59374 16.2968 7.50184 16.7746L4.56832 16.1889L4.1777 16.5743L7.46354 17.0136C7.44823 17.0907 7.44057 17.1755 7.44057 17.2526L3.84069 17.0214L3.3658 17.4993L3.84069 17.9771L7.44057 17.7382L7.46354 17.9771L4.1777 18.4166L4.56067 18.8019L7.50184 18.2161C7.59448 18.6898 7.77929 19.1404 8.04565 19.5419L5.55637 21.2146V21.7696L8.18352 19.7423C8.23257 19.8057 8.28366 19.8673 8.33671 19.9273L5.6253 22.3169V22.9953H6.30698L8.68137 20.2666L8.87284 20.4207L6.84314 23.0646H7.39461L9.05667 20.5594C9.44726 20.8216 9.89922 21.0143 10.3741 21.1068L9.79196 24.0668L10.1749 24.4521L10.6116 21.1453C10.6881 21.1607 10.7647 21.1684 10.8489 21.1684L10.6192 24.7914L11.0864 25.2693L11.5689 24.7914L11.3315 21.1684L11.5613 21.1453L11.9978 24.4598L12.3884 24.0668L11.8064 21.1068C12.2771 21.0135 12.7248 20.8275 13.1237 20.5594L14.7859 23.0646H15.3374L13.3153 20.4207C13.3781 20.3713 13.4395 20.3199 13.4991 20.2666L15.8812 22.9953H16.5551V22.3169L13.8437 19.9273L13.997 19.7423L16.6241 21.7696V21.2146L14.1348 19.5419C14.3952 19.1489 14.5867 18.6941 14.6786 18.2161L17.6122 18.8019L18.0027 18.4166L14.7169 17.9771C14.7323 17.9001 14.7399 17.823 14.7399 17.7382L18.3398 17.9694L18.8146 17.4993L18.3398 17.0214L14.7399 17.2526L14.7169 17.0214L18.0027 16.5819L17.6198 16.1966L14.6786 16.7746C14.586 16.3009 14.4012 15.8504 14.1348 15.4489L16.6241 13.7761V13.2289L13.997 15.2561C13.9478 15.1928 13.8968 15.1311 13.8437 15.0711L16.5551 12.6816V11.9955H15.8812L13.5068 14.7319C13.4446 14.6784 13.3808 14.627 13.3153 14.5778L15.3374 11.9339H14.7859L13.1237 14.4314C12.7331 14.1693 12.2813 13.9766 11.8064 13.8841L12.3884 10.9318L12.0055 10.5464L11.5689 13.8455L11.3315 13.8223L11.5613 10.1994L11.0864 9.72156Z" fill="#FCD116"/>
</g>
</g>
</g>
<defs>
<clipPath id="clip0_35_33512">
<rect width="48" height="36" rx="8" fill="white"/>
</clipPath>
<clipPath id="clip1_35_33512">
<rect width="50" height="37" fill="white" transform="translate(-1 -1)"/>
</clipPath>
</defs>
</svg>
