<svg width="48" height="36" viewBox="0 0 48 36" fill="none" xmlns="http://www.w3.org/2000/svg">
<g clip-path="url(#clip0_35_33013)">
<g clip-path="url(#clip1_35_33013)">
<mask id="mask0_35_33013" style="mask-type:luminance" maskUnits="userSpaceOnUse" x="-1" y="0" width="50" height="36">
<path d="M44.5883 0H3.4118C1.24598 0 -0.509766 1.69661 -0.509766 3.78947V32.2105C-0.509766 34.3034 1.24598 36 3.4118 36H44.5883C46.7541 36 48.5098 34.3034 48.5098 32.2105V3.78947C48.5098 1.69661 46.7541 0 44.5883 0Z" fill="white"/>
</mask>
<g mask="url(#mask0_35_33013)">
<mask id="mask1_35_33013" style="mask-type:luminance" maskUnits="userSpaceOnUse" x="-1" y="0" width="50" height="36">
<path d="M-0.507812 0H48.507V36H-0.507812V0Z" fill="white"/>
</mask>
<g mask="url(#mask1_35_33013)">
<path fill-rule="evenodd" clip-rule="evenodd" d="M-3.57422 0H51.5728V36H-3.57422V0Z" fill="#165D31"/>
<path fill-rule="evenodd" clip-rule="evenodd" d="M10.3196 10.2019C10.2622 11.0458 10.176 12.5222 10.9156 12.6769C11.7988 12.7613 11.3105 11.2145 11.6336 10.9332C11.6911 10.7926 11.7988 10.7926 11.806 10.9684V12.2832C11.806 12.7051 12.0932 12.8316 12.3086 12.9161C12.5384 12.9019 12.6964 12.9161 12.7826 13.1269L12.8975 15.3981C12.8975 15.3981 13.4288 15.5528 13.4576 14.1254C13.4791 13.2816 13.2852 12.5855 13.4001 12.4238C13.4001 12.2621 13.6155 12.2551 13.7591 12.3325C13.9889 12.4871 14.0894 12.6839 14.4484 12.6137C14.9942 12.4589 15.3245 12.1988 15.3317 11.7911C15.3209 11.3902 15.2357 10.9948 15.0804 10.6238C15.109 10.5535 14.9798 10.3637 15.0085 10.2934C15.1019 10.4481 15.2526 10.4339 15.2814 10.2934C15.188 9.99806 15.0444 9.70978 14.8147 9.59022C14.6208 9.42149 14.3335 9.44962 14.2402 9.8012C14.1827 10.2019 14.3838 10.6731 14.6782 11.0668C14.7428 11.2145 14.829 11.4676 14.7931 11.6926C14.6352 11.7839 14.4772 11.7418 14.3408 11.6082C14.3408 11.6082 13.9099 11.2918 13.9099 11.2145C14.0248 10.4972 13.9315 10.4129 13.8669 10.2089C13.8237 9.93478 13.6874 9.84336 13.5796 9.66051C13.4719 9.54806 13.3282 9.54806 13.2565 9.66051C13.0626 9.98395 13.156 10.6801 13.2924 10.9965C13.3929 11.2848 13.5437 11.4676 13.4719 11.4676C13.4144 11.6293 13.2924 11.5871 13.199 11.3972C13.0939 10.9977 13.0432 10.5864 13.0482 10.1738C13.0124 9.85037 12.9692 9.16134 12.7467 8.97852C12.6174 8.80978 12.4235 8.89415 12.3517 9.04884C12.3327 9.36296 12.34 9.67804 12.3732 9.99105C12.5169 10.5113 12.5672 10.9754 12.6389 11.5028C12.6605 12.2129 12.2225 11.8121 12.244 11.4535C12.3382 11.0027 12.3309 10.5372 12.2225 10.0895C12.1507 9.90664 12.0717 9.86448 11.8922 9.89262C11.7557 9.89262 11.4039 10.2652 11.3033 10.8981C11.3033 10.8981 11.2172 11.2215 11.1813 11.5098C11.131 11.8332 10.9156 12.0722 10.7576 11.4676C10.6283 11.0246 10.5422 9.9488 10.3268 10.2019H10.3196Z" fill="white"/>
<path fill-rule="evenodd" clip-rule="evenodd" d="M12.7256 13.6545L10.4277 14.7373C10.4493 14.224 11.512 13.3029 12.2445 13.2959C12.7113 13.3029 12.5964 13.4716 12.7184 13.6545H12.7256Z" fill="white"/>
<path fill-rule="evenodd" clip-rule="evenodd" d="M12.3165 14.3578C11.1101 17.4164 15.1527 17.8453 15.6052 14.4844C15.6482 14.3437 15.8206 14.2101 15.8493 14.4351C15.756 17.4797 12.7185 17.6836 12.2016 16.7273C12.0799 16.3983 12.0191 16.0507 12.0221 15.7007C11.9502 15.1031 11.6271 15.3351 11.5769 15.9257C11.5266 16.2563 11.541 16.3477 11.541 16.664C11.6989 19.0687 15.6123 18.0351 16.2514 16.0523C16.5889 14.9554 16.1939 14.1468 16.3735 14.1468C16.7613 14.5547 17.307 14.2031 17.429 14.0624C17.4793 13.9921 17.6085 13.943 17.6947 14.0344C17.9963 14.2453 18.5276 14.1468 18.6425 13.7742C18.7072 13.4016 18.7574 13.0218 18.7718 12.6351C18.5205 12.7054 18.341 12.7547 18.3194 12.8601L18.2691 13.1836C18.2476 13.289 18.0394 13.289 18.025 13.1554C17.9317 12.7336 17.5439 12.6844 17.307 13.3313C17.1562 13.4578 16.8689 13.486 16.8402 13.2961C16.8761 12.8601 16.6966 12.8039 16.3375 13.0078L15.9929 10.4624C16.1366 10.4624 16.2801 10.568 16.4166 10.3992C16.2729 9.94214 15.9498 9.01404 15.7703 8.94373C15.6914 8.84529 15.6195 8.90857 15.5046 8.9367C15.3179 8.99295 15.1456 9.14763 15.203 9.45701C15.4184 10.7789 15.5621 11.7844 15.7847 13.1133C15.8206 13.2609 15.6914 13.4648 15.519 13.4437C15.2318 13.2539 15.16 12.8671 14.6573 12.8813C14.2983 12.8813 13.8962 13.268 13.8459 13.6336C13.7813 13.9289 13.7597 14.2453 13.8459 14.4984C14.0972 14.7937 14.3988 14.7656 14.6645 14.7023C14.8799 14.611 15.0594 14.4 15.1384 14.4492C15.1887 14.5124 15.1456 15.2156 14.1116 15.75C13.4869 16.0313 12.9842 16.0874 12.7185 15.5883C12.5534 15.2718 12.7329 14.0836 12.3165 14.3578Z" fill="white"/>
<path fill-rule="evenodd" clip-rule="evenodd" d="M17.4655 11.2498C17.7025 11.1654 18.8514 9.87161 18.8514 9.87161L18.6791 9.73102C18.6145 9.68176 18.6216 9.62558 18.6791 9.57632C18.9663 9.40757 18.8729 9.05602 18.7294 8.88727C18.6318 8.84073 18.5246 8.81713 18.4161 8.81835C18.3077 8.81957 18.201 8.84558 18.1047 8.8943C17.9036 9.08414 17.8604 9.38649 18.0185 9.56931C18.1693 9.6396 18.3201 9.79431 18.2195 9.87862C17.7455 10.3709 16.4602 11.2216 16.611 11.2498C16.6398 11.2919 17.4368 11.2919 17.4584 11.2498H17.4655ZM10.5003 15.82C10.0696 16.495 10.0336 17.5006 10.2705 17.8029C10.3999 17.9435 10.6081 18.0068 10.7589 17.9576C11.0317 17.845 11.1538 17.3037 11.0892 17.1139C10.9958 16.9732 10.924 16.9522 10.8306 17.0646C10.644 17.4443 10.565 17.1842 10.5435 16.9732C10.5229 16.6159 10.5421 16.2576 10.6008 15.9045C10.6511 15.6092 10.6008 15.6935 10.5003 15.82ZM28.9617 14.7443C28.5452 13.8583 27.9636 12.9865 27.7841 12.656C27.2245 11.7898 26.6304 10.9454 26.0033 10.1248C25.5581 9.60446 26.7357 10.3427 25.8597 9.30211L25.2206 8.77477C25.077 8.67633 24.7323 8.49351 24.6749 8.78883C24.6461 9.05601 24.6605 9.19664 24.7036 9.41461C24.7395 9.55519 24.955 9.80132 25.0626 9.94191C26.5348 11.8512 27.8277 13.8868 28.9258 16.024C29.1125 15.9326 29.0694 14.8919 28.9617 14.7443Z" fill="white"/>
<path fill-rule="evenodd" clip-rule="evenodd" d="M27.1306 17.6835C27.0444 17.775 27.3317 18.1617 27.7051 18.1617C28.3226 18.0914 28.8684 17.7539 29.371 16.8539C29.5752 16.5545 29.7055 16.2127 29.7516 15.8554C29.8124 14.1485 29.6727 12.4404 29.3351 10.7648C29.3136 10.6242 29.3351 10.4554 29.3494 10.4133C29.3926 10.3641 29.529 10.4133 29.6008 10.2937C29.7085 10.1883 29.3136 9.30936 29.0982 8.97889C29.0263 8.8242 28.9904 8.72576 28.8612 8.99296C28.7052 9.28777 28.6309 9.61746 28.6457 9.94923C28.9401 11.9531 29.0335 13.7039 29.2202 15.7078C29.2418 15.9047 29.2131 16.1859 29.0766 16.2984C28.5347 16.8892 27.8717 17.3612 27.1306 17.6835ZM35.496 17.6765C35.0508 17.9297 35.0508 18.218 35.4099 18.225C36.0274 18.1547 36.7598 18.1054 37.2625 17.3601C37.44 17.0091 37.5427 16.6263 37.5641 16.2351C37.6544 14.5545 37.5412 12.8693 37.2266 11.2148C37.2122 11.0742 37.1476 10.7437 37.1692 10.7015C37.2122 10.6031 37.4133 10.7085 37.4851 10.5961C37.5856 10.4907 36.9609 9.7031 36.7383 9.3656C36.6665 9.21092 36.6378 9.11249 36.5013 9.37967C36.3567 9.67724 36.3115 10.0118 36.3721 10.3359C36.7024 12.5157 36.9465 14.1468 36.9968 16.0734C36.9681 16.2562 36.9609 16.3547 36.8747 16.5867C36.6808 16.8258 36.4654 17.1351 36.2643 17.2828C36.0634 17.4234 35.6325 17.5641 35.496 17.6765Z" fill="white"/>
<path fill-rule="evenodd" clip-rule="evenodd" d="M35.8269 15.729C35.8269 15.2157 35.8341 14.7798 35.8197 14.393C35.8151 14.0655 35.7417 13.7425 35.6043 13.4439C35.4751 13.1556 35.5541 12.9236 35.4894 12.6142C35.4319 12.3048 35.4463 11.8407 35.3602 11.4822C35.3314 11.3415 35.2597 10.8845 35.2811 10.8353C35.3171 10.7369 35.4535 10.8353 35.5253 10.7227C35.6258 10.6173 35.1662 9.45714 34.9365 9.12667C34.8575 8.97901 34.6996 9.02824 34.5201 9.2673C34.3405 9.42901 34.4052 9.7876 34.4769 10.1322C34.915 12.4032 35.2524 14.4634 35.1806 16.622C35.1519 16.8048 35.8269 16.0736 35.8269 15.729ZM32.5453 12.9165C32.2653 12.9025 31.6837 12.3751 31.5113 12.0727C31.4831 11.9989 31.4711 11.92 31.476 11.8413C31.481 11.7625 31.5028 11.6857 31.5401 11.6157C31.6478 11.5454 31.8057 11.4751 31.9278 11.5454C31.9278 11.5454 32.0499 11.7142 32.0284 11.7353C32.1719 11.8056 32.2438 11.7704 32.2581 11.7072C32.2653 11.6017 32.2151 11.5384 32.2151 11.4259C32.2797 11.1025 32.6458 11.0532 32.7895 11.2572C32.8901 11.3837 32.9331 11.6439 32.9403 11.8196C32.9403 11.911 32.7967 11.8056 32.7033 11.8196C32.6244 11.8477 32.6028 11.9462 32.5956 12.0306C32.5812 12.2626 32.5525 12.6353 32.5453 12.9095V12.9165ZM27.3897 16.2915C27.4615 15.6025 27.3609 14.372 27.3538 13.9642C27.3153 12.9153 27.2267 11.8689 27.0881 10.8282C27.0019 10.2376 27.3322 10.8915 27.2892 10.547C27.1814 9.96343 26.8511 9.5626 26.4562 9.03527C26.3342 8.85948 26.3342 8.82433 26.1402 9.07745C25.9249 9.54858 26.1115 9.87902 26.169 10.2517C26.449 11.461 26.6142 12.572 26.6932 13.6759C26.7758 14.8227 26.7854 15.9733 26.7219 17.1212C26.9373 17.1282 27.2676 16.7907 27.3897 16.2915Z" fill="white"/>
<path fill-rule="evenodd" clip-rule="evenodd" d="M36.7816 15.1879C36.2861 14.3724 35.5465 13.5005 35.3454 13.17C34.6796 12.2595 33.9802 11.373 33.2487 10.5122C32.6383 9.87936 33.5359 10.4067 33.1338 9.91451C32.7963 9.55593 32.7029 9.4364 32.4085 9.21843C32.265 9.12703 32.1788 8.95124 32.1214 9.25359C32.0984 9.51548 32.0936 9.77856 32.107 10.0411C32.107 10.1606 32.2363 10.3926 32.3511 10.5332C33.8375 12.3262 35.4675 14.1544 36.7744 16.4536C36.9611 16.3622 36.8965 15.3286 36.7744 15.1879H36.7816Z" fill="white"/>
<path fill-rule="evenodd" clip-rule="evenodd" d="M14.4204 13.69C14.3845 13.7532 14.3056 13.8305 14.3343 13.9078C14.3845 13.9782 14.4348 13.9993 14.521 13.9993C14.5999 13.9993 14.7148 14.0204 14.7364 13.9782C14.7795 13.929 14.8082 13.8376 14.7795 13.7461C14.6933 13.5352 14.4635 13.6196 14.4204 13.69Z" fill="#165D31"/>
<path fill-rule="evenodd" clip-rule="evenodd" d="M31.0517 25.4887C31.7122 25.5169 32.143 25.5239 32.7247 25.5872L33.414 25.5169C34.1752 25.4466 34.2039 26.5786 34.2039 26.5786C34.2039 27.2466 33.9382 27.2817 33.6008 27.352C33.4068 27.3802 33.3135 27.2396 33.2058 27.0989C33.0434 27.1499 32.8704 27.1596 32.7031 27.127C32.4231 27.113 32.1503 27.113 31.8773 27.0919C31.5902 27.0708 31.4321 27.127 31.1377 27.0989C31.0804 27.1903 30.9942 27.3169 30.8218 27.2817C30.6782 27.2606 30.4987 26.8599 30.549 26.5434C30.6566 26.3184 30.6208 26.3958 30.6208 26.2974C27.9209 26.227 25.1994 26.1076 22.5569 26.1427C20.4889 26.1497 18.4497 26.2341 16.4032 26.3184C15.3117 26.3044 14.4788 26.1356 13.9043 25.313C13.9617 25.313 16.6904 25.4607 17.4874 25.4114C18.9595 25.3974 20.3094 25.2779 21.8102 25.2356C24.7686 25.2849 27.7055 25.2849 30.6639 25.4887C30.3766 25.2989 30.3767 24.856 30.8074 24.7434C30.8434 24.7153 30.8649 24.9614 30.9295 24.9544C31.2814 24.9333 31.1234 25.3974 31.0517 25.4887ZM19.1606 9.51374C18.7154 10.7653 19.419 12.1434 19.9073 12.0099C20.2664 12.1505 20.4817 11.4896 20.6254 10.7724C20.7331 10.5684 20.8049 10.5474 20.8552 10.6529C20.8408 11.6091 20.9269 11.827 21.1783 12.1153C21.7383 12.5372 22.2051 12.1716 22.241 12.1364L22.6718 11.7076C22.7723 11.602 22.9017 11.602 23.038 11.6864C23.1745 11.806 23.1529 12.0099 23.4402 12.1505C23.6843 12.2489 24.1941 12.1786 24.3162 11.9747C24.4742 11.7005 24.5172 11.6091 24.5891 11.5106C24.704 11.363 24.8978 11.4263 24.8978 11.4755C24.8763 11.5599 24.7614 11.6372 24.8404 11.7919C24.984 11.8903 25.0127 11.827 25.0917 11.806C25.3789 11.6653 25.5944 11.0607 25.5944 11.0607C25.6016 10.8356 25.4722 10.8497 25.3862 10.906L25.1635 11.0536C25.0199 11.0747 24.7542 11.1661 24.6178 10.9622C24.4814 10.7232 24.4814 10.3786 24.3809 10.1326C24.3809 10.1184 24.1941 9.74585 24.3665 9.72472C24.4526 9.73874 24.6321 9.788 24.6609 9.64031C24.747 9.49271 24.4742 9.07784 24.2803 8.8669C24.1152 8.69112 23.8854 8.67002 23.6627 8.85284C23.5048 8.99347 23.5264 9.14815 23.4976 9.29581C23.4704 9.40162 23.4692 9.51223 23.4942 9.61861C23.5191 9.725 23.5695 9.824 23.6413 9.90756C23.7992 10.2029 24.0792 10.5896 23.9859 11.138C23.9859 11.138 23.8208 11.3911 23.5335 11.356C23.4115 11.3349 23.2175 11.2856 23.117 10.5263C23.038 9.96374 23.1314 9.16221 22.8872 8.78955C22.7939 8.55752 22.7293 8.33955 22.5139 8.72628C22.4565 8.88096 22.2051 9.11299 22.3846 9.58413C22.5545 10.0086 22.6041 10.4702 22.5282 10.92C22.4205 11.0747 22.399 11.1239 22.2625 11.2716C22.0759 11.4826 21.8676 11.4263 21.7097 11.3489C21.5661 11.2576 21.4512 11.2083 21.3793 10.8919C21.3937 10.3997 21.4224 9.59114 21.3291 9.42237C21.1926 9.15518 20.9701 9.25362 20.8766 9.33799C20.4495 9.80269 20.1635 10.375 20.051 10.9903C19.9216 11.3982 19.7853 11.2786 19.6918 11.1169C19.4621 10.906 19.4406 9.23955 19.1606 9.51374Z" fill="white"/>
<path fill-rule="evenodd" clip-rule="evenodd" d="M20.51 12.2416C20.7183 12.101 20.6248 12.0026 20.9265 12.2979C21.3157 12.9723 21.5417 13.7253 21.5871 14.4987C21.5727 14.6815 21.702 14.794 21.7666 14.7519C21.7953 14.3299 22.8509 13.7393 23.8202 13.6549C23.9638 13.6198 23.8921 13.3456 23.9135 13.2049C23.8561 12.6776 24.2152 12.1995 24.7179 12.1643C25.4072 12.2628 25.637 12.6213 25.6513 13.1628C25.5723 14.2175 24.4522 14.3932 23.8274 14.4776C23.734 14.5128 23.691 14.5549 23.8274 14.6042L26.4555 14.6182L26.592 14.6886C26.6063 14.7589 26.5488 14.7026 26.4484 14.8713C26.3037 15.12 26.2134 15.3953 26.1827 15.6799C25.4 15.933 24.5885 16.0315 23.77 16.137C23.4828 16.2776 23.3391 16.4675 23.3966 16.6783C23.4971 16.9104 24.129 17.1495 24.129 17.1565C24.2511 17.2269 24.3875 17.4026 24.0931 17.7612C22.8149 17.7049 21.8169 17.1706 21.4722 16.4182C21.3717 16.3409 21.2568 16.4182 21.1849 16.5166C20.6823 17.1495 20.194 17.712 19.3395 18.0213C18.8369 18.1479 18.3127 17.944 18.0685 17.6206C17.9034 17.4307 17.9106 17.2269 17.8532 17.1846C17.5732 17.3042 15.2035 18.2886 15.5051 17.8245C16.0795 17.2269 17.0848 16.7769 17.9609 16.1862C18.0255 15.9823 18.1404 15.3073 18.485 15.0893C18.5066 15.0893 18.4348 15.483 18.442 15.6519C18.442 15.7925 18.4276 15.8416 18.4563 15.8065C18.521 15.7713 19.5836 14.9487 19.6771 14.6956C19.7776 14.5549 19.6985 14.1893 19.6985 14.1753C19.4975 13.669 19.2175 13.6269 19.117 13.3737C19.0235 13.0432 19.0667 12.6636 19.2605 12.551C19.4329 12.4033 19.6339 12.4175 19.8279 12.5862C20.0433 12.776 20.2299 13.1487 20.2874 13.4229C20.2515 13.5283 20.0001 13.3526 19.9284 13.4019C20.0666 13.5573 20.1584 13.7471 20.194 13.9503C20.3377 14.5269 20.2945 14.7519 20.1509 15.1245C19.677 16.1019 19.0738 16.3902 18.5425 16.7557C18.5282 16.7557 18.521 17.0019 18.7148 17.1354C18.7866 17.2057 19.0667 17.2409 19.3898 17.1354C20.0801 16.76 20.6384 16.1889 20.9911 15.4972C21.0521 14.9707 20.9933 14.4376 20.8187 13.9362C20.6105 13.4652 20.3664 12.7972 20.3664 12.783C20.3592 12.4878 20.3807 12.3893 20.51 12.2416ZM13.631 9.5276C13.9326 9.66819 14.507 9.60491 14.4783 9.12683L14.4639 8.90886C14.4065 8.76823 14.2341 8.80339 14.1983 8.94402C14.1838 8.99323 14.2197 9.07058 14.1767 9.09167C14.148 9.11979 14.0546 9.10573 14.0546 8.97213C14.0546 8.92995 14.0259 8.88776 14.0043 8.85963C13.99 8.84557 13.9756 8.84557 13.9397 8.84557C13.8967 8.84557 13.8967 8.85261 13.8751 8.88776C13.868 8.92292 13.8535 8.95808 13.8535 9.00026C13.8535 9.04948 13.8248 9.06355 13.7961 9.07057C13.7531 9.07057 13.7602 9.07057 13.7243 9.05652C13.7099 9.03542 13.6884 9.02839 13.6884 8.9862L13.6669 8.8737C13.6525 8.8526 13.6237 8.83855 13.595 8.83152C13.4299 8.83152 13.4155 9.02136 13.4299 9.09167C13.4155 9.10573 13.4084 9.4362 13.631 9.5276Z" fill="white"/>
<path fill-rule="evenodd" clip-rule="evenodd" d="M22.4979 13.1976C22.7994 13.3382 23.5246 13.2609 23.3451 12.8039L23.3308 12.5789C23.2662 12.4382 23.101 12.4733 23.0651 12.621C23.0507 12.6632 23.0866 12.7406 23.0364 12.7616C23.0148 12.7898 22.9143 12.7757 22.9215 12.6492C22.9215 12.607 22.8928 12.5577 22.8712 12.5296C22.8496 12.5226 22.8425 12.5156 22.7994 12.5156C22.7636 12.5156 22.7636 12.5296 22.742 12.5648C22.7276 12.5999 22.7204 12.6351 22.7204 12.6773C22.7133 12.7195 22.6917 12.7336 22.6558 12.7476C22.6199 12.7476 22.6271 12.7476 22.5984 12.7265C22.5768 12.7054 22.5553 12.6983 22.5553 12.6632L22.5338 12.5507C22.5193 12.5296 22.4906 12.5156 22.4619 12.5086C22.2968 12.5086 22.2824 12.6913 22.2896 12.7616C22.2824 12.7757 22.2752 13.1132 22.505 13.1976H22.4979ZM27.6679 11.6789C27.9694 11.8195 28.5367 11.7562 28.5152 11.2851L28.5008 11.0601C28.4362 10.9195 28.271 10.9546 28.2351 11.0953C28.2208 11.1445 28.2567 11.2218 28.2064 11.2499C28.1848 11.271 28.0843 11.257 28.0915 11.1233C28.0915 11.0812 28.0628 11.039 28.0413 11.0109C28.0197 10.9968 28.0126 10.9968 27.9694 10.9968C27.9336 10.9968 27.9336 11.0109 27.912 11.046L27.8904 11.1515C27.8833 11.2007 27.8617 11.2218 27.8258 11.2218C27.7899 11.2218 27.7971 11.2218 27.7684 11.2077C27.7469 11.1866 27.7253 11.1796 27.7253 11.1445C27.7253 11.1093 27.7182 11.053 27.7038 11.0249C27.6894 11.0039 27.6607 10.9968 27.632 10.9898C27.4668 10.9898 27.4525 11.1726 27.4596 11.2429C27.4525 11.257 27.4452 11.5875 27.675 11.6789H27.6679ZM30.3462 15.4968C29.8221 16.0804 30.0518 17.0437 30.1739 17.2546C30.3462 17.5922 30.4827 17.8101 30.8201 17.9789C31.129 18.1968 31.3731 18.0632 31.5023 17.9086C31.8111 17.5922 31.8183 16.7836 31.9619 16.6289C32.0624 16.3336 32.3209 16.3827 32.443 16.5163C32.5572 16.6751 32.7102 16.8032 32.8882 16.889C33.1754 17.1351 33.52 17.1843 33.8647 16.9593C34.0945 16.8257 34.2453 16.664 34.3817 16.3336C34.5253 15.9398 34.4536 14.1116 34.4177 13.0289L34.116 11.5172C34.116 11.503 34.0801 10.7999 34.0442 10.6382C34.0442 10.5679 34.0227 10.5468 34.0945 10.5539C34.1735 10.6242 34.1807 10.6242 34.2382 10.6453C34.3099 10.6593 34.3817 10.5257 34.3315 10.4132L33.6134 9.1054C33.556 9.04916 33.477 8.9929 33.3837 9.11947C33.3286 9.16829 33.2847 9.22802 33.255 9.29469C33.2253 9.36136 33.2104 9.43345 33.2113 9.50618C33.2329 9.81559 33.2831 10.132 33.3046 10.4413L33.5919 12.0304C33.6852 13.1554 33.7068 14.0836 33.8001 15.2156C33.7857 15.6937 33.6349 16.1086 33.4913 16.1718C33.4913 16.1718 33.2759 16.2913 33.1323 16.1577C33.0246 16.1156 32.6009 15.4616 32.6009 15.4616C32.3855 15.2718 32.2419 15.321 32.0911 15.4616C31.6603 15.8695 31.4736 16.6148 31.1791 17.1351C31.1074 17.2546 30.892 17.346 30.6622 17.128C30.0734 16.3336 30.4181 15.2086 30.3462 15.4968ZM27.8043 8.90853C28.0772 9.014 28.2639 9.55544 28.2064 9.8226C28.149 10.139 28.0053 10.4906 27.9048 10.4483C27.7899 10.4062 27.9766 10.1249 27.869 9.82961C27.8115 9.63275 27.4381 9.28119 27.4812 9.18276C27.4093 8.96479 27.6391 8.86635 27.8043 8.9015V8.90853Z" fill="white"/>
<path fill-rule="evenodd" clip-rule="evenodd" d="M31.2219 15.8203C31.2722 15.1735 31.1788 14.7798 31.1645 14.4001C31.1501 14.0203 30.7264 11.1235 30.6403 10.8422C30.5326 10.2938 31.0496 10.7719 30.9921 10.4485C30.8126 10.0548 30.3746 9.47116 30.2382 9.12663C30.152 8.986 30.1879 8.84539 30.0013 9.09147C29.8405 9.523 29.7839 9.98503 29.8361 10.4415C30.2813 12.7126 30.7336 14.5969 30.6618 16.7555C30.8772 16.7555 31.1142 16.2845 31.2219 15.8203ZM35.8463 9.82275C36.0975 9.94221 36.2412 10.6172 36.2124 10.8071C36.1621 11.1586 36.0329 11.5383 35.9396 11.4892C35.8318 11.4469 35.9612 10.9688 35.9109 10.8212C35.8534 10.6102 35.516 10.2305 35.5518 10.118C35.48 9.87902 35.6955 9.78049 35.8463 9.82275ZM17.4855 14.5969C17.7224 14.6883 17.866 15.1805 17.8445 15.3212C17.787 15.5813 17.665 15.8626 17.5715 15.8203C17.4782 15.7922 17.5931 15.4407 17.5501 15.3282C17.5285 15.068 17.1982 14.9275 17.2054 14.8149C17.1479 14.604 17.349 14.5688 17.4926 14.5969H17.4855Z" fill="white"/>
<path fill-rule="evenodd" clip-rule="evenodd" d="M23.2026 15.3424C23.5041 15.3565 23.6549 15.5955 23.3749 15.694C23.0877 15.7854 22.822 15.8627 22.8148 16.2565C22.9226 16.819 22.6712 16.6221 22.5276 16.5518C22.3552 16.4252 21.867 16.1299 21.7952 15.4971C21.788 15.3495 21.91 15.2158 22.104 15.2158C22.3912 15.2932 22.822 15.3002 23.2026 15.3424Z" fill="#165D31"/>
<path fill-rule="evenodd" clip-rule="evenodd" d="M11.175 8.74654C11.5197 8.84497 11.5411 9.35123 11.5197 9.49892C11.4694 9.76608 11.3473 10.0544 11.2611 10.0192C11.1607 9.98407 11.2611 9.61839 11.2108 9.50593C11.1607 9.35123 10.8662 9.05592 10.895 8.97154C10.8303 8.79576 11.0385 8.71139 11.175 8.74654ZM18.0611 11.1091C17.7883 11.2497 17.6878 11.6715 17.8529 11.9247C18.0109 12.1356 18.2551 12.0582 18.2838 12.0582C18.5495 12.0864 18.7074 11.5731 18.7074 11.5731C18.7074 11.5731 18.7146 11.4325 18.4058 11.7067C18.2694 11.7278 18.2622 11.6785 18.2263 11.6082C18.1935 11.4744 18.206 11.3337 18.2622 11.2075C18.3125 11.0809 18.2119 11.0247 18.0611 11.1091ZM20.0717 8.54966C19.9281 8.64107 19.6624 8.91529 19.6553 9.22466C19.6481 9.40045 19.6122 9.40044 19.7271 9.50593C19.8205 9.6325 19.8994 9.62549 20.0717 9.53407C20.1147 9.50755 20.1515 9.47265 20.18 9.4315C20.2084 9.39035 20.2278 9.34385 20.2369 9.29497C20.28 9.0981 20.0214 9.39342 19.9927 9.16842C19.9354 8.95747 20.1005 8.8731 20.2584 8.67623C20.2584 8.5356 20.2584 8.44419 20.0646 8.54966H20.0717ZM21.6802 8.83092C21.6169 9.08695 21.5784 9.34826 21.5654 9.61138C21.5222 9.80824 21.7808 9.89265 21.8884 9.63951C22.0608 9.18247 22.0608 8.9856 22.0752 8.79576C22.0249 8.49342 21.8166 8.50045 21.6802 8.83092ZM31.8766 13.9145C31.9054 13.8794 33.3128 12.902 33.3128 12.902C33.4564 12.8528 33.4205 13.4082 33.3558 13.4012C32.9194 13.8131 32.4174 14.1527 31.8695 14.4067C31.7977 14.4559 31.733 14.0341 31.8695 13.9145H31.8766ZM33.1476 13.9005C33.399 14.02 33.4995 14.7301 33.4708 14.92C33.4708 15.2997 33.2338 15.595 33.1333 15.5528C33.0327 15.5035 33.1476 15.0817 33.0973 14.9341C33.04 14.7231 32.8317 14.3364 32.8676 14.2239C32.7958 13.9848 32.9968 13.8582 33.1548 13.9005H33.1476ZM24.8181 16.952C24.9346 16.8189 25.0701 16.7028 25.2203 16.6075C25.3639 16.5372 25.4931 16.6637 25.4859 16.6567C25.5074 16.7974 25.3998 16.9168 25.4357 17.0997C25.4644 17.17 25.4859 17.2544 25.6223 17.2262C25.845 17.0505 26.0532 17.0364 26.2686 17.0294C26.4481 17.0364 26.4553 17.3247 26.3405 17.3247C25.9311 17.4091 25.7516 17.5215 25.4572 17.627C25.3136 17.7114 25.1987 17.6059 25.1987 17.5989C25.1987 17.5918 25.1197 17.5215 25.17 17.3387C25.1844 17.1981 25.1269 17.1137 24.9976 17.1278C24.9114 17.1841 24.8253 17.2122 24.7822 17.1067C24.7607 17.0364 24.7535 16.9942 24.8181 16.952ZM34.6268 17.3317C34.6843 17.402 34.7273 17.4724 34.6197 17.5989L34.354 17.8239C34.3109 17.8942 34.2821 18.0208 34.4258 18.0559C34.6843 18.1262 35.2874 17.7395 35.2874 17.7325C35.388 17.6622 35.3593 17.5215 35.3449 17.5215C35.2874 17.4582 35.1582 17.5005 35.072 17.4864C35.029 17.4864 34.8925 17.4724 34.9571 17.3458C35.0054 17.2836 35.0441 17.215 35.072 17.1418C35.1079 17.0575 35.072 17.0012 34.9284 16.952C34.7776 16.9239 34.713 16.9379 34.5478 16.952C34.4616 16.9661 34.433 17.0082 34.4114 17.1137C34.4186 17.2755 34.5191 17.2684 34.6268 17.3247V17.3317Z" fill="white"/>
<path fill-rule="evenodd" clip-rule="evenodd" d="M24.8685 13.3378C24.8326 13.4081 24.7034 13.4081 24.5813 13.3378C24.4592 13.2675 24.3874 13.1549 24.4305 13.0917C24.4736 13.0284 24.5956 13.0284 24.7177 13.0917C24.8398 13.1549 24.9045 13.2745 24.8685 13.3378ZM18.4778 9.56896C18.4059 9.59009 18.3054 9.5268 18.2623 9.42838C18.2193 9.32994 18.2408 9.24557 18.3126 9.22447C18.3845 9.20338 18.4778 9.27369 18.528 9.3651C18.5783 9.45651 18.5496 9.55494 18.4705 9.57606L18.4778 9.56896ZM31.1228 26.3667C31.7978 26.3948 32.4297 26.3667 33.0975 26.4018C33.2196 26.5072 33.1334 26.7534 33.0544 26.7394L32.4943 26.7182C32.4871 26.5072 31.9414 26.5425 31.9557 26.7252C31.6613 26.7604 31.3956 26.7182 31.0941 26.7042C31.0079 26.5987 31.0223 26.4088 31.1228 26.3667Z" fill="#165D31"/>
</g>
</g>
</g>
</g>
<defs>
<clipPath id="clip0_35_33013">
<rect width="50" height="36" fill="white" transform="translate(-1)"/>
</clipPath>
<clipPath id="clip1_35_33013">
<rect width="50" height="36" fill="white" transform="translate(-1)"/>
</clipPath>
</defs>
</svg>
