<svg width="48" height="36" viewBox="0 0 48 36" fill="none" xmlns="http://www.w3.org/2000/svg">
<g clip-path="url(#clip0_35_35280)">
<path d="M-5 -0.5H69V36.5H-5V-0.5Z" fill="#FF0000"/>
<path d="M-5 -0.5H69V24.1667H-5V-0.5Z" fill="#0000FF"/>
<path d="M-5 -0.5H69V11.8333H-5V-0.5Z" fill="white"/>
<path d="M9.01355 6.61259C10.4272 5.98967 11.9552 5.66797 13.5 5.66797C15.0449 5.66797 16.5728 5.98967 17.9865 6.61259C18.4551 13.2396 16.9596 16.9956 13.5 17.8806C10.0404 16.9956 8.54492 13.2396 9.01355 6.61259Z" fill="#0000FF"/>
<path d="M13.4996 7.80273L13.6354 8.11065L13.9699 8.07427L13.7712 8.34581L13.9699 8.61735L13.6354 8.58097L13.4996 8.88889L13.3638 8.58097L13.0293 8.61735L13.2281 8.34581L13.0293 8.07427L13.3638 8.11065" fill="#FFFF00"/>
<path d="M12.232 6.11328L12.3678 6.4212L12.7024 6.38482L12.5036 6.65636L12.7024 6.9279L12.3678 6.89152L12.232 7.19944L12.0963 6.89152L11.7617 6.9279L11.9605 6.65636L11.7617 6.38482L12.0963 6.4212" fill="#FFFF00"/>
<path d="M14.7672 6.11328L14.903 6.4212L15.2375 6.38482L15.0387 6.65636L15.2375 6.9279L14.903 6.89152L14.7672 7.19944L14.6314 6.89152L14.2969 6.9279L14.4957 6.65636L14.2969 6.38482L14.6314 6.4212" fill="#FFFF00"/>
<path d="M13.4994 9.55273L14.5856 11.725L15.3097 10.7596L17.1199 13.1732C17.1199 13.2854 17.1043 13.397 17.0735 13.5048C16.8253 14.3735 16.3706 15.1692 15.7483 15.824C15.1259 16.4789 14.3543 16.9735 13.4994 17.2655C12.6445 16.9735 11.8729 16.4789 11.2506 15.824C10.6282 15.1692 10.1735 14.3735 9.92534 13.5048C9.89453 13.397 9.87891 13.2854 9.87891 13.1732L11.6892 10.7596L12.4133 11.725L13.4994 9.55273Z" fill="white"/>
<path d="M9.92534 13.5039C9.97573 13.6803 10.0657 13.8428 10.1883 13.9793C10.311 14.1157 10.4631 14.2223 10.6331 14.2911C10.8032 14.3599 10.9867 14.389 11.1696 14.3763C11.3526 14.3635 11.5303 14.3092 11.6892 14.2175C11.8726 14.1116 12.0807 14.0558 12.2926 14.0558C12.5044 14.0558 12.7125 14.1116 12.896 14.2175C13.0795 14.3234 13.2876 14.3792 13.4994 14.3792C13.7113 14.3792 13.9194 14.3234 14.1028 14.2175C14.2863 14.1116 14.4944 14.0558 14.7063 14.0558C14.9181 14.0558 15.1262 14.1116 15.3097 14.2175C15.4685 14.3092 15.6462 14.3635 15.8292 14.3763C16.0122 14.389 16.1957 14.3599 16.3657 14.2911C16.5358 14.2223 16.6879 14.1157 16.8105 13.9793C16.9332 13.8428 17.0231 13.6803 17.0735 13.5039L17.1199 13.5207V14.4042C16.9081 14.4042 16.7 14.46 16.5165 14.5659C16.3331 14.6718 16.1249 14.7276 15.9131 14.7276C15.7013 14.7276 15.4931 14.6718 15.3097 14.5659C15.1262 14.46 14.9181 14.4042 14.7063 14.4042C14.4944 14.4042 14.2863 14.46 14.1028 14.5659C13.9194 14.6718 13.7113 14.7276 13.4994 14.7276C13.2876 14.7276 13.0795 14.6718 12.896 14.5659C12.7125 14.46 12.5044 14.4042 12.2926 14.4042C12.0807 14.4042 11.8726 14.46 11.6892 14.5659C11.5057 14.6718 11.2976 14.7276 11.0857 14.7276C10.8739 14.7276 10.6658 14.6718 10.4823 14.5659C10.2989 14.46 10.0908 14.4042 9.87891 14.4042V13.5207" fill="#0000FF"/>
<path d="M9.92534 14.2012C9.97573 14.3775 10.0657 14.5401 10.1883 14.6765C10.311 14.8129 10.4631 14.9196 10.6331 14.9884C10.8032 15.0572 10.9867 15.0863 11.1696 15.0735C11.3526 15.0608 11.5303 15.0065 11.6892 14.9148C11.8726 14.8089 12.0807 14.7531 12.2926 14.7531C12.5044 14.7531 12.7125 14.8089 12.896 14.9148C13.0795 15.0207 13.2876 15.0765 13.4994 15.0765C13.7113 15.0765 13.9194 15.0207 14.1028 14.9148C14.2863 14.8089 14.4944 14.7531 14.7063 14.7531C14.9181 14.7531 15.1262 14.8089 15.3097 14.9148C15.4685 15.0065 15.6462 15.0608 15.8292 15.0735C16.0122 15.0863 16.1957 15.0572 16.3657 14.9884C16.5358 14.9196 16.6879 14.8129 16.8105 14.6765C16.9332 14.5401 17.0231 14.3775 17.0735 14.2012L17.1199 14.218V15.1015C16.9081 15.1015 16.7 15.1572 16.5165 15.2632C16.3331 15.3691 16.1249 15.4248 15.9131 15.4248C15.7013 15.4248 15.4931 15.3691 15.3097 15.2632C15.1262 15.1572 14.9181 15.1015 14.7063 15.1015C14.4944 15.1015 14.2863 15.1572 14.1028 15.2632C13.9194 15.3691 13.7113 15.4248 13.4994 15.4248C13.2876 15.4248 13.0795 15.3691 12.896 15.2632C12.7125 15.1572 12.5044 15.1015 12.2926 15.1015C12.0807 15.1015 11.8726 15.1572 11.6892 15.2632C11.5057 15.3691 11.2976 15.4248 11.0857 15.4248C10.8739 15.4248 10.6658 15.3691 10.4823 15.2632C10.2989 15.1572 10.0908 15.1015 9.87891 15.1015V14.218" fill="#0000FF"/>
<path d="M8.67188 6.76845C8.78461 6.71417 8.89826 6.66178 9.01277 6.61133L9.37127 12.3376C9.44614 13.5334 9.88024 14.6786 10.6168 15.6236C11.3533 16.5685 12.3579 17.2691 13.4992 17.6336C14.6405 17.2691 15.6452 16.5685 16.3817 15.6236C17.1182 14.6786 17.5523 13.5334 17.6272 12.3376L17.9857 6.61133C18.1002 6.66178 18.2138 6.71417 18.3266 6.76845L17.9765 12.3595C17.8961 13.6446 17.4238 14.8741 16.6233 15.8826C15.8228 16.8911 14.7325 17.6301 13.4992 18C12.266 17.6301 11.1757 16.8911 10.3752 15.8826C9.57465 14.8741 9.10237 13.6446 9.02192 12.3595L8.67188 6.76845Z" fill="#FF0000"/>
</g>
<defs>
<clipPath id="clip0_35_35280">
<rect width="74" height="37" fill="white" transform="translate(-5 -0.5)"/>
</clipPath>
</defs>
</svg>
