<svg width="48" height="36" viewBox="0 0 48 36" fill="none" xmlns="http://www.w3.org/2000/svg">
<g clip-path="url(#clip0_35_33046)">
<g clip-path="url(#clip1_35_33046)">
<mask id="mask0_35_33046" style="mask-type:luminance" maskUnits="userSpaceOnUse" x="-1" y="-1" width="50" height="37">
<path d="M44.5883 -1H3.4118C1.24598 -1 -0.509766 0.743733 -0.509766 2.89474V32.1053C-0.509766 34.2563 1.24598 36 3.4118 36H44.5883C46.7541 36 48.5098 34.2563 48.5098 32.1053V2.89474C48.5098 0.743733 46.7541 -1 44.5883 -1Z" fill="white"/>
</mask>
<g mask="url(#mask0_35_33046)">
<path d="M-0.509766 -1H48.5098V11.3334H-0.509766V-1Z" fill="#D90012"/>
<path d="M-0.509766 11.333H48.5098V23.6663H-0.509766V11.333Z" fill="#0033A0"/>
<path d="M-0.509766 23.667H48.5098V36.0004H-0.509766V23.667Z" fill="#F2A800"/>
</g>
</g>
</g>
<defs>
<clipPath id="clip0_35_33046">
<rect width="48" height="36" rx="8" fill="white"/>
</clipPath>
<clipPath id="clip1_35_33046">
<rect width="50" height="37" fill="white" transform="translate(-1 -1)"/>
</clipPath>
</defs>
</svg>
