<svg width="48" height="36" viewBox="0 0 48 36" fill="none" xmlns="http://www.w3.org/2000/svg">
<g clip-path="url(#clip0_35_34440)">
<mask id="mask0_35_34440" style="mask-type:luminance" maskUnits="userSpaceOnUse" x="-1" y="0" width="50" height="36">
<path d="M44.5883 0H3.4118C1.24598 0 -0.509766 1.69661 -0.509766 3.78947V32.2105C-0.509766 34.3034 1.24598 36 3.4118 36H44.5883C46.7541 36 48.5098 34.3034 48.5098 32.2105V3.78947C48.5098 1.69661 46.7541 0 44.5883 0Z" fill="white"/>
</mask>
<g mask="url(#mask0_35_34440)">
<path d="M-0.509766 0H48.5098V36H-0.509766V0Z" fill="#ED2939"/>
<path d="M13.2773 0H22.4685V36H13.2773V0Z" fill="white"/>
<path d="M-0.509766 13.5H48.5098V22.5H-0.509766V13.5Z" fill="white"/>
<path d="M15.5752 0H20.1709V36H15.5752V0Z" fill="#002664"/>
<path d="M-0.509766 15.75H48.5098V20.25H-0.509766V15.75Z" fill="#002664"/>
</g>
</g>
<defs>
<clipPath id="clip0_35_34440">
<rect width="50" height="36" fill="white" transform="translate(-1)"/>
</clipPath>
</defs>
</svg>
