<svg width="48" height="36" viewBox="0 0 48 36" fill="none" xmlns="http://www.w3.org/2000/svg">
<g clip-path="url(#clip0_35_35732)">
<mask id="mask0_35_35732" style="mask-type:luminance" maskUnits="userSpaceOnUse" x="-2" y="0" width="51" height="36">
<path d="M44.5 0H2.5C0.290861 0 -1.5 1.69661 -1.5 3.78947V32.2105C-1.5 34.3034 0.290861 36 2.5 36H44.5C46.7091 36 48.5 34.3034 48.5 32.2105V3.78947C48.5 1.69661 46.7091 0 44.5 0Z" fill="white"/>
</mask>
<g mask="url(#mask0_35_35732)">
<path d="M-1.5 24H48.5V35.9999H-1.5V24Z" fill="#1EB53A"/>
<path d="M-1.5 0H48.5V12H-1.5V0Z" fill="#0099B5"/>
<path d="M-1.5 11.5195H48.5V24.4795H-1.5V11.5195Z" fill="#CE1126"/>
<path d="M-1.5 12.2402H48.5V23.7602H-1.5V12.2402Z" fill="white"/>
<path d="M9 10.0794C11.4853 10.0794 13.5 8.14532 13.5 5.75945C13.5 3.37358 11.4853 1.43945 9 1.43945C6.51472 1.43945 4.5 3.37358 4.5 5.75945C4.5 8.14532 6.51472 10.0794 9 10.0794Z" fill="white"/>
<path d="M10.5 10.0794C12.9853 10.0794 15 8.14532 15 5.75945C15 3.37358 12.9853 1.43945 10.5 1.43945C8.0147 1.43945 6 3.37358 6 5.75945C6 8.14532 8.0147 10.0794 10.5 10.0794Z" fill="#0099B5"/>
<path d="M18.9002 8.35352L18.6152 9.17432L19.0502 9.31832" fill="white"/>
<path d="M18.9 8.35352L19.185 9.17432L18.75 9.31832" fill="white"/>
<path d="M19.74 8.89453L18.8477 9.01579L18.8924 9.38524" fill="white"/>
<path d="M19.7259 8.91992L19.0701 9.45037L18.7539 9.19526" fill="white"/>
<path d="M18.0742 8.91992L18.73 9.45037L19.0462 9.19526" fill="white"/>
<path d="M18.0586 8.89453L18.9508 9.01579L18.9062 9.38523" fill="white"/>
<path d="M19.4302 9.91392L19.1551 9.08984L18.7168 9.22325" fill="white"/>
<path d="M19.4289 9.9134L18.6953 9.41603L18.9567 9.05078" fill="white"/>
<path d="M18.3711 9.92247L19.1025 9.40415L18.8282 9.05078" fill="white"/>
<path d="M18.375 9.91862L18.6333 9.0918L19.0811 9.2092" fill="white"/>
<path d="M18.9002 4.89648L18.6152 5.71728L19.0502 5.86128" fill="white"/>
<path d="M18.9 4.89648L19.185 5.71728L18.75 5.86128" fill="white"/>
<path d="M19.74 5.4375L18.8477 5.55876L18.8924 5.92821" fill="white"/>
<path d="M19.7259 5.46289L19.0701 5.99334L18.7539 5.73823" fill="white"/>
<path d="M18.0742 5.46289L18.73 5.99334L19.0462 5.73823" fill="white"/>
<path d="M18.0586 5.4375L18.9508 5.55876L18.9062 5.92821" fill="white"/>
<path d="M19.4302 6.45693L19.1551 5.63281L18.7168 5.76622" fill="white"/>
<path d="M19.4289 6.45639L18.6953 5.95899L18.9567 5.59375" fill="white"/>
<path d="M18.3711 6.46547L19.1025 5.94712L18.8282 5.59375" fill="white"/>
<path d="M18.375 6.46159L18.6333 5.63477L19.0811 5.75216" fill="white"/>
<path d="M18.9002 1.44141L18.6152 2.26221L19.0502 2.40621" fill="white"/>
<path d="M18.9 1.44141L19.185 2.26221L18.75 2.40621" fill="white"/>
<path d="M19.74 1.98242L18.8477 2.10369L18.8924 2.47313" fill="white"/>
<path d="M19.7259 2.00781L19.0701 2.53826L18.7539 2.28316" fill="white"/>
<path d="M18.0742 2.00781L18.73 2.53827L19.0462 2.28317" fill="white"/>
<path d="M18.0586 1.98242L18.9508 2.10369L18.9062 2.47313" fill="white"/>
<path d="M19.4302 3.00185L19.1551 2.17773L18.7168 2.31114" fill="white"/>
<path d="M19.4289 3.00132L18.6953 2.50391L18.9567 2.13867" fill="white"/>
<path d="M18.3711 3.01039L19.1025 2.49204L18.8282 2.13867" fill="white"/>
<path d="M18.375 3.00651L18.6333 2.17969L19.0811 2.29709" fill="white"/>
<path d="M22.5018 8.35352L22.2168 9.17432L22.6518 9.31832" fill="white"/>
<path d="M22.5016 8.35352L22.7866 9.17432L22.3516 9.31832" fill="white"/>
<path d="M23.3414 8.89453L22.4492 9.01579L22.4938 9.38524" fill="white"/>
<path d="M23.3275 8.91992L22.6717 9.45037L22.3555 9.19526" fill="white"/>
<path d="M21.6758 8.91992L22.3316 9.45037L22.6478 9.19526" fill="white"/>
<path d="M21.6602 8.89453L22.5525 9.01579L22.5078 9.38523" fill="white"/>
<path d="M23.0318 9.91392L22.7568 9.08984L22.3184 9.22325" fill="white"/>
<path d="M23.0304 9.9134L22.2969 9.41603L22.5583 9.05078" fill="white"/>
<path d="M21.9727 9.92247L22.7041 9.40415L22.4299 9.05078" fill="white"/>
<path d="M21.9766 9.91862L22.2348 9.0918L22.6827 9.2092" fill="white"/>
<path d="M22.5018 4.89648L22.2168 5.71728L22.6518 5.86128" fill="white"/>
<path d="M22.5016 4.89648L22.7866 5.71728L22.3516 5.86128" fill="white"/>
<path d="M23.3414 5.4375L22.4492 5.55876L22.4938 5.92821" fill="white"/>
<path d="M23.3275 5.46289L22.6717 5.99334L22.3555 5.73823" fill="white"/>
<path d="M21.6758 5.46289L22.3316 5.99334L22.6478 5.73823" fill="white"/>
<path d="M21.6602 5.4375L22.5525 5.55876L22.5078 5.92821" fill="white"/>
<path d="M23.0318 6.45693L22.7568 5.63281L22.3184 5.76622" fill="white"/>
<path d="M23.0304 6.45639L22.2969 5.95899L22.5583 5.59375" fill="white"/>
<path d="M21.9727 6.46547L22.7041 5.94712L22.4299 5.59375" fill="white"/>
<path d="M21.9766 6.46159L22.2348 5.63477L22.6827 5.75216" fill="white"/>
<path d="M22.5018 1.44141L22.2168 2.26221L22.6518 2.40621" fill="white"/>
<path d="M22.5016 1.44141L22.7866 2.26221L22.3516 2.40621" fill="white"/>
<path d="M23.3414 1.98242L22.4492 2.10369L22.4938 2.47313" fill="white"/>
<path d="M23.3275 2.00781L22.6717 2.53826L22.3555 2.28316" fill="white"/>
<path d="M21.6758 2.00781L22.3316 2.53827L22.6478 2.28317" fill="white"/>
<path d="M21.6602 1.98242L22.5525 2.10369L22.5078 2.47313" fill="white"/>
<path d="M23.0318 3.00185L22.7568 2.17773L22.3184 2.31114" fill="white"/>
<path d="M23.0304 3.00132L22.2969 2.50391L22.5583 2.13867" fill="white"/>
<path d="M21.9727 3.01039L22.7041 2.49204L22.4299 2.13867" fill="white"/>
<path d="M21.9766 3.00651L22.2348 2.17969L22.6827 2.29709" fill="white"/>
<path d="M26.1014 8.35352L25.8164 9.17432L26.2514 9.31832" fill="white"/>
<path d="M26.1012 8.35352L26.3862 9.17432L25.9512 9.31832" fill="white"/>
<path d="M26.941 8.89453L26.0488 9.01579L26.0934 9.38524" fill="white"/>
<path d="M26.9272 8.91992L26.2714 9.45037L25.9551 9.19526" fill="white"/>
<path d="M25.2754 8.91992L25.9312 9.45037L26.2474 9.19526" fill="white"/>
<path d="M25.2598 8.89453L26.1521 9.01579L26.1074 9.38523" fill="white"/>
<path d="M26.6314 9.91392L26.3564 9.08984L25.918 9.22325" fill="white"/>
<path d="M26.63 9.9134L25.8965 9.41603L26.1579 9.05078" fill="white"/>
<path d="M25.5723 9.92247L26.3037 9.40415L26.0295 9.05078" fill="white"/>
<path d="M25.5762 9.91862L25.8344 9.0918L26.2823 9.2092" fill="white"/>
<path d="M26.1014 4.89648L25.8164 5.71728L26.2514 5.86128" fill="white"/>
<path d="M26.1012 4.89648L26.3862 5.71728L25.9512 5.86128" fill="white"/>
<path d="M26.941 5.4375L26.0488 5.55876L26.0934 5.92821" fill="white"/>
<path d="M26.9271 5.46289L26.2713 5.99334L25.9551 5.73823" fill="white"/>
<path d="M25.2754 5.46289L25.9312 5.99334L26.2474 5.73823" fill="white"/>
<path d="M25.2598 5.4375L26.1521 5.55876L26.1074 5.92821" fill="white"/>
<path d="M26.6314 6.45693L26.3564 5.63281L25.918 5.76622" fill="white"/>
<path d="M26.63 6.45639L25.8965 5.95899L26.1579 5.59375" fill="white"/>
<path d="M25.5723 6.46547L26.3037 5.94712L26.0295 5.59375" fill="white"/>
<path d="M25.5762 6.46159L25.8344 5.63477L26.2823 5.75216" fill="white"/>
<path d="M26.1014 1.44141L25.8164 2.26221L26.2514 2.40621" fill="white"/>
<path d="M26.1012 1.44141L26.3862 2.26221L25.9512 2.40621" fill="white"/>
<path d="M26.941 1.98242L26.0488 2.10369L26.0934 2.47313" fill="white"/>
<path d="M26.9271 2.00781L26.2713 2.53826L25.9551 2.28316" fill="white"/>
<path d="M25.2754 2.00781L25.9312 2.53827L26.2474 2.28317" fill="white"/>
<path d="M25.2598 1.98242L26.1521 2.10369L26.1074 2.47313" fill="white"/>
<path d="M26.6314 3.00185L26.3564 2.17773L25.918 2.31114" fill="white"/>
<path d="M26.63 3.00132L25.8965 2.50391L26.1579 2.13867" fill="white"/>
<path d="M25.5723 3.01039L26.3037 2.49204L26.0295 2.13867" fill="white"/>
<path d="M25.5762 3.00651L25.8344 2.17969L26.2823 2.29709" fill="white"/>
<path d="M11.701 8.35352L11.416 9.17432L11.851 9.31832" fill="white"/>
<path d="M11.7008 8.35352L11.9858 9.17432L11.5508 9.31832" fill="white"/>
<path d="M12.5406 8.89453L11.6484 9.01579L11.693 9.38524" fill="white"/>
<path d="M12.5268 8.91992L11.871 9.45037L11.5547 9.19526" fill="white"/>
<path d="M10.875 8.91992L11.5308 9.45037L11.847 9.19526" fill="white"/>
<path d="M10.8594 8.89453L11.7516 9.01579L11.7069 9.38523" fill="white"/>
<path d="M12.231 9.91392L11.9559 9.08984L11.5176 9.22325" fill="white"/>
<path d="M12.2296 9.9134L11.4961 9.41603L11.7575 9.05078" fill="white"/>
<path d="M11.1719 9.92247L11.9033 9.40415L11.6291 9.05078" fill="white"/>
<path d="M11.1758 9.91862L11.434 9.0918L11.8819 9.2092" fill="white"/>
<path d="M15.3006 8.35352L15.0156 9.17432L15.4506 9.31832" fill="white"/>
<path d="M15.3004 8.35352L15.5854 9.17432L15.1504 9.31832" fill="white"/>
<path d="M16.1402 8.89453L15.248 9.01579L15.2927 9.38524" fill="white"/>
<path d="M16.1263 8.91992L15.4705 9.45037L15.1543 9.19526" fill="white"/>
<path d="M14.4746 8.91992L15.1304 9.45037L15.4466 9.19526" fill="white"/>
<path d="M14.459 8.89453L15.3512 9.01579L15.3065 9.38523" fill="white"/>
<path d="M15.8306 9.91392L15.5555 9.08984L15.1172 9.22325" fill="white"/>
<path d="M15.8292 9.9134L15.0957 9.41603L15.3571 9.05078" fill="white"/>
<path d="M14.7715 9.92247L15.5029 9.40415L15.2287 9.05078" fill="white"/>
<path d="M14.7754 9.91862L15.0336 9.0918L15.4815 9.2092" fill="white"/>
<path d="M15.3006 4.89648L15.0156 5.71728L15.4506 5.86128" fill="white"/>
<path d="M15.3004 4.89648L15.5854 5.71728L15.1504 5.86128" fill="white"/>
<path d="M16.1402 5.4375L15.248 5.55876L15.2927 5.92821" fill="white"/>
<path d="M16.1264 5.46289L15.4706 5.99334L15.1543 5.73823" fill="white"/>
<path d="M14.4746 5.46289L15.1304 5.99334L15.4466 5.73823" fill="white"/>
<path d="M14.459 5.4375L15.3512 5.55876L15.3065 5.92821" fill="white"/>
<path d="M15.8306 6.45693L15.5555 5.63281L15.1172 5.76622" fill="white"/>
<path d="M15.8292 6.45639L15.0957 5.95899L15.3571 5.59375" fill="white"/>
<path d="M14.7715 6.46547L15.5029 5.94712L15.2287 5.59375" fill="white"/>
<path d="M14.7754 6.46159L15.0336 5.63477L15.4815 5.75216" fill="white"/>
</g>
</g>
<defs>
<clipPath id="clip0_35_35732">
<rect width="51" height="36" fill="white" transform="translate(-2)"/>
</clipPath>
</defs>
</svg>
