<svg width="48" height="36" viewBox="0 0 48 36" fill="none" xmlns="http://www.w3.org/2000/svg">
<g clip-path="url(#clip0_35_33553)">
<path d="M51 0H-3V36H51V0Z" fill="white"/>
<path d="M51 30.7598L4.7427 0H-3V5.12454L43.4307 36H51V30.7598Z" fill="#0099CC"/>
<path d="M23.6959 27.4702C18.2839 27.4702 18.4596 22.378 18.4596 22.378V14.5625H28.932V22.378C28.932 22.378 29.1154 27.4702 23.6959 27.4702Z" fill="#005BBF"/>
<path d="M23.6959 27.4702C18.2839 27.4702 18.4596 22.378 18.4596 22.378V14.5625H28.932V22.378C28.932 22.378 29.1154 27.4702 23.6959 27.4702Z" stroke="black" stroke-width="0.0905759"/>
<path d="M23.6495 9.64312C23.6495 9.64312 22.5329 9.09986 21.4767 9.89972C21.4767 9.89972 19.576 9.62539 19.4362 11.4461C19.4305 11.5198 19.4191 11.6555 19.453 11.6951C19.487 11.7347 19.5209 11.8084 19.5209 11.859C19.5209 11.91 19.5548 11.9383 19.5663 11.9608C19.5775 11.9835 19.6059 12.0174 19.6115 12.1136C19.6171 12.2098 19.6002 12.255 19.6908 12.3512C19.7812 12.4474 19.7868 12.7248 19.7868 12.8039C19.7868 12.883 19.8434 13.1037 19.883 13.1491C19.9226 13.1943 19.9904 13.3074 19.9904 13.4036C19.9904 13.4998 20.03 13.7657 20.0129 13.8333C19.9961 13.9012 20.1148 13.9862 20.2224 14.0201C20.3299 14.054 21.6652 14.4897 23.6115 14.4557C25.5579 14.4218 26.2588 14.3182 27.063 14.0257C27.1873 13.9805 27.21 13.8787 27.1988 13.8221C27.1873 13.7657 27.1988 13.5847 27.2327 13.5393C27.2666 13.4941 27.493 13.132 27.4476 13.0642C27.4024 12.9963 27.4024 12.8491 27.4476 12.7926C27.493 12.736 27.6346 12.4638 27.6625 12.3512C27.6906 12.2384 27.6942 12.1054 27.7461 12.0661C27.7982 12.0267 27.8157 11.8992 27.8257 11.8726C27.8358 11.8458 27.8737 11.7628 27.9264 11.7249C27.9264 11.7249 28.0246 11.2649 27.964 11.0388C27.9039 10.8124 27.5643 9.83919 26.1838 10.0431C26.1838 10.0431 25.1578 9.26589 23.6491 9.64312" fill="#D81126"/>
<path d="M23.6495 9.64312C23.6495 9.64312 22.5329 9.09986 21.4767 9.89972C21.4767 9.89972 19.576 9.62539 19.4362 11.4461C19.4305 11.5198 19.4191 11.6555 19.453 11.6951C19.487 11.7347 19.5209 11.8084 19.5209 11.859C19.5209 11.91 19.5548 11.9383 19.5663 11.9608C19.5775 11.9835 19.6059 12.0174 19.6115 12.1136C19.6171 12.2098 19.6002 12.255 19.6908 12.3512C19.7812 12.4474 19.7868 12.7248 19.7868 12.8039C19.7868 12.883 19.8434 13.1037 19.883 13.1491C19.9226 13.1943 19.9904 13.3074 19.9904 13.4036C19.9904 13.4998 20.03 13.7657 20.0129 13.8333C19.9961 13.9012 20.1148 13.9862 20.2224 14.0201C20.3299 14.054 21.6652 14.4897 23.6115 14.4557C25.5579 14.4218 26.2588 14.3182 27.063 14.0257C27.1873 13.9805 27.21 13.8787 27.1988 13.8221C27.1873 13.7657 27.1988 13.5847 27.2327 13.5393C27.2666 13.4941 27.493 13.132 27.4476 13.0642C27.4024 12.9963 27.4024 12.8491 27.4476 12.7926C27.493 12.736 27.6346 12.4638 27.6625 12.3512C27.6906 12.2384 27.6942 12.1054 27.7461 12.0661C27.7982 12.0267 27.8157 11.8992 27.8257 11.8726C27.8358 11.8458 27.8737 11.7628 27.9264 11.7249C27.9264 11.7249 28.0246 11.2649 27.964 11.0388C27.9039 10.8124 27.5643 9.83919 26.1838 10.0431C26.1838 10.0431 25.1578 9.26589 23.6491 9.64312H23.6495Z" stroke="black" stroke-width="0.135756"/>
<path d="M27.3842 13.0326C23.1445 11.6897 19.877 12.966 19.877 12.966C19.877 12.966 19.9072 13.1141 19.9448 13.1593C19.9827 13.2044 20.0354 13.3102 20.0354 13.3895C20.0354 13.4686 20.043 13.5819 20.043 13.6422C20.043 13.7023 19.9967 13.973 20.2386 13.9697C20.2386 13.9697 23.1854 12.8138 27.0226 14.0292C27.0226 14.0292 27.1276 13.9349 27.1315 13.7992C27.1352 13.6634 27.1577 13.5201 27.2106 13.4446C27.2634 13.3692 27.384 13.1335 27.384 13.0326" fill="#BCAC0B"/>
<path d="M23.4537 20.0977H21.613C21.613 20.0977 21.4318 21.7421 22.8502 22.2402V22.3911H23.152V22.5872C23.152 22.5872 22.6314 23.0548 23.0839 23.5905V23.7565H23.1595V24.0205H23.2423V24.4502C23.2423 24.4502 23.1744 25.9855 21.6694 26.721V26.8116H25.688V26.721C24.1831 25.9855 24.115 24.4502 24.115 24.4502V24.0205H24.1978V23.7565H24.2733V23.5905C24.726 23.0548 24.2054 22.5872 24.2054 22.5872V22.3911H24.5072V22.2402C25.9255 21.7421 25.7444 20.0977 25.7444 20.0977H23.4535" fill="#C8B100" fill-opacity="0.941176"/>
<path d="M23.4537 20.0977H21.613C21.613 20.0977 21.4318 21.7421 22.8502 22.2402V22.3911H23.152V22.5872C23.152 22.5872 22.6314 23.0548 23.0839 23.5905V23.7565H23.1595V24.0205H23.2423V24.4502C23.2423 24.4502 23.1744 25.9855 21.6694 26.721V26.8116H25.688V26.721C24.1831 25.9855 24.115 24.4502 24.115 24.4502V24.0205H24.1978V23.7565H24.2733V23.5905C24.726 23.0548 24.2054 22.5872 24.2054 22.5872V22.3911H24.5072V22.2402C25.9255 21.7421 25.7444 20.0977 25.7444 20.0977H23.4535H23.4537Z" stroke="black" stroke-width="0.0905759"/>
<path d="M22.7907 22.2188H24.5675M22.8512 22.3545H24.5071M23.153 22.5809H24.1941M23.0849 23.6105H24.2732M23.1642 23.737H24.2017M23.1642 23.9936H24.1978M22.5306 26.0776H24.8277M21.8819 26.6094H25.4804M21.7461 26.6885H25.6198" stroke="black" stroke-width="0.022698"/>
<path d="M23.6951 20.0016C24.3432 20.0016 24.8688 19.476 24.8688 18.8279C24.8688 18.1798 24.3432 17.6543 23.6951 17.6543C23.047 17.6543 22.5215 18.1798 22.5215 18.8279C22.5215 19.476 23.047 20.0016 23.6951 20.0016Z" fill="#CCCCCC"/>
<path d="M23.6951 20.0016C24.3432 20.0016 24.8688 19.476 24.8688 18.8279C24.8688 18.1798 24.3432 17.6543 23.6951 17.6543C23.047 17.6543 22.5215 18.1798 22.5215 18.8279C22.5215 19.476 23.047 20.0016 23.6951 20.0016Z" stroke="black" stroke-width="0.0905759"/>
<path d="M20.9639 16.5523H20.2321V15.8203H19.5833V16.5523H18.8516V17.2008H19.5833V17.9326H20.2321V17.2008H20.9639V16.5523Z" fill="#CCCCCC"/>
<path d="M20.9639 16.5523H20.2321V15.8203H19.5833V16.5523H18.8516V17.2008H19.5833V17.9326H20.2321V17.2008H20.9639V16.5523Z" stroke="black" stroke-width="0.0905759"/>
<path d="M28.5693 16.5523H27.8376V15.8203H27.1886V16.5523H26.457V17.2008H27.1886V17.9326H27.8376V17.2008H28.5693V16.5523Z" fill="#CCCCCC"/>
<path d="M28.5693 16.5523H27.8376V15.8203H27.1886V16.5523H26.457V17.2008H27.1886V17.9326H27.8376V17.2008H28.5693V16.5523Z" stroke="black" stroke-width="0.0905759"/>
<path d="M24.7158 15.6341H23.984V14.9023H23.3353V15.6341H22.6035V16.2829H23.3353V17.0146H23.984V16.2829H24.7158V15.6341Z" fill="#CCCCCC"/>
<path d="M24.7158 15.6341H23.984V14.9023H23.3353V15.6341H22.6035V16.2829H23.3353V17.0146H23.984V16.2829H24.7158V15.6341Z" stroke="black" stroke-width="0.0905759"/>
<path d="M20.9639 19.72H20.2321V18.9883H19.5833V19.72H18.8516V20.3688H19.5833V21.1006H20.2321V20.3688H20.9639V19.72Z" fill="#CCCCCC"/>
<path d="M20.9639 19.72H20.2321V18.9883H19.5833V19.72H18.8516V20.3688H19.5833V21.1006H20.2321V20.3688H20.9639V19.72Z" stroke="black" stroke-width="0.0905759"/>
<path d="M28.5693 19.72H27.8376V18.9883H27.1886V19.72H26.457V20.3688H27.1886V21.1006H27.8376V20.3688H28.5693V19.72Z" fill="#CCCCCC"/>
<path d="M28.5693 19.72H27.8376V18.9883H27.1886V19.72H26.457V20.3688H27.1886V21.1006H27.8376V20.3688H28.5693V19.72Z" stroke="black" stroke-width="0.0905759"/>
<path d="M20.9639 22.9214H20.2321V22.1895H19.5833V22.9214H18.8516V23.5702H19.5833V24.3017H20.2321V23.5702H20.9639V22.9214Z" fill="#CCCCCC"/>
<path d="M20.9639 22.9214H20.2321V22.1895H19.5833V22.9214H18.8516V23.5702H19.5833V24.3017H20.2321V23.5702H20.9639V22.9214Z" stroke="black" stroke-width="0.0905759"/>
<path d="M28.5693 22.9214H27.8376V22.1895H27.1886V22.9214H26.457V23.5702H27.1886V24.3017H27.8376V23.5702H28.5693V22.9214Z" fill="#CCCCCC"/>
<path d="M28.5693 22.9214H27.8376V22.1895H27.1886V22.9214H26.457V23.5702H27.1886V24.3017H27.8376V23.5702H28.5693V22.9214Z" stroke="black" stroke-width="0.0905759"/>
<path d="M23.6846 8.07616C24.0735 8.07616 24.3889 7.76097 24.3889 7.37207C24.3889 6.98316 24.0735 6.66797 23.6846 6.66797C23.2957 6.66797 22.9805 6.98316 22.9805 7.37207C22.9805 7.76097 23.2957 8.07616 23.6846 8.07616Z" fill="#005BBF"/>
<path d="M23.6846 8.07616C24.0735 8.07616 24.3889 7.76097 24.3889 7.37207C24.3889 6.98316 24.0735 6.66797 23.6846 6.66797C23.2957 6.66797 22.9805 6.98316 22.9805 7.37207C22.9805 7.76097 23.2957 8.07616 23.6846 8.07616Z" stroke="black" stroke-width="0.0905759"/>
<path d="M24.3422 7.24721H23.765V6.31375H23.9855V6.12697H23.765V5.90625H23.5782V6.12697H23.3575V6.31375H23.5782V7.24721H23.0293V7.37173H23.5782V7.37735H23.765V7.37173H24.3422V7.24721Z" fill="#FFCC00"/>
<path d="M24.3422 7.24721H23.765V6.31375H23.9855V6.12697H23.765V5.90625H23.5782V6.12697H23.3575V6.31375H23.5782V7.24721H23.0293V7.37173H23.5782V7.37735H23.765V7.37173H24.3422V7.24721Z" fill="#BCAC0B" stroke="black" stroke-width="0.0451799"/>
<path d="M20.8658 8.91866C20.8658 8.91866 21.3863 8.85835 21.6879 8.97898C21.6879 8.97898 21.3422 9.37221 21.4164 9.89169C21.4542 10.1559 21.507 10.2916 21.5824 10.4198C21.6579 10.5482 21.7407 10.8122 21.6955 11.0234H21.7936C21.7936 11.0234 21.8918 10.5934 21.7257 10.3519C21.5597 10.1107 21.4767 9.77862 21.6427 9.43166C21.8085 9.08469 22.05 8.94893 22.05 8.94893C22.3291 9.06199 22.9178 8.95628 23.0836 8.83565C23.2494 8.71481 23.3324 8.54899 23.0233 8.53386C22.7141 8.51873 22.186 8.5263 21.8239 8.79803C21.8239 8.79803 21.6352 8.57904 20.6922 8.68476C19.7492 8.79047 19.0676 9.19321 18.859 10.0428C18.7535 10.4728 19.1532 11.3779 19.5229 11.5967C19.5229 11.5967 19.5116 11.4497 19.5492 11.344C19.5492 11.344 18.9193 10.6386 19.108 9.98227C19.2965 9.32594 20.051 8.89596 20.8658 8.91866Z" fill="#FFCC00"/>
<path d="M20.8658 8.91866C20.8658 8.91866 21.3863 8.85835 21.6879 8.97898C21.6879 8.97898 21.3422 9.37221 21.4164 9.89169C21.4542 10.1559 21.507 10.2916 21.5824 10.4198C21.6579 10.5482 21.7407 10.8122 21.6955 11.0234H21.7936C21.7936 11.0234 21.8918 10.5934 21.7257 10.3519C21.5597 10.1107 21.4767 9.77862 21.6427 9.43166C21.8085 9.08469 22.05 8.94893 22.05 8.94893C22.3291 9.06199 22.9178 8.95628 23.0836 8.83565C23.2494 8.71481 23.3324 8.54899 23.0233 8.53386C22.7141 8.51873 22.186 8.5263 21.8239 8.79803C21.8239 8.79803 21.6352 8.57904 20.6922 8.68476C19.7492 8.79047 19.0676 9.19321 18.859 10.0428C18.7535 10.4728 19.1532 11.3779 19.5229 11.5967C19.5229 11.5967 19.5116 11.4497 19.5492 11.344C19.5492 11.344 18.9193 10.6386 19.108 9.98227C19.2965 9.32594 20.051 8.89596 20.8658 8.91866Z" fill="#BCAC0B" stroke="black" stroke-width="0.0587987"/>
<path d="M22.6382 8.78946C22.8012 8.77627 22.9318 8.74796 22.93 8.72569C22.9283 8.70385 22.7947 8.6965 22.6317 8.70969C22.4687 8.72288 22.3381 8.75141 22.3399 8.77346C22.3416 8.79551 22.4752 8.80265 22.6382 8.78946Z" fill="white"/>
<path d="M22.0439 8.94456C22.2306 8.76924 22.6211 8.65034 22.8418 8.70136C23.0623 8.75216 22.802 8.78048 22.7285 8.7861C22.655 8.79172 22.5078 8.82004 22.2929 8.7861" stroke="black" stroke-width="0.0587987"/>
<path d="M26.4927 8.97509C26.4927 8.97509 25.9724 8.91499 25.6706 9.03562C25.6706 9.03562 26.0165 9.42863 25.9421 9.94833C25.9045 10.2125 25.8517 10.3483 25.7763 10.4765C25.7006 10.6044 25.6178 10.8688 25.663 11.08H25.5649C25.5649 11.08 25.4669 10.65 25.6328 10.4086C25.7988 10.1671 25.8818 9.83527 25.7158 9.4883C25.55 9.14111 25.3085 9.00535 25.3085 9.00535C25.0294 9.11863 24.4409 9.01292 24.2749 8.89229C24.1093 8.77145 24.0261 8.60564 24.3352 8.5905C24.6446 8.57537 25.1727 8.58294 25.5348 8.85446C25.5348 8.85446 25.7233 8.63569 26.6663 8.7414C27.6095 8.84689 28.2909 9.24985 28.4995 10.0992C28.6052 10.5292 28.2053 11.4346 27.8356 11.6533C27.8356 11.6533 27.8471 11.5063 27.8092 11.4006C27.8092 11.4006 28.4392 10.6952 28.2507 10.0389C28.062 9.38259 27.3077 8.9526 26.4927 8.97509Z" fill="#FFCC00"/>
<path d="M26.4927 8.97509C26.4927 8.97509 25.9724 8.91499 25.6706 9.03562C25.6706 9.03562 26.0165 9.42863 25.9421 9.94833C25.9045 10.2125 25.8517 10.3483 25.7763 10.4765C25.7006 10.6044 25.6178 10.8688 25.663 11.08H25.5649C25.5649 11.08 25.4669 10.65 25.6328 10.4086C25.7988 10.1671 25.8818 9.83527 25.7158 9.4883C25.55 9.14111 25.3085 9.00535 25.3085 9.00535C25.0294 9.11863 24.4409 9.01292 24.2749 8.89229C24.1093 8.77145 24.0261 8.60564 24.3352 8.5905C24.6446 8.57537 25.1727 8.58294 25.5348 8.85446C25.5348 8.85446 25.7233 8.63569 26.6663 8.7414C27.6095 8.84689 28.2909 9.24985 28.4995 10.0992C28.6052 10.5292 28.2053 11.4346 27.8356 11.6533C27.8356 11.6533 27.8471 11.5063 27.8092 11.4006C27.8092 11.4006 28.4392 10.6952 28.2507 10.0389C28.062 9.38259 27.3077 8.9526 26.4927 8.97509Z" fill="#BCAC0B" stroke="black" stroke-width="0.0587987"/>
<path d="M24.7215 8.8442C24.5588 8.83101 24.428 8.80248 24.4297 8.78043C24.4317 8.75838 24.565 8.75124 24.728 8.76443C24.891 8.77762 25.0218 8.80615 25.0201 8.8282C25.0181 8.85025 24.8845 8.85739 24.7215 8.8442Z" fill="white"/>
<path d="M25.3144 9.00134C25.1278 8.82581 24.7374 8.70712 24.5167 8.75792C24.2959 8.80894 24.5562 8.83726 24.6297 8.84288C24.7034 8.8485 24.8504 8.87682 25.0655 8.84288" stroke="black" stroke-width="0.0587987"/>
<path d="M23.1967 8.39844V10.4052C23.174 10.6013 23.4379 10.8804 23.6267 10.9634C23.6267 10.9634 24.0718 10.8125 24.1018 10.4052V8.28516H23.9509V10.1184C23.9436 10.3071 23.8227 10.6465 23.6567 10.6995C23.6567 10.6995 23.3324 10.6465 23.3173 10.1259V8.33834L23.1967 8.39844Z" fill="#FFCC00"/>
<path d="M23.1967 8.39844V10.4052C23.174 10.6013 23.4379 10.8804 23.6267 10.9634C23.6267 10.9634 24.0718 10.8125 24.1018 10.4052V8.28516H23.9509V10.1184C23.9436 10.3071 23.8227 10.6465 23.6567 10.6995C23.6567 10.6995 23.3324 10.6465 23.3173 10.1259V8.33834L23.1967 8.39844Z" fill="#BCAC0B" stroke="black" stroke-width="0.0587987"/>
<path d="M18.7575 11.142C18.8901 11.142 18.9975 11.0346 18.9975 10.9021C18.9975 10.7698 18.8901 10.6621 18.7575 10.6621C18.625 10.6621 18.5176 10.7696 18.5176 10.9021C18.5176 11.0346 18.625 11.142 18.7575 11.142Z" fill="white"/>
<path d="M18.7575 11.142C18.8901 11.142 18.9975 11.0346 18.9975 10.9021C18.9975 10.7698 18.8901 10.6621 18.7575 10.6621C18.625 10.6621 18.5176 10.7696 18.5176 10.9021C18.5176 11.0346 18.625 11.142 18.7575 11.142Z" stroke="black" stroke-width="0.0905759"/>
<path d="M18.6071 10.5912C18.7399 10.5912 18.8473 10.4838 18.8473 10.3513C18.8473 10.219 18.7399 10.1113 18.6071 10.1113C18.4746 10.1113 18.3672 10.2188 18.3672 10.3513C18.3672 10.4838 18.4746 10.5912 18.6071 10.5912Z" fill="white"/>
<path d="M18.6071 10.5912C18.7399 10.5912 18.8473 10.4838 18.8473 10.3513C18.8473 10.219 18.7399 10.1113 18.6071 10.1113C18.4746 10.1113 18.3672 10.2188 18.3672 10.3513C18.3672 10.4838 18.4746 10.5912 18.6071 10.5912Z" stroke="black" stroke-width="0.0905759"/>
<path d="M18.6872 9.92154C18.8197 9.92154 18.9272 9.8141 18.9272 9.68137C18.9272 9.54885 18.8197 9.44141 18.6872 9.44141C18.5547 9.44141 18.4473 9.54885 18.4473 9.68137C18.4473 9.8141 18.5547 9.92154 18.6872 9.92154Z" fill="white"/>
<path d="M18.6872 9.92154C18.8197 9.92154 18.9272 9.8141 18.9272 9.68137C18.9272 9.54885 18.8197 9.44141 18.6872 9.44141C18.5547 9.44141 18.4473 9.54885 18.4473 9.68137C18.4473 9.8141 18.5547 9.92154 18.6872 9.92154Z" stroke="black" stroke-width="0.0905759"/>
<path d="M19.0603 9.36881C19.193 9.36881 19.3004 9.26136 19.3004 9.12885C19.3004 8.99611 19.193 8.88867 19.0603 8.88867C18.9278 8.88867 18.8203 8.99611 18.8203 9.12885C18.8203 9.26136 18.9278 9.36881 19.0603 9.36881Z" fill="white"/>
<path d="M19.0603 9.36881C19.193 9.36881 19.3004 9.26136 19.3004 9.12885C19.3004 8.99611 19.193 8.88867 19.0603 8.88867C18.9278 8.88867 18.8203 8.99611 18.8203 9.12885C18.8203 9.26136 18.9278 9.36881 19.0603 9.36881Z" stroke="black" stroke-width="0.0905759"/>
<path d="M19.5019 8.96451C19.6344 8.96451 19.7419 8.85707 19.7419 8.72433C19.7419 8.59182 19.6344 8.48438 19.5019 8.48438C19.3694 8.48438 19.2617 8.59182 19.2617 8.72433C19.2617 8.85707 19.3694 8.96451 19.5019 8.96451Z" fill="white"/>
<path d="M19.5019 8.96451C19.6344 8.96451 19.7419 8.85707 19.7419 8.72433C19.7419 8.59182 19.6344 8.48438 19.5019 8.48438C19.3694 8.48438 19.2617 8.59182 19.2617 8.72433C19.2617 8.85707 19.3694 8.96451 19.5019 8.96451Z" stroke="black" stroke-width="0.0905759"/>
<path d="M20.07 8.73795C20.2026 8.73795 20.31 8.63051 20.31 8.49777C20.31 8.36525 20.2026 8.25781 20.07 8.25781C19.9375 8.25781 19.8301 8.36525 19.8301 8.49777C19.8301 8.63051 19.9375 8.73795 20.07 8.73795Z" fill="white"/>
<path d="M20.07 8.73795C20.2026 8.73795 20.31 8.63051 20.31 8.49777C20.31 8.36525 20.2026 8.25781 20.07 8.25781C19.9375 8.25781 19.8301 8.36525 19.8301 8.49777C19.8301 8.63051 19.9375 8.73795 20.07 8.73795Z" stroke="black" stroke-width="0.0905759"/>
<path d="M20.6638 8.63053C20.7963 8.63053 20.9037 8.52287 20.9037 8.39035C20.9037 8.25783 20.7963 8.15039 20.6638 8.15039C20.5313 8.15039 20.4238 8.25783 20.4238 8.39035C20.4238 8.52287 20.5313 8.63053 20.6638 8.63053Z" fill="white"/>
<path d="M20.6638 8.63053C20.7963 8.63053 20.9037 8.52287 20.9037 8.39035C20.9037 8.25783 20.7963 8.15039 20.6638 8.15039C20.5313 8.15039 20.4238 8.25783 20.4238 8.39035C20.4238 8.52287 20.5313 8.63053 20.6638 8.63053Z" stroke="black" stroke-width="0.0905759"/>
<path d="M21.2304 8.59732C21.3629 8.59732 21.4704 8.48967 21.4704 8.35715C21.4704 8.22463 21.3629 8.11719 21.2304 8.11719C21.0977 8.11719 20.9902 8.22463 20.9902 8.35715C20.9902 8.48967 21.0977 8.59732 21.2304 8.59732Z" fill="white"/>
<path d="M21.2304 8.59732C21.3629 8.59732 21.4704 8.48967 21.4704 8.35715C21.4704 8.22463 21.3629 8.11719 21.2304 8.11719C21.0977 8.11719 20.9902 8.22463 20.9902 8.35715C20.9902 8.48967 21.0977 8.59732 21.2304 8.59732Z" stroke="black" stroke-width="0.0905759"/>
<path d="M21.738 8.64224C21.8705 8.64224 21.978 8.5348 21.978 8.40228C21.978 8.26955 21.8705 8.16211 21.738 8.16211C21.6055 8.16211 21.498 8.26955 21.498 8.40228C21.498 8.5348 21.6055 8.64224 21.738 8.64224Z" fill="white"/>
<path d="M21.738 8.64224C21.8705 8.64224 21.978 8.5348 21.978 8.40228C21.978 8.26955 21.8705 8.16211 21.738 8.16211C21.6055 8.16211 21.498 8.26955 21.498 8.40228C21.498 8.5348 21.6055 8.64224 21.738 8.64224Z" stroke="black" stroke-width="0.0905759"/>
<path d="M23.1911 8.46039C23.3237 8.46039 23.4313 8.35295 23.4313 8.22043C23.4313 8.08813 23.3237 7.98047 23.1911 7.98047C23.0586 7.98047 22.9512 8.08791 22.9512 8.22043C22.9512 8.35295 23.0586 8.46039 23.1911 8.46039Z" fill="white"/>
<path d="M23.1911 8.46039C23.3237 8.46039 23.4313 8.35295 23.4313 8.22043C23.4313 8.08813 23.3237 7.98047 23.1911 7.98047C23.0586 7.98047 22.9512 8.08791 22.9512 8.22043C22.9512 8.35295 23.0586 8.46039 23.1911 8.46039Z" stroke="black" stroke-width="0.0905759"/>
<path d="M23.654 8.58539C23.7865 8.58539 23.8942 8.47795 23.8942 8.34543C23.8942 8.21291 23.7865 8.10547 23.654 8.10547C23.5215 8.10547 23.4141 8.21291 23.4141 8.34543C23.4141 8.47795 23.5215 8.58539 23.654 8.58539Z" fill="white"/>
<path d="M23.654 8.58539C23.7865 8.58539 23.8942 8.47795 23.8942 8.34543C23.8942 8.21291 23.7865 8.10547 23.654 8.10547C23.5215 8.10547 23.4141 8.21291 23.4141 8.34543C23.4141 8.47795 23.5215 8.58539 23.654 8.58539Z" stroke="black" stroke-width="0.0905759"/>
<path d="M23.654 10.3627C23.7865 10.3627 23.8942 10.2553 23.8942 10.1228C23.8942 9.99025 23.7865 9.88281 23.654 9.88281C23.5215 9.88281 23.4141 9.99025 23.4141 10.1228C23.4141 10.2553 23.5215 10.3627 23.654 10.3627Z" fill="white"/>
<path d="M23.654 10.3627C23.7865 10.3627 23.8942 10.2553 23.8942 10.1228C23.8942 9.99025 23.7865 9.88281 23.654 9.88281C23.5215 9.88281 23.4141 9.99025 23.4141 10.1228C23.4141 10.2553 23.5215 10.3627 23.654 10.3627Z" stroke="black" stroke-width="0.0905759"/>
<path d="M28.6171 11.2946C28.7496 11.2946 28.8571 11.1871 28.8571 11.0544C28.8571 10.9219 28.7496 10.8145 28.6171 10.8145C28.4844 10.8145 28.377 10.9219 28.377 11.0544C28.377 11.1871 28.4844 11.2946 28.6171 11.2946Z" fill="white"/>
<path d="M28.6171 11.2946C28.7496 11.2946 28.8571 11.1871 28.8571 11.0544C28.8571 10.9219 28.7496 10.8145 28.6171 10.8145C28.4844 10.8145 28.377 10.9219 28.377 11.0544C28.377 11.1871 28.4844 11.2946 28.6171 11.2946Z" stroke="black" stroke-width="0.0905759"/>
<path d="M28.7419 10.6987C28.8746 10.6987 28.9821 10.5912 28.9821 10.4587C28.9821 10.3262 28.8746 10.2188 28.7419 10.2188C28.6094 10.2188 28.502 10.3262 28.502 10.4587C28.502 10.5912 28.6094 10.6987 28.7419 10.6987Z" fill="white"/>
<path d="M28.7419 10.6987C28.8746 10.6987 28.9821 10.5912 28.9821 10.4587C28.9821 10.3262 28.8746 10.2188 28.7419 10.2188C28.6094 10.2188 28.502 10.3262 28.502 10.4587C28.502 10.5912 28.6094 10.6987 28.7419 10.6987Z" stroke="black" stroke-width="0.0905759"/>
<path d="M28.6384 10.0758C28.7711 10.0758 28.8786 9.9684 28.8786 9.83566C28.8786 9.70314 28.7711 9.5957 28.6384 9.5957C28.5059 9.5957 28.3984 9.70314 28.3984 9.83566C28.3984 9.9684 28.5059 10.0758 28.6384 10.0758Z" fill="white"/>
<path d="M28.6384 10.0758C28.7711 10.0758 28.8786 9.9684 28.8786 9.83566C28.8786 9.70314 28.7711 9.5957 28.6384 9.5957C28.5059 9.5957 28.3984 9.70314 28.3984 9.83566C28.3984 9.9684 28.5059 10.0758 28.6384 10.0758Z" stroke="black" stroke-width="0.0905759"/>
<path d="M28.3786 9.48795C28.5114 9.48795 28.6188 9.38029 28.6188 9.24777C28.6188 9.11547 28.5114 9.00781 28.3786 9.00781C28.2461 9.00781 28.1387 9.11525 28.1387 9.24777C28.1387 9.38029 28.2461 9.48795 28.3786 9.48795Z" fill="white"/>
<path d="M28.3786 9.48795C28.5114 9.48795 28.6188 9.38029 28.6188 9.24777C28.6188 9.11547 28.5114 9.00781 28.3786 9.00781C28.2461 9.00781 28.1387 9.11525 28.1387 9.24777C28.1387 9.38029 28.2461 9.48795 28.3786 9.48795Z" stroke="black" stroke-width="0.0905759"/>
<path d="M27.9374 9.07953C28.07 9.07953 28.1774 8.97209 28.1774 8.83957C28.1774 8.70705 28.07 8.59961 27.9374 8.59961C27.8049 8.59961 27.6973 8.70705 27.6973 8.83957C27.6973 8.97209 27.8049 9.07953 27.9374 9.07953Z" fill="white"/>
<path d="M27.9374 9.07953C28.07 9.07953 28.1774 8.97209 28.1774 8.83957C28.1774 8.70705 28.07 8.59961 27.9374 8.59961C27.8049 8.59961 27.6973 8.70705 27.6973 8.83957C27.6973 8.97209 27.8049 9.07953 27.9374 9.07953Z" stroke="black" stroke-width="0.0905759"/>
<path d="M27.4062 8.81976C27.5387 8.81976 27.6462 8.71232 27.6462 8.5798C27.6462 8.44729 27.5387 8.33984 27.4062 8.33984C27.2735 8.33984 27.166 8.44729 27.166 8.5798C27.166 8.71232 27.2735 8.81976 27.4062 8.81976Z" fill="white"/>
<path d="M27.4062 8.81976C27.5387 8.81976 27.6462 8.71232 27.6462 8.5798C27.6462 8.44729 27.5387 8.33984 27.4062 8.33984C27.2735 8.33984 27.166 8.44729 27.166 8.5798C27.166 8.71232 27.2735 8.81976 27.4062 8.81976Z" stroke="black" stroke-width="0.0905759"/>
<path d="M26.8005 8.68109C26.9332 8.68109 27.0407 8.57365 27.0407 8.44113C27.0407 8.30883 26.9332 8.20117 26.8005 8.20117C26.668 8.20117 26.5605 8.30861 26.5605 8.44113C26.5605 8.57365 26.668 8.68109 26.8005 8.68109Z" fill="white"/>
<path d="M26.8005 8.68109C26.9332 8.68109 27.0407 8.57365 27.0407 8.44113C27.0407 8.30883 26.9332 8.20117 26.8005 8.20117C26.668 8.20117 26.5605 8.30861 26.5605 8.44113C26.5605 8.57365 26.668 8.68109 26.8005 8.68109Z" stroke="black" stroke-width="0.0905759"/>
<path d="M26.2458 8.63638C26.3786 8.63638 26.486 8.52894 26.486 8.39621C26.486 8.26391 26.3786 8.15625 26.2458 8.15625C26.1133 8.15625 26.0059 8.26369 26.0059 8.39621C26.0059 8.52894 26.1133 8.63638 26.2458 8.63638Z" fill="white"/>
<path d="M26.2458 8.63638C26.3786 8.63638 26.486 8.52894 26.486 8.39621C26.486 8.26391 26.3786 8.15625 26.2458 8.15625C26.1133 8.15625 26.0059 8.26369 26.0059 8.39621C26.0059 8.52894 26.1133 8.63638 26.2458 8.63638Z" stroke="black" stroke-width="0.0905759"/>
<path d="M25.7439 8.56976C25.8766 8.56976 25.984 8.46232 25.984 8.3298C25.984 8.19728 25.8766 8.08984 25.7439 8.08984C25.6113 8.08984 25.5039 8.19728 25.5039 8.3298C25.5039 8.46232 25.6113 8.56976 25.7439 8.56976Z" fill="white"/>
<path d="M25.7439 8.56976C25.8766 8.56976 25.984 8.46232 25.984 8.3298C25.984 8.19728 25.8766 8.08984 25.7439 8.08984C25.6113 8.08984 25.5039 8.19728 25.5039 8.3298C25.5039 8.46232 25.6113 8.56976 25.7439 8.56976Z" stroke="black" stroke-width="0.0905759"/>
<path d="M26.0681 10.5348C26.2006 10.5348 26.308 10.4272 26.308 10.2946C26.308 10.1623 26.2006 10.0547 26.0681 10.0547C25.9356 10.0547 25.8281 10.1621 25.8281 10.2946C25.8281 10.4272 25.9356 10.5348 26.0681 10.5348Z" fill="white"/>
<path d="M26.0681 10.5348C26.2006 10.5348 26.308 10.4272 26.308 10.2946C26.308 10.1623 26.2006 10.0547 26.0681 10.0547C25.9356 10.0547 25.8281 10.1621 25.8281 10.2946C25.8281 10.4272 25.9356 10.5348 26.0681 10.5348Z" stroke="black" stroke-width="0.0905759"/>
<path d="M26.1913 10.0698C26.3239 10.0698 26.4313 9.96232 26.4313 9.8298C26.4313 9.69729 26.3239 9.58984 26.1913 9.58984C26.0586 9.58984 25.9512 9.69729 25.9512 9.8298C25.9512 9.96232 26.0586 10.0698 26.1913 10.0698Z" fill="white"/>
<path d="M26.1913 10.0698C26.3239 10.0698 26.4313 9.96232 26.4313 9.8298C26.4313 9.69729 26.3239 9.58984 26.1913 9.58984C26.0586 9.58984 25.9512 9.69729 25.9512 9.8298C25.9512 9.96232 26.0586 10.0698 26.1913 10.0698Z" stroke="black" stroke-width="0.0905759"/>
<path d="M24.1755 8.53482C24.3082 8.53482 24.4157 8.42716 24.4157 8.29465C24.4157 8.16213 24.3082 8.05469 24.1755 8.05469C24.043 8.05469 23.9355 8.16213 23.9355 8.29465C23.9355 8.42716 24.043 8.53482 24.1755 8.53482Z" fill="white"/>
<path d="M24.1755 8.53482C24.3082 8.53482 24.4157 8.42716 24.4157 8.29465C24.4157 8.16213 24.3082 8.05469 24.1755 8.05469C24.043 8.05469 23.9355 8.16213 23.9355 8.29465C23.9355 8.42716 24.043 8.53482 24.1755 8.53482Z" stroke="black" stroke-width="0.0905759"/>
<path d="M22.9997 8.47015C23.1325 8.47015 23.2399 8.36271 23.2399 8.22998C23.2399 8.09768 23.1325 7.99023 22.9997 7.99023C22.8672 7.99023 22.7598 8.09746 22.7598 8.22998C22.7598 8.36271 22.8672 8.47015 22.9997 8.47015Z" fill="white"/>
<path d="M22.9997 8.47015C23.1325 8.47015 23.2399 8.36271 23.2399 8.22998C23.2399 8.09768 23.1325 7.99023 22.9997 7.99023C22.8672 7.99023 22.7598 8.09746 22.7598 8.22998C22.7598 8.36271 22.8672 8.47015 22.9997 8.47015Z" stroke="black" stroke-width="0.0905759"/>
<path d="M22.7185 8.45648C22.851 8.45648 22.9584 8.34904 22.9584 8.21652C22.9584 8.084 22.851 7.97656 22.7185 7.97656C22.586 7.97656 22.4785 8.084 22.4785 8.21652C22.4785 8.34904 22.586 8.45648 22.7185 8.45648Z" fill="white"/>
<path d="M22.7185 8.45648C22.851 8.45648 22.9584 8.34904 22.9584 8.21652C22.9584 8.084 22.851 7.97656 22.7185 7.97656C22.586 7.97656 22.4785 8.084 22.4785 8.21652C22.4785 8.34904 22.586 8.45648 22.7185 8.45648Z" stroke="black" stroke-width="0.0905759"/>
<path d="M21.1931 10.5407C21.3256 10.5407 21.4333 10.4332 21.4333 10.3005C21.4333 10.168 21.3256 10.0605 21.1931 10.0605C21.0606 10.0605 20.9531 10.168 20.9531 10.3005C20.9531 10.4332 21.0606 10.5407 21.1931 10.5407Z" fill="white"/>
<path d="M21.1931 10.5407C21.3256 10.5407 21.4333 10.4332 21.4333 10.3005C21.4333 10.168 21.3256 10.0605 21.1931 10.0605C21.0606 10.0605 20.9531 10.168 20.9531 10.3005C20.9531 10.4332 21.0606 10.5407 21.1931 10.5407Z" stroke="black" stroke-width="0.0905759"/>
<path d="M21.1228 9.96625C21.2553 9.96625 21.3629 9.85881 21.3629 9.72629C21.3629 9.59377 21.2553 9.48633 21.1228 9.48633C20.9903 9.48633 20.8828 9.59377 20.8828 9.72629C20.8828 9.85881 20.9903 9.96625 21.1228 9.96625Z" fill="white"/>
<path d="M21.1228 9.96625C21.2553 9.96625 21.3629 9.85881 21.3629 9.72629C21.3629 9.59377 21.2553 9.48633 21.1228 9.48633C20.9903 9.48633 20.8828 9.59377 20.8828 9.72629C20.8828 9.85881 20.9903 9.96625 21.1228 9.96625Z" stroke="black" stroke-width="0.0905759"/>
<path d="M21.2927 9.40961C21.4254 9.40961 21.5329 9.30216 21.5329 9.16965C21.5329 9.03713 21.4254 8.92969 21.2927 8.92969C21.1602 8.92969 21.0527 9.03713 21.0527 9.16965C21.0527 9.30216 21.1602 9.40961 21.2927 9.40961Z" fill="white"/>
<path d="M21.2927 9.40961C21.4254 9.40961 21.5329 9.30216 21.5329 9.16965C21.5329 9.03713 21.4254 8.92969 21.2927 8.92969C21.1602 8.92969 21.0527 9.03713 21.0527 9.16965C21.0527 9.30216 21.1602 9.40961 21.2927 9.40961Z" stroke="black" stroke-width="0.0905759"/>
<path d="M22.3474 8.51138C22.4801 8.51138 22.5876 8.40394 22.5876 8.27143C22.5876 8.13869 22.4801 8.03125 22.3474 8.03125C22.2149 8.03125 22.1074 8.13869 22.1074 8.27143C22.1074 8.40394 22.2149 8.51138 22.3474 8.51138Z" fill="white"/>
<path d="M22.3474 8.51138C22.4801 8.51138 22.5876 8.40394 22.5876 8.27143C22.5876 8.13869 22.4801 8.03125 22.3474 8.03125C22.2149 8.03125 22.1074 8.13869 22.1074 8.27143C22.1074 8.40394 22.2149 8.51138 22.3474 8.51138Z" stroke="black" stroke-width="0.0905759"/>
<path d="M21.9489 8.6774C22.0817 8.6774 22.1891 8.56996 22.1891 8.43744C22.1891 8.30471 22.0817 8.19727 21.9489 8.19727C21.8164 8.19727 21.709 8.30471 21.709 8.43744C21.709 8.56996 21.8164 8.6774 21.9489 8.6774Z" fill="white"/>
<path d="M21.9489 8.6774C22.0817 8.6774 22.1891 8.56996 22.1891 8.43744C22.1891 8.30471 22.0817 8.19727 21.9489 8.19727C21.8164 8.19727 21.709 8.30471 21.709 8.43744C21.709 8.56996 21.8164 8.6774 21.9489 8.6774Z" stroke="black" stroke-width="0.0905759"/>
<path d="M21.5663 8.99771C21.6989 8.99771 21.8063 8.89006 21.8063 8.75754C21.8063 8.62502 21.6989 8.51758 21.5663 8.51758C21.4336 8.51758 21.3262 8.62502 21.3262 8.75754C21.3262 8.89006 21.4336 8.99771 21.5663 8.99771Z" fill="white"/>
<path d="M21.5663 8.99771C21.6989 8.99771 21.8063 8.89006 21.8063 8.75754C21.8063 8.62502 21.6989 8.51758 21.5663 8.51758C21.4336 8.51758 21.3262 8.62502 21.3262 8.75754C21.3262 8.89006 21.4336 8.99771 21.5663 8.99771Z" stroke="black" stroke-width="0.0905759"/>
<path d="M23.654 8.85709C23.7865 8.85709 23.8942 8.74943 23.8942 8.61691C23.8942 8.48461 23.7865 8.37695 23.654 8.37695C23.5215 8.37695 23.4141 8.48439 23.4141 8.61691C23.4141 8.74943 23.5215 8.85709 23.654 8.85709Z" fill="white"/>
<path d="M23.654 8.85709C23.7865 8.85709 23.8942 8.74943 23.8942 8.61691C23.8942 8.48461 23.7865 8.37695 23.654 8.37695C23.5215 8.37695 23.4141 8.48439 23.4141 8.61691C23.4141 8.74943 23.5215 8.85709 23.654 8.85709Z" stroke="black" stroke-width="0.0905759"/>
<path d="M23.654 9.31C23.7865 9.31 23.8942 9.20256 23.8942 9.07004C23.8942 8.93752 23.7865 8.83008 23.654 8.83008C23.5215 8.83008 23.4141 8.93752 23.4141 9.07004C23.4141 9.20256 23.5215 9.31 23.654 9.31Z" fill="white"/>
<path d="M23.654 9.31C23.7865 9.31 23.8942 9.20256 23.8942 9.07004C23.8942 8.93752 23.7865 8.83008 23.654 8.83008C23.5215 8.83008 23.4141 8.93752 23.4141 9.07004C23.4141 9.20256 23.5215 9.31 23.654 9.31Z" stroke="black" stroke-width="0.0905759"/>
<path d="M23.654 9.79633C23.7865 9.79633 23.8942 9.68888 23.8942 9.55636C23.8942 9.42406 23.7865 9.31641 23.654 9.31641C23.5215 9.31641 23.4141 9.42385 23.4141 9.55636C23.4141 9.68888 23.5215 9.79633 23.654 9.79633Z" fill="white"/>
<path d="M23.654 9.79633C23.7865 9.79633 23.8942 9.68888 23.8942 9.55636C23.8942 9.42406 23.7865 9.31641 23.654 9.31641C23.5215 9.31641 23.4141 9.42385 23.4141 9.55636C23.4141 9.68888 23.5215 9.79633 23.654 9.79633Z" stroke="black" stroke-width="0.0905759"/>
<path d="M24.4863 8.47232C24.6188 8.47232 24.7262 8.36467 24.7262 8.23215C24.7262 8.09985 24.6188 7.99219 24.4863 7.99219C24.3535 7.99219 24.2461 8.09963 24.2461 8.23215C24.2461 8.36467 24.3535 8.47232 24.4863 8.47232Z" fill="white"/>
<path d="M24.4863 8.47232C24.6188 8.47232 24.7262 8.36467 24.7262 8.23215C24.7262 8.09985 24.6188 7.99219 24.4863 7.99219C24.3535 7.99219 24.2461 8.09963 24.2461 8.23215C24.2461 8.36467 24.3535 8.47232 24.4863 8.47232Z" stroke="black" stroke-width="0.0905759"/>
<path d="M24.8144 8.40396C24.9469 8.40396 25.0544 8.29631 25.0544 8.16379C25.0544 8.03149 24.9469 7.92383 24.8144 7.92383C24.6817 7.92383 24.5742 8.03127 24.5742 8.16379C24.5742 8.29631 24.6817 8.40396 24.8144 8.40396Z" fill="white"/>
<path d="M24.8144 8.40396C24.9469 8.40396 25.0544 8.29631 25.0544 8.16379C25.0544 8.03149 24.9469 7.92383 24.8144 7.92383C24.6817 7.92383 24.5742 8.03127 24.5742 8.16379C24.5742 8.29631 24.6817 8.40396 24.8144 8.40396Z" stroke="black" stroke-width="0.0905759"/>
<path d="M25.1853 8.46451C25.3178 8.46451 25.4252 8.35685 25.4252 8.22433C25.4252 8.09182 25.3178 7.98438 25.1853 7.98438C25.0528 7.98438 24.9453 8.09182 24.9453 8.22433C24.9453 8.35685 25.0528 8.46451 25.1853 8.46451Z" fill="white"/>
<path d="M25.1853 8.46451C25.3178 8.46451 25.4252 8.35685 25.4252 8.22433C25.4252 8.09182 25.3178 7.98438 25.1853 7.98438C25.0528 7.98438 24.9453 8.09182 24.9453 8.22433C24.9453 8.35685 25.0528 8.46451 25.1853 8.46451Z" stroke="black" stroke-width="0.0905759"/>
<path d="M26.113 9.48187C26.2455 9.48187 26.3532 9.37443 26.3532 9.24191C26.3532 9.10939 26.2455 9.00195 26.113 9.00195C25.9805 9.00195 25.873 9.10939 25.873 9.24191C25.873 9.37443 25.9805 9.48187 26.113 9.48187Z" fill="white"/>
<path d="M26.113 9.48187C26.2455 9.48187 26.3532 9.37443 26.3532 9.24191C26.3532 9.10939 26.2455 9.00195 26.113 9.00195C25.9805 9.00195 25.873 9.10939 25.873 9.24191C25.873 9.37443 25.9805 9.48187 26.113 9.48187Z" stroke="black" stroke-width="0.0905759"/>
<path d="M25.5583 8.67935C25.6911 8.67935 25.7985 8.57191 25.7985 8.43939C25.7985 8.30666 25.6911 8.19922 25.5583 8.19922C25.4258 8.19922 25.3184 8.30666 25.3184 8.43939C25.3184 8.57191 25.4258 8.67935 25.5583 8.67935Z" fill="white"/>
<path d="M25.5583 8.67935C25.6911 8.67935 25.7985 8.57191 25.7985 8.43939C25.7985 8.30666 25.6911 8.19922 25.5583 8.19922C25.4258 8.19922 25.3184 8.30666 25.3184 8.43939C25.3184 8.57191 25.4258 8.67935 25.5583 8.67935Z" stroke="black" stroke-width="0.0905759"/>
<path d="M25.8984 9.00748C26.0309 9.00748 26.1383 8.90004 26.1383 8.7673C26.1383 8.63478 26.0309 8.52734 25.8984 8.52734C25.7656 8.52734 25.6582 8.63478 25.6582 8.7673C25.6582 8.90004 25.7656 9.00748 25.8984 9.00748Z" fill="white"/>
<path d="M25.8984 9.00748C26.0309 9.00748 26.1383 8.90004 26.1383 8.7673C26.1383 8.63478 26.0309 8.52734 25.8984 8.52734C25.7656 8.52734 25.6582 8.63478 25.6582 8.7673C25.6582 8.90004 25.7656 9.00748 25.8984 9.00748Z" stroke="black" stroke-width="0.0905759"/>
<path d="M23.6395 12.6016L23.0059 12.9185L23.5761 13.2776L24.2521 12.9397L23.6395 12.6016Z" fill="white"/>
<path d="M23.6395 12.6016L23.0059 12.9185L23.5761 13.2776L24.2521 12.9397L23.6395 12.6016Z" stroke="black" stroke-width="0.0451799"/>
<path d="M22.2546 12.668L21.304 12.815C21.304 12.815 21.2926 13.3243 21.338 13.4488L22.311 13.3128C22.311 13.3128 22.3564 12.8377 22.2546 12.668Z" fill="white"/>
<path d="M22.2546 12.668L21.304 12.815C21.304 12.815 21.2926 13.3243 21.338 13.4488L22.311 13.3128C22.311 13.3128 22.3564 12.8377 22.2546 12.668Z" stroke="black" stroke-width="0.0451799"/>
<path d="M22.1483 12.8477C22.1483 12.8477 21.575 12.9004 21.4316 12.9534L21.4392 13.3003C21.4392 13.3003 21.8164 13.2325 22.1634 13.2022L22.1483 12.8477Z" fill="#058E6E" fill-opacity="0.941176"/>
<path d="M22.1483 12.8477C22.1483 12.8477 21.575 12.9004 21.4316 12.9534L21.4392 13.3003C21.4392 13.3003 21.8164 13.2325 22.1634 13.2022L22.1483 12.8477Z" stroke="black" stroke-width="0.0451799"/>
<path d="M24.9632 12.6953L25.9135 12.8425C25.9135 12.8425 25.925 13.3516 25.8796 13.4762L24.9065 13.3404C24.9065 13.3404 24.8612 12.865 24.9632 12.6953Z" fill="white"/>
<path d="M24.9632 12.6953L25.9135 12.8425C25.9135 12.8425 25.925 13.3516 25.8796 13.4762L24.9065 13.3404C24.9065 13.3404 24.8612 12.865 24.9632 12.6953Z" stroke="black" stroke-width="0.0451799"/>
<path d="M25.0698 12.877C25.0698 12.877 25.6431 12.9297 25.7865 12.9824L25.7789 13.3294C25.7789 13.3294 25.4017 13.2615 25.0547 13.2315L25.0698 12.877Z" fill="#058E6E" fill-opacity="0.941176"/>
<path d="M25.0698 12.877C25.0698 12.877 25.6431 12.9297 25.7865 12.9824L25.7789 13.3294C25.7789 13.3294 25.4017 13.2615 25.0547 13.2315L25.0698 12.877Z" stroke="black" stroke-width="0.0451799"/>
<path d="M19.877 13.1202C19.877 13.1202 23.2113 11.8819 27.4512 13.2248M20.0127 13.833C20.0127 13.833 23.2379 12.6267 27.2154 13.8866M20.0278 13.0748L20.6766 13.2633L20.2239 13.7463" stroke="black" stroke-width="0.0451799"/>
<path d="M20.043 13.656L20.4126 13.3467L19.9902 13.2637C19.9902 13.2637 20.0477 13.329 20.0358 13.3888C20.0242 13.4487 20.0393 13.6033 20.043 13.656Z" fill="#FF0000"/>
<path d="M20.043 13.656L20.4126 13.3467L19.9902 13.2637C19.9902 13.2637 20.0477 13.329 20.0358 13.3888C20.0242 13.4487 20.0393 13.6033 20.043 13.656Z" stroke="black" stroke-width="0.0451799"/>
<path d="M27.3797 13.2012L26.6895 13.3257L27.1534 13.8687" stroke="black" stroke-width="0.0451799"/>
<path d="M27.1763 13.6748L26.916 13.4031L27.2894 13.3691C27.2894 13.3691 27.1875 13.437 27.1875 13.4937C27.1875 13.5503 27.199 13.6294 27.1763 13.6748Z" fill="#FF0000"/>
<path d="M27.1763 13.6748L26.916 13.4031L27.2894 13.3691C27.2894 13.3691 27.1875 13.437 27.1875 13.4937C27.1875 13.5503 27.199 13.6294 27.1763 13.6748Z" stroke="black" stroke-width="0.0451799"/>
<path d="M20.8724 13.1242C20.9312 13.1242 20.979 13.0859 20.979 13.0386C20.979 12.9917 20.9312 12.9534 20.8724 12.9534C20.8134 12.9534 20.7656 12.9917 20.7656 13.0386C20.7656 13.0859 20.8134 13.1242 20.8724 13.1242ZM22.727 12.9128C22.786 12.9128 22.8338 12.8745 22.8338 12.8276C22.8338 12.7802 22.786 12.7422 22.727 12.7422C22.6682 12.7422 22.6204 12.7802 22.6204 12.8276C22.6204 12.8745 22.6682 12.9128 22.727 12.9128ZM22.727 13.2145C22.786 13.2145 22.8338 13.1763 22.8338 13.1291C22.8338 13.082 22.786 13.044 22.727 13.044C22.6682 13.044 22.6204 13.082 22.6204 13.1291C22.6204 13.1763 22.6682 13.2145 22.727 13.2145ZM24.5527 12.9279C24.6117 12.9279 24.6595 12.8898 24.6595 12.8425C24.6595 12.7956 24.6117 12.7573 24.5527 12.7573C24.4939 12.7573 24.4461 12.7954 24.4461 12.8425C24.4461 12.8898 24.4939 12.9279 24.5527 12.9279ZM26.3632 13.2599C26.4222 13.2599 26.47 13.2217 26.47 13.1743C26.47 13.1274 26.4222 13.0892 26.3632 13.0892C26.3044 13.0892 26.2566 13.1274 26.2566 13.1743C26.2566 13.2217 26.3044 13.2599 26.3632 13.2599ZM26.3331 13.5012C26.3921 13.5012 26.4399 13.4629 26.4399 13.416C26.4399 13.3691 26.3921 13.3304 26.3331 13.3304C26.2741 13.3304 26.2263 13.3689 26.2263 13.416C26.2263 13.4629 26.2741 13.5012 26.3331 13.5012ZM24.5527 13.2297C24.6117 13.2297 24.6595 13.1914 24.6595 13.1443C24.6595 13.0974 24.6117 13.0591 24.5527 13.0591C24.4939 13.0591 24.4461 13.0972 24.4461 13.1443C24.4461 13.1914 24.4939 13.2297 24.5527 13.2297ZM20.9619 13.5012C21.0207 13.5012 21.0685 13.4629 21.0685 13.416C21.0685 13.3691 21.0207 13.3304 20.9619 13.3304C20.9029 13.3304 20.8551 13.3689 20.8551 13.416C20.8551 13.4629 20.9029 13.5012 20.9619 13.5012Z" stroke="black" stroke-width="0.0451799"/>
<path d="M19.8163 12.1483C19.8163 12.1483 19.8314 12.797 20.2538 12.7064C20.6763 12.6159 20.6311 12.0877 20.6613 12.0577C20.6914 12.0274 20.7366 12.0274 20.7366 12.0274C20.7366 12.0274 20.7969 12.5404 21.189 12.4801C21.5814 12.4198 21.5663 11.7862 21.5211 11.6804L21.6117 11.6502C21.6117 11.6502 21.7623 12.3895 22.215 12.284C22.6677 12.1783 22.6225 11.7107 22.6225 11.7107H22.6573C22.6573 11.7107 22.7583 12.2086 23.1204 12.1783C23.4823 12.1483 23.5579 12.0274 23.5125 11.5296L23.754 11.4844C23.754 11.4844 23.6634 12.2086 24.1008 12.1934C24.5385 12.1783 24.5534 11.8313 24.5837 11.771H24.6496C24.6496 11.771 24.6743 12.284 25.0364 12.284C25.3985 12.284 25.4737 11.8465 25.4737 11.6804L25.8274 11.6962C25.8274 11.6962 25.4588 12.3746 26.0021 12.4652C26.5451 12.5555 26.5602 12.0274 26.5602 12.0274H26.6657C26.6657 12.0274 26.6506 12.7064 26.9524 12.7216C27.254 12.7367 27.4351 12.631 27.4652 12.1331L27.6312 12.1934C27.6312 12.1934 27.4872 12.9983 26.9221 12.8571C26.6203 12.7819 26.5298 12.4349 26.5449 12.3443C26.5449 12.3443 26.3339 12.7214 25.9264 12.6007C25.5191 12.4801 25.5643 12.1934 25.5643 12.1029C25.5643 12.1029 25.3194 12.5527 24.9759 12.4496C24.6743 12.3593 24.5534 12.2535 24.5534 12.0423C24.5534 12.0423 24.4026 12.3893 24.1008 12.3744C23.799 12.3593 23.6483 12.1781 23.6332 12.0123C23.6332 12.0123 23.5733 12.3366 23.1654 12.3593C22.8938 12.3744 22.7429 12.2388 22.6826 12.0575C22.6826 12.0575 22.6046 12.3861 22.215 12.4347C21.9738 12.465 21.7323 12.3292 21.6718 12.1029C21.6718 12.1029 21.6117 12.5402 21.2193 12.6007C20.8269 12.661 20.7364 12.3895 20.7364 12.3895C20.7364 12.3895 20.6611 12.7367 20.3442 12.8119C20.0273 12.8874 19.8161 12.7518 19.7406 12.4349C19.6652 12.118 19.6955 11.9822 19.6955 11.9822L19.8161 12.148" fill="#FFCC00"/>
<path d="M19.8163 12.1483C19.8163 12.1483 19.8314 12.797 20.2538 12.7064C20.6763 12.6159 20.6311 12.0877 20.6613 12.0577C20.6914 12.0274 20.7366 12.0274 20.7366 12.0274C20.7366 12.0274 20.7969 12.5404 21.189 12.4801C21.5814 12.4198 21.5663 11.7862 21.5211 11.6804L21.6117 11.6502C21.6117 11.6502 21.7623 12.3895 22.215 12.284C22.6677 12.1783 22.6225 11.7107 22.6225 11.7107H22.6573C22.6573 11.7107 22.7583 12.2086 23.1204 12.1783C23.4823 12.1483 23.5579 12.0274 23.5125 11.5296L23.754 11.4844C23.754 11.4844 23.6634 12.2086 24.1008 12.1934C24.5385 12.1783 24.5534 11.8313 24.5837 11.771H24.6496C24.6496 11.771 24.6743 12.284 25.0364 12.284C25.3985 12.284 25.4737 11.8465 25.4737 11.6804L25.8274 11.6962C25.8274 11.6962 25.4588 12.3746 26.0021 12.4652C26.5451 12.5555 26.5602 12.0274 26.5602 12.0274H26.6657C26.6657 12.0274 26.6506 12.7064 26.9524 12.7216C27.254 12.7367 27.4351 12.631 27.4652 12.1331L27.6312 12.1934C27.6312 12.1934 27.4872 12.9983 26.9221 12.8571C26.6203 12.7819 26.5298 12.4349 26.5449 12.3443C26.5449 12.3443 26.3339 12.7214 25.9264 12.6007C25.5191 12.4801 25.5643 12.1934 25.5643 12.1029C25.5643 12.1029 25.3194 12.5527 24.9759 12.4496C24.6743 12.3593 24.5534 12.2535 24.5534 12.0423C24.5534 12.0423 24.4026 12.3893 24.1008 12.3744C23.799 12.3593 23.6483 12.1781 23.6332 12.0123C23.6332 12.0123 23.5733 12.3366 23.1654 12.3593C22.8938 12.3744 22.7429 12.2388 22.6826 12.0575C22.6826 12.0575 22.6046 12.3861 22.215 12.4347C21.9738 12.465 21.7323 12.3292 21.6718 12.1029C21.6718 12.1029 21.6117 12.5402 21.2193 12.6007C20.8269 12.661 20.7364 12.3895 20.7364 12.3895C20.7364 12.3895 20.6611 12.7367 20.3442 12.8119C20.0273 12.8874 19.8161 12.7518 19.7406 12.4349C19.6652 12.118 19.6955 11.9822 19.6955 11.9822L19.8161 12.148L19.8163 12.1483Z" fill="#BCAC0B" stroke="black" stroke-width="0.0587987"/>
<path d="M20.6923 12.1757C20.7749 12.1757 20.8417 12.1089 20.8417 12.0263C20.8417 11.944 20.7749 11.877 20.6923 11.877C20.6098 11.877 20.543 11.944 20.543 12.0263C20.543 12.1089 20.6098 12.1757 20.6923 12.1757Z" fill="#FFCC00"/>
<path d="M20.6923 12.1757C20.7749 12.1757 20.8417 12.1089 20.8417 12.0263C20.8417 11.944 20.7749 11.877 20.6923 11.877C20.6098 11.877 20.543 11.944 20.543 12.0263C20.543 12.1089 20.6098 12.1757 20.6923 12.1757Z" fill="#BCAC0B" stroke="black" stroke-width="0.0587987"/>
<path d="M22.6591 11.8613C22.7417 11.8613 22.8085 11.7942 22.8085 11.7119C22.8085 11.6293 22.7417 11.5625 22.6591 11.5625C22.5766 11.5625 22.5098 11.6293 22.5098 11.7119C22.5098 11.7942 22.5766 11.8613 22.6591 11.8613Z" fill="#FFCC00"/>
<path d="M22.6591 11.8613C22.7417 11.8613 22.8085 11.7942 22.8085 11.7119C22.8085 11.6293 22.7417 11.5625 22.6591 11.5625C22.5766 11.5625 22.5098 11.6293 22.5098 11.7119C22.5098 11.7942 22.5766 11.8613 22.6591 11.8613Z" fill="#BCAC0B" stroke="black" stroke-width="0.0587987"/>
<path d="M24.6513 11.9199C24.7339 11.9199 24.8007 11.8528 24.8007 11.7705C24.8007 11.6879 24.7339 11.6211 24.6513 11.6211C24.5688 11.6211 24.502 11.6879 24.502 11.7705C24.502 11.8528 24.5688 11.9199 24.6513 11.9199Z" fill="#FFCC00"/>
<path d="M24.6513 11.9199C24.7339 11.9199 24.8007 11.8528 24.8007 11.7705C24.8007 11.6879 24.7339 11.6211 24.6513 11.6211C24.5688 11.6211 24.502 11.6879 24.502 11.7705C24.502 11.8528 24.5688 11.9199 24.6513 11.9199Z" fill="#BCAC0B" stroke="black" stroke-width="0.0587987"/>
<path d="M26.6277 12.2382C26.7103 12.2382 26.7771 12.1712 26.7771 12.0888C26.7771 12.0063 26.7103 11.9395 26.6277 11.9395C26.5453 11.9395 26.4785 12.0063 26.4785 12.0888C26.4785 12.1712 26.5453 12.2382 26.6277 12.2382Z" fill="#FFCC00"/>
<path d="M26.6277 12.2382C26.7103 12.2382 26.7771 12.1712 26.7771 12.0888C26.7771 12.0063 26.7103 11.9395 26.6277 11.9395C26.5453 11.9395 26.4785 12.0063 26.4785 12.0888C26.4785 12.1712 26.5453 12.2382 26.6277 12.2382Z" fill="#BCAC0B" stroke="black" stroke-width="0.0587987"/>
<path d="M23.567 11.6952H23.4312C23.3973 11.831 23.1087 11.916 23.1087 11.916C23.0747 11.8085 23.1482 11.6557 23.1482 11.6557C22.8145 11.5707 22.8145 11.4518 22.8145 11.4518C22.8653 11.3388 23.1709 11.3219 23.1709 11.3219C23.0916 11.2201 23.1087 11.056 23.1087 11.056C23.3123 11.0675 23.482 11.2709 23.482 11.2709C23.482 11.2709 23.2784 11.1693 23.3011 10.807C23.3011 10.807 23.4141 10.8016 23.482 10.8748C23.482 10.8748 23.482 10.4846 23.6461 10.4395H23.663C23.827 10.4846 23.827 10.8748 23.827 10.8748C23.8949 10.8016 24.008 10.807 24.008 10.807C24.0307 11.1691 23.827 11.2709 23.827 11.2709C23.827 11.2709 23.9967 11.0675 24.2004 11.056C24.2004 11.056 24.2175 11.2199 24.1381 11.3219C24.1381 11.3219 24.4438 11.3388 24.4946 11.4518C24.4946 11.4518 24.4946 11.5707 24.1608 11.6557C24.1608 11.6557 24.2343 11.8085 24.2004 11.916C24.2004 11.916 23.9118 11.831 23.8778 11.6952H23.5668" fill="#FFCC00"/>
<path d="M23.567 11.6952H23.4312C23.3973 11.831 23.1087 11.916 23.1087 11.916C23.0747 11.8085 23.1482 11.6557 23.1482 11.6557C22.8145 11.5707 22.8145 11.4518 22.8145 11.4518C22.8653 11.3388 23.1709 11.3219 23.1709 11.3219C23.0916 11.2201 23.1087 11.056 23.1087 11.056C23.3123 11.0675 23.482 11.2709 23.482 11.2709C23.482 11.2709 23.2784 11.1693 23.3011 10.807C23.3011 10.807 23.4141 10.8016 23.482 10.8748C23.482 10.8748 23.482 10.4846 23.6461 10.4395H23.663C23.827 10.4846 23.827 10.8748 23.827 10.8748C23.8949 10.8016 24.008 10.807 24.008 10.807C24.0307 11.1691 23.827 11.2709 23.827 11.2709C23.827 11.2709 23.9967 11.0675 24.2004 11.056C24.2004 11.056 24.2175 11.2199 24.1381 11.3219C24.1381 11.3219 24.4438 11.3388 24.4946 11.4518C24.4946 11.4518 24.4946 11.5707 24.1608 11.6557C24.1608 11.6557 24.2343 11.8085 24.2004 11.916C24.2004 11.916 23.9118 11.831 23.8778 11.6952H23.5668H23.567Z" fill="#BCAC0B" stroke="black" stroke-width="0.0587987"/>
<path d="M23.6443 11.7713C23.7955 11.7713 23.9178 11.649 23.9178 11.4979C23.9178 11.347 23.7955 11.2246 23.6443 11.2246C23.4935 11.2246 23.3711 11.347 23.3711 11.4979C23.3711 11.649 23.4935 11.7713 23.6443 11.7713Z" fill="white"/>
<path d="M23.6443 11.7713C23.7955 11.7713 23.9178 11.649 23.9178 11.4979C23.9178 11.347 23.7955 11.2246 23.6443 11.2246C23.4935 11.2246 23.3711 11.347 23.3711 11.4979C23.3711 11.649 23.4935 11.7713 23.6443 11.7713Z" stroke="black" stroke-width="0.0363168"/>
<path d="M23.6433 11.6462C23.7259 11.6462 23.7929 11.5794 23.7929 11.4968C23.7929 11.4145 23.7259 11.3477 23.6433 11.3477C23.5609 11.3477 23.4941 11.4145 23.4941 11.4968C23.4941 11.5794 23.5609 11.6462 23.6433 11.6462Z" fill="white"/>
<path d="M23.6433 11.6462C23.7259 11.6462 23.7929 11.5794 23.7929 11.4968C23.7929 11.4145 23.7259 11.3477 23.6433 11.3477C23.5609 11.3477 23.4941 11.4145 23.4941 11.4968C23.4941 11.5794 23.5609 11.6462 23.6433 11.6462Z" stroke="black" stroke-width="0.022698"/>
<path d="M25.7177 11.873L25.8504 11.9018C25.8545 12.0416 26.1191 12.1854 26.1191 12.1854C26.1747 12.0875 26.1351 11.9227 26.1351 11.9227C26.4793 11.9102 26.5041 11.7941 26.5041 11.7941C26.4784 11.6726 26.1833 11.5915 26.1833 11.5915C26.2821 11.5087 26.3003 11.3447 26.3003 11.3447C26.0988 11.3129 25.8897 11.4761 25.8897 11.4761C25.8897 11.4761 26.1105 11.4197 26.1647 11.0608C26.1647 11.0608 26.0551 11.0316 25.9736 11.0889C25.9736 11.0889 26.0558 10.7074 25.9051 10.6287L25.8884 10.625C25.7185 10.6347 25.6362 11.0163 25.6362 11.0163C25.5854 10.93 25.4736 10.9117 25.4736 10.9117C25.375 11.2608 25.5527 11.4035 25.5527 11.4035C25.5527 11.4035 25.4297 11.1685 25.233 11.1144C25.233 11.1144 25.1818 11.2712 25.2377 11.3875C25.2377 11.3875 24.9355 11.3397 24.8618 11.4396C24.8618 11.4396 24.8369 11.5557 25.1452 11.7091C25.1452 11.7091 25.041 11.843 25.0516 11.9552C25.0516 11.9552 25.3517 11.9331 25.4135 11.8075L25.546 11.836L25.7177 11.873Z" fill="#FFCC00"/>
<path d="M25.7177 11.873L25.8504 11.9018C25.8545 12.0416 26.1191 12.1854 26.1191 12.1854C26.1747 12.0875 26.1351 11.9227 26.1351 11.9227C26.4793 11.9102 26.5041 11.7941 26.5041 11.7941C26.4784 11.6726 26.1833 11.5915 26.1833 11.5915C26.2821 11.5087 26.3003 11.3447 26.3003 11.3447C26.0988 11.3129 25.8897 11.4761 25.8897 11.4761C25.8897 11.4761 26.1105 11.4197 26.1647 11.0608C26.1647 11.0608 26.0551 11.0316 25.9736 11.0889C25.9736 11.0889 26.0558 10.7074 25.9051 10.6287L25.8884 10.625C25.7185 10.6347 25.6362 11.0163 25.6362 11.0163C25.5854 10.93 25.4736 10.9117 25.4736 10.9117C25.375 11.2608 25.5527 11.4035 25.5527 11.4035C25.5527 11.4035 25.4297 11.1685 25.233 11.1144C25.233 11.1144 25.1818 11.2712 25.2377 11.3875C25.2377 11.3875 24.9355 11.3397 24.8618 11.4396C24.8618 11.4396 24.8369 11.5557 25.1452 11.7091C25.1452 11.7091 25.041 11.843 25.0516 11.9552C25.0516 11.9552 25.3517 11.9331 25.4135 11.8075L25.546 11.836L25.7177 11.873Z" fill="#BCAC0B" stroke="black" stroke-width="0.0587987"/>
<path d="M25.6239 11.9313C25.4764 11.8995 25.3826 11.754 25.4144 11.6064C25.4462 11.4589 25.5917 11.3649 25.7393 11.3969C25.887 11.4287 25.9808 11.5741 25.949 11.7218C25.917 11.8692 25.7715 11.9633 25.6239 11.9313Z" fill="white"/>
<path d="M25.6239 11.9313C25.4764 11.8995 25.3826 11.754 25.4144 11.6064C25.4462 11.4589 25.5917 11.3649 25.7393 11.3969C25.887 11.4287 25.9808 11.5741 25.949 11.7218C25.917 11.8692 25.7715 11.9633 25.6239 11.9313Z" stroke="black" stroke-width="0.0363168"/>
<path d="M25.6512 11.8109C25.5704 11.7936 25.5191 11.714 25.5366 11.6334C25.5539 11.553 25.6335 11.5015 25.7141 11.519C25.7948 11.5363 25.846 11.6161 25.8287 11.6965C25.8112 11.7772 25.7316 11.8284 25.6512 11.8109Z" fill="white"/>
<path d="M25.6512 11.8109C25.5704 11.7936 25.5191 11.714 25.5366 11.6334C25.5539 11.553 25.6335 11.5015 25.7141 11.519C25.7948 11.5363 25.846 11.6161 25.8287 11.6965C25.8112 11.7772 25.7316 11.8284 25.6512 11.8109Z" stroke="black" stroke-width="0.022698"/>
<path d="M21.5009 11.8454L21.3662 11.8631C21.3504 12.0024 21.0755 12.1245 21.0755 12.1245C21.0277 12.0225 21.0804 11.8614 21.0804 11.8614C20.7384 11.8212 20.7227 11.7034 20.7227 11.7034C20.7583 11.5847 21.0588 11.5274 21.0588 11.5274C20.9669 11.437 20.9622 11.2721 20.9622 11.2721C21.1656 11.2567 21.3608 11.436 21.3608 11.436C21.3608 11.436 21.1455 11.3618 21.1202 10.9999C21.1202 10.9999 21.2318 10.9794 21.3087 11.0434C21.3087 11.0434 21.2573 10.6564 21.4136 10.5898L21.4304 10.5879C21.599 10.6108 21.6505 10.998 21.6505 10.998C21.7082 10.9163 21.8211 10.9068 21.8211 10.9068C21.8913 11.2628 21.7028 11.3903 21.7028 11.3903C21.7028 11.3903 21.8442 11.1664 22.0446 11.1283C22.0446 11.1283 22.0831 11.2885 22.018 11.3999C22.018 11.3999 22.323 11.3763 22.3885 11.4818C22.3885 11.4818 22.4041 11.5996 22.0844 11.7278C22.0844 11.7278 22.1775 11.8694 22.1581 11.9805C22.1581 11.9805 21.8608 11.9345 21.8092 11.8043L21.6745 11.8223L21.5009 11.8454Z" fill="#FFCC00"/>
<path d="M21.5009 11.8454L21.3662 11.8631C21.3504 12.0024 21.0755 12.1245 21.0755 12.1245C21.0277 12.0225 21.0804 11.8614 21.0804 11.8614C20.7384 11.8212 20.7227 11.7034 20.7227 11.7034C20.7583 11.5847 21.0588 11.5274 21.0588 11.5274C20.9669 11.437 20.9622 11.2721 20.9622 11.2721C21.1656 11.2567 21.3608 11.436 21.3608 11.436C21.3608 11.436 21.1455 11.3618 21.1202 10.9999C21.1202 10.9999 21.2318 10.9794 21.3087 11.0434C21.3087 11.0434 21.2573 10.6564 21.4136 10.5898L21.4304 10.5879C21.599 10.6108 21.6505 10.998 21.6505 10.998C21.7082 10.9163 21.8211 10.9068 21.8211 10.9068C21.8913 11.2628 21.7028 11.3903 21.7028 11.3903C21.7028 11.3903 21.8442 11.1664 22.0446 11.1283C22.0446 11.1283 22.0831 11.2885 22.018 11.3999C22.018 11.3999 22.323 11.3763 22.3885 11.4818C22.3885 11.4818 22.4041 11.5996 22.0844 11.7278C22.0844 11.7278 22.1775 11.8694 22.1581 11.9805C22.1581 11.9805 21.8608 11.9345 21.8092 11.8043L21.6745 11.8223L21.5009 11.8454Z" fill="#BCAC0B" stroke="black" stroke-width="0.0587987"/>
<path d="M21.5887 11.9116C21.7385 11.8917 21.8438 11.7542 21.8237 11.6044C21.8038 11.4548 21.6663 11.3495 21.5167 11.3696C21.3669 11.3895 21.2618 11.527 21.2817 11.6766C21.3016 11.8262 21.4391 11.9315 21.5887 11.9116Z" fill="white"/>
<path d="M21.5887 11.9116C21.7385 11.8917 21.8438 11.7542 21.8237 11.6044C21.8038 11.4548 21.6663 11.3495 21.5167 11.3696C21.3669 11.3895 21.2618 11.527 21.2817 11.6766C21.3016 11.8262 21.4391 11.9315 21.5887 11.9116Z" stroke="black" stroke-width="0.0363168"/>
<path d="M21.5715 11.7877C21.6532 11.7769 21.7107 11.7018 21.6997 11.6199C21.6888 11.5382 21.6138 11.4809 21.5321 11.4915C21.4502 11.5025 21.3927 11.5775 21.4037 11.6593C21.4145 11.7412 21.4897 11.7985 21.5715 11.7877Z" fill="white"/>
<path d="M21.5715 11.7877C21.6532 11.7769 21.7107 11.7018 21.6997 11.6199C21.6888 11.5382 21.6138 11.4809 21.5321 11.4915C21.4502 11.5025 21.3927 11.5775 21.4037 11.6593C21.4145 11.7412 21.4897 11.7985 21.5715 11.7877Z" stroke="black" stroke-width="0.022698"/>
<path d="M27.6117 12.4257C27.6117 12.4257 27.5432 12.2459 27.3919 12.3105C27.2406 12.3751 27.2561 12.3987 27.1208 12.3905C27.1208 12.3905 27.068 12.2288 27.1346 12.159C27.1346 12.159 26.9184 12.0781 26.873 11.8883C26.873 11.8883 26.9889 11.7538 27.2635 11.804C27.2635 11.804 27.2548 11.6676 27.2924 11.6075C27.2924 11.6075 27.5873 11.6987 27.5888 11.8632C27.5888 11.8632 27.5004 11.5405 27.6561 11.3061C27.6561 11.3061 27.7942 11.3654 27.7853 11.5124C27.7853 11.5124 27.8489 11.2099 28.2577 11.2912C28.2577 11.2912 28.0361 11.4877 28.0251 11.5777C28.014 11.6676 27.8292 11.8209 27.826 11.8719C27.8232 11.9227 27.8007 12.012 27.7464 12.0654C27.6922 12.1188 27.6867 12.2093 27.6911 12.2377C27.6947 12.2664 27.6818 12.3903 27.6117 12.4257Z" fill="#FFCC00"/>
<path d="M27.6117 12.4257C27.6117 12.4257 27.5432 12.2459 27.3919 12.3105C27.2406 12.3751 27.2561 12.3987 27.1208 12.3905C27.1208 12.3905 27.068 12.2288 27.1346 12.159C27.1346 12.159 26.9184 12.0781 26.873 11.8883C26.873 11.8883 26.9889 11.7538 27.2635 11.804C27.2635 11.804 27.2548 11.6676 27.2924 11.6075C27.2924 11.6075 27.5873 11.6987 27.5888 11.8632C27.5888 11.8632 27.5004 11.5405 27.6561 11.3061C27.6561 11.3061 27.7942 11.3654 27.7853 11.5124C27.7853 11.5124 27.8489 11.2099 28.2577 11.2912C28.2577 11.2912 28.0361 11.4877 28.0251 11.5777C28.014 11.6676 27.8292 11.8209 27.826 11.8719C27.8232 11.9227 27.8007 12.012 27.7464 12.0654C27.6922 12.1188 27.6867 12.2093 27.6911 12.2377C27.6947 12.2664 27.6818 12.3903 27.6117 12.4257Z" fill="#BCAC0B" stroke="black" stroke-width="0.0587987"/>
<path d="M27.3898 12.0668C27.4187 11.9187 27.5623 11.8219 27.7103 11.8508C27.7525 11.8588 27.7901 11.8766 27.8221 11.9008C27.8139 11.952 27.791 12.021 27.746 12.0653C27.6918 12.1187 27.6864 12.2093 27.6905 12.2376C27.6935 12.2601 27.6855 12.3409 27.6483 12.3921C27.6343 12.3915 27.62 12.3902 27.6059 12.3874C27.4581 12.3586 27.3612 12.2151 27.3898 12.0668Z" fill="white"/>
<path d="M27.3898 12.0668C27.4187 11.9187 27.5623 11.8219 27.7103 11.8508C27.7525 11.8588 27.7901 11.8766 27.8221 11.9008C27.8139 11.952 27.791 12.021 27.746 12.0653C27.6918 12.1187 27.6864 12.2093 27.6905 12.2376C27.6935 12.2601 27.6855 12.3409 27.6483 12.3921C27.6343 12.3915 27.62 12.3902 27.6059 12.3874C27.4581 12.3586 27.3612 12.2151 27.3898 12.0668Z" stroke="black" stroke-width="0.0363168"/>
<path d="M27.5126 12.0915C27.5281 12.0107 27.6066 11.9577 27.6877 11.9735C27.7244 11.9806 27.7549 12.0012 27.7765 12.0288C27.7679 12.0422 27.7581 12.0552 27.7469 12.0662C27.6926 12.1196 27.6872 12.2102 27.6913 12.2385C27.692 12.2444 27.692 12.2543 27.6909 12.266C27.6717 12.2701 27.6511 12.2707 27.6306 12.2666C27.5495 12.2508 27.4968 12.1726 27.5126 12.0915Z" fill="white"/>
<path d="M27.5126 12.0915C27.5281 12.0107 27.6066 11.9577 27.6877 11.9735C27.7244 11.9806 27.7549 12.0012 27.7765 12.0288C27.7679 12.0422 27.7581 12.0552 27.7469 12.0662C27.6926 12.1196 27.6872 12.2102 27.6913 12.2385C27.692 12.2444 27.692 12.2543 27.6909 12.266C27.6717 12.2701 27.6511 12.2707 27.6306 12.2666C27.5495 12.2508 27.4968 12.1726 27.5126 12.0915Z" stroke="black" stroke-width="0.022698"/>
<path d="M19.6905 12.3501C19.6905 12.3501 19.7696 12.1748 19.9166 12.2483C20.0638 12.3218 20.0467 12.3445 20.1827 12.3445C20.1827 12.3445 20.2448 12.1861 20.1827 12.1126C20.1827 12.1126 20.4032 12.0447 20.4599 11.8579C20.4599 11.8579 20.3524 11.7165 20.0751 11.7505C20.0751 11.7505 20.0921 11.6145 20.0582 11.5524C20.0582 11.5524 19.7584 11.6259 19.7469 11.79C19.7469 11.79 19.8546 11.4731 19.713 11.2299C19.713 11.2299 19.5716 11.2807 19.5716 11.4279C19.5716 11.4279 19.5264 11.1222 19.1133 11.1789C19.1133 11.1789 19.3225 11.3884 19.3284 11.4787C19.334 11.5693 19.5093 11.7334 19.5093 11.7844C19.5093 11.8352 19.5264 11.9258 19.5772 11.9824C19.6282 12.0391 19.6282 12.1294 19.6224 12.1577C19.6168 12.1858 19.6224 12.3104 19.6905 12.3501Z" fill="#FFCC00"/>
<path d="M19.6905 12.3501C19.6905 12.3501 19.7696 12.1748 19.9166 12.2483C20.0638 12.3218 20.0467 12.3445 20.1827 12.3445C20.1827 12.3445 20.2448 12.1861 20.1827 12.1126C20.1827 12.1126 20.4032 12.0447 20.4599 11.8579C20.4599 11.8579 20.3524 11.7165 20.0751 11.7505C20.0751 11.7505 20.0921 11.6145 20.0582 11.5524C20.0582 11.5524 19.7584 11.6259 19.7469 11.79C19.7469 11.79 19.8546 11.4731 19.713 11.2299C19.713 11.2299 19.5716 11.2807 19.5716 11.4279C19.5716 11.4279 19.5264 11.1222 19.1133 11.1789C19.1133 11.1789 19.3225 11.3884 19.3284 11.4787C19.334 11.5693 19.5093 11.7334 19.5093 11.7844C19.5093 11.8352 19.5264 11.9258 19.5772 11.9824C19.6282 12.0391 19.6282 12.1294 19.6224 12.1577C19.6168 12.1858 19.6224 12.3104 19.6905 12.3501Z" fill="#BCAC0B" stroke="black" stroke-width="0.0587987"/>
<path d="M19.9333 12.0069C19.9134 11.8571 19.7761 11.7521 19.6263 11.7719C19.5839 11.7776 19.5452 11.7929 19.5117 11.8152C19.5169 11.8668 19.5355 11.9369 19.5779 11.984C19.6289 12.0407 19.6289 12.131 19.6231 12.1593C19.6187 12.1814 19.6218 12.2627 19.6561 12.3159C19.67 12.3161 19.6842 12.3159 19.6985 12.3139C19.8481 12.294 19.9534 12.1565 19.9333 12.0069Z" fill="white"/>
<path d="M19.9333 12.0069C19.9134 11.8571 19.7761 11.7521 19.6263 11.7719C19.5839 11.7776 19.5452 11.7929 19.5117 11.8152C19.5169 11.8668 19.5355 11.9369 19.5779 11.984C19.6289 12.0407 19.6289 12.131 19.6231 12.1593C19.6187 12.1814 19.6218 12.2627 19.6561 12.3159C19.67 12.3161 19.6842 12.3159 19.6985 12.3139C19.8481 12.294 19.9534 12.1565 19.9333 12.0069Z" stroke="black" stroke-width="0.0363168"/>
<path d="M19.8106 12.0223C19.7998 11.9406 19.7246 11.8831 19.6429 11.8939C19.6055 11.8991 19.5739 11.9177 19.5508 11.9438C19.5588 11.9579 19.5674 11.9713 19.578 11.9832C19.629 12.0398 19.629 12.1302 19.6232 12.1585C19.6221 12.1641 19.6217 12.1738 19.6219 12.1857C19.6409 12.1911 19.6615 12.1929 19.6822 12.1903C19.7639 12.1792 19.8214 12.1042 19.8106 12.0223Z" fill="white"/>
<path d="M19.8106 12.0223C19.7998 11.9406 19.7246 11.8831 19.6429 11.8939C19.6055 11.8991 19.5739 11.9177 19.5508 11.9438C19.5588 11.9579 19.5674 11.9713 19.578 11.9832C19.629 12.0398 19.629 12.1302 19.6232 12.1585C19.6221 12.1641 19.6217 12.1738 19.6219 12.1857C19.6409 12.1911 19.6615 12.1929 19.6822 12.1903C19.7639 12.1792 19.8214 12.1042 19.8106 12.0223Z" stroke="black" stroke-width="0.022698"/>
<path d="M20.1484 14.0018C20.1484 14.0018 23.1858 12.812 27.023 14.0273" stroke="black" stroke-width="0.135756"/>
<path d="M27.4515 13.0546C23.2116 11.7116 19.832 12.9791 19.832 12.9791" stroke="black" stroke-width="0.0451799"/>
<path d="M23.6345 12.7578L23.2949 12.9275L23.6006 13.1199L23.9627 12.9388L23.6345 12.7578Z" fill="#FF0000"/>
<path d="M23.6345 12.7578L23.2949 12.9275L23.6006 13.1199L23.9627 12.9388L23.6345 12.7578Z" stroke="black" stroke-width="0.0451799"/>
</g>
<defs>
<clipPath id="clip0_35_33553">
<rect width="54" height="36" fill="white" transform="translate(-3)"/>
</clipPath>
</defs>
</svg>
