<svg width="48" height="36" viewBox="0 0 48 36" fill="none" xmlns="http://www.w3.org/2000/svg">
<mask id="mask0_35_34284" style="mask-type:luminance" maskUnits="userSpaceOnUse" x="-1" y="0" width="50" height="36">
<path d="M44.5883 0H3.4118C1.24598 0 -0.509766 1.69661 -0.509766 3.78947V32.2105C-0.509766 34.3034 1.24598 36 3.4118 36H44.5883C46.7541 36 48.5098 34.3034 48.5098 32.2105V3.78947C48.5098 1.69661 46.7541 0 44.5883 0Z" fill="white"/>
</mask>
<g mask="url(#mask0_35_34284)">
<path d="M-0.509766 0H48.5098V36H-0.509766V0Z" fill="#D20000"/>
<path d="M-0.509766 0H6.84318L24 17.355L41.1569 0H48.5098L-0.509766 36H6.84318L24 18.645L41.1569 36H48.5098L-0.509766 0ZM48.5098 14.4V21.6L-0.509766 14.4V21.6L48.5098 14.4ZM20.9363 0L24 15.4275L27.0638 0H20.9363ZM20.9363 36L24 20.5725L27.0638 36H20.9363Z" fill="#FFE600"/>
<path d="M24 23.7818C27.2615 23.7818 29.9053 21.1929 29.9053 17.9993C29.9053 14.8058 27.2615 12.2168 24 12.2168C20.7385 12.2168 18.0947 14.8058 18.0947 17.9993C18.0947 21.1929 20.7385 23.7818 24 23.7818Z" fill="#FFE600" stroke="#D20000" stroke-width="2.2572"/>
</g>
</svg>
