<svg width="48" height="36" viewBox="0 0 48 36" fill="none" xmlns="http://www.w3.org/2000/svg">
<g clip-path="url(#clip0_35_34386)">
<path d="M0 0H54V36H0V0Z" fill="white"/>
<path d="M0 0H54V18H0V0Z" fill="#ED2939"/>
<path d="M11.4043 15.625C15.0632 15.625 18.0293 12.6589 18.0293 9C18.0293 5.34111 15.0632 2.375 11.4043 2.375C7.74541 2.375 4.7793 5.34111 4.7793 9C4.7793 12.6589 7.74541 15.625 11.4043 15.625Z" fill="white"/>
<path d="M14.4043 15.625C18.0632 15.625 21.0293 12.6589 21.0293 9C21.0293 5.34111 18.0632 2.375 14.4043 2.375C10.7454 2.375 7.7793 5.34111 7.7793 9C7.7793 12.6589 10.7454 15.625 14.4043 15.625Z" fill="#ED2939"/>
<path d="M15.0292 3.47461L14.0153 6.59516L16.6698 4.66655H13.3887L16.0432 6.59516L15.0292 3.47461Z" fill="white"/>
<path d="M20.2843 7.2927L17.0032 7.2927L19.6577 9.22131L18.6437 6.10075L17.6298 9.22131L20.2843 7.2927Z" fill="white"/>
<path d="M11.7821 13.4693L14.4366 11.5407L11.1555 11.5407L13.81 13.4693L12.7961 10.3487L11.7821 13.4693Z" fill="white"/>
<path d="M18.2782 13.4682L17.2643 10.3477L16.2504 13.4682L18.9049 11.5396L15.6237 11.5396L18.2782 13.4682Z" fill="white"/>
<path d="M9.7765 7.29129L12.431 9.21989L11.4171 6.09934L10.4031 9.21989L13.0576 7.29129L9.7765 7.29129Z" fill="white"/>
</g>
<defs>
<clipPath id="clip0_35_34386">
<rect width="54" height="36" fill="white"/>
</clipPath>
</defs>
</svg>
