<svg width="48" height="36" viewBox="0 0 48 36" fill="none" xmlns="http://www.w3.org/2000/svg">
<g clip-path="url(#clip0_35_33743)">
<mask id="mask0_35_33743" style="mask-type:luminance" maskUnits="userSpaceOnUse" x="-1" y="0" width="50" height="36">
<path d="M44.5883 0H3.4118C1.24598 0 -0.509766 1.69661 -0.509766 3.78947V32.2105C-0.509766 34.3034 1.24598 36 3.4118 36H44.5883C46.7541 36 48.5098 34.3034 48.5098 32.2105V3.78947C48.5098 1.69661 46.7541 0 44.5883 0Z" fill="white"/>
</mask>
<g mask="url(#mask0_35_33743)">
<path d="M-0.509766 0H48.5098V36H-0.509766V0Z" fill="white"/>
<path d="M20.3242 0H27.6772V36H20.3242V0Z" fill="#FF0000"/>
<path d="M-0.509766 14.4004H48.5098V21.6004H-0.509766V14.4004Z" fill="#FF0000"/>
<path fill-rule="evenodd" clip-rule="evenodd" d="M10.7336 27.9833C10.8102 26.7233 11.0399 25.6508 11.0399 25.6508C11.0399 25.6508 10.2893 25.7258 9.90636 25.7258C9.53107 25.7258 8.77279 25.6508 8.77279 25.6508C8.77279 25.6508 9.00254 26.7233 9.07911 27.9908C7.78474 27.9158 6.68945 27.6908 6.68945 27.6908C6.68945 27.6908 6.76605 28.2458 6.76605 28.8008C6.76605 29.3558 6.68945 29.9108 6.68945 29.9108C6.68945 29.9108 7.78474 29.6858 9.07911 29.6108C9.00254 30.8783 8.77279 31.9508 8.77279 31.9508C8.77279 31.9508 9.3396 31.8758 9.90636 31.8758C10.4731 31.8758 11.0399 31.9508 11.0399 31.9508C11.0399 31.9508 10.8102 30.8783 10.7336 29.6108C12.028 29.6858 13.1232 29.9108 13.1232 29.9108C13.1232 29.9108 13.0467 29.1758 13.0467 28.8008C13.0467 28.4333 13.1232 27.6908 13.1232 27.6908C13.1232 27.6908 12.028 27.9158 10.7413 27.9908L10.7336 27.9833ZM38.9199 6.38329C38.9965 5.12329 39.2262 4.05078 39.2262 4.05078C39.2262 4.05078 38.4756 4.12578 38.0926 4.12578C37.7173 4.12578 36.9591 4.05078 36.9591 4.05078C36.9591 4.05078 37.1888 5.12329 37.2654 6.38329C35.971 6.30828 34.8758 6.09079 34.8758 6.09079C34.8758 6.09079 34.9523 6.64578 34.9523 7.20078C34.9523 7.75579 34.8758 8.31078 34.8758 8.31078C34.8758 8.31078 35.971 8.08578 37.2654 8.01078C37.1888 9.27828 36.9591 10.3508 36.9591 10.3508C36.9591 10.3508 37.5259 10.2758 38.0926 10.2758C38.6594 10.2758 39.2262 10.3508 39.2262 10.3508C39.2262 10.3508 38.9965 9.27828 38.9199 8.01828C40.2143 8.09329 41.3095 8.31829 41.3095 8.31829C41.3095 8.31829 41.2329 7.56828 41.2329 7.20078C41.2329 6.83329 41.3095 6.09079 41.3095 6.09079C41.3095 6.09079 40.2143 6.31579 38.9199 6.39078V6.38329ZM10.7336 6.38329C10.8102 5.12329 11.0399 4.05078 11.0399 4.05078C11.0399 4.05078 10.2893 4.12578 9.90636 4.12578C9.53107 4.12578 8.77279 4.05078 8.77279 4.05078C8.77279 4.05078 9.00254 5.12329 9.07911 6.39078C7.78474 6.31579 6.68945 6.09079 6.68945 6.09079C6.68945 6.09079 6.76605 6.64578 6.76605 7.20078C6.76605 7.75579 6.68945 8.31078 6.68945 8.31078C6.68945 8.31078 7.78474 8.08578 9.07911 8.01078C9.00254 9.27828 8.77279 10.3508 8.77279 10.3508C8.77279 10.3508 9.3396 10.2758 9.90636 10.2758C10.4731 10.2758 11.0399 10.3508 11.0399 10.3508C11.0399 10.3508 10.8102 9.27828 10.7336 8.01078C12.028 8.08578 13.1232 8.31078 13.1232 8.31078C13.1232 8.31078 13.0467 7.57579 13.0467 7.20078C13.0467 6.83329 13.1232 6.09079 13.1232 6.09079C13.1232 6.09079 12.028 6.31579 10.7413 6.39078L10.7336 6.38329ZM38.9199 27.9833C38.9965 26.7233 39.2262 25.6508 39.2262 25.6508C39.2262 25.6508 38.4756 25.7258 38.0926 25.7258C37.7173 25.7258 36.9591 25.6508 36.9591 25.6508C36.9591 25.6508 37.1888 26.7233 37.2654 27.9908C35.971 27.9158 34.8758 27.6908 34.8758 27.6908C34.8758 27.6908 34.9523 28.2458 34.9523 28.8008C34.9523 29.3558 34.8758 29.9108 34.8758 29.9108C34.8758 29.9108 35.971 29.6858 37.2654 29.6108C37.1888 30.8783 36.9591 31.9508 36.9591 31.9508C36.9591 31.9508 37.5259 31.8758 38.0926 31.8758C38.6594 31.8758 39.2262 31.9508 39.2262 31.9508C39.2262 31.9508 38.9965 30.8783 38.9199 29.6108C40.2143 29.6858 41.3095 29.9108 41.3095 29.9108C41.3095 29.9108 41.2329 29.1758 41.2329 28.8008C41.2329 28.4333 41.3095 27.6908 41.3095 27.6908C41.3095 27.6908 40.2143 27.9158 38.9199 27.9908V27.9833Z" fill="#FF0000"/>
</g>
</g>
<defs>
<clipPath id="clip0_35_33743">
<rect width="50" height="36" fill="white" transform="translate(-1)"/>
</clipPath>
</defs>
</svg>
