<svg width="48" height="36" viewBox="0 0 48 36" fill="none" xmlns="http://www.w3.org/2000/svg">
<g clip-path="url(#clip0_35_35429)">
<path d="M-3 0.0214844H51V36.0242H-3V0.0214844Z" fill="white"/>
<path d="M-3 0.0214844H51V12.0224H-3V0.0214844Z" fill="#FF6820"/>
<path d="M-3 24.0234H51V36.0244H-3V24.0234Z" fill="#046A38"/>
<path d="M24.0002 23.5735C27.0654 23.5735 29.5502 21.0885 29.5502 18.0231C29.5502 14.9577 27.0654 12.4727 24.0002 12.4727C20.935 12.4727 18.4502 14.9577 18.4502 18.0231C18.4502 21.0885 20.935 23.5735 24.0002 23.5735Z" fill="#07038D"/>
<path d="M24.0002 22.8234C26.6512 22.8234 28.8002 20.6742 28.8002 18.023C28.8002 15.3719 26.6512 13.2227 24.0002 13.2227C21.3492 13.2227 19.2002 15.3719 19.2002 18.023C19.2002 20.6742 21.3492 22.8234 24.0002 22.8234Z" fill="white"/>
<path d="M24 18.9826C24.5302 18.9826 24.96 18.5528 24.96 18.0226C24.96 17.4923 24.5302 17.0625 24 17.0625C23.4698 17.0625 23.04 17.4923 23.04 18.0226C23.04 18.5528 23.4698 18.9826 24 18.9826Z" fill="#07038D"/>
<path d="M24.0013 13.2246L24.1813 16.1133L24.0013 17.5435L23.8213 16.1133L24.0013 13.2246Z" fill="#07038D"/>
<path d="M24.6006 13.4751C24.7156 13.4902 24.8211 13.4093 24.8363 13.2943C24.8514 13.1793 24.7705 13.0738 24.6555 13.0587C24.5405 13.0435 24.435 13.1245 24.4199 13.2395C24.4047 13.3544 24.4857 13.4599 24.6006 13.4751Z" fill="#07038D"/>
<path d="M24.0007 22.8262L23.8207 19.9375L24.0007 18.5073L24.1807 19.9375L24.0007 22.8262Z" fill="#07038D"/>
<path d="M23.4013 22.5777C23.2863 22.5625 23.1808 22.6435 23.1657 22.7585C23.1506 22.8734 23.2315 22.9789 23.3465 22.9941C23.4615 23.0092 23.567 22.9283 23.5821 22.8133C23.5972 22.6983 23.5163 22.5928 23.4013 22.5777Z" fill="#07038D"/>
<path d="M25.2442 13.3864L24.6705 16.2233L24.1264 17.5582L24.3227 16.1301L25.2442 13.3864Z" fill="#07038D"/>
<path d="M25.7579 13.7829C25.8651 13.8272 25.9879 13.7764 26.0323 13.6692C26.0767 13.5621 26.0258 13.4392 25.9186 13.3948C25.8115 13.3504 25.6886 13.4013 25.6443 13.5085C25.5999 13.6156 25.6508 13.7385 25.7579 13.7829Z" fill="#07038D"/>
<path d="M22.7578 22.6624L23.3315 19.8256L23.8755 18.4906L23.6792 19.9187L22.7578 22.6624Z" fill="#07038D"/>
<path d="M22.2431 22.266C22.1359 22.2216 22.0131 22.2725 21.9687 22.3796C21.9243 22.4868 21.9752 22.6096 22.0824 22.654C22.1895 22.6984 22.3123 22.6475 22.3567 22.5404C22.4011 22.4332 22.3502 22.3104 22.2431 22.266Z" fill="#07038D"/>
<path d="M26.401 13.8654L25.1127 16.4571L24.2417 17.6057L24.8009 16.2771L26.401 13.8654Z" fill="#07038D"/>
<path d="M26.7957 14.381C26.8877 14.4516 27.0195 14.4342 27.0901 14.3422C27.1607 14.2502 27.1434 14.1184 27.0514 14.0478C26.9594 13.9772 26.8275 13.9945 26.7569 14.0865C26.6863 14.1785 26.7037 14.3104 26.7957 14.381Z" fill="#07038D"/>
<path d="M21.6009 22.1795L22.8893 19.5878L23.7602 18.4392L23.2011 19.7679L21.6009 22.1795Z" fill="#07038D"/>
<path d="M21.2072 21.6659C21.1152 21.5953 20.9834 21.6126 20.9128 21.7047C20.8422 21.7967 20.8596 21.9285 20.9516 21.9991C21.0436 22.0697 21.1754 22.0524 21.246 21.9603C21.3166 21.8683 21.2992 21.7365 21.2072 21.6659Z" fill="#07038D"/>
<path d="M27.3958 14.6312L25.4807 16.8011L24.3421 17.6851L25.2261 16.5465L27.3958 14.6312Z" fill="#07038D"/>
<path d="M27.6433 15.2309C27.7139 15.3229 27.8457 15.3403 27.9377 15.2697C28.0297 15.1991 28.0471 15.0672 27.9765 14.9752C27.9059 14.8832 27.774 14.8658 27.682 14.9364C27.59 15.007 27.5727 15.1389 27.6433 15.2309Z" fill="#07038D"/>
<path d="M20.6071 21.4215L22.5223 19.2516L23.6608 18.3676L22.7768 19.5062L20.6071 21.4215Z" fill="#07038D"/>
<path d="M20.3597 20.8199C20.2891 20.7279 20.1572 20.7105 20.0652 20.7811C19.9732 20.8517 19.9559 20.9836 20.0265 21.0756C20.0971 21.1676 20.2289 21.1849 20.3209 21.1143C20.4129 21.0437 20.4303 20.9119 20.3597 20.8199Z" fill="#07038D"/>
<path d="M28.1584 15.6207L25.7469 17.221L24.4183 17.7802L25.5669 16.9092L28.1584 15.6207Z" fill="#07038D"/>
<path d="M28.2421 16.263C28.2865 16.3701 28.4094 16.421 28.5165 16.3766C28.6237 16.3322 28.6745 16.2094 28.6302 16.1022C28.5858 15.9951 28.4629 15.9442 28.3558 15.9886C28.2486 16.033 28.1978 16.1558 28.2421 16.263Z" fill="#07038D"/>
<path d="M19.8436 20.4222L22.2551 18.822L23.5836 18.2628L22.4351 19.1338L19.8436 20.4222Z" fill="#07038D"/>
<path d="M19.7598 19.7781C19.7154 19.6709 19.5926 19.62 19.4854 19.6644C19.3783 19.7088 19.3274 19.8316 19.3718 19.9388C19.4162 20.0459 19.539 20.0968 19.6462 20.0524C19.7533 20.0081 19.8042 19.8852 19.7598 19.7781Z" fill="#07038D"/>
<path d="M28.6364 16.7852L25.893 17.7067L24.465 17.903L25.7998 17.359L28.6364 16.7852Z" fill="#07038D"/>
<path d="M28.5505 17.4271C28.5656 17.5421 28.6711 17.623 28.7861 17.6079C28.9011 17.5928 28.982 17.4873 28.9669 17.3723C28.9517 17.2573 28.8462 17.1763 28.7313 17.1915C28.6163 17.2066 28.5353 17.3121 28.5505 17.4271Z" fill="#07038D"/>
<path d="M19.3645 19.2636L22.108 18.3421L23.536 18.1458L22.2012 18.6898L19.3645 19.2636Z" fill="#07038D"/>
<path d="M19.4505 18.6217C19.4354 18.5067 19.3299 18.4258 19.2149 18.4409C19.0999 18.4561 19.019 18.5616 19.0341 18.6766C19.0493 18.7915 19.1547 18.8725 19.2697 18.8574C19.3847 18.8422 19.4656 18.7367 19.4505 18.6217Z" fill="#07038D"/>
<path d="M28.7998 18.0237L25.9113 18.2038L24.4812 18.0238L25.9114 17.8438L28.7998 18.0237Z" fill="#07038D"/>
<path d="M28.5503 18.6221C28.5352 18.7371 28.6161 18.8426 28.7311 18.8578C28.8461 18.8729 28.9516 18.792 28.9667 18.677C28.9819 18.562 28.9009 18.4565 28.7859 18.4413C28.671 18.4262 28.5655 18.5072 28.5503 18.6221Z" fill="#07038D"/>
<path d="M19.1992 18.0231L22.0877 17.8431L23.5178 18.0231L22.0877 18.2031L19.1992 18.0231Z" fill="#07038D"/>
<path d="M19.4487 17.4247C19.4638 17.3097 19.3829 17.2043 19.2679 17.1891C19.1529 17.174 19.0474 17.2549 19.0323 17.3699C19.0172 17.4849 19.0981 17.5904 19.2131 17.6055C19.3281 17.6207 19.4335 17.5397 19.4487 17.4247Z" fill="#07038D"/>
<path d="M28.636 19.2637L25.7994 18.69L24.4646 18.1459L25.8926 18.3422L28.636 19.2637Z" fill="#07038D"/>
<path d="M28.2406 19.7794C28.1962 19.8865 28.2471 20.0094 28.3543 20.0538C28.4614 20.0982 28.5842 20.0473 28.6286 19.9401C28.673 19.833 28.6221 19.7101 28.515 19.6657C28.4078 19.6213 28.285 19.6722 28.2406 19.7794Z" fill="#07038D"/>
<path d="M19.362 16.7832L22.1986 17.3569L23.5335 17.901L22.1055 17.7047L19.362 16.7832Z" fill="#07038D"/>
<path d="M19.7584 16.2694C19.8028 16.1623 19.7519 16.0394 19.6448 15.9951C19.5376 15.9507 19.4148 16.0016 19.3704 16.1087C19.326 16.2159 19.3769 16.3387 19.484 16.3831C19.5912 16.4275 19.714 16.3766 19.7584 16.2694Z" fill="#07038D"/>
<path d="M28.1571 20.4235L25.5656 19.135L24.4171 18.264L25.7456 18.8232L28.1571 20.4235Z" fill="#07038D"/>
<path d="M27.6415 20.8172C27.5709 20.9092 27.5883 21.041 27.6803 21.1116C27.7723 21.1822 27.9041 21.1649 27.9747 21.0729C28.0453 20.9808 28.0279 20.849 27.9359 20.7784C27.8439 20.7078 27.7121 20.7251 27.6415 20.8172Z" fill="#07038D"/>
<path d="M19.8429 15.6234L22.4344 16.9119L23.5829 17.7829L22.2544 17.2236L19.8429 15.6234Z" fill="#07038D"/>
<path d="M20.3585 15.2278C20.4291 15.1357 20.4117 15.0039 20.3197 14.9333C20.2277 14.8627 20.0959 14.88 20.0253 14.9721C19.9547 15.0641 19.9721 15.1959 20.0641 15.2665C20.1561 15.3371 20.2879 15.3198 20.3585 15.2278Z" fill="#07038D"/>
<path d="M27.3942 21.4222L25.2245 19.5069L24.3405 18.3683L25.479 19.2523L27.3942 21.4222Z" fill="#07038D"/>
<path d="M26.7945 21.6696C26.7025 21.7402 26.6852 21.8721 26.7558 21.9641C26.8264 22.0561 26.9582 22.0734 27.0502 22.0028C27.1422 21.9322 27.1596 21.8004 27.089 21.7084C27.0184 21.6164 26.8865 21.599 26.7945 21.6696Z" fill="#07038D"/>
<path d="M20.6058 14.6266L22.7755 16.5419L23.6595 17.6806L22.521 16.7965L20.6058 14.6266Z" fill="#07038D"/>
<path d="M21.2055 14.3792C21.2975 14.3086 21.3148 14.1768 21.2442 14.0848C21.1736 13.9927 21.0418 13.9754 20.9498 14.046C20.8578 14.1166 20.8404 14.2484 20.911 14.3404C20.9816 14.4325 21.1135 14.4498 21.2055 14.3792Z" fill="#07038D"/>
<path d="M26.3998 22.1779L24.7997 19.7662L24.2405 18.4376L25.1114 19.5862L26.3998 22.1779Z" fill="#07038D"/>
<path d="M25.7556 22.2607C25.6485 22.3051 25.5976 22.4279 25.642 22.5351C25.6864 22.6422 25.8092 22.6931 25.9163 22.6487C26.0235 22.6043 26.0744 22.4815 26.03 22.3743C25.9856 22.2672 25.8628 22.2163 25.7556 22.2607Z" fill="#07038D"/>
<path d="M21.5992 13.867L23.1994 16.2787L23.7585 17.6073L22.8876 16.4587L21.5992 13.867Z" fill="#07038D"/>
<path d="M22.2434 13.7842C22.3505 13.7399 22.4014 13.617 22.357 13.5099C22.3127 13.4027 22.1898 13.3518 22.0827 13.3962C21.9755 13.4406 21.9247 13.5634 21.969 13.6706C22.0134 13.7777 22.1363 13.8286 22.2434 13.7842Z" fill="#07038D"/>
<path d="M25.2422 22.656L24.3207 19.9123L24.1244 18.4842L24.6684 19.8191L25.2422 22.656Z" fill="#07038D"/>
<path d="M24.5983 22.57C24.4833 22.5851 24.4024 22.6906 24.4175 22.8056C24.4327 22.9206 24.5382 23.0015 24.6531 22.9864C24.7681 22.9713 24.8491 22.8658 24.8339 22.7508C24.8188 22.6358 24.7133 22.5548 24.5983 22.57Z" fill="#07038D"/>
<path d="M22.7578 13.3811L23.6793 16.1248L23.8756 17.5529L23.3316 16.218L22.7578 13.3811Z" fill="#07038D"/>
<path d="M23.4007 13.4671C23.5157 13.452 23.5966 13.3465 23.5815 13.2315C23.5664 13.1165 23.4609 13.0356 23.3459 13.0507C23.2309 13.0659 23.15 13.1713 23.1651 13.2863C23.1802 13.4013 23.2857 13.4823 23.4007 13.4671Z" fill="#07038D"/>
</g>
<defs>
<clipPath id="clip0_35_35429">
<rect width="54" height="36.0027" fill="white" transform="translate(-3 0.0214844)"/>
</clipPath>
</defs>
</svg>
