<svg width="48" height="36" viewBox="0 0 48 36" fill="none" xmlns="http://www.w3.org/2000/svg">
<g clip-path="url(#clip0_35_35567)">
<path d="M-3 0.0214844H51V36.0242H-3V0.0214844Z" fill="white"/>
<path d="M-3 0.0214844H51V12.0224H-3V0.0214844Z" fill="#FF6820"/>
<path d="M-3 24.0234H51V36.0244H-3V24.0234Z" fill="#046A38"/>
<path d="M24.0002 23.5735C27.0654 23.5735 29.5502 21.0885 29.5502 18.0231C29.5502 14.9577 27.0654 12.4727 24.0002 12.4727C20.935 12.4727 18.4502 14.9577 18.4502 18.0231C18.4502 21.0885 20.935 23.5735 24.0002 23.5735Z" fill="#07038D"/>
<path d="M24.0002 22.8234C26.6512 22.8234 28.8002 20.6742 28.8002 18.023C28.8002 15.3719 26.6512 13.2227 24.0002 13.2227C21.3492 13.2227 19.2002 15.3719 19.2002 18.023C19.2002 20.6742 21.3492 22.8234 24.0002 22.8234Z" fill="white"/>
<path d="M24 18.9826C24.5302 18.9826 24.96 18.5528 24.96 18.0226C24.96 17.4923 24.5302 17.0625 24 17.0625C23.4698 17.0625 23.04 17.4923 23.04 18.0226C23.04 18.5528 23.4698 18.9826 24 18.9826Z" fill="#07038D"/>
<path d="M24.0003 13.2227L24.1803 16.1113L24.0003 17.5416L23.8203 16.1113L24.0003 13.2227Z" fill="#07038D"/>
<path d="M24.5997 13.4731C24.7147 13.4883 24.8201 13.4073 24.8353 13.2923C24.8504 13.1773 24.7695 13.0718 24.6545 13.0567C24.5395 13.0416 24.434 13.1225 24.4189 13.2375C24.4037 13.3525 24.4847 13.458 24.5997 13.4731Z" fill="#07038D"/>
<path d="M23.9997 22.8242L23.8197 19.9355L23.9997 18.5053L24.1797 19.9355L23.9997 22.8242Z" fill="#07038D"/>
<path d="M23.4003 22.5757C23.2853 22.5606 23.1799 22.6415 23.1647 22.7565C23.1496 22.8715 23.2305 22.977 23.3455 22.9921C23.4605 23.0073 23.566 22.9263 23.5811 22.8113C23.5963 22.6963 23.5153 22.5909 23.4003 22.5757Z" fill="#07038D"/>
<path d="M25.2422 13.3845L24.6685 16.2213L24.1245 17.5562L24.3208 16.1281L25.2422 13.3845Z" fill="#07038D"/>
<path d="M25.756 13.7809C25.8631 13.8253 25.9859 13.7744 26.0303 13.6673C26.0747 13.5601 26.0238 13.4373 25.9167 13.3929C25.8095 13.3485 25.6867 13.3994 25.6423 13.5065C25.5979 13.6137 25.6488 13.7365 25.756 13.7809Z" fill="#07038D"/>
<path d="M22.7568 22.6604L23.3305 19.8236L23.8745 18.4887L23.6782 19.9168L22.7568 22.6604Z" fill="#07038D"/>
<path d="M22.2421 22.264C22.1349 22.2196 22.0121 22.2705 21.9677 22.3777C21.9233 22.4848 21.9742 22.6077 22.0814 22.6521C22.1885 22.6964 22.3114 22.6456 22.3558 22.5384C22.4001 22.4313 22.3492 22.3084 22.2421 22.264Z" fill="#07038D"/>
<path d="M26.3991 13.8615L25.1107 16.4532L24.2398 17.6018L24.7989 16.2731L26.3991 13.8615Z" fill="#07038D"/>
<path d="M26.7937 14.3771C26.8858 14.4477 27.0176 14.4303 27.0882 14.3383C27.1588 14.2463 27.1414 14.1145 27.0494 14.0439C26.9574 13.9733 26.8256 13.9906 26.755 14.0826C26.6844 14.1746 26.7017 14.3065 26.7937 14.3771Z" fill="#07038D"/>
<path d="M21.599 22.1776L22.8873 19.5859L23.7583 18.4373L23.1991 19.7659L21.599 22.1776Z" fill="#07038D"/>
<path d="M21.2053 21.6639C21.1133 21.5933 20.9814 21.6107 20.9108 21.7027C20.8402 21.7947 20.8576 21.9265 20.9496 21.9972C21.0416 22.0678 21.1734 22.0504 21.244 21.9584C21.3146 21.8664 21.2973 21.7345 21.2053 21.6639Z" fill="#07038D"/>
<path d="M27.3929 14.6253L25.4777 16.7952L24.3392 17.6793L25.2232 16.5406L27.3929 14.6253Z" fill="#07038D"/>
<path d="M27.6403 15.225C27.7109 15.3171 27.8428 15.3344 27.9348 15.2638C28.0268 15.1932 28.0441 15.0614 27.9735 14.9693C27.9029 14.8773 27.7711 14.86 27.6791 14.9306C27.5871 15.0012 27.5697 15.133 27.6403 15.225Z" fill="#07038D"/>
<path d="M20.6051 21.4157L22.5203 19.2458L23.6588 18.3617L22.7749 19.5004L20.6051 21.4157Z" fill="#07038D"/>
<path d="M20.3577 20.814C20.2871 20.722 20.1553 20.7047 20.0633 20.7753C19.9713 20.8459 19.9539 20.9777 20.0245 21.0697C20.0951 21.1617 20.2269 21.1791 20.3189 21.1085C20.411 21.0379 20.4283 20.906 20.3577 20.814Z" fill="#07038D"/>
<path d="M28.1564 15.6246L25.7449 17.2249L24.4164 17.7841L25.5649 16.9131L28.1564 15.6246Z" fill="#07038D"/>
<path d="M28.2402 16.2669C28.2846 16.374 28.4074 16.4249 28.5146 16.3805C28.6217 16.3361 28.6726 16.2133 28.6282 16.1061C28.5838 15.999 28.461 15.9481 28.3538 15.9925C28.2467 16.0369 28.1958 16.1597 28.2402 16.2669Z" fill="#07038D"/>
<path d="M19.8426 20.4203L22.2541 18.82L23.5826 18.2608L22.4341 19.1318L19.8426 20.4203Z" fill="#07038D"/>
<path d="M19.7588 19.7761C19.7145 19.6689 19.5916 19.6181 19.4845 19.6625C19.3773 19.7068 19.3264 19.8297 19.3708 19.9368C19.4152 20.044 19.538 20.0949 19.6452 20.0505C19.7523 20.0061 19.8032 19.8833 19.7588 19.7761Z" fill="#07038D"/>
<path d="M28.6374 16.7813L25.894 17.7028L24.466 17.8991L25.8008 17.3551L28.6374 16.7813Z" fill="#07038D"/>
<path d="M28.5514 17.4251C28.5666 17.5401 28.6721 17.6211 28.787 17.6059C28.902 17.5908 28.983 17.4853 28.9678 17.3703C28.9527 17.2553 28.8472 17.1744 28.7322 17.1895C28.6172 17.2047 28.5363 17.3102 28.5514 17.4251Z" fill="#07038D"/>
<path d="M19.3645 19.2636L22.108 18.3421L23.536 18.1458L22.2012 18.6898L19.3645 19.2636Z" fill="#07038D"/>
<path d="M19.4505 18.6198C19.4354 18.5048 19.3299 18.4238 19.2149 18.439C19.0999 18.4541 19.019 18.5596 19.0341 18.6746C19.0493 18.7896 19.1547 18.8705 19.2697 18.8554C19.3847 18.8403 19.4656 18.7348 19.4505 18.6198Z" fill="#07038D"/>
<path d="M28.7998 18.0237L25.9113 18.2038L24.4812 18.0238L25.9114 17.8438L28.7998 18.0237Z" fill="#07038D"/>
<path d="M28.5503 18.6221C28.5352 18.7371 28.6161 18.8426 28.7311 18.8578C28.8461 18.8729 28.9516 18.792 28.9667 18.677C28.9819 18.562 28.9009 18.4565 28.7859 18.4413C28.671 18.4262 28.5655 18.5072 28.5503 18.6221Z" fill="#07038D"/>
<path d="M19.1992 18.0231L22.0877 17.8431L23.5178 18.0231L22.0877 18.2031L19.1992 18.0231Z" fill="#07038D"/>
<path d="M19.4487 17.4247C19.4638 17.3097 19.3829 17.2043 19.2679 17.1891C19.1529 17.174 19.0474 17.2549 19.0323 17.3699C19.0172 17.4849 19.0981 17.5904 19.2131 17.6055C19.3281 17.6207 19.4335 17.5397 19.4487 17.4247Z" fill="#07038D"/>
<path d="M28.636 19.2637L25.7994 18.69L24.4646 18.1459L25.8926 18.3422L28.636 19.2637Z" fill="#07038D"/>
<path d="M28.2406 19.7794C28.1962 19.8865 28.2471 20.0094 28.3543 20.0538C28.4614 20.0982 28.5842 20.0473 28.6286 19.9401C28.673 19.833 28.6221 19.7101 28.515 19.6657C28.4078 19.6213 28.285 19.6722 28.2406 19.7794Z" fill="#07038D"/>
<path d="M19.363 16.7832L22.1996 17.3569L23.5344 17.901L22.1064 17.7047L19.363 16.7832Z" fill="#07038D"/>
<path d="M19.7594 16.2694C19.8038 16.1623 19.7529 16.0394 19.6457 15.9951C19.5386 15.9507 19.4158 16.0016 19.3714 16.1087C19.327 16.2159 19.3779 16.3387 19.485 16.3831C19.5922 16.4275 19.715 16.3766 19.7594 16.2694Z" fill="#07038D"/>
<path d="M28.1561 20.4235L25.5646 19.135L24.4161 18.264L25.7446 18.8232L28.1561 20.4235Z" fill="#07038D"/>
<path d="M27.6405 20.8172C27.5699 20.9092 27.5873 21.041 27.6793 21.1116C27.7713 21.1822 27.9031 21.1649 27.9737 21.0729C28.0443 20.9808 28.027 20.849 27.935 20.7784C27.843 20.7078 27.7111 20.7251 27.6405 20.8172Z" fill="#07038D"/>
<path d="M19.8419 15.6234L22.4334 16.9119L23.582 17.7829L22.2534 17.2236L19.8419 15.6234Z" fill="#07038D"/>
<path d="M20.3575 15.2278C20.4281 15.1357 20.4108 15.0039 20.3187 14.9333C20.2267 14.8627 20.0949 14.88 20.0243 14.9721C19.9537 15.0641 19.9711 15.1959 20.0631 15.2665C20.1551 15.3371 20.2869 15.3198 20.3575 15.2278Z" fill="#07038D"/>
<path d="M27.3932 21.4183L25.2235 19.503L24.3395 18.3644L25.4781 19.2484L27.3932 21.4183Z" fill="#07038D"/>
<path d="M26.7935 21.6657C26.7015 21.7363 26.6842 21.8681 26.7548 21.9602C26.8254 22.0522 26.9572 22.0695 27.0492 21.9989C27.1412 21.9283 27.1586 21.7965 27.088 21.7045C27.0174 21.6125 26.8856 21.5951 26.7935 21.6657Z" fill="#07038D"/>
<path d="M20.6048 14.6247L22.7745 16.54L23.6585 17.6786L22.52 16.7946L20.6048 14.6247Z" fill="#07038D"/>
<path d="M21.2045 14.3773C21.2965 14.3067 21.3139 14.1748 21.2433 14.0828C21.1727 13.9908 21.0408 13.9734 20.9488 14.044C20.8568 14.1146 20.8395 14.2465 20.9101 14.3385C20.9807 14.4305 21.1125 14.4479 21.2045 14.3773Z" fill="#07038D"/>
<path d="M26.4008 22.1759L24.8006 19.7643L24.2415 18.4356L25.1124 19.5843L26.4008 22.1759Z" fill="#07038D"/>
<path d="M25.7566 22.2587C25.6495 22.3031 25.5986 22.426 25.643 22.5331C25.6873 22.6403 25.8102 22.6912 25.9173 22.6468C26.0245 22.6024 26.0753 22.4795 26.031 22.3724C25.9866 22.2652 25.8637 22.2143 25.7566 22.2587Z" fill="#07038D"/>
<path d="M21.5992 13.8651L23.1994 16.2767L23.7585 17.6054L22.8876 16.4567L21.5992 13.8651Z" fill="#07038D"/>
<path d="M22.2434 13.7823C22.3505 13.7379 22.4014 13.6151 22.357 13.5079C22.3127 13.4007 22.1898 13.3499 22.0827 13.3942C21.9755 13.4386 21.9247 13.5615 21.969 13.6686C22.0134 13.7758 22.1363 13.8267 22.2434 13.7823Z" fill="#07038D"/>
<path d="M25.2441 22.656L24.3226 19.9123L24.1264 18.4842L24.6704 19.8191L25.2441 22.656Z" fill="#07038D"/>
<path d="M24.6003 22.57C24.4853 22.5851 24.4043 22.6906 24.4195 22.8056C24.4346 22.9206 24.5401 23.0015 24.6551 22.9864C24.7701 22.9713 24.851 22.8658 24.8359 22.7508C24.8207 22.6358 24.7152 22.5548 24.6003 22.57Z" fill="#07038D"/>
<path d="M22.7588 13.3831L23.6803 16.1268L23.8766 17.5549L23.3326 16.2199L22.7588 13.3831Z" fill="#07038D"/>
<path d="M23.4017 13.4691C23.5167 13.454 23.5976 13.3485 23.5825 13.2335C23.5673 13.1185 23.4618 13.0375 23.3469 13.0527C23.2319 13.0678 23.1509 13.1733 23.1661 13.2883C23.1812 13.4033 23.2867 13.4842 23.4017 13.4691Z" fill="#07038D"/>
</g>
<defs>
<clipPath id="clip0_35_35567">
<rect width="54" height="36.0027" fill="white" transform="translate(-3 0.0214844)"/>
</clipPath>
</defs>
</svg>
