<svg width="43" height="36" viewBox="0 0 43 36" fill="none" xmlns="http://www.w3.org/2000/svg">
<rect width="48" height="36" fill="white"/>
<mask id="mask0_35_34423" style="mask-type:luminance" maskUnits="userSpaceOnUse" x="0" y="0" width="48" height="36">
<path d="M0.470703 0H47.5295V36H0.470703V0Z" fill="white"/>
</mask>
<g mask="url(#mask0_35_34423)">
<path d="M1.1123 1.16602L26.1193 17.2444L9.85363 17.2254L8.33515 17.2236L9.40134 18.3119L26.1045 35.3624H1.1123V1.16602Z" fill="#CE0000" stroke="#000063" stroke-width="1.34766"/>
<path fill-rule="evenodd" clip-rule="evenodd" d="M12.9562 25.408L11.0211 26.0573L12.5406 27.4857L10.4978 27.3559L11.3364 29.2461L9.50877 28.3587L9.54463 30.422L8.19716 28.9143L7.43026 30.8332L6.77088 28.9359L5.31592 30.422L5.44493 28.4236L3.51694 29.2461L4.42001 27.4425L2.32 27.4857L3.86097 26.1656L1.9043 25.408L3.83946 24.7587L2.31283 23.3303L4.34833 23.4601L3.51694 21.57L5.35176 22.4573L5.31592 20.394L6.66336 21.9018L7.43026 19.9827L8.08249 21.8801L9.54463 20.394L9.40844 22.3924L11.3436 21.57L10.4334 23.3736L12.5406 23.3303L10.9996 24.6505L12.9562 25.408ZM10.634 12.0829L9.82416 12.689L10.2255 13.0208C11.1674 12.3586 11.925 11.4644 12.4258 10.4236C12.5549 11.9603 11.1572 15.4016 7.50193 15.4377C6.83383 15.4463 6.17066 15.3215 5.55068 15.0707C4.93071 14.82 4.36621 14.4481 3.88977 13.9766C3.41332 13.5051 3.03438 12.9432 2.77479 12.3236C2.51521 11.7038 2.38012 11.0385 2.37733 10.3659C3.09407 11.679 3.53843 12.3138 4.67087 12.9992L5.00772 12.6818L4.248 12.0396L5.22992 11.78L4.69953 10.8854L5.73162 10.9575L5.60261 9.91866L6.50569 10.4525L6.79238 9.47852L7.43744 10.2577L8.04665 9.51461L8.37634 10.5246L9.22209 9.93306L9.11457 10.9647L10.1323 10.8421L9.65211 11.7944L10.634 12.0829Z" fill="white"/>
</g>
</svg>
