<svg width="48" height="36" viewBox="0 0 48 36" fill="none" xmlns="http://www.w3.org/2000/svg">
<g clip-path="url(#clip0_35_34402)">
<mask id="mask0_35_34402" style="mask-type:luminance" maskUnits="userSpaceOnUse" x="-1" y="-1" width="50" height="38">
<path d="M44.5883 -0.373047H3.4118C1.24598 -0.373047 -0.509766 1.3827 -0.509766 3.54852V32.9603C-0.509766 35.1261 1.24598 36.8819 3.4118 36.8819H44.5883C46.7541 36.8819 48.5098 35.1261 48.5098 32.9603V3.54852C48.5098 1.3827 46.7541 -0.373047 44.5883 -0.373047Z" fill="white"/>
</mask>
<g mask="url(#mask0_35_34402)">
<path d="M-0.509766 -0.373047H48.5098V36.8819H-0.509766V-0.373047Z" fill="#DA2032"/>
<path d="M15.8281 -0.373047H32.173V36.8819H15.8281V-0.373047Z" fill="#0066B3"/>
<path d="M7.66334 16.844C9.35535 16.844 10.727 15.454 10.727 13.7394C10.727 12.0248 9.35535 10.6348 7.66334 10.6348C5.97129 10.6348 4.59961 12.0248 4.59961 13.7394C4.59961 15.454 5.97129 16.844 7.66334 16.844Z" fill="#FFD900"/>
<path d="M7.66368 15.7093C9.50805 15.7093 11.0032 14.1943 11.0032 12.3254C11.0032 10.4565 9.50805 8.94141 7.66368 8.94141C5.81935 8.94141 4.32422 10.4565 4.32422 12.3254C4.32422 14.1943 5.81935 15.7093 7.66368 15.7093Z" fill="#DA2032"/>
<path d="M7.66246 15.1519C8.8934 15.1519 9.89134 14.1407 9.89134 12.8934C9.89134 11.646 8.8934 10.6348 7.66246 10.6348C6.43149 10.6348 5.43359 11.646 5.43359 12.8934C5.43359 14.1407 6.43149 15.1519 7.66246 15.1519Z" fill="#FFD900"/>
<path d="M7.89238 5.55859C7.77931 5.60872 7.6822 5.68969 7.61187 5.79248C7.54155 5.89526 7.50077 6.01582 7.4941 6.1407C7.47878 6.33474 7.56304 6.55205 7.5707 6.73833C7.5707 7.06431 7.24134 7.17298 7.24134 7.6309C7.24134 7.78612 7.38687 7.96464 7.38687 8.376C7.35624 8.59332 7.23369 8.64764 7.10347 8.66317C7.06661 8.66318 7.03012 8.65571 6.99616 8.64118C6.9622 8.62666 6.93145 8.60538 6.90574 8.5786C6.88004 8.55183 6.85988 8.5201 6.84649 8.48531C6.83309 8.45051 6.82671 8.41334 6.82774 8.376C6.82754 8.30371 6.855 8.23416 6.90433 8.18196C6.914 8.17349 6.92423 8.16571 6.93497 8.15867C6.99624 8.08882 7.08816 8.06554 7.08816 7.89479C7.08816 7.80941 7.02688 7.72403 6.97326 7.56881C6.91965 7.41357 6.95795 7.16521 7.0805 7.01774C6.88135 7.09536 6.76646 7.28163 6.69753 7.45239C6.63625 7.66195 6.69753 7.77837 6.60562 7.95688C6.552 8.06553 6.49073 8.1121 6.42945 8.20524C6.35286 8.31391 6.27627 8.54675 6.27627 8.66317C6.30233 9.01871 6.46011 9.35112 6.71794 9.59375C6.97577 9.8363 7.3146 9.9711 7.66643 9.9711C8.01827 9.9711 8.3571 9.8363 8.61493 9.59375C8.87276 9.35112 9.03051 9.01871 9.05659 8.66317C9.05659 8.54675 8.97237 8.31391 8.90345 8.20524C8.83443 8.1121 8.7732 8.06553 8.71959 7.95688C8.62768 7.77837 8.68895 7.66195 8.62002 7.45239C8.55874 7.28163 8.44385 7.09536 8.24472 7.01774C8.36726 7.17298 8.3979 7.42134 8.35194 7.56881C8.29833 7.72403 8.24472 7.80165 8.24472 7.89479C8.24472 8.06554 8.32897 8.08882 8.3979 8.15867C8.406 8.16598 8.41368 8.17375 8.42087 8.18196C8.47022 8.23416 8.49767 8.30371 8.49747 8.376C8.49849 8.41334 8.49212 8.45051 8.47872 8.48531C8.46532 8.5201 8.44518 8.55183 8.41947 8.5786C8.39376 8.60538 8.36302 8.62666 8.32906 8.64118C8.29509 8.65571 8.2586 8.66318 8.22174 8.66317C8.06855 8.63989 7.95366 8.57003 7.93834 8.376C7.93834 7.83269 8.16812 7.80165 8.16812 7.39805C8.16812 6.82371 7.66261 6.55205 7.66261 6.13294C7.66261 5.99323 7.69324 5.74487 7.89238 5.55859ZM1.53516 17.4026H4.31549V30.9463H1.53516V17.4026ZM11.0021 17.4026H13.79V30.9463H11.0021V17.4026ZM4.87462 17.4026H10.443L7.66261 19.0945L4.87462 17.4026ZM4.87462 19.6534H10.443V20.7865H4.87462V19.6534ZM4.87462 27.5623H10.443V28.6954H4.87462V27.5623ZM4.87462 29.2542H10.443L7.66261 30.9463L4.87462 29.2542Z" fill="#FFD900"/>
<path d="M7.66299 27.0097C9.20276 27.0097 10.451 25.7449 10.451 24.1846C10.451 22.6243 9.20276 21.3594 7.66299 21.3594C6.12323 21.3594 4.875 22.6243 4.875 24.1846C4.875 25.7449 6.12323 27.0097 7.66299 27.0097Z" fill="#FFD900"/>
<path d="M7.6586 23.2481C7.96625 23.2481 8.21564 22.9953 8.21564 22.6836C8.21564 22.3718 7.96625 22.1191 7.6586 22.1191C7.35095 22.1191 7.10156 22.3718 7.10156 22.6836C7.10156 22.9953 7.35095 23.2481 7.6586 23.2481Z" fill="#DA2032"/>
<path d="M7.6586 26.2383C7.96625 26.2383 8.21564 25.9856 8.21564 25.6738C8.21564 25.362 7.96625 25.1094 7.6586 25.1094C7.35095 25.1094 7.10156 25.362 7.10156 25.6738C7.10156 25.9856 7.35095 26.2383 7.6586 26.2383Z" fill="#DA2032"/>
<path d="M7.65889 21.0176C8.09471 21.0176 8.51268 21.193 8.82087 21.5052C9.12901 21.8176 9.30214 22.2411 9.30214 22.6827C9.30214 23.1243 9.12901 23.5479 8.82087 23.8602C8.51268 24.1725 8.09471 24.3479 7.65889 24.3479C7.31171 24.3479 6.97875 24.4877 6.73326 24.7364C6.48776 24.9852 6.34985 25.3226 6.34985 25.6744C6.34985 26.0262 6.48776 26.3636 6.73326 26.6124C6.97875 26.8611 7.31171 27.0009 7.65889 27.0009V27.3395C7.22307 27.3395 6.8051 27.1641 6.49693 26.8519C6.18875 26.5395 6.01562 26.116 6.01562 25.6744C6.01562 25.2328 6.18875 24.8092 6.49693 24.4969C6.8051 24.1846 7.22307 24.0092 7.65889 24.0092C8.00607 24.0092 8.33903 23.8694 8.58452 23.6207C8.82999 23.3719 8.96793 23.0345 8.96793 22.6827C8.96793 22.3309 8.82999 21.9936 8.58452 21.7447C8.33903 21.496 8.00607 21.3562 7.65889 21.3562V21.0176Z" fill="#DA2032"/>
</g>
</g>
<defs>
<clipPath id="clip0_35_34402">
<rect width="50" height="37.2549" fill="white" transform="translate(-1 -0.373047)"/>
</clipPath>
</defs>
</svg>
