<svg width="48" height="36" viewBox="0 0 48 36" fill="none" xmlns="http://www.w3.org/2000/svg">
<g clip-path="url(#clip0_35_35721)">
<path d="M50.6248 0.0214844H-3.37891V36.0239H50.6248V0.0214844Z" fill="white"/>
<path d="M50.6248 0.0214844H10.1221V36.0239H50.6248V0.0214844Z" fill="#01411C"/>
<path d="M30.373 28.8241C36.3381 28.8241 41.1737 23.9885 41.1737 18.0234C41.1737 12.0583 36.3381 7.22266 30.373 7.22266C24.4079 7.22266 19.5723 12.0583 19.5723 18.0234C19.5723 23.9885 24.4079 28.8241 30.373 28.8241Z" fill="white"/>
<path d="M39.7114 22.9682C43.7982 19.3354 44.1663 13.0775 40.5336 8.99065C36.9009 4.90383 30.6429 4.53571 26.5561 8.16845C22.4693 11.8012 22.1012 18.0591 25.7339 22.1459C29.3666 26.2328 35.6246 26.6009 39.7114 22.9682Z" fill="#01411C"/>
<path d="M34.3117 9.93985L38.8613 15.0582L32.1721 13.5916L38.4458 10.8463L34.9839 16.7548L34.3117 9.93985Z" fill="white"/>
</g>
<defs>
<clipPath id="clip0_35_35721">
<rect width="54.0037" height="36.0024" fill="white" transform="translate(-3.37891 0.0214844)"/>
</clipPath>
</defs>
</svg>
