<svg width="48" height="36" viewBox="0 0 48 36" fill="none" xmlns="http://www.w3.org/2000/svg">
<g clip-path="url(#clip0_35_33084)">
<path d="M-1 0H72V36H-1V0Z" fill="#CE1720"/>
<mask id="mask0_35_33084" style="mask-type:luminance" maskUnits="userSpaceOnUse" x="-1" y="0" width="9" height="36">
<path d="M-0.613281 0H7.49783V24.32H7.82227V35.68L7.49783 36H-0.613281V0Z" fill="white"/>
</mask>
<g mask="url(#mask0_35_33084)">
<path d="M0.846944 0V0.56H0.481944V1.12H0.0358334V1.76H-0.288611V2.28H-0.9375V0.96H-0.288611V0.24H-0.9375V0H0.846944ZM1.90139 3.08V3.68H1.57694V4.16H1.2525V3.68H0.928056V3.08H0.603611V2.28H0.928056V1.68H1.2525V1.2H1.57694V1.68H1.90139V2.28H2.22583V3.08H1.90139ZM1.21194 3.04H1.6175V2.32H1.21194V3.04ZM0.1575 7.32H0.481944V6.6H0.1575V7.32ZM2.3475 7.32H2.67194V6.6H2.3475V7.32ZM-0.9375 12.2H-0.369722V12.72H-0.126389V13.36H0.238611V13.96H0.725278V13.36H1.09028V12.72H1.41472V12.2H0.928056V11.6H1.77972V12H2.30694V12.68H2.75306V13.44H2.42861V14H2.14472V14.52H1.90139V15.08H1.53639V15.56H1.2525V16H0.8875V16.56H0.360278V15.96H-0.00472224V15.4H-0.288611V15.04H-0.9375V14.12H-0.288611V13.32H-0.9375V12.2Z" fill="white"/>
<path d="M6.03782 0V0.56H6.40282V1.12H6.84893V1.76H7.17338V2.28H7.82227V0.96H7.17338V0.24H7.82227V0H6.03782ZM4.98338 3.08V3.68H5.30782V4.16H5.63227V3.68H5.95671V3.08H6.28115V2.28H5.95671V1.68H5.63227V1.2H5.30782V1.68H4.98338V2.28H4.65893V3.08H4.98338ZM5.67282 3.04H5.26727V2.32H5.67282V3.04ZM6.72727 7.32H6.40282V6.6H6.72727V7.32ZM4.53727 7.32H4.21282V6.6H4.53727V7.32ZM7.82227 12.2H7.25449V12.72H7.01115V13.36H6.64615V13.96H6.15949V13.36H5.79449V12.72H5.47004V12.2H5.95671V11.6H5.10504V12H4.57782V12.68H4.13171V13.44H4.45615V14H4.74004V14.52H4.98338V15.08H5.34838V15.56H5.63227V16H5.99727V16.56H6.52449V15.96H6.88949V15.4H7.17338V15.04H7.82227V14.12H7.17338V13.32H7.82227V12.2Z" fill="white"/>
<path d="M3.28028 0V1.28H3.60472V0H4.9025V0.56H4.57805V1.12H4.09139V1.76H3.76694V2.28H3.11806V1.76H2.79361V1.12H2.30694V0.56H1.9825V0H3.28028ZM3.19917 10.96V10.52H2.95583V10H2.67194V9.44H2.3475V8.88H2.02306V8.48H1.65806V7.92H1.17139V8.48H0.806389V8.88H0.5225V9.44H0.198056V10H-0.0452778V10.52H-0.288611V11.2H-0.9375V9.44H-0.288611V8.64H-0.9375V7.32H-0.288611V7.88H0.116944V8.44H0.5225V7.88H0.928055V7.32H1.2525V6.6H0.928055V6.04H0.5225V5.48H0.116944V6.04H-0.288611V6.6H-0.9375V4.96H-0.288611V4.2H-0.9375V3.08H-0.288611V3.6H0.0358332V4.24H0.481944V4.76H0.846944V5.36H1.13083V5.84H1.69861V5.36H1.9825V4.76H2.3475V4.24H2.79361V3.6H3.11806V3.08H3.76694V3.6H4.09139V4.24H4.5375V4.76H4.9025V5.36H5.18639V5.84H5.75417V5.36H6.03805V4.76H6.40305V4.24H6.84917V3.6H7.17361V3.08H7.8225V4.2H7.17361V4.96H7.8225V6.6H7.17361V6.04H6.76805V5.48H6.3625V6.04H5.95694V6.6H5.6325V7.32H5.95694V7.88H6.3625V8.44H6.76805V7.88H7.17361V7.32H7.8225V8.64H7.17361V9.44H7.8225V11.2H7.17361V10.52H6.93028V10H6.68694V9.44H6.3625V8.88H6.07861V8.48H5.71361V7.92H5.22694V8.48H4.86194V8.88H4.5375V9.44H4.21306V10H3.92917V10.52H3.68583V10.96H3.19917ZM3.28028 4.28V5.36H3.60472V4.28H3.28028ZM3.11806 6.6V6.04H2.7125V5.48H2.30694V6.04H1.90139V6.6H1.57694V7.32H1.90139V7.88H2.30694V8.44H2.7125V7.88H3.11806V7.32H3.76694V7.88H4.1725V8.44H4.57805V7.88H4.98361V7.32H5.30805V6.6H4.98361V6.04H4.57805V5.48H4.1725V6.04H3.76694V6.6H3.11806ZM3.28028 8.44V9.52H3.60472V8.44H3.28028Z" fill="white"/>
<path d="M0.846944 36V35.44H0.481944V34.88H0.0358334V34.24H-0.288611V33.72H-0.9375V35.04H-0.288611V35.76H-0.9375V36H0.846944ZM1.90139 32.92V32.32H1.57694V31.84H1.2525V32.32H0.928056V32.92H0.603611V33.72H0.928056V34.32H1.2525V34.8H1.57694V34.32H1.90139V33.72H2.22583V32.92H1.90139ZM1.21194 32.96H1.6175V33.68H1.21194V32.96ZM0.1575 28.68H0.481944V29.4H0.1575V28.68ZM2.3475 28.68H2.67194V29.4H2.3475V28.68ZM-0.9375 23.8H-0.369722V23.28H-0.126389V22.64H0.238611V22.04H0.725278V22.64H1.09028V23.28H1.41472V23.8H0.928056V24.4H1.77972V24H2.30694V23.32H2.75306V22.56H2.42861V22H2.14472V21.48H1.90139V20.92H1.53639V20.44H1.2525V20H0.8875V19.44H0.360278V20.04H-0.00472224V20.6H-0.288611V20.96H-0.9375V21.88H-0.288611V22.68H-0.9375V23.8Z" fill="white"/>
<path d="M6.03782 36V35.44H6.40282V34.88H6.84893V34.24H7.17338V33.72H7.82227V35.04H7.17338V35.76H7.82227V36H6.03782ZM4.98338 32.92V32.32H5.30782V31.84H5.63227V32.32H5.95671V32.92H6.28115V33.72H5.95671V34.32H5.63227V34.8H5.30782V34.32H4.98338V33.72H4.65893V32.92H4.98338ZM5.67282 32.96H5.26727V33.68H5.67282V32.96ZM6.72727 28.68H6.40282V29.4H6.72727V28.68ZM4.53727 28.68H4.21282V29.4H4.53727V28.68ZM7.82227 23.8H7.25449V23.28H7.01115V22.64H6.64615V22.04H6.15949V22.64H5.79449V23.28H5.47004V23.8H5.95671V24.4H5.10504V24H4.57782V23.32H4.13171V22.56H4.45615V22H4.74004V21.48H4.98338V20.92H5.34838V20.44H5.63227V20H5.99727V19.44H6.52449V20.04H6.88949V20.6H7.17338V20.96H7.82227V21.88H7.17338V22.68H7.82227V23.8Z" fill="white"/>
<path d="M3.28028 36V34.72H3.60472V36H4.9025V35.44H4.57805V34.88H4.09139V34.24H3.76694V33.72H3.11806V34.24H2.79361V34.88H2.30694V35.44H1.9825V36H3.28028ZM3.19917 25.04V25.48H2.95583V26H2.67194V26.56H2.3475V27.12H2.02306V27.52H1.65806V28.08H1.17139V27.52H0.806389V27.12H0.5225V26.56H0.198056V26H-0.0452778V25.48H-0.288611V24.8H-0.9375V26.56H-0.288611V27.36H-0.9375V28.68H-0.288611V28.12H0.116944V27.56H0.5225V28.12H0.928055V28.68H1.2525V29.4H0.928055V29.96H0.5225V30.52H0.116944V29.96H-0.288611V29.4H-0.9375V31.04H-0.288611V31.8H-0.9375V32.92H-0.288611V32.4H0.0358332V31.76H0.481944V31.24H0.846944V30.64H1.13083V30.16H1.69861V30.64H1.9825V31.24H2.3475V31.76H2.79361V32.4H3.11806V32.92H3.76694V32.4H4.09139V31.76H4.5375V31.24H4.9025V30.64H5.18639V30.16H5.75417V30.64H6.03805V31.24H6.40305V31.76H6.84917V32.4H7.17361V32.92H7.8225V31.8H7.17361V31.04H7.8225V29.4H7.17361V29.96H6.76805V30.52H6.3625V29.96H5.95694V29.4H5.6325V28.68H5.95694V28.12H6.3625V27.56H6.76805V28.12H7.17361V28.68H7.8225V27.36H7.17361V26.56H7.8225V24.8H7.17361V25.48H6.93028V26H6.68694V26.56H6.3625V27.12H6.07861V27.52H5.71361V28.08H5.22694V27.52H4.86194V27.12H4.5375V26.56H4.21306V26H3.92917V25.48H3.68583V25.04H3.19917ZM3.28028 31.72V30.64H3.60472V31.72H3.28028ZM3.11806 29.4V29.96H2.7125V30.52H2.30694V29.96H1.90139V29.4H1.57694V28.68H1.90139V28.12H2.30694V27.56H2.7125V28.12H3.11806V28.68H3.76694V28.12H4.1725V27.56H4.57805V28.12H4.98361V28.68H5.30805V29.4H4.98361V29.96H4.57805V30.52H4.1725V29.96H3.76694V29.4H3.11806ZM3.28028 27.56V26.48H3.60472V27.56H3.28028Z" fill="white"/>
<path d="M-0.9375 16.3201H-0.288611V16.8801H-0.0047223V17.2001H0.319722V17.7601H0.603611V18.2401H0.319722V18.8001H-0.0047223V19.1201H-0.288611V19.6801H-0.9375V16.3201ZM7.8225 16.3201V19.6801H7.17361V19.1201H6.88972V18.8001H6.56528V18.2401H6.28139V17.7601H6.56528V17.2001H6.88972V16.8801H7.17361V16.3201H7.8225ZM1.90139 18.3601H2.22583V17.6401H1.90139V18.3601ZM4.98361 18.3601V17.6401H4.65917V18.3601H4.98361ZM3.28028 16.0001H3.60472V15.2801H3.28028V16.0001ZM3.28028 20.0001V20.7201H3.60472V20.0001H3.28028ZM1.2525 17.0001H1.82028V16.5601H2.22583V16.1601H2.42861V15.7601H2.67194V15.2001H2.99639V14.6401H3.15861V14.1201H3.72639V14.6401H3.88861V15.2001H4.21306V15.7601H4.45639V16.1601H4.65917V16.5601H5.06472V17.0001H5.6325V19.0001H5.06472V19.4401H4.65917V19.8401H4.45639V20.2401H4.21306V20.8001H3.88861V21.3601H3.72639V21.8801H3.15861V21.3601H2.99639V20.8001H2.67194V20.2401H2.42861V19.8401H2.22583V19.4401H1.82028V19.0001H1.2525V17.0001ZM3.28028 17.3601V16.7601H2.95583V16.3601H2.63139V17.3601H2.95583V17.7201H3.15861V18.2801H2.95583V18.6401H2.63139V19.6401H2.95583V19.2401H3.28028V18.6401H3.60472V19.2401H3.92917V19.6401H4.25361V18.6401H3.92917V18.2801H3.72639V17.7201H3.92917V17.3601H4.25361V16.3601H3.92917V16.7601H3.60472V17.3601H3.28028Z" fill="white"/>
</g>
<path d="M7.49805 24H72.0007V36H7.49805V24Z" fill="#007C30"/>
</g>
<defs>
<clipPath id="clip0_35_33084">
<rect width="73" height="36" fill="white" transform="translate(-1)"/>
</clipPath>
</defs>
</svg>
