<svg width="48" height="36" viewBox="0 0 48 36" fill="none" xmlns="http://www.w3.org/2000/svg">
<g clip-path="url(#clip0_35_35324)">
<path d="M51 0H-3V36H51V0Z" fill="black"/>
<path d="M51 6H-3V15H51V6ZM51 24H-3V36H51V24Z" fill="#FCDC04"/>
<path d="M51 12.002H-3V18.002H51V12.002ZM51 30.002H-3V36.002H51V30.002Z" fill="#D90000"/>
<path d="M24.0004 23.6106C20.902 23.6106 18.3904 21.0989 18.3904 18.0006C18.3904 14.9023 20.902 12.3906 24.0004 12.3906C27.0987 12.3906 29.6104 14.9023 29.6104 18.0006C29.6104 21.0989 27.0987 23.6106 24.0004 23.6106Z" fill="white"/>
<path d="M24.9887 13.7043L25.3525 13.0341C25.2121 12.8937 24.9759 12.7852 24.5993 12.7852C24.5993 12.8107 24.6376 13.5192 24.6376 13.5192L24.9887 13.7043Z" fill="#D90000" stroke="black" stroke-width="0.06"/>
<path d="M24.6377 13.5267L24.5866 12.7862C24.5866 12.7862 23.8334 12.7416 23.4249 13.233C23.4185 13.2266 23.827 13.8075 23.827 13.8075L24.6377 13.5267Z" fill="#FCDC04" stroke="black" stroke-width="0.06"/>
<path d="M23.8145 13.7991L23.4443 13.2246C23.1953 13.4863 23.0932 13.6714 23.0549 13.9523C23.0485 13.9587 23.6421 14.0991 23.6421 14.0927C23.6421 14.0863 23.8081 13.8054 23.8145 13.7991Z" fill="#D90000" stroke="black" stroke-width="0.06"/>
<path d="M24.8036 23.2857C24.8036 23.2857 24.1078 22.4878 22.7546 22.6602C22.9589 22.3283 23.6163 22.3666 23.6163 22.3666C23.6163 22.3666 23.8206 20.8155 23.661 20.7389C23.5015 20.6623 22.8249 20.7453 22.8249 20.7453C22.7355 20.7453 22.5823 20.5027 22.7036 20.3495C22.8249 20.1963 23.1823 19.6091 23.0355 19.4942C22.8887 19.3793 22.0908 19.558 22.0908 19.558L24.344 16.6729C24.344 16.6729 24.5738 15.5878 24.1142 15.0644C23.5589 14.6048 23.6163 14.1069 23.6355 14.1133C23.7121 13.609 24.478 13.2451 24.9951 13.7112C25.3015 14.0814 25.0972 14.3622 25.0972 14.3622C25.0972 14.3622 25.9015 14.5792 25.9334 14.7197C25.9653 14.8601 25.027 14.6942 25.027 14.6942L25.1164 15.3388C25.1164 15.3388 26.9419 16.9984 25.544 18.4346C25.5313 18.4282 25.4993 18.3708 25.4993 18.3708C25.4993 18.3708 25.0078 18.9772 24.4909 19.1112C24.0057 19.6091 24.0504 19.5325 24.0504 19.5325C24.0504 19.5325 23.9547 20.3176 24.044 20.4708C24.1653 20.4325 25.4036 20.3878 25.5887 20.458C25.7547 20.5091 26.393 20.4772 26.2334 21.5176C26.1121 21.2368 26.0036 20.9878 26.0036 20.9878C26.0036 20.9878 26.0228 21.3644 25.8695 21.4985C25.8951 21.1027 25.7227 20.8347 25.7227 20.8347C25.7227 20.8347 25.6908 21.2687 25.5951 21.3325C25.4993 21.3963 25.4993 20.6303 24.9695 20.6942C24.4398 20.758 24.0568 20.7389 24.0568 20.7389C24.0568 20.7389 23.878 22.2389 23.9355 22.3793C24.3185 22.29 25.2312 22.4176 25.2887 22.6474C24.7526 22.6155 24.5036 22.6793 24.5036 22.6793C24.5036 22.6793 24.9376 23.0623 24.8036 23.2857Z" fill="black" stroke="black" stroke-width="0.06"/>
<path d="M24.5885 15.0996C24.5885 15.0996 25.9169 16.5637 25.3438 17.6841C25.3133 17.5279 25.3266 17.4297 25.3074 17.4361C25.3394 17.417 25.1427 17.5709 25.1577 17.5409C25.1535 17.4599 25.2176 17.2863 25.2176 17.2863C25.1577 17.3013 25.0977 17.3163 25.0378 17.3313C25.0728 17.2664 25.1078 17.2015 25.1427 17.1366C25.0578 17.1466 24.973 17.1565 24.8881 17.1665C24.8881 17.1665 24.9779 16.9269 24.948 16.9269C24.918 16.9269 24.7383 16.9418 24.7383 16.9418C25.1161 16.2639 24.7597 15.7009 24.5885 15.0996Z" fill="#9CA69C" stroke="#9CA69C" stroke-width="0.06"/>
<path d="M24.1271 13.8457C24.1271 13.8457 24.0569 14.35 24.3313 14.4968C24.376 14.5287 24.5484 14.5861 24.5228 14.6883C24.4909 14.8287 24.4143 14.8032 24.3058 14.7776C24.0186 14.7266 23.6867 14.1138 24.1271 13.8457Z" fill="#9CA69C" stroke="#9CA69C" stroke-width="0.06"/>
<path d="M24.7201 14.3898C24.6605 14.3898 24.6121 14.3415 24.6121 14.2818C24.6121 14.2222 24.6605 14.1738 24.7201 14.1738C24.7798 14.1738 24.8281 14.2222 24.8281 14.2818C24.8281 14.3415 24.7798 14.3898 24.7201 14.3898Z" fill="white"/>
<path d="M25.046 14.7012C25.1162 14.7586 25.4864 15.1416 25.1226 15.2821C24.746 15.1799 24.8481 15.1097 24.7651 15.0267C24.763 14.8544 24.9524 14.8097 25.046 14.7012Z" fill="#D90000" stroke="black" stroke-width="0.06"/>
<path d="M24.2422 18.3184C24.2613 18.4014 24.3443 18.7077 24.2294 18.9439C23.9102 18.8099 23.7634 18.8481 23.6549 18.9183C23.9166 18.7077 24.0187 18.6183 24.2422 18.3184Z" fill="#9CA69C" stroke="#9CA69C" stroke-width="0.06"/>
<path d="M23.6934 19.7676L23.6742 20.4825C23.6742 20.4825 23.4253 20.5272 23.3104 20.4825C23.1955 20.4378 23.3168 19.9846 23.6934 19.7676Z" fill="white" stroke="white" stroke-width="0.06"/>
<path d="M21.8868 19.8568C21.8868 19.8568 22.3464 18.7461 23.5208 18.4653C24.6953 18.1844 24.5422 16.9334 24.4464 16.8567C24.3953 16.7482 24.357 16.5823 24.0187 16.7419C23.6804 16.9014 22.1229 17.6865 21.8995 17.7248C21.6761 17.7631 21.8676 19.8823 21.8868 19.8568Z" fill="#9CA69C" stroke="black" stroke-width="0.06"/>
<path d="M23.0037 18.4595C23.0229 18.4723 21.4335 19.3978 21.9122 20.1957C21.459 19.8956 21.6058 19.3723 21.6058 19.3723C21.6058 19.3723 21.2356 20.3361 22.1356 20.8085C22.0399 20.8915 21.976 20.8723 21.976 20.8723L22.1293 21.0255C22.1293 21.0255 22.1995 21.1404 21.5931 20.8467C21.7591 20.9808 21.7718 21.0765 21.7718 21.0765C21.7718 21.0765 21.7271 21.2042 21.3314 20.8595C21.6505 21.2042 21.7208 21.3829 21.7208 21.3765C20.8591 21.2999 18.9824 18.4978 22.3144 17.668C22.1356 17.8531 22.1612 17.8276 22.1612 17.8276L23.0037 18.4595Z" fill="#D90000" stroke="black" stroke-width="0.06"/>
<path d="M22.9335 18.1853C22.7165 18.3384 22.6399 18.3895 22.6144 18.4661C22.8122 18.4215 22.991 18.4342 22.991 18.4342C22.991 18.4342 23.4186 18.0257 23.4952 17.9938C23.5527 17.9938 23.8846 17.7831 23.8846 17.7831C24.0505 17.7002 24.2037 17.1257 23.5909 17.2916C22.9591 17.5916 22.8697 17.6172 22.8697 17.6172C22.6186 17.6959 22.3676 17.7747 22.1165 17.8534C21.9718 18.0151 21.8271 18.1768 21.6824 18.3385C21.6824 18.3385 22.4548 17.9555 22.5505 17.9491C22.3399 18.1214 22.2186 18.3576 22.2186 18.3576C22.4633 18.2874 22.676 18.2236 22.9335 18.1853Z" fill="white" stroke="black" stroke-width="0.06"/>
<path d="M25.9395 14.7572C25.9395 14.7572 25.199 14.5785 25.1097 14.6041L25.9395 14.7572Z" fill="black"/>
<path d="M25.9395 14.7572C25.9395 14.7572 25.199 14.5785 25.1097 14.6041" stroke="white" stroke-width="0.06"/>
</g>
<defs>
<clipPath id="clip0_35_35324">
<rect width="54" height="36" fill="white" transform="matrix(-1 0 0 1 51 0)"/>
</clipPath>
</defs>
</svg>
