<svg width="48" height="36" viewBox="0 0 48 36" fill="none" xmlns="http://www.w3.org/2000/svg">
<g clip-path="url(#clip0_35_35347)">
<path d="M-6 0H48V36H-6V0Z" fill="#FAD201"/>
<path d="M-6 0H48V18H-6V0Z" fill="#00A3E0"/>
<path d="M-6 27H48V36H-6V27Z" fill="#20603D"/>
<path d="M38.3076 3.59961L38.5426 7.63022L39.8126 3.79761L38.9964 7.75207L41.2153 4.3788L39.4035 7.98711L42.4195 5.30303L39.7355 8.31907L43.3438 6.5073L39.9705 8.72615L43.925 7.90992L40.0923 9.17996L44.123 9.41499L40.0923 9.65003L43.925 10.9201L39.9705 10.1038L43.3438 12.3227L39.7355 10.5109L42.4195 13.527L39.4035 10.8429L41.2153 14.4512L38.9964 11.0779L39.8126 15.0324L38.5426 11.1998L38.3076 15.2304L38.0725 11.1998L36.8025 15.0324L37.6187 11.0779L35.3999 14.4512L37.2116 10.8429L34.1956 13.527L36.8797 10.5109L33.2714 12.3227L36.6446 10.1038L32.6902 10.9201L36.5228 9.65003L32.4922 9.41499L36.5228 9.17996L32.6902 7.90992L36.6446 8.72615L33.2714 6.5073L36.8797 8.31907L34.1956 5.30303L37.2116 7.98711L35.3999 4.3788L37.6187 7.75207L36.8025 3.79761L38.0725 7.63022L38.3076 3.59961Z" fill="#E5BE01"/>
<path d="M38.3075 11.1091C39.2442 11.1091 40.0036 10.3497 40.0036 9.41295C40.0036 8.47619 39.2442 7.7168 38.3075 7.7168C37.3707 7.7168 36.6113 8.47619 36.6113 9.41295C36.6113 10.3497 37.3707 11.1091 38.3075 11.1091Z" stroke="#00A3E0" stroke-width="0.207692"/>
</g>
<defs>
<clipPath id="clip0_35_35347">
<rect width="54" height="36" fill="white" transform="translate(-6)"/>
</clipPath>
</defs>
</svg>
