<svg width="48" height="36" viewBox="0 0 48 36" fill="none" xmlns="http://www.w3.org/2000/svg">
<g clip-path="url(#clip0_35_34643)">
<mask id="mask0_35_34643" style="mask-type:luminance" maskUnits="userSpaceOnUse" x="-1" y="0" width="50" height="36">
<path d="M44.5883 0H3.4118C1.24598 0 -0.509766 1.69661 -0.509766 3.78947V32.2105C-0.509766 34.3034 1.24598 36 3.4118 36H44.5883C46.7541 36 48.5098 34.3034 48.5098 32.2105V3.78947C48.5098 1.69661 46.7541 0 44.5883 0Z" fill="white"/>
</mask>
<g mask="url(#mask0_35_34643)">
<path fill-rule="evenodd" clip-rule="evenodd" d="M-0.509766 0H48.5098V36H-0.509766V0Z" fill="#229E45"/>
<path fill-rule="evenodd" clip-rule="evenodd" d="M24.1071 32.7008L47.2 18.0233L23.9693 3.30078L0.799805 18.0533L24.1071 32.7008Z" fill="#F8E509"/>
<path fill-rule="evenodd" clip-rule="evenodd" d="M34.1712 18C34.1712 23.2725 29.7978 27.5475 24.398 27.5475C22.4683 27.5445 20.5829 26.9814 18.98 25.9294C17.3772 24.8773 16.129 23.3835 15.393 21.6369C14.657 19.8903 14.4663 17.9692 14.8452 16.1164C15.2241 14.2638 16.1554 12.5627 17.5214 11.2281C18.8875 9.89365 20.6269 8.98571 22.5199 8.61909C24.4129 8.25248 26.3742 8.44364 28.1563 9.16842C29.9383 9.89318 31.4608 11.1191 32.5315 12.691C33.6021 14.263 34.1727 16.1105 34.1712 18Z" fill="#2B49A3"/>
<path fill-rule="evenodd" clip-rule="evenodd" d="M21.1892 23.7222L20.8828 23.5496L20.5764 23.6996L20.6454 23.3622L20.4003 23.1071L20.745 23.0696L20.9135 22.7697L21.059 23.0847L21.396 23.1446L21.1432 23.3696M27.7303 25.3422L27.4315 25.1696L27.1252 25.3196L27.1864 24.9822L26.949 24.7346L27.2937 24.6972L27.4545 24.3897L27.6077 24.7047L27.9447 24.7646L27.6843 24.9971M24.9116 22.7471L24.6512 22.5972L24.3831 22.7322L24.4444 22.4397L24.23 22.2222L24.5363 22.1922L24.6742 21.9222L24.7967 22.1996L25.0955 22.2521L24.8657 22.4547M31.5293 21.8172L31.2689 21.6671L31.0007 21.8021L31.062 21.5097L30.8553 21.2996L31.154 21.2696L31.2918 21.0072L31.4144 21.2772L31.7055 21.3297L31.4833 21.5246M24.7967 19.8746L24.4904 19.7097L24.184 19.8596L24.2453 19.5147L24.0078 19.2672L24.3525 19.2296L24.5133 18.9221L24.6665 19.2371L25.0035 19.2972L24.7431 19.5372M16.7314 16.9122L16.4251 16.7472L16.1187 16.8971L16.1954 16.5522L15.9426 16.3046L16.2949 16.2671L16.4481 15.9596L16.6012 16.2746L16.9383 16.3347L16.6856 16.5672M17.7042 20.8571L17.3978 20.6846L17.0914 20.8347L17.1604 20.4971L16.9153 20.2497L17.26 20.2047L17.4208 19.9046L17.574 20.2196L17.911 20.2796L17.6582 20.5122M27.7686 15.4646L27.4928 15.3146L27.217 15.4496L27.2783 15.1496L27.0639 14.9246L27.3703 14.8872L27.5157 14.6172L27.646 14.9022L27.9523 14.9546L27.7226 15.1572M27.2094 18.0296L27.0026 17.9097L26.7805 18.0146L26.8264 17.7747L26.6579 17.6022L26.903 17.5721L27.0179 17.3622L27.1175 17.5872L27.3473 17.6246L27.1788 17.7896M16.2872 21.5696L16.0805 21.4572L15.8736 21.5547L15.9196 21.3297L15.7588 21.1646L15.9885 21.1346L16.0958 20.9322L16.1954 21.1422L16.4251 21.1872L16.249 21.3372M31.5829 22.4846L31.4144 22.4022L31.2458 22.4771L31.2842 22.3046L31.154 22.1847L31.3378 22.1621L31.4297 22.0122L31.5062 22.1621L31.6978 22.1996L31.5522 22.3122" fill="#FFFFEF"/>
<path fill-rule="evenodd" clip-rule="evenodd" d="M16.2872 21.5691L16.0805 21.4566L15.8736 21.5541L15.9196 21.3291L15.7588 21.1641L15.9885 21.1341L16.0958 20.9316L16.1954 21.1416L16.4251 21.1866L16.249 21.3366" fill="#FFFFEF"/>
<path fill-rule="evenodd" clip-rule="evenodd" d="M16.2872 21.5696L16.0805 21.4572L15.8736 21.5547L15.9196 21.3297L15.7588 21.1646L15.9885 21.1346L16.0958 20.9322L16.1954 21.1422L16.4251 21.1872L16.249 21.3372M19.4888 21.5622L19.2897 21.4572L19.0829 21.5547L19.1288 21.3297L18.968 21.1646L19.1978 21.1346L19.305 20.9322L19.4046 21.1422L19.6344 21.1796L19.4582 21.3372M19.0906 22.6121L18.8914 22.4997L18.6846 22.6046L18.7306 22.3796L18.5697 22.2071L18.7995 22.1772L18.9067 21.9746L19.0063 22.1847L19.236 22.2297L19.0599 22.3796M25.7542 20.7146L25.555 20.5946L25.3406 20.6997L25.3865 20.4747L25.2333 20.3022L25.4631 20.2796L25.5704 20.0772L25.6622 20.2872L25.892 20.3246L25.7235 20.4822M23.801 20.7072L23.5942 20.5946L23.3874 20.6997L23.4334 20.4747L23.2802 20.3022L23.51 20.2796L23.6172 20.0697L23.7091 20.2872L23.9389 20.3246L23.7704 20.4822M18.5008 20.0471L18.3706 19.9722L18.2404 20.0322L18.2709 19.8897L18.1714 19.7846L18.3169 19.7696L18.3782 19.6421L18.4395 19.7771L18.5851 19.7997L18.4778 19.8972M31.3302 23.3022L31.1309 23.1896L30.9242 23.2946L30.9702 23.0696L30.8093 22.8972L31.0391 22.8672L31.1463 22.6646L31.2458 22.8746L31.4757 22.9196L31.2995 23.0696M29.7063 23.5196L29.5378 23.4146L29.3616 23.5046L29.4 23.3097L29.2698 23.1747L29.4612 23.1521L29.5532 22.9796L29.6298 23.1596L29.8212 23.1896L29.6758 23.3246M30.4723 23.4972L30.3191 23.4072L30.1582 23.4822L30.1889 23.3097L30.0663 23.1822L30.2425 23.1596L30.3267 23.0096L30.4033 23.1596L30.5795 23.1971L30.4493 23.3172M32.6782 21.6072L32.525 21.5321L32.3718 21.6072L32.4101 21.4346L32.2875 21.3071L32.4637 21.2847L32.5403 21.1346L32.6169 21.2922L32.7777 21.3222L32.6552 21.4421M29.6834 24.5772L29.4919 24.4722L29.2851 24.5622L29.331 24.3522L29.1778 24.2022L29.4076 24.1796L29.5072 23.9922L29.5991 24.1871L29.8289 24.2246L29.6527 24.3671M29.6987 25.4322L29.5149 25.3272L29.331 25.4247L29.377 25.2146L29.2314 25.0647L29.4383 25.0346L29.5302 24.8472L29.6145 25.0421L29.8212 25.0796L29.668 25.2296M28.2128 23.4972L28.0672 23.4072L27.9141 23.4822L27.9447 23.3172L27.8298 23.1896L27.9983 23.1747L28.0749 23.0246L28.1515 23.1747L28.32 23.2046L28.1974 23.3246M26.8341 23.4972L26.6809 23.4072L26.5277 23.4822L26.566 23.3172L26.4435 23.1896L26.6197 23.1747L26.6962 23.0246L26.7728 23.1747L26.9337 23.2046L26.8111 23.3246M24.4827 21.4796L24.3295 21.3971L24.1763 21.4722L24.2146 21.2996L24.0921 21.1796L24.2606 21.1572L24.3371 21.0072L24.4138 21.1572L24.5823 21.1947L24.4598 21.3071M24.7431 25.5821L24.6206 25.5147L24.4827 25.5821L24.5133 25.4322L24.4138 25.3272L24.5593 25.3121L24.6282 25.1846L24.6895 25.3196L24.8351 25.3422L24.7278 25.4396M21.1892 18.9447L20.8828 18.7722L20.5764 18.9221L20.6454 18.5847L20.4003 18.3371L20.745 18.2921L20.9135 17.9922L21.059 18.3072L21.396 18.3672L21.1432 18.5996" fill="#FFFFEF"/>
<path fill-rule="evenodd" clip-rule="evenodd" d="M33.5286 21.4349C33.7184 20.9527 33.867 20.4561 33.9729 19.9499C28.7798 15.4873 22.9971 13.1999 15.69 13.6724C15.425 14.1745 15.2072 14.6991 15.0391 15.2399C23.6941 14.4299 30.0513 18.1798 33.5286 21.4349Z" fill="white"/>
<path d="M31.1996 18.9292L31.3758 19.0267C31.3495 19.0776 31.3415 19.1357 31.3528 19.1917C31.3708 19.246 31.4091 19.2915 31.4601 19.3192C31.5137 19.3567 31.5673 19.3792 31.6132 19.3717C31.6592 19.3717 31.6899 19.3492 31.7128 19.3192C31.7262 19.2993 31.7317 19.2752 31.7281 19.2517C31.7219 19.224 31.7087 19.1982 31.6898 19.1767C31.6745 19.1542 31.6363 19.1017 31.575 19.0417C31.512 18.978 31.4648 18.901 31.4371 18.8167C31.4179 18.7529 31.4229 18.6844 31.4511 18.6238C31.4792 18.5633 31.5286 18.5146 31.5903 18.4867C31.646 18.4639 31.7076 18.4587 31.7665 18.4717C31.8384 18.488 31.9063 18.5186 31.9656 18.5617C32.0728 18.6367 32.1418 18.7117 32.1647 18.8017C32.1753 18.8438 32.1767 18.8876 32.1688 18.9303C32.1609 18.9729 32.1438 19.0135 32.1187 19.0492L31.935 18.9367C31.9579 18.8917 31.9656 18.8467 31.9503 18.8092C31.9427 18.7717 31.912 18.7342 31.8583 18.7042C31.819 18.6732 31.7709 18.6549 31.7205 18.6517C31.7066 18.6512 31.6928 18.6545 31.6807 18.6611C31.6685 18.6677 31.6585 18.6774 31.6516 18.6892C31.6363 18.7117 31.6363 18.7342 31.6439 18.7642C31.6516 18.7942 31.6898 18.8542 31.7665 18.9292C31.843 19.0042 31.889 19.0717 31.9196 19.1167C31.947 19.1658 31.9593 19.2217 31.9553 19.2775C31.9512 19.3333 31.9309 19.3868 31.8967 19.4317C31.8608 19.4827 31.8101 19.5219 31.7511 19.5442C31.6937 19.5701 31.6295 19.5779 31.5673 19.5667C31.4983 19.5517 31.4294 19.5217 31.3528 19.4692C31.2379 19.3942 31.169 19.3117 31.1461 19.2217C31.1211 19.1197 31.1376 19.012 31.192 18.9217L31.1996 18.9292ZM30.3112 18.3592L30.5027 18.4567C30.4789 18.5085 30.4735 18.5666 30.4874 18.6217C30.507 18.6732 30.5451 18.7158 30.5946 18.7417C30.6559 18.7792 30.7018 18.7942 30.7477 18.7867C30.7937 18.7867 30.8243 18.7642 30.8474 18.7267C30.8589 18.7089 30.8643 18.6878 30.8626 18.6667C30.8626 18.6442 30.8474 18.6142 30.8243 18.5917C30.7851 18.5453 30.7442 18.5003 30.7018 18.4567C30.6176 18.3742 30.5639 18.3067 30.5486 18.2467C30.5361 18.2081 30.5324 18.1673 30.5376 18.1271C30.5429 18.0869 30.5572 18.0484 30.5792 18.0142C30.6083 17.968 30.6511 17.9313 30.7018 17.9092C30.7544 17.8854 30.8131 17.8776 30.8703 17.8867C30.9412 17.8984 31.0088 17.9239 31.0694 17.9617C31.1843 18.0367 31.2532 18.1117 31.2763 18.1942C31.2902 18.2363 31.2947 18.281 31.2894 18.325C31.2841 18.369 31.2692 18.4113 31.2456 18.4492L31.0541 18.3442C31.0772 18.2917 31.0848 18.2542 31.0694 18.2167C31.0541 18.1792 31.0235 18.1417 30.9699 18.1117C30.9275 18.0819 30.8765 18.0661 30.8243 18.0667C30.8118 18.0675 30.7996 18.0714 30.7889 18.0779C30.7782 18.0845 30.7693 18.0935 30.763 18.1042C30.7477 18.1267 30.7477 18.1492 30.7554 18.1792C30.763 18.2092 30.809 18.2692 30.8856 18.3442C30.9623 18.4192 31.0158 18.4792 31.0388 18.5242C31.0695 18.5712 31.0858 18.6259 31.0858 18.6817C31.0858 18.7375 31.0695 18.7922 31.0388 18.8392C31.0058 18.8915 30.9578 18.9332 30.901 18.9592C30.8435 18.9851 30.7793 18.9929 30.7172 18.9817C30.6383 18.9687 30.5628 18.9406 30.495 18.8992C30.396 18.8475 30.3197 18.7621 30.2805 18.6592C30.251 18.559 30.262 18.4516 30.3112 18.3592ZM29.2235 18.0742L29.7826 17.1742L30.4567 17.5867L30.3648 17.7367L29.8746 17.4367L29.7521 17.6392L30.2116 17.9167L30.1121 18.0667L29.6525 17.7892L29.4993 18.0367L30.0125 18.3367L29.9206 18.4867L29.2235 18.0742ZM27.638 16.7992L27.7224 16.6492L28.1359 16.8517L27.9444 17.2267C27.8831 17.2417 27.8066 17.2492 27.7147 17.2417C27.6264 17.2321 27.5407 17.2067 27.4619 17.1667C27.3692 17.1225 27.29 17.0553 27.2322 16.9717C27.1794 16.8941 27.1526 16.8023 27.1556 16.7092C27.1594 16.6123 27.1856 16.5173 27.2322 16.4317C27.2781 16.3415 27.3467 16.2641 27.4313 16.2067C27.5123 16.1519 27.6086 16.123 27.707 16.1242C27.7836 16.1242 27.8602 16.1467 27.9521 16.1992C28.0746 16.2517 28.1513 16.3267 28.1895 16.4092C28.2294 16.4911 28.2376 16.5843 28.2126 16.6717L28.0057 16.6117C28.0183 16.5615 28.0129 16.5084 27.9904 16.4617C27.9675 16.4167 27.9291 16.3867 27.8678 16.3567C27.8322 16.3368 27.7926 16.3244 27.7516 16.3206C27.7107 16.3167 27.6694 16.3213 27.6304 16.3342C27.5538 16.3567 27.4849 16.4242 27.4313 16.5292C27.3776 16.6342 27.3547 16.7317 27.3776 16.8142C27.3882 16.8533 27.4075 16.8898 27.4339 16.9208C27.4604 16.9519 27.4934 16.9769 27.5309 16.9942C27.5691 17.0167 27.6151 17.0317 27.6611 17.0317C27.7068 17.0385 27.7532 17.0385 27.7989 17.0317L27.8602 16.9117L27.638 16.7992ZM20.7294 15.1267L20.8826 14.0767L21.2042 14.1292L21.2885 14.8642L21.5873 14.1892L21.9089 14.2342L21.7557 15.2692L21.5489 15.2392L21.6791 14.4217L21.3422 15.2092L21.1353 15.1792L21.0511 14.3317L20.9285 15.1567L20.7294 15.1267ZM19.6494 14.9992L19.749 13.9492L20.5378 14.0242L20.5226 14.2042L19.9481 14.1517L19.9251 14.3767L20.4613 14.4292L20.4383 14.6092L19.9022 14.5567L19.8792 14.8417L20.4766 14.8942L20.4613 15.0742L19.6494 14.9992Z" fill="#309E3A"/>
<path d="M16.0721 14.3466C16.0721 14.2341 16.0951 14.1517 16.1258 14.0766C16.1525 14.0233 16.1889 13.9751 16.2329 13.9342C16.2722 13.8953 16.3191 13.8647 16.3709 13.8442C16.4474 13.8216 16.524 13.8066 16.6006 13.8066C16.7615 13.8066 16.884 13.8666 16.9836 13.9566C17.031 14.0139 17.0663 14.08 17.0872 14.1508C17.1083 14.2216 17.1147 14.2959 17.1062 14.3691C17.1062 14.5341 17.0525 14.6691 16.9529 14.7666C16.9018 14.8129 16.8413 14.8482 16.7753 14.8702C16.7093 14.8921 16.6394 14.9003 16.57 14.8941C16.5016 14.8948 16.4336 14.8819 16.3704 14.856C16.3072 14.8303 16.25 14.7922 16.2023 14.7442C16.1071 14.6337 16.0602 14.4907 16.0721 14.3466Z" fill="#309E3A"/>
<path d="M16.2939 14.3466C16.2939 14.459 16.317 14.549 16.3706 14.6165C16.4241 14.6765 16.4932 14.714 16.585 14.714C16.6248 14.7167 16.6646 14.7107 16.7018 14.6965C16.7388 14.6822 16.7723 14.66 16.7995 14.6315C16.8531 14.5716 16.8761 14.4815 16.8837 14.354C16.8837 14.234 16.8685 14.144 16.8072 14.084C16.7822 14.0538 16.7507 14.0294 16.7149 14.0125C16.6791 13.9956 16.64 13.9867 16.6003 13.9865C16.56 13.9852 16.5199 13.9926 16.4829 14.0082C16.4459 14.0238 16.4128 14.0471 16.3859 14.0765C16.3246 14.1365 16.3016 14.2265 16.2939 14.3466Z" fill="#F7FFFF"/>
<path d="M17.3359 14.8879L17.3512 13.8379H17.8108C17.9257 13.8379 18.0023 13.8529 18.0559 13.8754C18.1096 13.8904 18.1478 13.9279 18.1785 13.9729C18.2092 14.0179 18.2245 14.0779 18.2245 14.1454C18.2251 14.2175 18.1977 14.2872 18.1479 14.3404C18.0912 14.3923 18.0184 14.424 17.941 14.4304L18.0559 14.5204C18.0865 14.5504 18.1249 14.6104 18.1708 14.6929L18.301 14.9029H18.0406L17.8874 14.6629L17.7803 14.5129C17.7616 14.4922 17.7379 14.4767 17.7112 14.4679C17.6764 14.4579 17.6403 14.4529 17.6041 14.4529H17.5581V14.8879H17.3359Z" fill="#309E3A"/>
<path d="M17.5654 14.2876H17.7187C17.8258 14.2876 17.8947 14.2876 17.9178 14.2726C17.9407 14.2726 17.9637 14.2502 17.9791 14.2351C17.9944 14.2201 18.002 14.1826 18.002 14.1602C18.002 14.1152 17.9944 14.0851 17.9714 14.0702C17.956 14.0476 17.9254 14.0326 17.8947 14.0252H17.7416L17.5654 14.0176V14.2876Z" fill="white"/>
<path d="M18.5614 13.8906L18.9598 13.9132C19.044 13.9132 19.1129 13.9207 19.1589 13.9356C19.2185 13.9568 19.2713 13.993 19.312 14.0407C19.3562 14.0931 19.3876 14.1547 19.404 14.2207C19.4269 14.2881 19.4346 14.3707 19.4269 14.4681C19.4269 14.5447 19.414 14.6207 19.3887 14.6931C19.358 14.7682 19.3121 14.8281 19.2585 14.8731C19.2138 14.9091 19.1614 14.9348 19.1053 14.9482C19.0593 14.9631 18.9904 14.9631 18.9138 14.9631L18.5078 14.9407L18.5614 13.8906Z" fill="#309E3A"/>
<path d="M18.7678 14.0781L18.7295 14.7756H19.0206C19.0588 14.7756 19.0895 14.7606 19.1124 14.7382C19.1355 14.7156 19.1584 14.6856 19.1737 14.6406C19.1891 14.5956 19.2044 14.5281 19.2044 14.4456L19.1967 14.2581C19.1858 14.2186 19.1647 14.1824 19.1355 14.1532C19.11 14.1281 19.0783 14.11 19.0435 14.1006C18.9856 14.088 18.9266 14.0805 18.8673 14.0781H18.7678Z" fill="white"/>
<path d="M23.8164 15.7642L24.0692 14.7441L24.4062 14.8192L24.6513 14.8941C24.7048 14.9241 24.7508 14.9691 24.7739 15.0367C24.8044 15.0967 24.8044 15.1641 24.7892 15.2466C24.7739 15.3067 24.7508 15.3592 24.7126 15.3967C24.6844 15.4296 24.6493 15.4561 24.6096 15.4742C24.5699 15.4924 24.5266 15.5018 24.4828 15.5017C24.4292 15.5017 24.3526 15.4867 24.253 15.4641L24.1228 15.4266L24.0308 15.8167L23.8164 15.7642Z" fill="#309E3A"/>
<path d="M24.2302 14.9688L24.1689 15.2537L24.2838 15.2838C24.3604 15.2987 24.4217 15.3137 24.4523 15.3062C24.4821 15.3021 24.5099 15.2891 24.5319 15.2691C24.5538 15.2489 24.5688 15.2226 24.5748 15.1938C24.5748 15.1562 24.5748 15.1262 24.5595 15.0962C24.5428 15.0658 24.5157 15.0419 24.483 15.0287L24.3374 14.9912L24.2379 14.9688H24.2302Z" fill="white"/>
<path d="M24.8115 16.0584L25.1715 15.0684L25.5928 15.2184C25.7077 15.2559 25.7766 15.2934 25.8226 15.3234C25.8608 15.3609 25.8915 15.3984 25.8992 15.4584C25.9068 15.5184 25.9145 15.5709 25.8992 15.6309C25.8685 15.7059 25.8226 15.7584 25.7613 15.7959C25.7001 15.8259 25.6234 15.8334 25.5315 15.8184C25.5621 15.8559 25.5928 15.8934 25.6081 15.9384L25.6694 16.1409L25.7153 16.3734L25.4779 16.2909L25.4013 16.0209C25.3874 15.9598 25.3695 15.8997 25.3477 15.8409C25.3375 15.8175 25.3218 15.797 25.3017 15.7809C25.2864 15.7584 25.2558 15.7434 25.2022 15.7284L25.1639 15.7134L25.0107 16.1334L24.8115 16.0584Z" fill="#309E3A"/>
<path d="M25.2254 15.5561L25.3709 15.6086C25.4705 15.6461 25.5318 15.6611 25.5625 15.6611C25.5854 15.6611 25.6084 15.6611 25.6314 15.6387C25.6543 15.6236 25.6696 15.6011 25.6773 15.5711C25.6927 15.5412 25.6927 15.5111 25.6773 15.4811C25.666 15.452 25.6442 15.4281 25.616 15.4137L25.4629 15.3612L25.3096 15.3086L25.2178 15.5561H25.2254Z" fill="white"/>
<path d="M26.0668 16.0202C26.0931 15.9324 26.1374 15.8508 26.197 15.7803C26.2357 15.735 26.2824 15.6969 26.3348 15.6677C26.3823 15.6415 26.4342 15.6238 26.4881 15.6152C26.5647 15.6152 26.6412 15.6152 26.7254 15.6453C26.794 15.6618 26.858 15.6924 26.9135 15.7352C26.969 15.7778 27.0146 15.8315 27.0472 15.8927C27.1085 16.0127 27.1085 16.1552 27.0625 16.3203C27.0246 16.462 26.9309 16.5833 26.8021 16.6577C26.6872 16.7253 26.5494 16.7327 26.4038 16.6877C26.3355 16.6707 26.2716 16.6399 26.2162 16.5973C26.1608 16.5546 26.1151 16.5012 26.0821 16.4403C26.0514 16.3746 26.0343 16.3038 26.0316 16.2318C26.029 16.1597 26.0409 16.0878 26.0668 16.0202Z" fill="#309E3A"/>
<path d="M26.2817 16.08C26.2512 16.1925 26.2435 16.29 26.2817 16.365C26.3201 16.44 26.3737 16.485 26.4579 16.515C26.5345 16.5374 26.6112 16.53 26.6877 16.485C26.7643 16.4474 26.8103 16.365 26.8486 16.245C26.8868 16.1324 26.8868 16.0424 26.8486 15.9675C26.8334 15.9319 26.8105 15.9 26.7814 15.8741C26.7522 15.8481 26.7176 15.8288 26.6801 15.8174C26.6423 15.8047 26.6023 15.8002 26.5626 15.8041C26.523 15.808 26.4847 15.8202 26.4503 15.84C26.3737 15.885 26.3201 15.96 26.2817 16.08Z" fill="white"/>
<path d="M28.1592 17.4828L28.6494 16.5527L29.0554 16.7553C29.1318 16.7912 29.2017 16.8394 29.2621 16.8978C29.3005 16.9353 29.3234 16.9803 29.3234 17.0403C29.3234 17.1003 29.3234 17.1528 29.2927 17.2053C29.2633 17.2727 29.2084 17.3264 29.1396 17.3552C29.063 17.3703 28.9863 17.3703 28.9021 17.3403C28.9328 17.3853 28.9481 17.4303 28.9634 17.4678C28.9787 17.5128 28.9863 17.5803 28.9941 17.6777L29.0094 17.9178L28.7796 17.8052L28.749 17.5278C28.7453 17.4649 28.7376 17.4022 28.7259 17.3403C28.7207 17.3122 28.7074 17.2862 28.6877 17.2653L28.5957 17.2128L28.5574 17.1903L28.3506 17.5803L28.1592 17.4828Z" fill="#309E3A"/>
<path d="M28.6338 17.0408L28.7793 17.1158C28.8711 17.1608 28.9325 17.1907 28.9555 17.1907C28.9784 17.1907 29.0091 17.1907 29.032 17.1758C29.0551 17.1683 29.0704 17.1457 29.0857 17.1158C29.1009 17.0858 29.1086 17.0557 29.1009 17.0258C29.0915 16.9959 29.0728 16.9697 29.0473 16.9508C29.0025 16.9238 28.9565 16.8988 28.9095 16.8757L28.7563 16.8008L28.6338 17.0408Z" fill="white"/>
<path d="M32.1274 19.4018C32.177 19.3246 32.2422 19.2582 32.3189 19.2067C32.3704 19.1744 32.4276 19.1516 32.4874 19.1392C32.543 19.1281 32.6003 19.1281 32.6559 19.1392C32.7325 19.1542 32.8014 19.1842 32.8704 19.2292C32.93 19.2656 32.9812 19.3137 33.0208 19.3705C33.0603 19.4273 33.0874 19.4916 33.1001 19.5592C33.1232 19.6867 33.0848 19.8292 32.993 19.9717C32.916 20.0957 32.7921 20.1847 32.6482 20.2192C32.5796 20.2337 32.5087 20.2338 32.4401 20.2196C32.3715 20.2054 32.3067 20.1772 32.2499 20.1367C32.1903 20.1003 32.1391 20.0522 32.0995 19.9954C32.06 19.9386 32.033 19.8743 32.0202 19.8068C31.9972 19.6718 32.0355 19.5368 32.1274 19.4018Z" fill="#309E3A"/>
<path d="M32.3192 19.5221C32.2426 19.6196 32.2196 19.7096 32.2349 19.7921C32.2406 19.8301 32.2544 19.8664 32.2755 19.8988C32.2967 19.9311 32.3246 19.9586 32.3575 19.9796C32.4341 20.032 32.5107 20.047 32.5873 20.0246C32.6639 20.002 32.7404 19.9495 32.8094 19.8446C32.8784 19.7395 32.909 19.6495 32.8937 19.5746C32.886 19.4995 32.84 19.4321 32.7711 19.3795C32.7022 19.327 32.6179 19.3195 32.5413 19.3421C32.4647 19.357 32.3882 19.417 32.3115 19.5221H32.3192Z" fill="white"/>
<path d="M22.6055 15.3365L22.7816 14.6016L23.3331 14.7291L23.3102 14.849L22.9042 14.759L22.866 14.924L23.2413 15.0066L23.2106 15.1341L22.8353 15.0441L22.7893 15.2465L23.2106 15.344L23.18 15.464L22.6055 15.3365Z" fill="#309E3A"/>
</g>
<g clip-path="url(#clip1_35_34643)">
<path d="M53 0H-1V36H53V0Z" fill="#FF0000"/>
<path d="M20.6 0H-1V36H20.6V0Z" fill="#006600"/>
<path fill-rule="evenodd" clip-rule="evenodd" d="M27.6412 23.5837C24.9223 23.5018 12.4546 15.7195 12.3691 14.4802L13.0576 13.332C14.2943 15.129 27.04 22.6974 28.2919 22.4292L27.6412 23.5833" fill="#FFFF00"/>
<path d="M27.6412 23.5837C24.9223 23.5018 12.4546 15.7195 12.3691 14.4802L13.0576 13.332C14.2943 15.129 27.04 22.6974 28.2919 22.4292L27.6412 23.5833" stroke="black" stroke-width="0.05157" stroke-linecap="round" stroke-linejoin="round"/>
<path fill-rule="evenodd" clip-rule="evenodd" d="M12.9131 13.1766C12.6692 13.833 16.1666 15.9952 20.3744 18.5545C24.5821 21.1135 28.2103 22.695 28.4792 22.4682C28.4956 22.4389 28.6115 22.2395 28.6009 22.2411C28.5505 22.3171 28.4278 22.341 28.2363 22.2859C27.0995 21.958 24.1346 20.597 20.4627 18.3703C16.7908 16.1435 13.5962 14.0914 13.0997 13.2195C13.0651 13.159 13.0405 13.0488 13.0455 12.9631L13.0335 12.9629L12.9277 13.1477L12.9132 13.1767L12.9131 13.1766ZM27.7056 23.6202C27.6594 23.7039 27.5735 23.7066 27.4102 23.6887C26.3932 23.5761 23.3072 22.0754 19.6556 19.8895C15.4067 17.3461 11.8976 15.0286 12.2783 14.4229L12.3819 14.2398L12.4023 14.2462C12.06 15.2726 19.3276 19.4282 19.7555 19.6931C23.9606 22.2984 27.5058 23.8197 27.8196 23.4244L27.7054 23.6207V23.6205L27.7056 23.6202Z" fill="#FFFF00" stroke="black" stroke-width="0.05157" stroke-linecap="round" stroke-linejoin="round"/>
<path fill-rule="evenodd" clip-rule="evenodd" d="M20.6152 15.231C23.3365 15.2094 26.6947 14.8591 28.6273 14.0889L28.2109 13.4123C27.0686 14.0446 23.692 14.4603 20.5922 14.5225C16.926 14.4888 14.3381 14.1474 13.0415 13.2773L12.6484 13.9977C15.032 15.0064 17.4745 15.2205 20.6152 15.231Z" fill="#FFFF00" stroke="black" stroke-width="0.05157" stroke-linecap="round" stroke-linejoin="round"/>
<path fill-rule="evenodd" clip-rule="evenodd" d="M28.7394 14.104C28.6729 14.2104 27.4126 14.6451 25.5559 14.9658C24.297 15.1577 22.6548 15.3218 20.6055 15.3238C18.6585 15.3256 17.0681 15.187 15.864 15.0238C13.9149 14.7182 12.909 14.293 12.5371 14.1428C12.5727 14.0721 12.5955 14.0224 12.6298 13.9564C13.7004 14.3826 14.711 14.6397 15.8949 14.8218C17.0911 14.9838 18.6624 15.1244 20.5998 15.1226C22.6395 15.1205 24.2636 14.944 25.5152 14.7578C27.4192 14.4507 28.4592 14.0555 28.6053 13.8719L28.7397 14.104H28.7395H28.7394ZM28.374 13.418C28.1677 13.5837 27.1394 13.9484 25.3303 14.2373C24.123 14.4103 22.5878 14.5652 20.6265 14.5671C18.7631 14.5689 17.2408 14.4434 16.0828 14.2747C14.2456 14.0348 13.2677 13.6019 12.9152 13.4757C12.9503 13.4151 12.986 13.3549 13.0226 13.2945C13.297 13.4326 14.2406 13.8157 16.103 14.0795C17.2478 14.2418 18.7725 14.3628 20.6266 14.3609C22.5787 14.3589 24.0963 14.201 25.296 14.029C27.1145 13.7788 28.093 13.3137 28.2416 13.1973L28.3741 13.4178L28.374 13.418Z" fill="#FFFF00" stroke="black" stroke-width="0.05157" stroke-linecap="round" stroke-linejoin="round"/>
<path fill-rule="evenodd" clip-rule="evenodd" d="M11.679 18.5099C13.3528 19.4101 17.0704 19.8638 20.5885 19.8951C23.7916 19.9001 27.9647 19.3999 29.5252 18.573L29.4822 17.6719C28.994 18.4348 24.5221 19.1667 20.5537 19.1367C16.5853 19.1068 12.9003 18.4939 11.6719 17.7004L11.679 18.5096" fill="#FFFF00"/>
<path d="M11.679 18.5099C13.3528 19.4101 17.0704 19.8638 20.5885 19.8951C23.7916 19.9001 27.9647 19.3999 29.5252 18.573L29.4822 17.6719C28.994 18.4348 24.5221 19.1667 20.5537 19.1367C16.5853 19.1068 12.9003 18.4939 11.6719 17.7004L11.679 18.5096" stroke="black" stroke-width="0.05157" stroke-linecap="round" stroke-linejoin="round"/>
<path fill-rule="evenodd" clip-rule="evenodd" d="M29.6105 18.3794L29.6105 18.5943C29.376 18.8747 27.9054 19.2986 26.0612 19.5971C24.6577 19.8122 22.8278 19.9746 20.5476 19.9746C18.3814 19.9746 16.654 19.8201 15.3143 19.6144C13.1967 19.3061 11.8422 18.7661 11.5703 18.6049L11.5715 18.3542C12.3882 18.8972 14.601 19.2945 15.344 19.4161C16.675 19.6204 18.3922 19.7736 20.5476 19.7736C22.817 19.7736 24.6366 19.6124 26.0314 19.3987C27.3544 19.2075 29.2393 18.7105 29.6104 18.3795L29.6105 18.3794ZM29.6114 17.6151L29.6114 17.83C29.3769 18.1103 27.9063 18.5341 26.0621 18.8326C24.6586 19.0478 22.8287 19.2101 20.5485 19.2101C18.3823 19.2101 16.6549 19.0558 15.3152 18.85C13.1976 18.5417 11.8431 18.0017 11.5712 17.8405L11.5724 17.5898C12.3891 18.1328 14.6019 18.5301 15.3449 18.6515C16.6759 18.856 18.3931 19.0093 20.5485 19.0093C22.8179 19.0093 24.6375 18.848 26.0323 18.6341C27.3553 18.443 29.2402 17.9459 29.6113 17.6149L29.6114 17.6151Z" fill="#FFFF00" stroke="black" stroke-width="0.05157" stroke-linecap="round" stroke-linejoin="round"/>
<path fill-rule="evenodd" clip-rule="evenodd" d="M20.5807 23.4288C16.7312 23.4058 13.4328 22.3795 12.7363 22.2098L13.2442 23.0049C14.4745 23.5224 17.6924 24.2937 20.6177 24.2083C23.543 24.123 26.0996 23.8964 27.9012 23.0193L28.4219 22.1953C27.1942 22.7736 23.0159 23.4228 20.5807 23.4288Z" fill="#FFFF00" stroke="black" stroke-width="0.05157" stroke-linecap="round" stroke-linejoin="round"/>
<path fill-rule="evenodd" clip-rule="evenodd" d="M28.0963 22.8348C28.0198 22.9517 27.9418 23.0672 27.8626 23.1794C27.0129 23.4791 25.6739 23.7936 25.1089 23.8854C23.9547 24.1232 22.169 24.2988 20.5842 24.2996C17.1741 24.2497 14.3828 23.5822 13.0696 23.0127L12.9636 22.8306L12.9809 22.8032L13.1606 22.8729C15.496 23.7084 18.1188 24.0417 20.6035 24.1016C22.1819 24.1071 23.762 23.9207 25.0397 23.6921C26.9991 23.2995 27.7914 23.0036 28.0345 22.8695L28.0963 22.8348ZM28.5478 22.09C28.5498 22.0923 28.5518 22.0945 28.5537 22.097C28.4965 22.1936 28.4375 22.2919 28.3771 22.3906C27.9239 22.5526 26.6939 22.9125 24.8978 23.1636C23.7144 23.3248 22.9788 23.481 20.6247 23.5267C16.2134 23.4144 13.3572 22.5519 12.6787 22.3391L12.5781 22.1463C15.1347 22.8136 17.7461 23.2795 20.6248 23.3271C22.7786 23.2813 23.6949 23.1227 24.8685 22.9627C26.9629 22.637 28.0182 22.2922 28.3349 22.1926C28.3309 22.1869 28.3262 22.1809 28.321 22.1747L28.5481 22.0898L28.5478 22.09Z" fill="#FFFF00" stroke="black" stroke-width="0.0495" stroke-linecap="round" stroke-linejoin="round"/>
<path fill-rule="evenodd" clip-rule="evenodd" d="M28.594 17.7977C28.6064 20.3301 27.3106 22.6025 26.2667 23.605C24.79 25.0233 22.8321 25.9356 20.5455 25.9777C17.9922 26.0246 15.5847 24.36 14.939 23.6287C13.6765 22.1991 12.6486 20.3836 12.6156 17.9369C12.772 15.1731 13.857 13.2479 15.4298 11.9277C17.0025 10.6075 19.0966 9.96449 20.8406 10.0105C22.8529 10.0636 25.2034 11.0507 26.8275 13.0104C27.8916 14.2943 28.3524 15.6877 28.594 17.7977ZM20.5672 9.12695C25.4709 9.12695 29.5039 13.1174 29.5039 18.0102C29.5039 22.903 25.4709 26.8936 20.5672 26.8936C15.6636 26.8936 11.6641 22.9031 11.6641 18.0102C11.6641 13.1174 15.6636 9.12695 20.5672 9.12695Z" fill="#FFFF00" stroke="black" stroke-width="0.05157" stroke-linecap="round" stroke-linejoin="round"/>
<path fill-rule="evenodd" clip-rule="evenodd" d="M20.5917 9.09766C25.4997 9.09766 29.5026 13.1011 29.5026 18.0096C29.5026 22.9181 25.4996 26.9214 20.5917 26.9214C15.6836 26.9214 11.6807 22.9181 11.6807 18.0096C11.6807 13.1011 15.6837 9.09766 20.5917 9.09766ZM11.8768 18.0097C11.8768 22.8031 15.813 26.7255 20.5917 26.7255C25.3704 26.7255 29.3066 22.8031 29.3066 18.0097C29.3066 13.2161 25.3703 9.29371 20.5917 9.29371C15.813 9.29371 11.8768 13.2163 11.8768 18.0097Z" fill="#FFFF00" stroke="black" stroke-width="0.05157" stroke-linecap="round" stroke-linejoin="round"/>
<path fill-rule="evenodd" clip-rule="evenodd" d="M20.5989 9.83789C25.0747 9.83789 28.7613 13.5118 28.7613 18.0013C28.7613 22.4908 25.0746 26.1645 20.5989 26.1645C16.1232 26.1645 12.4365 22.4908 12.4365 18.0013C12.4365 13.5118 16.1233 9.83789 20.5989 9.83789ZM12.6325 18.0012C12.6325 22.3828 16.2307 25.9684 20.5989 25.9684C24.9671 25.9684 28.5652 22.3828 28.5652 18.0012C28.5652 13.6195 24.9672 10.0339 20.5989 10.0339C16.2307 10.0339 12.6325 13.6195 12.6325 18.0012Z" fill="#FFFF00" stroke="black" stroke-width="0.05157" stroke-linecap="round" stroke-linejoin="round"/>
<path fill-rule="evenodd" clip-rule="evenodd" d="M20.958 9.06055H20.1943L20.1952 26.9669H20.9615L20.958 9.06055Z" fill="#FFFF00" stroke="black" stroke-width="0.05157" stroke-linecap="round" stroke-linejoin="round"/>
<path fill-rule="evenodd" clip-rule="evenodd" d="M20.881 8.95898H21.0753L21.077 27.0715H20.8825L20.881 8.95898ZM20.123 8.95915H20.3189L20.3192 27.0716H20.1232V8.95915H20.123Z" fill="#FFFF00" stroke="black" stroke-width="0.05157" stroke-linecap="round" stroke-linejoin="round"/>
<path fill-rule="evenodd" clip-rule="evenodd" d="M29.5088 18.3539V17.6919L28.9697 17.1897L25.9097 16.3797L21.4997 15.9297L16.1897 16.1997L12.4097 17.0997L11.6465 17.6649V18.327L13.5797 17.4597L18.1697 16.7397H22.5797L25.8197 17.0997L28.0697 17.6397L29.5088 18.3539Z" fill="#FFFF00" stroke="black" stroke-width="0.05157" stroke-linecap="round" stroke-linejoin="round"/>
<path fill-rule="evenodd" clip-rule="evenodd" d="M20.5951 16.6296C22.6995 16.6257 24.7414 16.829 26.3609 17.1443C28.0321 17.4784 29.2083 17.8963 29.6104 18.3657L29.6099 18.5981C29.125 18.014 27.5424 17.5858 26.3233 17.341C24.7161 17.0283 22.6879 16.8265 20.5951 16.8304C18.3867 16.8345 16.3302 17.0437 14.7465 17.3527C13.4757 17.6048 11.7809 18.1058 11.5693 18.5999V18.3579C11.6855 18.0159 12.9475 17.5048 14.7179 17.1504C16.3135 16.8392 18.3737 16.6336 20.5951 16.6296ZM20.596 15.8653C22.7004 15.8615 24.7423 16.0648 26.3618 16.38C28.033 16.7143 29.2092 17.132 29.6113 17.6014L29.6108 17.8338C29.1259 17.2499 27.5433 16.8216 26.3242 16.5769C24.717 16.2641 22.6888 16.0622 20.596 16.0663C18.3876 16.0702 16.3411 16.2795 14.7572 16.5884C13.5309 16.8209 11.7669 17.3417 11.5701 17.8358V17.5936C11.6863 17.2553 12.9739 16.7259 14.7188 16.3861C16.3144 16.0749 18.3746 15.8695 20.596 15.8653Z" fill="#FFFF00" stroke="black" stroke-width="0.05157" stroke-linecap="round" stroke-linejoin="round"/>
<path fill-rule="evenodd" clip-rule="evenodd" d="M20.5531 11.9653C23.8695 11.9487 26.7622 12.429 28.0856 13.1069L28.5684 13.942C27.4181 13.3221 24.2973 12.6775 20.5579 12.7739C17.5111 12.7926 14.2555 13.1093 12.6221 13.9808L13.1984 13.017C14.5389 12.3218 17.7004 11.9691 20.5532 11.9654" fill="#FFFF00"/>
<path d="M20.5531 11.9653C23.8695 11.9487 26.7622 12.429 28.0856 13.1069L28.5684 13.942C27.4181 13.3221 24.2973 12.6775 20.5579 12.7739C17.5111 12.7926 14.2555 13.1093 12.6221 13.9808L13.1984 13.017C14.5389 12.3218 17.7004 11.9691 20.5532 11.9654" stroke="black" stroke-width="0.05157" stroke-linecap="round" stroke-linejoin="round"/>
<path fill-rule="evenodd" clip-rule="evenodd" d="M20.5966 12.6563C22.4882 12.6513 24.3159 12.758 25.7695 13.0203C27.1232 13.2722 28.4141 13.6503 28.5987 13.8537L28.7418 14.1066C28.2929 13.8135 27.1757 13.4871 25.7413 13.215C24.3008 12.9443 22.4743 12.8546 20.5933 12.8595C18.4583 12.8522 16.7996 12.9649 15.3761 13.2131C13.8706 13.4948 12.826 13.8973 12.5684 14.0885L12.7086 13.8212C13.2093 13.5657 14.0037 13.2578 15.3387 13.0175C16.8108 12.7486 18.4871 12.6679 20.5967 12.6563L20.5966 12.6563ZM20.5958 11.8927C22.406 11.888 24.1933 11.9889 25.5865 12.2393C26.6853 12.4532 27.772 12.7871 28.1699 13.0843L28.3792 13.4169C28.0233 13.0214 26.6839 12.6466 25.5015 12.4366C24.119 12.1982 22.4059 12.1038 20.5958 12.0887C18.6961 12.094 16.9404 12.2104 15.5781 12.4585C14.2784 12.7058 13.4397 12.9986 13.0848 13.2273L13.2689 12.9495C13.7586 12.6917 14.5498 12.4549 15.5462 12.2613C16.9186 12.0114 18.6849 11.8981 20.5958 11.8927Z" fill="#FFFF00" stroke="black" stroke-width="0.05157" stroke-linecap="round" stroke-linejoin="round"/>
<path fill-rule="evenodd" clip-rule="evenodd" d="M25.0228 21.714C23.3832 21.4079 21.7406 21.3634 20.5933 21.3769C15.0667 21.4417 13.2813 22.5118 13.0634 22.8358L12.6504 22.1624C14.0575 21.1425 17.067 20.5706 20.6232 20.6291C22.4698 20.6593 24.0634 20.782 25.4039 21.0416L25.0227 21.7141" fill="#FFFF00"/>
<path d="M25.0228 21.714C23.3832 21.4079 21.7406 21.3634 20.5933 21.3769C15.0667 21.4417 13.2813 22.5118 13.0634 22.8358L12.6504 22.1624C14.0575 21.1425 17.067 20.5706 20.6232 20.6291C22.4698 20.6593 24.0634 20.782 25.4039 21.0416L25.0227 21.7141" stroke="black" stroke-width="0.05157" stroke-linecap="round" stroke-linejoin="round"/>
<path fill-rule="evenodd" clip-rule="evenodd" d="M20.5614 21.2815C22.0988 21.3044 23.6078 21.3679 25.0644 21.6395L24.9589 21.8258C23.6061 21.576 22.164 21.4805 20.5666 21.4883C18.527 21.4723 16.464 21.6628 14.6679 22.1783C14.1012 22.336 13.1631 22.7003 13.0674 23.0014L12.9625 22.8284C12.9927 22.6504 13.5597 22.2811 14.6197 21.9832C16.6769 21.3941 18.6012 21.2948 20.5614 21.2813L20.5614 21.2815ZM20.6312 20.5078C22.224 20.5376 23.8689 20.6112 25.4678 20.928L25.3579 21.1218C23.9141 20.8352 22.5347 20.7396 20.6406 20.7105C18.5944 20.7142 16.424 20.8601 14.4506 21.4338C13.8134 21.6194 12.7138 22.0206 12.6772 22.3383L12.5723 22.1524C12.5962 21.8639 13.548 21.4875 14.4045 21.2384C16.3931 20.6602 18.5692 20.5115 20.6312 20.5078Z" fill="#FFFF00" stroke="black" stroke-width="0.0495" stroke-linecap="round" stroke-linejoin="round"/>
<path fill-rule="evenodd" clip-rule="evenodd" d="M28.4817 22.2632L27.8176 23.2936L25.9095 21.599L20.9595 18.269L15.3795 15.209L12.4824 14.2181L13.0998 13.0733L13.3095 12.959L15.1095 13.409L21.0495 16.469L24.4695 18.629L27.3495 20.699L28.5195 22.049L28.4817 22.2632Z" fill="#FFFF00" stroke="black" stroke-width="0.05157" stroke-linecap="round" stroke-linejoin="round"/>
<path fill-rule="evenodd" clip-rule="evenodd" d="M12.3778 14.2454C12.886 13.9008 16.6204 15.5644 20.5278 17.9205C24.4249 20.2833 28.1487 22.9534 27.8126 23.453L27.702 23.627L27.6513 23.667C27.6622 23.6592 27.7182 23.5907 27.6458 23.4054C27.4798 22.8591 24.8383 20.7512 20.4554 18.1049C16.1826 15.5571 12.6217 14.0215 12.2656 14.4604L12.3778 14.2454ZM28.6175 22.2488C28.9388 21.6142 25.475 19.0049 21.1806 16.4644C16.7874 13.9744 13.6211 12.5088 13.0428 12.9458L12.9143 13.1797C12.9132 13.1926 12.9189 13.1638 12.9461 13.1428C13.0513 13.0511 13.2256 13.0573 13.3042 13.0558C14.3001 13.0708 17.1443 14.3796 21.1348 16.6674C22.8833 17.6857 28.5212 21.3015 28.4996 22.3184C28.5012 22.4058 28.5069 22.4238 28.474 22.467L28.6175 22.2488Z" fill="#FFFF00"/>
<path d="M28.6175 22.2488C28.9388 21.6142 25.475 19.0049 21.1806 16.4644C16.7874 13.9744 13.6211 12.5088 13.0428 12.9458L12.9143 13.1797C12.9132 13.1926 12.9189 13.1638 12.9461 13.1428C13.0513 13.0511 13.2256 13.0573 13.3042 13.0558C14.3001 13.0708 17.1443 14.3796 21.1348 16.6674C22.8833 17.6857 28.5212 21.3015 28.4996 22.3184C28.5012 22.4058 28.5069 22.4238 28.474 22.467L28.6175 22.2488ZM28.6175 22.2488L28.6174 22.2487M12.3778 14.2454C12.886 13.9008 16.6204 15.5644 20.5278 17.9205C24.4249 20.2833 28.1487 22.9534 27.8126 23.453L27.702 23.627L27.6513 23.667C27.6622 23.6592 27.7182 23.5907 27.6458 23.4054C27.4798 22.8591 24.8383 20.7512 20.4554 18.1049C16.1826 15.5571 12.6217 14.0215 12.2656 14.4604L12.3778 14.2454Z" stroke="black" stroke-width="0.05157" stroke-linecap="round" stroke-linejoin="round"/>
<path d="M15.2542 18.9905C15.2542 20.4549 15.8538 21.7793 16.8253 22.7473C17.7987 23.7173 19.1214 24.3294 20.5881 24.3294C22.0624 24.3294 23.4004 23.7307 24.3696 22.7644C25.3388 21.7982 25.9394 20.4647 25.9397 18.9952H25.9395V11.8682L15.2529 11.8555L15.254 18.9905L15.2542 18.9905Z" fill="white" stroke="black" stroke-width="0.0603333" stroke-linejoin="bevel"/>
<path d="M15.4543 19.0011V19.0052C15.4543 20.4053 16.034 21.6803 16.964 22.606C17.8959 23.5334 19.1793 24.1101 20.5833 24.1101C21.9946 24.1101 23.2753 23.5376 24.2032 22.6137C25.131 21.6899 25.706 20.4147 25.7062 19.0098H25.706V12.0954L15.4604 12.0938L15.4541 19.0011M23.6461 14.1638L23.6464 18.564L23.6427 19.0295C23.6427 19.152 23.6354 19.2916 23.6211 19.4105C23.5379 20.1061 23.2179 20.7125 22.7441 21.1842C22.1893 21.7364 21.4237 22.0789 20.5798 22.0789C19.7404 22.0789 18.9923 21.7245 18.4352 21.1699C17.8638 20.6011 17.5325 19.8212 17.5325 19.0147L17.5313 14.1526L23.6459 14.1636L23.6461 14.1638Z" fill="#FF0000"/>
<path d="M15.4543 19.0011V19.0052C15.4543 20.4053 16.034 21.6803 16.964 22.606C17.8959 23.5334 19.1793 24.1101 20.5833 24.1101C21.9946 24.1101 23.2753 23.5376 24.2032 22.6137C25.131 21.6899 25.706 20.4147 25.7062 19.0098H25.706V12.0954L15.4604 12.0938L15.4541 19.0011M23.6461 14.1638L23.6464 18.564L23.6427 19.0295C23.6427 19.152 23.6354 19.2916 23.6211 19.4105C23.5379 20.1061 23.2179 20.7125 22.7441 21.1842C22.1893 21.7364 21.4237 22.0789 20.5798 22.0789C19.7404 22.0789 18.9923 21.7245 18.4352 21.1699C17.8638 20.6011 17.5325 19.8212 17.5325 19.0147L17.5313 14.1526L23.6459 14.1636L23.6461 14.1638Z" stroke="black" stroke-width="0.0456606"/>
<path d="M16.1172 13.8995C16.1293 13.4026 16.4819 13.285 16.4844 13.2832C16.487 13.2816 16.8653 13.4099 16.864 13.9041L16.1172 13.8995Z" fill="#FFFF00"/>
<path d="M15.8133 13.2907L15.752 13.8617L16.1246 13.8625C16.1282 13.3901 16.4823 13.3115 16.4908 13.3132C16.4988 13.3128 16.8498 13.4177 16.8592 13.8625H17.2328L17.1653 13.2871L15.8133 13.2905L15.8133 13.2907Z" fill="#FFFF00" stroke="black" stroke-width="0.045"/>
<path d="M15.7264 13.8652H17.2515C17.2837 13.8652 17.3099 13.897 17.3099 13.9358C17.3099 13.9745 17.2837 14.0061 17.2515 14.0061H15.7264C15.6942 14.0061 15.668 13.9745 15.668 13.9358C15.668 13.897 15.6942 13.8652 15.7264 13.8652Z" fill="#FFFF00" stroke="black" stroke-width="0.045"/>
<path d="M16.2812 13.8628C16.2829 13.5647 16.4848 13.4803 16.4859 13.4805C16.486 13.4805 16.6967 13.5675 16.6984 13.8628H16.2812Z" fill="#FFFF00" stroke="black" stroke-width="0.045"/>
<path d="M15.7592 13.0547H17.2212C17.252 13.0547 17.2772 13.0833 17.2772 13.1181C17.2772 13.153 17.252 13.1815 17.2212 13.1815H15.7592C15.7284 13.1815 15.7031 13.1531 15.7031 13.1181C15.7031 13.0833 15.7284 13.0547 15.7592 13.0547Z" fill="#FFFF00" stroke="black" stroke-width="0.045"/>
<path d="M15.7899 13.1816H17.1883C17.2178 13.1816 17.2419 13.2101 17.2419 13.245C17.2419 13.2799 17.2178 13.3084 17.1883 13.3084H15.7899C15.7605 13.3084 15.7363 13.2799 15.7363 13.245C15.7363 13.2101 15.7605 13.1816 15.7899 13.1816Z" fill="#FFFF00" stroke="black" stroke-width="0.045"/>
<path d="M16.2413 12.2301L16.3518 12.2303V12.3087H16.4323V12.2285L16.5454 12.2289V12.3087H16.6262V12.2286H16.7394L16.7392 12.4096C16.7392 12.438 16.7164 12.4564 16.6899 12.4564H16.2928C16.2662 12.4564 16.2416 12.4351 16.2415 12.4091L16.2412 12.2301L16.2413 12.2301Z" fill="#FFFF00" stroke="black" stroke-width="0.045"/>
<path d="M16.6573 12.4703L16.6822 13.0509L16.2949 13.0495L16.3206 12.4688L16.6573 12.4703Z" fill="#FFFF00" stroke="black" stroke-width="0.045"/>
<path d="M16.1847 12.7402L16.1965 13.0532L15.8252 13.0534L15.8357 12.7403L16.1847 12.7402Z" fill="#FFFF00" stroke="black" stroke-width="0.045"/>
<path d="M17.1388 12.7402L17.1506 13.0532L16.7793 13.0534L16.7898 12.7403L17.1388 12.7402Z" fill="#FFFF00" stroke="black" stroke-width="0.045"/>
<path d="M15.7667 12.5133L15.8747 12.5135V12.592H15.9537V12.5117L16.0643 12.5121V12.5921H16.1434V12.5118L16.2542 12.5119L16.254 12.693C16.254 12.7213 16.2316 12.7397 16.2057 12.7397H15.8172C15.7912 12.7397 15.767 12.7185 15.7669 12.6924L15.7666 12.5134L15.7667 12.5133Z" fill="#FFFF00" stroke="black" stroke-width="0.045"/>
<path d="M16.7218 12.5133L16.8298 12.5135V12.592H16.9087V12.5117L17.0194 12.5121V12.5921H17.0985V12.5118L17.2092 12.5119L17.2091 12.693C17.2091 12.7213 17.1867 12.7397 17.1608 12.7397H16.7723C16.7462 12.7397 16.722 12.7185 16.722 12.6924L16.7217 12.5134L16.7218 12.5133Z" fill="#FFFF00" stroke="black" stroke-width="0.045"/>
<path d="M16.4512 12.6539C16.4488 12.5975 16.5301 12.5968 16.5292 12.6539V12.7922H16.4512L16.4512 12.6539Z" fill="black"/>
<path d="M15.9717 12.8558C15.9714 12.8012 16.047 12.8001 16.0461 12.8558V12.9626H15.9717L15.9717 12.8558Z" fill="black"/>
<path d="M16.9287 12.8558C16.9284 12.8012 17.004 12.8001 17.0031 12.8558V12.9626H16.9287L16.9287 12.8558Z" fill="black"/>
<path d="M16.1172 18.0675C16.1293 17.5706 16.4819 17.4529 16.4844 17.4512C16.487 17.4495 16.8653 17.5779 16.864 18.0721L16.1172 18.0675Z" fill="#FFFF00"/>
<path d="M15.8133 17.4606L15.752 18.0316L16.1246 18.0324C16.1282 17.56 16.4823 17.4814 16.4908 17.4831C16.4988 17.4827 16.8498 17.5876 16.8592 18.0324H17.2328L17.1653 17.457L15.8133 17.4604L15.8133 17.4606Z" fill="#FFFF00" stroke="black" stroke-width="0.045"/>
<path d="M15.7264 18.0332H17.2515C17.2837 18.0332 17.3099 18.065 17.3099 18.1038C17.3099 18.1425 17.2837 18.1741 17.2515 18.1741H15.7264C15.6942 18.1741 15.668 18.1425 15.668 18.1038C15.668 18.065 15.6942 18.0332 15.7264 18.0332Z" fill="#FFFF00" stroke="black" stroke-width="0.045"/>
<path d="M16.2812 18.0308C16.2829 17.7327 16.4848 17.6483 16.4859 17.6484C16.486 17.6484 16.6967 17.7354 16.6984 18.0308H16.2812Z" fill="#FFFF00" stroke="black" stroke-width="0.045"/>
<path d="M15.7592 17.2227H17.2212C17.252 17.2227 17.2772 17.2513 17.2772 17.2861C17.2772 17.3209 17.252 17.3495 17.2212 17.3495H15.7592C15.7284 17.3495 15.7031 17.3211 15.7031 17.2861C15.7031 17.2513 15.7284 17.2227 15.7592 17.2227Z" fill="#FFFF00" stroke="black" stroke-width="0.045"/>
<path d="M15.7899 17.3516H17.1883C17.2178 17.3516 17.2419 17.3801 17.2419 17.4149C17.2419 17.4498 17.2178 17.4783 17.1883 17.4783H15.7899C15.7605 17.4783 15.7363 17.4498 15.7363 17.4149C15.7363 17.3801 15.7605 17.3516 15.7899 17.3516Z" fill="#FFFF00" stroke="black" stroke-width="0.045"/>
<path d="M16.2413 16.3981L16.3518 16.3982V16.4767H16.4323V16.3965L16.5454 16.3968V16.4767H16.6262V16.3965H16.7394L16.7392 16.5776C16.7392 16.606 16.7164 16.6244 16.6899 16.6244H16.2928C16.2662 16.6244 16.2416 16.6031 16.2415 16.577L16.2412 16.3981L16.2413 16.3981Z" fill="#FFFF00" stroke="black" stroke-width="0.045"/>
<path d="M16.6573 16.6402L16.6822 17.2208L16.2949 17.2194L16.3206 16.6387L16.6573 16.6402Z" fill="#FFFF00" stroke="black" stroke-width="0.045"/>
<path d="M16.1847 16.9102L16.1965 17.2231L15.8252 17.2233L15.8357 16.9102L16.1847 16.9102Z" fill="#FFFF00" stroke="black" stroke-width="0.045"/>
<path d="M17.1388 16.9102L17.1506 17.2231L16.7793 17.2233L16.7898 16.9102L17.1388 16.9102Z" fill="#FFFF00" stroke="black" stroke-width="0.045"/>
<path d="M15.7667 16.6812L15.8747 16.6815V16.76H15.9537V16.6797L16.0643 16.68V16.7601H16.1434V16.6797L16.2542 16.6799L16.254 16.861C16.254 16.8892 16.2316 16.9076 16.2057 16.9076H15.8172C15.7912 16.9076 15.767 16.8864 15.7669 16.8603L15.7666 16.6813L15.7667 16.6812Z" fill="#FFFF00" stroke="black" stroke-width="0.045"/>
<path d="M16.7218 16.6812L16.8298 16.6815V16.76H16.9087V16.6797L17.0194 16.68V16.7601H17.0985V16.6797L17.2092 16.6799L17.2091 16.861C17.2091 16.8892 17.1867 16.9076 17.1608 16.9076H16.7723C16.7462 16.9076 16.722 16.8864 16.722 16.8603L16.7217 16.6813L16.7218 16.6812Z" fill="#FFFF00" stroke="black" stroke-width="0.045"/>
<path d="M16.4512 16.8238C16.4488 16.7674 16.5301 16.7667 16.5292 16.8238V16.9621H16.4512L16.4512 16.8238Z" fill="black"/>
<path d="M15.9707 17.0237C15.9704 16.9692 16.046 16.9681 16.0451 17.0237V17.1306H15.9707L15.9707 17.0237Z" fill="black"/>
<path d="M16.9287 17.0237C16.9284 16.9692 17.004 16.9681 17.0031 17.0237V17.1306H16.9287L16.9287 17.0237Z" fill="black"/>
<path d="M17.742 22.4088C17.398 22.0501 17.5629 21.7171 17.5635 21.714C17.5641 21.711 17.9217 21.533 18.2715 21.8822L17.742 22.4088Z" fill="#FFFF00"/>
<path d="M17.0975 22.1972L17.4595 22.6431L17.7226 22.3793C17.3899 22.0439 17.5836 21.7372 17.5909 21.7324C17.5962 21.7264 17.918 21.5512 18.2402 21.858L18.5035 21.5929L18.0476 21.2354L17.0974 22.1971L17.0975 22.1972Z" fill="#FFFF00" stroke="black" stroke-width="0.045"/>
<path d="M17.4435 22.6617L18.5181 21.5794C18.5408 21.5566 18.5818 21.5604 18.6094 21.5877C18.6369 21.615 18.6408 21.6559 18.6181 21.6787L17.5435 22.7609C17.5208 22.7838 17.4799 22.7801 17.4524 22.7528C17.4249 22.7255 17.4209 22.6845 17.4435 22.6617Z" fill="#FFFF00" stroke="black" stroke-width="0.045"/>
<path d="M17.8319 22.2655C17.6215 22.0543 17.7039 21.8515 17.7047 21.8509C17.7048 21.8508 17.915 21.7626 18.1258 21.9695L17.8319 22.2655Z" fill="#FFFF00" stroke="black" stroke-width="0.045"/>
<path d="M16.891 22.0677L17.9212 21.0302C17.9429 21.0083 17.981 21.0106 18.0057 21.0351C18.0304 21.0597 18.0329 21.0977 18.0112 21.1196L16.9811 22.157C16.9594 22.1789 16.9214 22.1768 16.8966 22.1521C16.8719 22.1276 16.8693 22.0895 16.891 22.0677Z" fill="#FFFF00" stroke="black" stroke-width="0.045"/>
<path d="M17.0036 22.1339L17.9889 21.1415C18.0097 21.1206 18.0469 21.1236 18.0716 21.1482C18.0964 21.1728 18.0996 21.21 18.0789 21.2309L17.0935 22.2232C17.0728 22.2441 17.0355 22.2411 17.0108 22.2165C16.986 22.192 16.9828 22.1548 17.0036 22.1339Z" fill="#FFFF00" stroke="black" stroke-width="0.045"/>
<path d="M16.6448 21.1436L16.7227 21.0654L16.7783 21.1206L16.8351 21.0635L16.7782 21.007L16.8582 20.927L16.9148 20.9832L16.9718 20.9259L16.9149 20.8694L16.9946 20.7891L17.123 20.9168C17.1431 20.9368 17.1401 20.966 17.1214 20.9848L16.8417 21.2665C16.8229 21.2855 16.7904 21.2879 16.7719 21.2696L16.6447 21.1437L16.6448 21.1436Z" fill="#FFFF00" stroke="black" stroke-width="0.045"/>
<path d="M17.1099 21.0193L17.5395 21.4108L17.2656 21.6846L16.8716 21.2572L17.1099 21.0193Z" fill="#FFFF00" stroke="black" stroke-width="0.045"/>
<path d="M16.9681 21.5437L17.1986 21.7559L16.9371 22.0195L16.7222 21.7914L16.9681 21.5437Z" fill="#FFFF00" stroke="black" stroke-width="0.045"/>
<path d="M17.641 20.866L17.8714 21.0781L17.6099 21.3417L17.3951 21.1137L17.641 20.866Z" fill="#FFFF00" stroke="black" stroke-width="0.045"/>
<path d="M16.5129 21.6787L16.5892 21.6023L16.6449 21.6576L16.7005 21.6016L16.6435 21.545L16.7217 21.4667L16.7785 21.5231L16.8343 21.467L16.7773 21.4104L16.8554 21.3319L16.9838 21.4596C17.0038 21.4795 17.0011 21.5084 16.9829 21.5268L16.7091 21.8024C16.6908 21.8209 16.6587 21.8232 16.6401 21.8048L16.5129 21.6789L16.5129 21.6787Z" fill="#FFFF00" stroke="black" stroke-width="0.045"/>
<path d="M17.1858 21.003L17.262 20.9265L17.3177 20.9819L17.3734 20.9258L17.3164 20.8692L17.3946 20.791L17.4514 20.8473L17.5071 20.7912L17.4501 20.7346L17.5283 20.6561L17.6566 20.7838C17.6767 20.8038 17.674 20.8326 17.6557 20.851L17.382 21.1267C17.3636 21.1451 17.3315 21.1474 17.3129 21.129L17.1857 21.0031L17.1858 21.003Z" fill="#FFFF00" stroke="black" stroke-width="0.045"/>
<path d="M17.0947 21.2936C17.053 21.2556 17.1098 21.1974 17.1496 21.2383L17.2477 21.3357L17.1928 21.3911L17.0947 21.2936Z" fill="black"/>
<path d="M16.8994 21.7752C16.8605 21.737 16.913 21.6826 16.9518 21.7224L17.0277 21.7977L16.9753 21.8505L16.8994 21.7752Z" fill="black"/>
<path d="M17.5742 21.0955C17.5354 21.0573 17.5878 21.0029 17.6266 21.0427L17.7025 21.118L17.6501 21.1708L17.5742 21.0955Z" fill="black"/>
<path d="M20.2314 13.8995C20.2436 13.4026 20.5962 13.285 20.5987 13.2832C20.6012 13.2816 20.9795 13.4099 20.9783 13.9041L20.2314 13.8995Z" fill="#FFFF00"/>
<path d="M19.9266 13.2907L19.8652 13.8617L20.2379 13.8625C20.2415 13.3901 20.5955 13.3115 20.6041 13.3132C20.6121 13.3128 20.9631 13.4177 20.9725 13.8625H21.3461L21.2786 13.2871L19.9266 13.2905L19.9266 13.2907Z" fill="#FFFF00" stroke="black" stroke-width="0.045"/>
<path d="M19.8406 13.8652H21.3658C21.3979 13.8652 21.4242 13.897 21.4242 13.9358C21.4242 13.9745 21.3979 14.0061 21.3658 14.0061H19.8406C19.8085 14.0061 19.7822 13.9745 19.7822 13.9358C19.7822 13.897 19.8085 13.8652 19.8406 13.8652Z" fill="#FFFF00" stroke="black" stroke-width="0.045"/>
<path d="M20.3955 13.8628C20.3972 13.5647 20.5991 13.4803 20.6001 13.4805C20.6002 13.4805 20.8109 13.5675 20.8126 13.8628H20.3955Z" fill="#FFFF00" stroke="black" stroke-width="0.045"/>
<path d="M19.8734 13.0547H21.3355C21.3663 13.0547 21.3915 13.0833 21.3915 13.1181C21.3915 13.153 21.3663 13.1815 21.3355 13.1815H19.8734C19.8426 13.1815 19.8174 13.1531 19.8174 13.1181C19.8174 13.0833 19.8426 13.0547 19.8734 13.0547Z" fill="#FFFF00" stroke="black" stroke-width="0.045"/>
<path d="M19.9042 13.1816H21.3026C21.332 13.1816 21.3562 13.2101 21.3562 13.245C21.3562 13.2799 21.332 13.3084 21.3026 13.3084H19.9042C19.8747 13.3084 19.8506 13.2799 19.8506 13.245C19.8506 13.2101 19.8747 13.1816 19.9042 13.1816Z" fill="#FFFF00" stroke="black" stroke-width="0.045"/>
<path d="M20.3556 12.2301L20.466 12.2303V12.3087H20.5466V12.2285L20.6597 12.2289V12.3087H20.7405V12.2286H20.8537L20.8535 12.4096C20.8535 12.438 20.8306 12.4564 20.8041 12.4564H20.4071C20.3804 12.4564 20.3558 12.4351 20.3557 12.4091L20.3555 12.2301L20.3556 12.2301Z" fill="#FFFF00" stroke="black" stroke-width="0.045"/>
<path d="M20.7715 12.4703L20.7964 13.0509L20.4092 13.0495L20.4348 12.4688L20.7715 12.4703Z" fill="#FFFF00" stroke="black" stroke-width="0.045"/>
<path d="M20.2989 12.7402L20.3108 13.0532L19.9395 13.0534L19.9499 12.7403L20.2989 12.7402Z" fill="#FFFF00" stroke="black" stroke-width="0.045"/>
<path d="M21.254 12.7402L21.2658 13.0532L20.8945 13.0534L20.905 12.7403L21.254 12.7402Z" fill="#FFFF00" stroke="black" stroke-width="0.045"/>
<path d="M19.881 12.5133L19.9889 12.5135V12.592H20.0679V12.5117L20.1786 12.5121V12.5921H20.2577V12.5118L20.3684 12.5119L20.3682 12.693C20.3682 12.7213 20.3458 12.7397 20.32 12.7397H19.9315C19.9054 12.7397 19.8812 12.7185 19.8811 12.6924L19.8809 12.5134L19.881 12.5133Z" fill="#FFFF00" stroke="black" stroke-width="0.045"/>
<path d="M20.8361 12.5133L20.944 12.5135V12.592H21.023V12.5117L21.1336 12.5121V12.5921H21.2128V12.5118L21.3235 12.5119L21.3233 12.693C21.3233 12.7213 21.3009 12.7397 21.2751 12.7397H20.8865C20.8605 12.7397 20.8363 12.7185 20.8362 12.6924L20.8359 12.5134L20.8361 12.5133Z" fill="#FFFF00" stroke="black" stroke-width="0.045"/>
<path d="M20.5655 12.6539C20.5631 12.5975 20.6444 12.5968 20.6434 12.6539V12.7922H20.5655L20.5655 12.6539Z" fill="black"/>
<path d="M20.0859 12.8558C20.0857 12.8012 20.1613 12.8001 20.1603 12.8558V12.9626H20.086L20.0859 12.8558Z" fill="black"/>
<path d="M21.043 12.8558C21.0427 12.8012 21.1183 12.8001 21.1173 12.8558V12.9626H21.043L21.043 12.8558Z" fill="black"/>
<path d="M25.0645 13.8995C25.0523 13.4026 24.6997 13.285 24.6972 13.2832C24.6947 13.2816 24.3164 13.4099 24.3176 13.9041L25.0645 13.8995Z" fill="#FFFF00"/>
<path d="M25.3683 13.2907L25.4297 13.8617L25.057 13.8625C25.0535 13.3901 24.6994 13.3115 24.6908 13.3132C24.6828 13.3128 24.3318 13.4177 24.3225 13.8625H23.9489L24.0163 13.2871L25.3683 13.2905L25.3683 13.2907Z" fill="#FFFF00" stroke="black" stroke-width="0.045"/>
<path d="M25.4553 13.8652H23.9301C23.898 13.8652 23.8717 13.897 23.8717 13.9358C23.8717 13.9745 23.898 14.0061 23.9301 14.0061H25.4553C25.4874 14.0061 25.5137 13.9745 25.5137 13.9358C25.5137 13.897 25.4874 13.8652 25.4553 13.8652Z" fill="#FFFF00" stroke="black" stroke-width="0.045"/>
<path d="M24.9014 13.8628C24.8997 13.5647 24.6978 13.4803 24.6967 13.4805C24.6967 13.4805 24.4859 13.5675 24.4843 13.8628H24.9014Z" fill="#FFFF00" stroke="black" stroke-width="0.045"/>
<path d="M25.4225 13.0547H23.9604C23.9296 13.0547 23.9044 13.0833 23.9044 13.1181C23.9044 13.153 23.9296 13.1815 23.9604 13.1815H25.4225C25.4533 13.1815 25.4785 13.1531 25.4785 13.1181C25.4785 13.0833 25.4533 13.0547 25.4225 13.0547Z" fill="#FFFF00" stroke="black" stroke-width="0.045"/>
<path d="M25.3927 13.1816H23.9943C23.9648 13.1816 23.9407 13.2101 23.9407 13.245C23.9407 13.2799 23.9648 13.3084 23.9943 13.3084H25.3927C25.4222 13.3084 25.4463 13.2799 25.4463 13.245C25.4463 13.2101 25.4222 13.1816 25.3927 13.1816Z" fill="#FFFF00" stroke="black" stroke-width="0.045"/>
<path d="M24.9403 12.2301L24.8299 12.2303V12.3087H24.7493V12.2285L24.6362 12.2289V12.3087H24.5554V12.2286H24.4422L24.4424 12.4096C24.4424 12.438 24.4653 12.4564 24.4918 12.4564H24.8888C24.9155 12.4564 24.9401 12.4351 24.9402 12.4091L24.9404 12.2301L24.9403 12.2301Z" fill="#FFFF00" stroke="black" stroke-width="0.045"/>
<path d="M24.5244 12.4703L24.4995 13.0509L24.8867 13.0495L24.8611 12.4688L24.5244 12.4703Z" fill="#FFFF00" stroke="black" stroke-width="0.045"/>
<path d="M24.997 12.7402L24.9851 13.0532L25.3564 13.0534L25.346 12.7403L24.997 12.7402Z" fill="#FFFF00" stroke="black" stroke-width="0.045"/>
<path d="M24.0429 12.7402L24.031 13.0532L24.4023 13.0534L24.3919 12.7403L24.0429 12.7402Z" fill="#FFFF00" stroke="black" stroke-width="0.045"/>
<path d="M25.4149 12.5133L25.307 12.5135V12.592H25.228V12.5117L25.1173 12.5121V12.5921H25.0382V12.5118L24.9275 12.5119L24.9277 12.693C24.9277 12.7213 24.9501 12.7397 24.9759 12.7397H25.3644C25.3905 12.7397 25.4147 12.7185 25.4148 12.6924L25.415 12.5134L25.4149 12.5133Z" fill="#FFFF00" stroke="black" stroke-width="0.045"/>
<path d="M24.4598 12.5133L24.3519 12.5135V12.592H24.2729V12.5117L24.1623 12.5121V12.5921H24.0831V12.5118L23.9724 12.5119L23.9726 12.693C23.9726 12.7213 23.995 12.7397 24.0208 12.7397H24.4094C24.4354 12.7397 24.4596 12.7185 24.4597 12.6924L24.46 12.5134L24.4598 12.5133Z" fill="#FFFF00" stroke="black" stroke-width="0.045"/>
<path d="M24.7304 12.6539C24.7328 12.5975 24.6515 12.5968 24.6525 12.6539V12.7922H24.7304L24.7304 12.6539Z" fill="black"/>
<path d="M25.2109 12.8558C25.2112 12.8012 25.1356 12.8001 25.1366 12.8558V12.9626H25.2109L25.2109 12.8558Z" fill="black"/>
<path d="M24.2529 12.8558C24.2532 12.8012 24.1776 12.8001 24.1786 12.8558V12.9626H24.2529L24.2529 12.8558Z" fill="black"/>
<path d="M25.0645 18.0675C25.0523 17.5706 24.6997 17.4529 24.6972 17.4512C24.6947 17.4495 24.3164 17.5779 24.3176 18.0721L25.0645 18.0675Z" fill="#FFFF00"/>
<path d="M25.3683 17.4606L25.4297 18.0316L25.057 18.0324C25.0535 17.56 24.6994 17.4814 24.6908 17.4831C24.6828 17.4827 24.3318 17.5876 24.3225 18.0324H23.9489L24.0163 17.457L25.3683 17.4604L25.3683 17.4606Z" fill="#FFFF00" stroke="black" stroke-width="0.045"/>
<path d="M25.4553 18.0332H23.9301C23.898 18.0332 23.8717 18.065 23.8717 18.1038C23.8717 18.1425 23.898 18.1741 23.9301 18.1741H25.4553C25.4874 18.1741 25.5137 18.1425 25.5137 18.1038C25.5137 18.065 25.4874 18.0332 25.4553 18.0332Z" fill="#FFFF00" stroke="black" stroke-width="0.045"/>
<path d="M24.9004 18.0308C24.8987 17.7327 24.6968 17.6483 24.6958 17.6484C24.6957 17.6484 24.485 17.7354 24.4833 18.0308H24.9004Z" fill="#FFFF00" stroke="black" stroke-width="0.045"/>
<path d="M25.4225 17.2227H23.9604C23.9296 17.2227 23.9044 17.2513 23.9044 17.2861C23.9044 17.3209 23.9296 17.3495 23.9604 17.3495H25.4225C25.4533 17.3495 25.4785 17.3211 25.4785 17.2861C25.4785 17.2513 25.4533 17.2227 25.4225 17.2227Z" fill="#FFFF00" stroke="black" stroke-width="0.045"/>
<path d="M25.3927 17.3516H23.9943C23.9648 17.3516 23.9407 17.3801 23.9407 17.4149C23.9407 17.4498 23.9648 17.4783 23.9943 17.4783H25.3927C25.4222 17.4783 25.4463 17.4498 25.4463 17.4149C25.4463 17.3801 25.4222 17.3516 25.3927 17.3516Z" fill="#FFFF00" stroke="black" stroke-width="0.045"/>
<path d="M24.9403 16.3981L24.8299 16.3982V16.4767H24.7493V16.3965L24.6362 16.3968V16.4767H24.5554V16.3965H24.4422L24.4424 16.5776C24.4424 16.606 24.4653 16.6244 24.4918 16.6244H24.8888C24.9155 16.6244 24.9401 16.6031 24.9402 16.577L24.9404 16.3981L24.9403 16.3981Z" fill="#FFFF00" stroke="black" stroke-width="0.045"/>
<path d="M24.5244 16.6402L24.4995 17.2208L24.8867 17.2194L24.8611 16.6387L24.5244 16.6402Z" fill="#FFFF00" stroke="black" stroke-width="0.045"/>
<path d="M24.997 16.9102L24.9851 17.2231L25.3564 17.2233L25.346 16.9102L24.997 16.9102Z" fill="#FFFF00" stroke="black" stroke-width="0.045"/>
<path d="M24.0429 16.9102L24.031 17.2231L24.4023 17.2233L24.3919 16.9102L24.0429 16.9102Z" fill="#FFFF00" stroke="black" stroke-width="0.045"/>
<path d="M25.4149 16.6812L25.307 16.6815V16.76H25.228V16.6797L25.1173 16.68V16.7601H25.0382V16.6797L24.9275 16.6799L24.9277 16.861C24.9277 16.8892 24.9501 16.9076 24.9759 16.9076H25.3644C25.3905 16.9076 25.4147 16.8864 25.4148 16.8603L25.415 16.6813L25.4149 16.6812Z" fill="#FFFF00" stroke="black" stroke-width="0.045"/>
<path d="M24.4598 16.6812L24.3519 16.6815V16.76H24.2729V16.6797L24.1623 16.68V16.7601H24.0831V16.6797L23.9724 16.6799L23.9726 16.861C23.9726 16.8892 23.995 16.9076 24.0208 16.9076H24.4094C24.4354 16.9076 24.4596 16.8864 24.4597 16.8603L24.46 16.6813L24.4598 16.6812Z" fill="#FFFF00" stroke="black" stroke-width="0.045"/>
<path d="M24.7304 16.8238C24.7328 16.7674 24.6515 16.7667 24.6525 16.8238V16.9621H24.7304L24.7304 16.8238Z" fill="black"/>
<path d="M25.2109 17.0237C25.2112 16.9692 25.1356 16.9681 25.1366 17.0237V17.1306H25.2109L25.2109 17.0237Z" fill="black"/>
<path d="M24.2529 17.0237C24.2532 16.9692 24.1776 16.9681 24.1786 17.0237V17.1306H24.2529L24.2529 17.0237Z" fill="black"/>
<path d="M23.4396 22.4088C23.7837 22.0501 23.6187 21.7171 23.6182 21.714C23.6176 21.711 23.2599 21.533 22.9102 21.8822L23.4396 22.4088Z" fill="#FFFF00"/>
<path d="M24.0841 22.1972L23.7222 22.6431L23.459 22.3793C23.7917 22.0439 23.598 21.7372 23.5907 21.7324C23.5854 21.7264 23.2637 21.5512 22.9414 21.858L22.6782 21.5929L23.134 21.2354L24.0842 22.1971L24.0841 22.1972Z" fill="#FFFF00" stroke="black" stroke-width="0.045"/>
<path d="M23.7381 22.6617L22.6635 21.5794C22.6409 21.5566 22.5998 21.5604 22.5723 21.5877C22.5448 21.615 22.5409 21.6559 22.5635 21.6787L23.6382 22.7609C23.6608 22.7838 23.7017 22.7801 23.7292 22.7528C23.7568 22.7255 23.7608 22.6845 23.7381 22.6617Z" fill="#FFFF00" stroke="black" stroke-width="0.045"/>
<path d="M23.3498 22.2655C23.5602 22.0543 23.4778 21.8515 23.4769 21.8509C23.4769 21.8508 23.2666 21.7626 23.0559 21.9695L23.3498 22.2655Z" fill="#FFFF00" stroke="black" stroke-width="0.045"/>
<path d="M24.2906 22.0677L23.2604 21.0302C23.2387 21.0083 23.2006 21.0106 23.1759 21.0351C23.1512 21.0597 23.1487 21.0977 23.1704 21.1196L24.2006 22.157C24.2223 22.1789 24.2602 22.1768 24.2851 22.1521C24.3097 22.1276 24.3123 22.0895 24.2906 22.0677Z" fill="#FFFF00" stroke="black" stroke-width="0.045"/>
<path d="M24.1781 22.1339L23.1927 21.1415C23.172 21.1206 23.1348 21.1236 23.11 21.1482C23.0853 21.1728 23.082 21.21 23.1028 21.2309L24.0881 22.2232C24.1089 22.2441 24.1461 22.2411 24.1709 22.2165C24.1956 22.192 24.1988 22.1548 24.1781 22.1339Z" fill="#FFFF00" stroke="black" stroke-width="0.045"/>
<path d="M24.5369 21.1436L24.459 21.0654L24.4033 21.1206L24.3465 21.0635L24.4034 21.007L24.3235 20.927L24.2668 20.9832L24.2099 20.9259L24.2668 20.8694L24.187 20.7891L24.0587 20.9168C24.0385 20.9368 24.0416 20.966 24.0602 20.9848L24.34 21.2665C24.3588 21.2855 24.3913 21.2879 24.4098 21.2696L24.5369 21.1437L24.5369 21.1436Z" fill="#FFFF00" stroke="black" stroke-width="0.045"/>
<path d="M24.0718 21.0193L23.6422 21.4108L23.9161 21.6846L24.3101 21.2572L24.0718 21.0193Z" fill="#FFFF00" stroke="black" stroke-width="0.045"/>
<path d="M24.2135 21.5437L23.9831 21.7559L24.2446 22.0195L24.4594 21.7914L24.2135 21.5437Z" fill="#FFFF00" stroke="black" stroke-width="0.045"/>
<path d="M23.5407 20.866L23.3102 21.0781L23.5717 21.3417L23.7866 21.1137L23.5407 20.866Z" fill="#FFFF00" stroke="black" stroke-width="0.045"/>
<path d="M24.6687 21.6787L24.5925 21.6023L24.5368 21.6576L24.4811 21.6016L24.5381 21.545L24.4599 21.4667L24.4031 21.5231L24.3474 21.467L24.4044 21.4104L24.3262 21.3319L24.1979 21.4596C24.1778 21.4795 24.1805 21.5084 24.1988 21.5268L24.4725 21.8024C24.4909 21.8209 24.523 21.8232 24.5415 21.8048L24.6688 21.6789L24.6687 21.6787Z" fill="#FFFF00" stroke="black" stroke-width="0.045"/>
<path d="M23.9959 21.003L23.9196 20.9265L23.8639 20.9819L23.8083 20.9258L23.8653 20.8692L23.7871 20.791L23.7303 20.8473L23.6745 20.7912L23.7315 20.7346L23.6534 20.6561L23.525 20.7838C23.505 20.8038 23.5077 20.8326 23.5259 20.851L23.7997 21.1267C23.818 21.1451 23.8501 21.1474 23.8687 21.129L23.9959 21.0031L23.9959 21.003Z" fill="#FFFF00" stroke="black" stroke-width="0.045"/>
<path d="M24.0869 21.2936C24.1287 21.2556 24.0719 21.1974 24.032 21.2383L23.9339 21.3357L23.9888 21.3911L24.0869 21.2936Z" fill="black"/>
<path d="M24.2822 21.7752C24.3211 21.737 24.2686 21.6826 24.2298 21.7224L24.154 21.7977L24.2064 21.8505L24.2822 21.7752Z" fill="black"/>
<path d="M23.6074 21.0955C23.6463 21.0573 23.5938 21.0029 23.555 21.0427L23.4792 21.118L23.5316 21.1708L23.6074 21.0955Z" fill="black"/>
<path d="M19.9375 18.2151V18.2155C19.9375 18.4146 20.014 18.596 20.1366 18.7276C20.2595 18.8596 20.4287 18.9416 20.6138 18.9416C20.7998 18.9416 20.9687 18.8601 21.091 18.7287C21.2133 18.5974 21.2892 18.4162 21.2892 18.2163V17.2472L19.94 17.2461L19.9375 18.2151Z" fill="#003399"/>
<path d="M19.9375 15.8752V15.8757C19.9375 16.0748 20.014 16.2561 20.1366 16.3877C20.2595 16.5197 20.4287 16.6017 20.6138 16.6017C20.7998 16.6017 20.9687 16.5203 21.091 16.3888C21.2133 16.2576 21.2892 16.0763 21.2892 15.8765V14.9074L19.94 14.9062L19.9375 15.8752Z" fill="#003399"/>
<path d="M18.0655 18.2151V18.2155C18.0655 18.4146 18.1419 18.596 18.2645 18.7276C18.3874 18.8596 18.5566 18.9416 18.7417 18.9416C18.9278 18.9416 19.0967 18.8601 19.219 18.7287C19.3412 18.5974 19.4172 18.4162 19.4172 18.2163V17.2472L18.0679 17.2461L18.0655 18.2151Z" fill="#003399"/>
<path d="M21.8047 18.2151V18.2155C21.8047 18.4146 21.8812 18.596 22.0038 18.7276C22.1267 18.8596 22.2959 18.9416 22.481 18.9416C22.667 18.9416 22.8359 18.8601 22.9582 18.7287C23.0805 18.5974 23.1564 18.4162 23.1564 18.2163V17.2472L21.8071 17.2461L21.8047 18.2151Z" fill="#003399"/>
<path d="M19.9375 20.5354V20.5358C19.9375 20.7349 20.014 20.9163 20.1366 21.0479C20.2595 21.1799 20.4287 21.2619 20.6138 21.2619C20.7998 21.2619 20.9687 21.1805 21.091 21.049C21.2133 20.9177 21.2892 20.7365 21.2892 20.5366V19.5675L19.94 19.5664L19.9375 20.5354Z" fill="#003399"/>
</g>
</g>
<defs>
<clipPath id="clip0_35_34643">
<rect width="50" height="36" fill="white" transform="translate(-1)"/>
</clipPath>
<clipPath id="clip1_35_34643">
<rect width="54" height="36" fill="white" transform="translate(-1)"/>
</clipPath>
</defs>
</svg>
