<svg width="48" height="36" viewBox="0 0 48 36" fill="none" xmlns="http://www.w3.org/2000/svg">
<g clip-path="url(#clip0_35_34298)">
<mask id="mask0_35_34298" style="mask-type:luminance" maskUnits="userSpaceOnUse" x="-1" y="0" width="50" height="37">
<path d="M44.5883 0H3.4118C1.24598 0 -0.509766 1.74373 -0.509766 3.89474V33.1053C-0.509766 35.2563 1.24598 37 3.4118 37H44.5883C46.7541 37 48.5098 35.2563 48.5098 33.1053V3.89474C48.5098 1.74373 46.7541 0 44.5883 0Z" fill="white"/>
</mask>
<g mask="url(#mask0_35_34298)">
<mask id="mask1_35_34298" style="mask-type:luminance" maskUnits="userSpaceOnUse" x="-1" y="0" width="50" height="37">
<path d="M-0.509766 0H48.5098V37H-0.509766V0Z" fill="white"/>
</mask>
<g mask="url(#mask1_35_34298)">
<path d="M-0.509766 0H48.5098V37H-0.509766V0Z" fill="#CC0000"/>
<path d="M-0.509766 0H48.5098V2.64396H-0.509766V0Z" fill="#CC0000"/>
<path d="M-0.509766 2.64453H48.5098V5.28849H-0.509766V2.64453Z" fill="white"/>
<path d="M-0.509766 5.28711H48.5098V7.93106H-0.509766V5.28711Z" fill="#CC0000"/>
<path d="M-0.509766 7.93164H48.5098V10.5602H-0.509766V7.93164Z" fill="white"/>
<path d="M-0.509766 10.5684H48.5098V13.2123H-0.509766V10.5684Z" fill="#CC0000"/>
<path d="M-0.509766 13.2129H48.5098V15.8568H-0.509766V13.2129Z" fill="white"/>
<path d="M-0.509766 15.8555H48.5098V18.4994H-0.509766V15.8555Z" fill="#CC0000"/>
<path d="M-0.509766 18.5H48.5098V21.1439H-0.509766V18.5Z" fill="white"/>
<path d="M-0.509766 21.1445H48.5098V23.7885H-0.509766V21.1445Z" fill="#CC0000"/>
<path d="M-0.509766 23.7871H48.5098V26.4311H-0.509766V23.7871Z" fill="white"/>
<path d="M-0.509766 26.4316H48.5098V29.0602H-0.509766V26.4316Z" fill="#CC0000"/>
<path d="M-0.509766 29.0684H48.5098V31.7123H-0.509766V29.0684Z" fill="white"/>
<path d="M-0.509766 31.7129H48.5098V34.3568H-0.509766V31.7129Z" fill="#CC0000"/>
<path d="M-0.509766 34.3555H48.5098V36.9994H-0.509766V34.3555Z" fill="white"/>
<path d="M-0.509766 0.0390625H24V21.183H-0.509766V0.0390625Z" fill="#000066"/>
<path d="M15.3829 5.68918L15.8426 8.82648L17.6042 6.20564L16.6544 9.22731L19.3735 7.62398L17.2212 9.93648L20.3616 9.68981L17.428 10.8306L20.3616 11.9715L17.2212 11.7248L19.3735 14.0373L16.6544 12.434L17.5966 15.4633L15.8349 12.8348L15.3753 15.9721L14.9234 12.8348L13.1618 15.4556L14.1116 12.434L11.3925 14.0373L13.5371 11.7248L10.3968 11.9715L13.3379 10.8306L10.4044 9.68981L13.5447 9.93648L11.3925 7.62398L14.1116 9.22731L13.1618 6.19793L14.9234 8.82648L15.3829 5.68918ZM12.8325 5.82023C12.003 5.4489 11.0946 5.2921 10.1897 5.3641C9.28481 5.4361 8.41211 5.73461 7.65101 6.23248C6.88992 6.73035 6.26457 7.41181 5.83181 8.21485C5.39906 9.01791 5.17264 9.91711 5.17313 10.8306C5.17264 11.7442 5.39906 12.6434 5.83181 13.4464C6.26457 14.2495 6.88992 14.9309 7.65101 15.4288C8.41211 15.9267 9.28481 16.2252 10.1897 16.2972C11.0946 16.3692 12.003 16.2124 12.8325 15.8411C11.9168 16.503 10.8373 16.8979 9.71295 16.9823C8.58863 17.0666 7.46296 16.8371 6.45989 16.319C5.45796 15.8002 4.61758 15.0134 4.03113 14.0451C3.44467 13.0769 3.13485 11.9646 3.13574 10.8306C3.13612 9.69696 3.44702 8.58532 4.03426 7.61788C4.62152 6.65043 5.46241 5.86463 6.46452 5.34683C7.46663 4.82902 8.59118 4.59926 9.71462 4.68277C10.838 4.76629 11.9168 5.15986 12.8325 5.82023Z" fill="#FFCC00"/>
</g>
</g>
</g>
<defs>
<clipPath id="clip0_35_34298">
<rect width="50" height="37" fill="white" transform="translate(-1)"/>
</clipPath>
</defs>
</svg>
