<svg width="48" height="36" viewBox="0 0 48 36" fill="none" xmlns="http://www.w3.org/2000/svg">
<g clip-path="url(#clip0_35_33059)">
<mask id="mask0_35_33059" style="mask-type:luminance" maskUnits="userSpaceOnUse" x="-1" y="0" width="50" height="36">
<path d="M45 0H3C0.790861 0 -1 1.69661 -1 3.78947V32.2105C-1 34.3034 0.790861 36 3 36H45C47.2091 36 49 34.3034 49 32.2105V3.78947C49 1.69661 47.2091 0 45 0Z" fill="white"/>
</mask>
<g mask="url(#mask0_35_33059)">
<path d="M-0.992188 0H49.0078V36H-0.992188V0Z" fill="#3F9C35"/>
<path d="M-0.992188 0H49.0078V24H-0.992188V0Z" fill="#ED2939"/>
<path d="M-0.992188 0H49.0078V12H-0.992188V0Z" fill="#00B9E4"/>
<path d="M22.75 23.3996C25.8566 23.3996 28.375 20.982 28.375 17.9996C28.375 15.0173 25.8566 12.5996 22.75 12.5996C19.6434 12.5996 17.125 15.0173 17.125 17.9996C17.125 20.982 19.6434 23.3996 22.75 23.3996Z" fill="white"/>
<path d="M24 22.5C26.5888 22.5 28.6875 20.4853 28.6875 18C28.6875 15.5147 26.5888 13.5 24 13.5C21.4112 13.5 19.3125 15.5147 19.3125 18C19.3125 20.4853 21.4112 22.5 24 22.5Z" fill="#ED2939"/>
<path d="M29 15L29.6016 16.6124L31.2109 15.8775L30.4453 17.43L32.125 17.9999L30.4453 18.5775L31.2109 20.1224L29.6016 19.3875L29 21L28.3984 19.3875L26.7891 20.1224L27.5547 18.5775L25.875 17.9999L27.5547 17.4224L26.7891 15.8775L28.3984 16.6124L29 15Z" fill="white"/>
</g>
</g>
<defs>
<clipPath id="clip0_35_33059">
<rect width="48" height="36" rx="8" fill="white"/>
</clipPath>
</defs>
</svg>
