<svg width="48" height="36" viewBox="0 0 48 36" fill="none" xmlns="http://www.w3.org/2000/svg">
<g clip-path="url(#clip0_35_32967)">
<mask id="mask0_35_32967" style="mask-type:luminance" maskUnits="userSpaceOnUse" x="0" y="0" width="48" height="36">
<path d="M43.7648 0H4.23541C2.15622 0 0.470703 1.69661 0.470703 3.78947V32.2105C0.470703 34.3034 2.15622 36 4.23541 36H43.7648C45.844 36 47.5295 34.3034 47.5295 32.2105V3.78947C47.5295 1.69661 45.844 0 43.7648 0Z" fill="white"/>
</mask>
<g mask="url(#mask0_35_32967)">
<path d="M0.470703 0H47.5295V36H0.470703V0Z" fill="#FF0000"/>
<path d="M20.471 6.99707C20.1327 6.99707 19.5666 7.10957 19.5739 7.37207C18.618 7.21457 18.5225 7.61207 18.5813 7.97207C18.6695 7.82957 18.7798 7.74707 18.8681 7.73957C18.9931 7.71707 19.1254 7.76207 19.2651 7.84457C19.3969 7.92888 19.5158 8.0325 19.618 8.15207C19.2798 8.23457 19.0151 8.18207 18.7504 8.13707C18.6008 8.10455 18.4587 8.04348 18.3313 7.95707C18.221 7.88207 18.1842 7.80707 18.0151 7.63457C17.8166 7.42457 17.6033 7.48457 17.6695 7.80707C17.8239 8.10707 18.0812 8.24207 18.4048 8.30207C18.5592 8.32457 18.7946 8.37707 19.0592 8.37707C19.3239 8.37707 19.6181 8.33957 19.7798 8.37707C19.6843 8.43707 19.5739 8.54957 19.3533 8.58707C19.1327 8.63207 18.8019 8.45207 18.596 8.40707C18.618 8.57957 18.8386 8.74457 19.2651 8.83457C19.971 8.98457 20.5518 9.10457 20.9416 9.32207C21.2497 9.49734 21.5219 9.73162 21.7431 10.012C22.0886 10.4245 22.1107 10.7471 22.1254 10.822C22.1989 11.4821 21.971 11.857 21.5445 11.9771C21.3387 12.0296 20.9563 11.9246 20.8239 11.7596C20.6768 11.5945 20.5518 11.3096 20.5886 10.8596C20.6254 10.6945 20.8166 10.237 20.6548 10.147C19.8881 9.71732 19.0948 9.33901 18.2798 9.01457C18.096 8.93957 17.9489 9.19457 17.8901 9.29957C17.3471 9.22237 16.8279 9.0228 16.37 8.71534C15.9121 8.40787 15.5272 8.00025 15.243 7.52207C14.9342 6.95207 14.4122 7.52207 14.5003 8.06957C14.6401 8.66957 15.0886 9.10457 15.6328 9.41957C16.1842 9.72707 16.8827 10.0346 17.5813 10.0195C17.9636 10.0946 17.9563 10.5896 17.5078 10.687C16.618 10.687 15.9048 10.6721 15.2357 10.012C14.7283 9.53959 14.449 10.102 14.5886 10.417C14.8386 11.3996 16.2137 11.677 17.6033 11.362C18.1474 11.272 17.8239 11.857 17.6768 11.8645C17.0886 12.2921 16.0519 12.7046 15.1327 11.8645C14.7136 11.5346 14.4268 11.8046 14.5886 12.2771C14.9931 13.5146 16.5518 13.252 17.618 12.6521C17.8901 12.4945 18.1401 12.8545 17.8092 13.1321C16.4783 14.0771 15.8166 14.0921 15.2137 13.7321C14.4636 13.4246 14.4048 14.2721 14.8459 14.557C15.3387 14.8571 16.596 14.6321 17.5225 14.0321C17.9195 13.7321 17.9342 14.2045 17.6843 14.3921C16.5886 15.3596 16.1548 15.6146 15.0151 15.457C14.449 15.412 14.4563 16.1246 14.8974 16.402C15.5078 16.7846 16.6989 16.1546 17.618 15.367C18.0077 15.1571 18.0739 15.502 17.8827 15.9145C17.4757 16.502 16.9224 16.9681 16.2798 17.2645C15.7651 17.4671 15.2798 17.437 14.9342 17.3171C14.5078 17.167 14.4563 17.617 14.6916 18.022C14.8313 18.2696 15.4122 18.3445 16.0445 18.1195C16.6769 17.8945 17.3533 17.3545 17.8166 16.7321C18.221 16.3645 18.1769 16.852 17.9857 17.1971C17.0592 18.697 16.2062 19.2521 15.0812 19.1621C14.5886 19.0721 14.471 19.462 14.7871 19.8371C15.346 20.3021 16.0372 20.2871 16.6548 19.822C17.1915 19.2971 18.2283 18.1421 18.7724 17.527C19.1548 17.2195 19.2798 17.527 19.1622 18.157C19.0592 18.517 18.8092 18.9071 18.1107 19.1771C17.6328 19.4546 17.9931 19.8371 18.346 19.8521C18.5445 19.8521 18.9416 19.6121 19.2504 19.2671C19.6475 18.8021 19.6769 18.4946 19.8974 17.7746C20.1034 17.4296 20.4783 17.5946 20.4783 17.9546C20.2945 18.6746 20.1474 18.8021 19.7798 19.0946C19.4342 19.4321 20.0224 19.5446 20.221 19.4021C20.7946 19.012 21.0004 18.5021 21.1915 18.0371C21.3387 17.707 21.7357 17.8646 21.5445 18.4121C21.1034 19.7171 20.368 20.227 19.096 20.497C18.9709 20.5196 18.8901 20.5945 18.9342 20.7446L19.449 21.2695C18.6621 21.5096 18.0224 21.6446 17.2283 21.8696L16.1401 21.1345C16.0445 20.8946 15.993 20.5196 15.4195 20.7821C15.0372 20.6021 14.8533 20.6696 14.6401 20.857C14.9489 20.857 15.0812 20.947 15.2062 21.0895C15.368 21.5171 15.7356 21.5621 16.1107 21.442C16.3533 21.6446 16.4783 21.8095 16.7283 22.0196L15.5003 21.982C15.0592 21.5096 14.721 21.532 14.4122 21.9071C14.1695 21.9445 14.0739 21.9445 13.9121 22.2371C14.1622 22.1321 14.3239 22.1021 14.4342 22.2146C14.8974 22.4921 15.1989 22.432 15.4268 22.2146L16.7136 22.297C16.5518 22.4471 16.3313 22.522 16.1622 22.657C15.5003 22.4621 15.1474 22.7321 15.0298 23.2796C14.9369 23.4991 14.9063 23.7407 14.9416 23.9771C15.0004 23.7521 15.1107 23.5645 15.3018 23.4521C15.8901 23.602 16.1107 23.3546 16.1474 22.9946C16.4415 22.7545 16.8681 22.702 17.1548 22.4621C17.493 22.567 17.6548 22.6346 17.9931 22.747C18.1107 23.1221 18.3827 23.2646 18.8239 23.1671C19.3387 23.1821 19.2504 23.4071 19.2945 23.5796C19.4415 23.332 19.4342 23.0846 19.1107 22.8596C18.9931 22.5371 18.7283 22.387 18.3901 22.5745C18.0666 22.4845 17.9857 22.3496 17.6621 22.252C18.471 21.9895 19.0445 21.9296 19.8534 21.667L20.4195 22.1771C20.5298 22.2446 20.6328 22.2595 20.6989 22.1771C21.2063 21.4271 21.4342 20.7745 21.8974 20.2795C22.0812 20.0696 22.3092 19.7996 22.5592 19.732C22.6843 19.6945 22.8386 19.7171 22.9416 19.8295C23.0372 19.9346 23.118 20.137 23.0886 20.4446C23.0372 20.8721 22.9342 21.0146 22.8166 21.2695C22.6916 21.532 22.5518 21.6896 22.3975 21.892C22.1034 22.2896 21.7063 22.522 21.471 22.6796C21.0004 22.9871 20.8092 22.8521 20.4416 22.8296C19.971 22.882 19.8533 23.1145 20.2357 23.4371C20.5886 23.6321 20.9122 23.6545 21.1769 23.602C21.3975 23.557 21.6621 23.2646 21.8533 23.107C22.0592 22.8596 22.4122 23.152 22.1695 23.4446C21.7357 23.9695 21.3092 24.3146 20.7724 24.3071C20.2063 24.3821 20.3165 24.7046 20.6843 24.862C21.3607 25.1395 21.9636 24.6146 22.2725 24.2621C22.5078 23.9996 22.6769 23.9921 22.6401 24.4046C22.3975 25.1471 22.0812 25.4321 21.5518 25.4696C21.1254 25.4246 21.118 25.7695 21.4342 25.9945C22.1401 26.4895 22.6548 25.6345 22.8974 25.1246C23.0666 24.6596 23.3313 24.8771 23.3607 25.2596C23.3607 25.7771 23.1401 26.1896 22.5298 26.7146C22.9931 27.472 23.5371 28.2446 24.0004 29.002L25.4122 12.9521L24.0004 10.4245C23.8534 10.2895 23.3533 9.68956 23.2283 9.59956C23.1769 9.55456 23.1548 9.52453 23.221 9.49459C23.2872 9.46457 23.4415 9.43457 23.5518 9.41957C23.2577 9.11207 22.9931 9.01457 22.4268 8.84957C22.5666 8.78957 22.6989 8.81957 23.1107 8.80457C22.858 8.4583 22.5136 8.19289 22.118 8.03957C22.4268 7.81457 22.4857 7.79957 22.7946 7.53707C22.3074 7.49868 21.8263 7.40306 21.3607 7.25207C21.0826 7.11729 20.7844 7.0311 20.4783 6.99707H20.471ZM20.5298 7.62707C20.8092 7.62707 20.9784 7.72457 20.9784 7.84457C20.9784 7.96457 20.8092 8.06207 20.5298 8.06207C20.2504 8.06207 20.0739 7.94957 20.0739 7.83707C20.0739 7.71707 20.2504 7.62707 20.5298 7.62707Z" fill="#000001"/>
<path d="M27.5291 6.99707C27.8673 6.99707 28.4334 7.10957 28.4261 7.37207C29.3821 7.21457 29.4776 7.61207 29.4188 7.97207C29.3306 7.82957 29.2203 7.74707 29.132 7.73957C29.007 7.71707 28.8747 7.76207 28.7349 7.84457C28.6031 7.92888 28.4843 8.0325 28.3821 8.15207C28.7202 8.23457 28.985 8.18207 29.2496 8.13707C29.3993 8.10455 29.5414 8.04348 29.6687 7.95707C29.779 7.88207 29.8158 7.80707 29.985 7.63457C30.1835 7.42457 30.3967 7.48457 30.3306 7.80707C30.1761 8.10707 29.9188 8.24207 29.5952 8.30207C29.4409 8.32457 29.2055 8.37707 28.9408 8.37707C28.6762 8.37707 28.382 8.33957 28.2203 8.37707C28.3158 8.43707 28.4261 8.54957 28.6467 8.58707C28.8673 8.63207 29.1982 8.45207 29.4041 8.40707C29.3821 8.57957 29.1614 8.74457 28.7349 8.83457C28.029 8.98457 27.4482 9.10457 27.0585 9.32207C26.7503 9.49734 26.4781 9.73162 26.257 10.012C25.9115 10.4245 25.8894 10.7471 25.8747 10.822C25.8012 11.4821 26.029 11.857 26.4556 11.9771C26.6614 12.0296 27.0438 11.9246 27.1761 11.7596C27.3232 11.5945 27.4482 11.3096 27.4114 10.8596C27.3746 10.6945 27.1835 10.237 27.3453 10.147C28.1119 9.71732 28.9053 9.33901 29.7202 9.01457C29.904 8.93957 30.0511 9.19457 30.11 9.29957C30.6529 9.22237 31.1722 9.0228 31.6301 8.71534C32.0879 8.40787 32.4729 8.00025 32.757 7.52207C33.0658 6.95207 33.5879 7.52207 33.4997 8.06957C33.3599 8.66957 32.9115 9.10457 32.3673 9.41957C31.8158 9.72707 31.1173 10.0346 30.4188 10.0195C30.0365 10.0946 30.0438 10.5896 30.4923 10.687C31.3821 10.687 32.0953 10.6721 32.7644 10.012C33.2717 9.53959 33.5511 10.102 33.4114 10.417C33.1614 11.3996 31.7864 11.677 30.3967 11.362C29.8526 11.272 30.1761 11.857 30.3232 11.8645C30.9115 12.2921 31.9482 12.7046 32.8673 11.8645C33.2864 11.5346 33.5732 11.8046 33.4114 12.2771C33.007 13.5146 31.4482 13.252 30.3821 12.6521C30.11 12.4945 29.86 12.8545 30.1908 13.1321C31.5217 14.0771 32.1835 14.0921 32.7864 13.7321C33.5364 13.4246 33.5952 14.2721 33.1541 14.557C32.6614 14.8571 31.4041 14.6321 30.4776 14.0321C30.0805 13.7321 30.0658 14.2045 30.3158 14.3921C31.4114 15.3596 31.8452 15.6146 32.985 15.457C33.5511 15.412 33.5438 16.1246 33.1026 16.402C32.4923 16.7846 31.3011 16.1546 30.3821 15.367C29.9923 15.1571 29.9261 15.502 30.1173 15.9145C30.5244 16.502 31.0777 16.9681 31.7202 17.2645C32.2349 17.4671 32.7202 17.437 33.0658 17.3171C33.4923 17.167 33.5437 17.617 33.3085 18.022C33.1688 18.2696 32.5879 18.3445 31.9555 18.1195C31.3231 17.8945 30.6467 17.3545 30.1835 16.7321C29.779 16.3645 29.8232 16.852 30.0143 17.1971C30.9408 18.697 31.7938 19.2521 32.9188 19.1621C33.4114 19.0721 33.5291 19.462 33.2129 19.8371C32.6541 20.3021 31.9629 20.2871 31.3453 19.822C30.8085 19.2971 29.7717 18.1421 29.2276 17.527C28.8452 17.2195 28.7202 17.527 28.8379 18.157C28.9408 18.517 29.1908 18.9071 29.8893 19.1771C30.3673 19.4546 30.007 19.8371 29.6541 19.8521C29.4556 19.8521 29.0585 19.6121 28.7497 19.2671C28.3526 18.8021 28.3231 18.4946 28.1026 17.7746C27.8967 17.4296 27.5217 17.5946 27.5217 17.9546C27.7055 18.6746 27.8526 18.8021 28.2203 19.0946C28.5659 19.4321 27.9776 19.5446 27.779 19.4021C27.2055 19.012 26.9997 18.5021 26.8085 18.0371C26.6614 17.707 26.2643 17.8646 26.4556 18.4121C26.8967 19.7171 27.632 20.227 28.904 20.497C29.0291 20.5196 29.11 20.5945 29.0658 20.7446L28.5511 21.2695C29.3379 21.5096 29.9776 21.6446 30.7717 21.8696L31.86 21.1345C31.9555 20.8946 32.007 20.5196 32.5805 20.7821C32.9629 20.6021 33.1468 20.6696 33.3599 20.857C33.0511 20.857 32.9188 20.947 32.7938 21.0895C32.632 21.5171 32.2644 21.5621 31.8894 21.442C31.6467 21.6446 31.5217 21.8095 31.2718 22.0196L32.4997 21.982C32.9408 21.5096 33.2791 21.532 33.5879 21.9071C33.8305 21.9445 33.9261 21.9445 34.0879 22.2371C33.8379 22.1321 33.6762 22.1021 33.5659 22.2146C33.1026 22.4921 32.8012 22.432 32.5732 22.2146L31.2864 22.297C31.4482 22.4471 31.6687 22.522 31.8379 22.657C32.4997 22.4621 32.8526 22.7321 32.9703 23.2796C33.0632 23.4991 33.0938 23.7407 33.0585 23.9771C32.9997 23.7521 32.8893 23.5645 32.6982 23.4521C32.11 23.602 31.8893 23.3546 31.8526 22.9946C31.5585 22.7545 31.132 22.702 30.8452 22.4621C30.507 22.567 30.3453 22.6346 30.007 22.747C29.8893 23.1221 29.6173 23.2646 29.1761 23.1671C28.6614 23.1821 28.7497 23.4071 28.7055 23.5796C28.5585 23.332 28.5659 23.0846 28.8893 22.8596C29.007 22.5371 29.2717 22.387 29.6099 22.5745C29.9335 22.4845 30.0143 22.3496 30.3379 22.252C29.5291 21.9895 28.9555 21.9296 28.1467 21.667L27.5806 22.1771C27.4702 22.2446 27.3673 22.2595 27.3011 22.1771C26.7937 21.4271 26.5659 20.7745 26.1026 20.2795C25.9188 20.0696 25.6909 19.7996 25.4409 19.732C25.3158 19.6945 25.1614 19.7171 25.0585 19.8295C24.9629 19.9346 24.882 20.137 24.9115 20.4446C24.9629 20.8721 25.0658 21.0146 25.1835 21.2695C25.3085 21.532 25.4482 21.6896 25.6026 21.892C25.8967 22.2896 26.2938 22.522 26.5291 22.6796C26.9997 22.9871 27.1908 22.8521 27.5584 22.8296C28.029 22.882 28.1468 23.1145 27.7644 23.4371C27.4114 23.6321 27.0878 23.6545 26.8232 23.602C26.6026 23.557 26.3379 23.2646 26.1468 23.107C25.9408 22.8596 25.5879 23.152 25.8305 23.4446C26.2643 23.9695 26.6909 24.3146 27.2276 24.3071C27.7937 24.3821 27.6835 24.7046 27.3158 24.862C26.6394 25.1395 26.0365 24.6146 25.7276 24.2621C25.4923 23.9996 25.3231 23.9921 25.3599 24.4046C25.6026 25.1471 25.9188 25.4321 26.4482 25.4696C26.8747 25.4246 26.882 25.7695 26.5659 25.9945C25.86 26.4895 25.3453 25.6345 25.1026 25.1246C24.9335 24.6596 24.6687 24.8771 24.6394 25.2596C24.6394 25.7771 24.86 26.1896 25.4702 26.7146C25.007 27.472 24.4629 28.2446 23.9997 29.002L22.5879 12.9521L23.9997 10.4245C24.1467 10.2895 24.6467 9.68956 24.7717 9.59956C24.8232 9.55456 24.8452 9.52453 24.779 9.49459C24.7129 9.46457 24.5585 9.43457 24.4482 9.41957C24.7423 9.11207 25.007 9.01457 25.5732 8.84957C25.4334 8.78957 25.3011 8.81957 24.8893 8.80457C25.1421 8.4583 25.4864 8.19289 25.882 8.03957C25.5732 7.81457 25.5144 7.79957 25.2055 7.53707C25.6926 7.49868 26.1738 7.40306 26.6394 7.25207C26.9174 7.11729 27.2157 7.0311 27.5217 6.99707H27.5291ZM27.4702 7.62707C27.1908 7.62707 27.0217 7.72457 27.0217 7.84457C27.0217 7.96457 27.1908 8.06207 27.4702 8.06207C27.7497 8.06207 27.9261 7.94957 27.9261 7.83707C27.9261 7.71707 27.7497 7.62707 27.4702 7.62707Z" fill="#000001"/>
</g>
</g>
<defs>
<clipPath id="clip0_35_32967">
<rect width="48" height="36" fill="white"/>
</clipPath>
</defs>
</svg>
