<svg width="48" height="36" viewBox="0 0 48 36" fill="none" xmlns="http://www.w3.org/2000/svg">
<g clip-path="url(#clip0_35_33104)">
<mask id="mask0_35_33104" style="mask-type:luminance" maskUnits="userSpaceOnUse" x="-1" y="-1" width="50" height="37">
<path d="M44.5883 -1H3.4118C1.24598 -1 -0.509766 0.743733 -0.509766 2.89474V32.1053C-0.509766 34.2563 1.24598 36 3.4118 36H44.5883C46.7541 36 48.5098 34.2563 48.5098 32.1053V2.89474C48.5098 0.743733 46.7541 -1 44.5883 -1Z" fill="white"/>
</mask>
<g mask="url(#mask0_35_33104)">
<path d="M-0.509766 -1H48.5098V11.3334H-0.509766V-1Z" fill="#D90012"/>
<path d="M-0.509766 11.333H48.5098V23.6663H-0.509766V11.333Z" fill="#0033A0"/>
<path d="M-0.509766 23.667H48.5098V36.0004H-0.509766V23.667Z" fill="#F2A800"/>
</g>
<g clip-path="url(#clip1_35_33104)">
<mask id="mask1_35_33104" style="mask-type:luminance" maskUnits="userSpaceOnUse" x="-1" y="0" width="50" height="36">
<path d="M44.5883 0H3.4118C1.24598 0 -0.509766 1.69661 -0.509766 3.78947V32.2105C-0.509766 34.3034 1.24598 36 3.4118 36H44.5883C46.7541 36 48.5098 34.3034 48.5098 32.2105V3.78947C48.5098 1.69661 46.7541 0 44.5883 0Z" fill="white"/>
</mask>
<g mask="url(#mask1_35_33104)">
<mask id="mask2_35_33104" style="mask-type:luminance" maskUnits="userSpaceOnUse" x="-1" y="0" width="50" height="36">
<path d="M-0.507812 0H48.507V36H-0.507812V0Z" fill="white"/>
</mask>
<g mask="url(#mask2_35_33104)">
<path fill-rule="evenodd" clip-rule="evenodd" d="M-0.507812 0H48.507V36H-0.507812V0Z" fill="#000099"/>
<path fill-rule="evenodd" clip-rule="evenodd" d="M9.67383 0L46.3668 36.0211V0.0210937L9.67383 0Z" fill="#FFCC00"/>
<path fill-rule="evenodd" clip-rule="evenodd" d="M37.205 33.8556L35.2017 32.4283L33.1481 33.8486L33.9236 31.5142L31.8986 30.0729H34.4118L35.1873 27.7385L35.9556 30.0799H38.4689L36.4583 31.5354L37.205 33.8556ZM43.0429 34.5869L40.5297 34.5799L39.7614 32.2385L38.9858 34.5729H36.4727L38.4976 36.0142L37.7221 38.3486L39.7757 36.9283L41.7863 38.3556L41.0323 36.0354L43.0429 34.5869ZM31.8698 27.0495L33.8804 25.5939L31.3672 25.5869L30.599 23.2525L29.8234 25.5869L27.3102 25.5799L29.3351 27.0213L28.5596 29.3628L30.6133 27.9353L32.6239 29.3698L31.8698 27.0495ZM27.2528 22.5142L29.2634 21.0658L26.7501 21.0588L25.9818 18.7174L25.1991 21.0518H22.6931L24.718 22.4932L23.9425 24.8275L25.9961 23.4072L27.9995 24.8346L27.2528 22.5142ZM22.6787 18.0424L24.6893 16.5869H22.176L21.4149 14.2385L20.6395 16.5729H18.1262L20.1511 18.0072L19.3756 20.3486L21.4293 18.9213L23.4398 20.3556L22.6859 18.0353L22.6787 18.0424ZM18.0544 13.5213L20.0649 12.0729L17.5518 12.0658L16.7835 9.72446L16.0007 12.0588H13.4947L15.5268 13.5002L14.7513 15.8346L16.8049 14.4142L18.8084 15.8416L18.0616 13.5213H18.0544ZM13.4875 9.02833L15.4909 7.57286H12.9777L12.2166 5.22442L11.4339 7.56583H8.92063L10.9599 9.0002L10.1773 11.3346L12.2309 9.91422L14.2271 11.3486L13.4875 9.02833ZM8.8919 4.52833L10.8953 3.07286H8.38212L7.62098 0.724417L6.83829 3.06583H4.32508L6.36437 4.5002L5.5745 6.8416L7.63534 5.41426L9.63151 6.84863L8.8919 4.52833ZM4.29635 0.0283232L6.29257 -1.42714H3.77935L3.01103 -3.76855L2.24271 -1.43417H-0.270508L1.7616 0.000198126L0.986099 2.33457L3.03976 0.914261L5.03596 2.34863L4.29635 0.0283232Z" fill="white"/>
</g>
</g>
</g>
</g>
<defs>
<clipPath id="clip0_35_33104">
<rect width="50" height="37" fill="white" transform="translate(-1 -1)"/>
</clipPath>
<clipPath id="clip1_35_33104">
<rect width="50" height="36" fill="white" transform="translate(-1)"/>
</clipPath>
</defs>
</svg>
