<svg width="48" height="36" viewBox="0 0 48 36" fill="none" xmlns="http://www.w3.org/2000/svg">
<g clip-path="url(#clip0_35_33908)">
<path d="M-3 0.0214844H51V36.0242H-3V0.0214844Z" fill="white"/>
<path d="M-3 0.0214844H51V12.0224H-3V0.0214844Z" fill="#FF6820"/>
<path d="M-3 24.0234H51V36.0244H-3V24.0234Z" fill="#046A38"/>
<path d="M24.0002 23.5735C27.0654 23.5735 29.5502 21.0885 29.5502 18.0231C29.5502 14.9577 27.0654 12.4727 24.0002 12.4727C20.935 12.4727 18.4502 14.9577 18.4502 18.0231C18.4502 21.0885 20.935 23.5735 24.0002 23.5735Z" fill="#07038D"/>
<path d="M24.0002 22.8234C26.6512 22.8234 28.8002 20.6742 28.8002 18.023C28.8002 15.3719 26.6512 13.2227 24.0002 13.2227C21.3492 13.2227 19.2002 15.3719 19.2002 18.023C19.2002 20.6742 21.3492 22.8234 24.0002 22.8234Z" fill="white"/>
<path d="M24 18.9826C24.5302 18.9826 24.96 18.5528 24.96 18.0226C24.96 17.4923 24.5302 17.0625 24 17.0625C23.4698 17.0625 23.04 17.4923 23.04 18.0226C23.04 18.5528 23.4698 18.9826 24 18.9826Z" fill="#07038D"/>
<path d="M24.0013 13.2227L24.1813 16.1113L24.0013 17.5416L23.8213 16.1113L24.0013 13.2227Z" fill="#07038D"/>
<path d="M24.6006 13.4712C24.7156 13.4863 24.8211 13.4054 24.8363 13.2904C24.8514 13.1754 24.7705 13.0699 24.6555 13.0548C24.5405 13.0396 24.435 13.1206 24.4199 13.2355C24.4047 13.3505 24.4857 13.456 24.6006 13.4712Z" fill="#07038D"/>
<path d="M24.0007 22.8223L23.8207 19.9336L24.0007 18.5033L24.1807 19.9336L24.0007 22.8223Z" fill="#07038D"/>
<path d="M23.4013 22.5738C23.2863 22.5586 23.1808 22.6396 23.1657 22.7546C23.1506 22.8695 23.2315 22.975 23.3465 22.9902C23.4615 23.0053 23.567 22.9244 23.5821 22.8094C23.5972 22.6944 23.5163 22.5889 23.4013 22.5738Z" fill="#07038D"/>
<path d="M25.2422 13.3845L24.6685 16.2213L24.1245 17.5562L24.3208 16.1281L25.2422 13.3845Z" fill="#07038D"/>
<path d="M25.7569 13.7789C25.8641 13.8233 25.9869 13.7725 26.0313 13.6653C26.0757 13.5581 26.0248 13.4353 25.9176 13.3909C25.8105 13.3465 25.6877 13.3974 25.6433 13.5046C25.5989 13.6117 25.6498 13.7346 25.7569 13.7789Z" fill="#07038D"/>
<path d="M22.7587 22.6604L23.3324 19.8236L23.8765 18.4887L23.6802 19.9168L22.7587 22.6604Z" fill="#07038D"/>
<path d="M22.244 22.264C22.1369 22.2196 22.0141 22.2705 21.9697 22.3777C21.9253 22.4848 21.9762 22.6077 22.0833 22.6521C22.1905 22.6964 22.3133 22.6456 22.3577 22.5384C22.4021 22.4313 22.3512 22.3084 22.244 22.264Z" fill="#07038D"/>
<path d="M26.3991 13.8674L25.1107 16.459L24.2398 17.6076L24.7989 16.279L26.3991 13.8674Z" fill="#07038D"/>
<path d="M26.7937 14.381C26.8858 14.4516 27.0176 14.4342 27.0882 14.3422C27.1588 14.2502 27.1414 14.1184 27.0494 14.0478C26.9574 13.9772 26.8256 13.9945 26.755 14.0865C26.6844 14.1785 26.7017 14.3104 26.7937 14.381Z" fill="#07038D"/>
<path d="M21.598 22.1795L22.8863 19.5878L23.7573 18.4392L23.1981 19.7679L21.598 22.1795Z" fill="#07038D"/>
<path d="M21.2043 21.6659C21.1123 21.5953 20.9805 21.6126 20.9099 21.7047C20.8393 21.7967 20.8566 21.9285 20.9486 21.9991C21.0406 22.0697 21.1725 22.0524 21.2431 21.9603C21.3137 21.8683 21.2963 21.7365 21.2043 21.6659Z" fill="#07038D"/>
<path d="M27.3939 14.6292L25.4787 16.7991L24.3402 17.6832L25.2242 16.5446L27.3939 14.6292Z" fill="#07038D"/>
<path d="M27.6413 15.2289C27.7119 15.321 27.8437 15.3383 27.9358 15.2677C28.0278 15.1971 28.0451 15.0653 27.9745 14.9733C27.9039 14.8812 27.7721 14.8639 27.6801 14.9345C27.5881 15.0051 27.5707 15.1369 27.6413 15.2289Z" fill="#07038D"/>
<path d="M20.6051 21.4157L22.5203 19.2458L23.6588 18.3617L22.7749 19.5004L20.6051 21.4157Z" fill="#07038D"/>
<path d="M20.3577 20.814C20.2871 20.722 20.1553 20.7047 20.0633 20.7753C19.9713 20.8459 19.9539 20.9777 20.0245 21.0697C20.0951 21.1617 20.2269 21.1791 20.3189 21.1085C20.411 21.0379 20.4283 20.906 20.3577 20.814Z" fill="#07038D"/>
<path d="M28.1574 15.6246L25.7459 17.2249L24.4174 17.7841L25.5659 16.9131L28.1574 15.6246Z" fill="#07038D"/>
<path d="M28.2412 16.2669C28.2855 16.374 28.4084 16.4249 28.5155 16.3805C28.6227 16.3361 28.6736 16.2133 28.6292 16.1061C28.5848 15.999 28.462 15.9481 28.3548 15.9925C28.2477 16.0369 28.1968 16.1597 28.2412 16.2669Z" fill="#07038D"/>
<path d="M19.8436 20.4222L22.2551 18.822L23.5836 18.2628L22.4351 19.1338L19.8436 20.4222Z" fill="#07038D"/>
<path d="M19.7598 19.78C19.7154 19.6729 19.5926 19.622 19.4854 19.6664C19.3783 19.7107 19.3274 19.8336 19.3718 19.9407C19.4162 20.0479 19.539 20.0988 19.6462 20.0544C19.7533 20.01 19.8042 19.8872 19.7598 19.78Z" fill="#07038D"/>
<path d="M28.6374 16.7832L25.894 17.7048L24.466 17.9011L25.8008 17.357L28.6374 16.7832Z" fill="#07038D"/>
<path d="M28.5514 17.4251C28.5666 17.5401 28.6721 17.6211 28.787 17.6059C28.902 17.5908 28.983 17.4853 28.9678 17.3703C28.9527 17.2553 28.8472 17.1744 28.7322 17.1895C28.6172 17.2047 28.5363 17.3102 28.5514 17.4251Z" fill="#07038D"/>
<path d="M19.3636 19.2636L22.107 18.3421L23.535 18.1458L22.2002 18.6898L19.3636 19.2636Z" fill="#07038D"/>
<path d="M19.4495 18.6198C19.4344 18.5048 19.3289 18.4238 19.2139 18.439C19.0989 18.4541 19.018 18.5596 19.0331 18.6746C19.0483 18.7896 19.1538 18.8705 19.2687 18.8554C19.3837 18.8403 19.4647 18.7348 19.4495 18.6198Z" fill="#07038D"/>
<path d="M28.7998 18.0257L25.9113 18.2057L24.4812 18.0258L25.9114 17.8458L28.7998 18.0257Z" fill="#07038D"/>
<path d="M28.5503 18.626C28.5352 18.741 28.6161 18.8465 28.7311 18.8617C28.8461 18.8768 28.9516 18.7959 28.9667 18.6809C28.9819 18.5659 28.9009 18.4604 28.7859 18.4452C28.671 18.4301 28.5655 18.5111 28.5503 18.626Z" fill="#07038D"/>
<path d="M19.1992 18.0251L22.0877 17.8451L23.5178 18.025L22.0877 18.205L19.1992 18.0251Z" fill="#07038D"/>
<path d="M19.4487 17.4267C19.4638 17.3117 19.3829 17.2062 19.2679 17.1911C19.1529 17.1759 19.0474 17.2569 19.0323 17.3719C19.0172 17.4869 19.0981 17.5923 19.2131 17.6075C19.3281 17.6226 19.4335 17.5417 19.4487 17.4267Z" fill="#07038D"/>
<path d="M28.637 19.2637L25.8004 18.69L24.4656 18.1459L25.8936 18.3422L28.637 19.2637Z" fill="#07038D"/>
<path d="M28.2406 19.7774C28.1962 19.8846 28.2471 20.0074 28.3543 20.0518C28.4614 20.0962 28.5842 20.0453 28.6286 19.9382C28.673 19.831 28.6221 19.7082 28.515 19.6638C28.4078 19.6194 28.285 19.6703 28.2406 19.7774Z" fill="#07038D"/>
<path d="M19.363 16.7812L22.1996 17.355L23.5344 17.899L22.1064 17.7027L19.363 16.7812Z" fill="#07038D"/>
<path d="M19.7594 16.2675C19.8038 16.1603 19.7529 16.0375 19.6457 15.9931C19.5386 15.9487 19.4158 15.9996 19.3714 16.1068C19.327 16.2139 19.3779 16.3368 19.485 16.3811C19.5922 16.4255 19.715 16.3746 19.7594 16.2675Z" fill="#07038D"/>
<path d="M28.159 20.4215L25.5676 19.1331L24.419 18.262L25.7475 18.8213L28.159 20.4215Z" fill="#07038D"/>
<path d="M27.6435 20.8172C27.5729 20.9092 27.5902 21.041 27.6822 21.1116C27.7742 21.1822 27.9061 21.1649 27.9767 21.0729C28.0473 20.9808 28.0299 20.849 27.9379 20.7784C27.8459 20.7078 27.7141 20.7251 27.6435 20.8172Z" fill="#07038D"/>
<path d="M19.8449 15.6234L22.4364 16.9119L23.5849 17.7829L22.2564 17.2236L19.8449 15.6234Z" fill="#07038D"/>
<path d="M20.3604 15.2297C20.431 15.1377 20.4137 15.0059 20.3217 14.9353C20.2297 14.8646 20.0978 14.882 20.0272 14.974C19.9566 15.066 19.974 15.1979 20.066 15.2685C20.158 15.3391 20.2898 15.3217 20.3604 15.2297Z" fill="#07038D"/>
<path d="M27.3942 21.4163L25.2245 19.501L24.3405 18.3624L25.479 19.2465L27.3942 21.4163Z" fill="#07038D"/>
<path d="M26.7945 21.6638C26.7025 21.7344 26.6852 21.8662 26.7558 21.9582C26.8264 22.0502 26.9582 22.0676 27.0502 21.997C27.1422 21.9264 27.1596 21.7945 27.089 21.7025C27.0184 21.6105 26.8865 21.5932 26.7945 21.6638Z" fill="#07038D"/>
<path d="M20.6068 14.6266L22.7765 16.5419L23.6605 17.6806L22.5219 16.7965L20.6068 14.6266Z" fill="#07038D"/>
<path d="M21.2065 14.3792C21.2985 14.3086 21.3158 14.1768 21.2452 14.0848C21.1746 13.9927 21.0428 13.9754 20.9508 14.046C20.8588 14.1166 20.8414 14.2484 20.912 14.3404C20.9826 14.4325 21.1144 14.4498 21.2065 14.3792Z" fill="#07038D"/>
<path d="M26.4008 22.1779L24.8006 19.7662L24.2415 18.4376L25.1124 19.5862L26.4008 22.1779Z" fill="#07038D"/>
<path d="M25.7566 22.2607C25.6495 22.3051 25.5986 22.4279 25.643 22.5351C25.6873 22.6422 25.8102 22.6931 25.9173 22.6487C26.0245 22.6043 26.0753 22.4815 26.031 22.3743C25.9866 22.2672 25.8637 22.2163 25.7566 22.2607Z" fill="#07038D"/>
<path d="M21.5992 13.8651L23.1994 16.2767L23.7585 17.6054L22.8876 16.4567L21.5992 13.8651Z" fill="#07038D"/>
<path d="M22.2424 13.7823C22.3496 13.7379 22.4005 13.6151 22.3561 13.5079C22.3117 13.4007 22.1888 13.3499 22.0817 13.3942C21.9746 13.4386 21.9237 13.5615 21.9681 13.6686C22.0124 13.7758 22.1353 13.8267 22.2424 13.7823Z" fill="#07038D"/>
<path d="M25.2431 22.656L24.3217 19.9123L24.1254 18.4842L24.6694 19.8191L25.2431 22.656Z" fill="#07038D"/>
<path d="M24.5993 22.57C24.4843 22.5851 24.4034 22.6906 24.4185 22.8056C24.4336 22.9206 24.5391 23.0015 24.6541 22.9864C24.7691 22.9713 24.85 22.8658 24.8349 22.7508C24.8198 22.6358 24.7143 22.5548 24.5993 22.57Z" fill="#07038D"/>
<path d="M22.7588 13.3831L23.6803 16.1268L23.8766 17.5549L23.3326 16.2199L22.7588 13.3831Z" fill="#07038D"/>
<path d="M23.4017 13.4691C23.5167 13.454 23.5976 13.3485 23.5825 13.2335C23.5673 13.1185 23.4618 13.0375 23.3469 13.0527C23.2319 13.0678 23.1509 13.1733 23.1661 13.2883C23.1812 13.4033 23.2867 13.4842 23.4017 13.4691Z" fill="#07038D"/>
</g>
<defs>
<clipPath id="clip0_35_33908">
<rect width="54" height="36.0027" fill="white" transform="translate(-3 0.0214844)"/>
</clipPath>
</defs>
</svg>
