<svg width="48" height="36" viewBox="0 0 48 36" fill="none" xmlns="http://www.w3.org/2000/svg">
<g clip-path="url(#clip0_35_33146)">
<mask id="mask0_35_33146" style="mask-type:luminance" maskUnits="userSpaceOnUse" x="-1" y="0" width="50" height="36">
<path d="M44.5883 0H3.4118C1.24598 0 -0.509766 1.69661 -0.509766 3.78947V32.2105C-0.509766 34.3034 1.24598 36 3.4118 36H44.5883C46.7541 36 48.5098 34.3034 48.5098 32.2105V3.78947C48.5098 1.69661 46.7541 0 44.5883 0Z" fill="white"/>
</mask>
<g mask="url(#mask0_35_33146)">
<path d="M-0.509766 0H48.5098V36H-0.509766V0Z" fill="#FECB00"/>
<path d="M-0.509766 12H48.5098V36H-0.509766V12Z" fill="#34B233"/>
<path d="M-0.509766 24H48.5098V36H-0.509766V24Z" fill="#EA2839"/>
<path d="M23.9999 6.00195L28.0643 19.268H19.9355L23.9999 6.00195Z" fill="white"/>
<path d="M16.0371 30.0004L20.7122 16.9287L27.2884 21.6073L16.0371 30.0004Z" fill="white"/>
<path d="M11.1152 15.1689L25.2559 15.4834L22.7441 23.0534L11.1152 15.1689Z" fill="white"/>
<path d="M36.8848 15.1689L25.2561 23.0534L22.7441 15.4834L36.8848 15.1689Z" fill="white"/>
<path d="M31.9643 30.0004L20.7129 21.6073L27.2892 16.9287L31.9643 30.0004Z" fill="white"/>
</g>
</g>
<defs>
<clipPath id="clip0_35_33146">
<rect width="50" height="36" fill="white" transform="translate(-1)"/>
</clipPath>
</defs>
</svg>
