<svg width="48" height="36" viewBox="0 0 48 36" fill="none" xmlns="http://www.w3.org/2000/svg">
<g clip-path="url(#clip0_35_35548)">
<path d="M0 0H54V36H0V0Z" fill="white"/>
<path d="M0 0H54V18H0V0Z" fill="#ED2939"/>
<path d="M11.4053 15.625C15.0642 15.625 18.0303 12.6589 18.0303 9C18.0303 5.34111 15.0642 2.375 11.4053 2.375C7.74639 2.375 4.78027 5.34111 4.78027 9C4.78027 12.6589 7.74639 15.625 11.4053 15.625Z" fill="white"/>
<path d="M14.4053 15.625C18.0642 15.625 21.0303 12.6589 21.0303 9C21.0303 5.34111 18.0642 2.375 14.4053 2.375C10.7464 2.375 7.78027 5.34111 7.78027 9C7.78027 12.6589 10.7464 15.625 14.4053 15.625Z" fill="#ED2939"/>
<path d="M15.0302 3.47461L14.0163 6.59516L16.6708 4.66655H13.3896L16.0441 6.59516L15.0302 3.47461Z" fill="white"/>
<path d="M20.2843 7.2927L17.0032 7.2927L19.6577 9.22131L18.6437 6.10075L17.6298 9.22131L20.2843 7.2927Z" fill="white"/>
<path d="M11.7821 13.4693L14.4366 11.5407L11.1555 11.5407L13.81 13.4693L12.7961 10.3487L11.7821 13.4693Z" fill="white"/>
<path d="M18.2772 13.4682L17.2633 10.3477L16.2494 13.4682L18.9039 11.5396L15.6227 11.5396L18.2772 13.4682Z" fill="white"/>
<path d="M9.77552 7.29324L12.43 9.22185L11.4161 6.10129L10.4022 9.22185L13.0567 7.29324L9.77552 7.29324Z" fill="white"/>
</g>
<defs>
<clipPath id="clip0_35_35548">
<rect width="54" height="36" fill="white"/>
</clipPath>
</defs>
</svg>
