<svg width="48" height="36" viewBox="0 0 48 36" fill="none" xmlns="http://www.w3.org/2000/svg">
<g clip-path="url(#clip0_35_35357)">
<mask id="mask0_35_35357" style="mask-type:luminance" maskUnits="userSpaceOnUse" x="-1" y="0" width="50" height="37">
<path d="M44.5883 0H3.4118C1.24598 0 -0.509766 1.74373 -0.509766 3.89474V33.1053C-0.509766 35.2563 1.24598 37 3.4118 37H44.5883C46.7541 37 48.5098 35.2563 48.5098 33.1053V3.89474C48.5098 1.74373 46.7541 0 44.5883 0Z" fill="white"/>
</mask>
<g mask="url(#mask0_35_35357)">
<path d="M-0.509766 0H48.5098V37H-0.509766V0Z" fill="white"/>
<path d="M-0.509766 0H48.5098V11.1H-0.509766V0Z" fill="#000001"/>
<path d="M-0.509766 25.9004H48.5098V37.0004H-0.509766V25.9004Z" fill="#006600"/>
<path d="M17.4277 29.4852L17.8414 29.7164L28.572 10.9852C29.1924 10.8464 29.537 10.2452 29.8818 9.64391C30.1116 9.22766 31.0307 7.63203 31.4213 5.55078C30.3312 6.52571 29.4074 7.6741 28.6869 8.95016C28.3422 9.55141 27.9975 10.1527 28.1584 10.7771L17.4277 29.4852Z" fill="black" stroke="black" stroke-width="3"/>
<path d="M17.4277 29.4852L17.8414 29.7164L28.572 10.9852C29.1924 10.8464 29.537 10.2452 29.8818 9.64391C30.1116 9.22766 31.0307 7.63203 31.4213 5.55078C30.3312 6.52571 29.4074 7.6741 28.6869 8.95016C28.3422 9.55141 27.9975 10.1527 28.1584 10.7771L17.4277 29.4852Z" fill="white"/>
<path d="M30.5717 29.4852L30.158 29.7164L19.4273 10.9852C18.8069 10.8464 18.4623 10.2452 18.1176 9.64391C17.8878 9.22766 16.9687 7.63203 16.5781 5.55078C17.6682 6.52571 18.5919 7.6741 19.3124 8.95016C19.6571 9.55141 20.0018 10.1527 19.841 10.7771L30.5717 29.4852Z" fill="black" stroke="black" stroke-width="3"/>
<path d="M30.5717 29.4852L30.158 29.7164L19.4273 10.9852C18.8069 10.8464 18.4623 10.2452 18.1176 9.64391C17.8878 9.22766 16.9687 7.63203 16.5781 5.55078C17.6682 6.52571 18.5919 7.6741 19.3124 8.95016C19.6571 9.55141 20.0018 10.1527 19.841 10.7771L30.5717 29.4852Z" fill="white"/>
<path d="M48.5479 12.9504H28.3655C27.6762 11.1004 25.3784 7.40039 23.9997 7.40039C22.6211 7.40039 20.3233 11.1004 19.6339 12.9504H-0.525391V24.0504H19.6339C20.3233 25.9004 22.6211 29.6004 23.9997 29.6004C25.3784 29.6004 27.6762 25.9004 28.3655 24.0504H48.5479V12.9504Z" fill="#BB0000"/>
<path d="M28.3657 24.0492C29.055 22.1992 29.5146 20.3492 29.5146 18.4992C29.5146 16.6492 29.055 14.7992 28.3657 12.9492C27.6764 14.7992 27.2168 16.6492 27.2168 18.4992C27.2168 20.3492 27.6764 22.1992 28.3657 24.0492Z" fill="black"/>
<path d="M19.6343 24.0492C18.945 22.1992 18.4854 20.3492 18.4854 18.4992C18.4854 16.6492 18.945 14.7992 19.6343 12.9492C20.3236 14.7992 20.7832 16.6492 20.7832 18.4992C20.7832 20.3492 20.3236 22.1992 19.6343 24.0492Z" fill="black"/>
<path d="M23.9992 19.8863C24.5068 19.8863 24.9183 19.2651 24.9183 18.4988C24.9183 17.7324 24.5068 17.1113 23.9992 17.1113C23.4915 17.1113 23.0801 17.7324 23.0801 18.4988C23.0801 19.2651 23.4915 19.8863 23.9992 19.8863Z" fill="white"/>
<path d="M24.2295 19.8398C24.2295 19.8398 25.1486 21.6898 25.1486 24.6961C25.1486 27.7023 24.2295 29.5523 24.2295 29.5523V19.8398Z" fill="white"/>
<path d="M23.7697 17.1578C23.7697 17.1578 22.8506 15.3078 22.8506 12.3015C22.8506 9.29531 23.7697 7.44531 23.7697 7.44531V17.1578Z" fill="white"/>
<path d="M23.7697 19.8398C23.7697 19.8398 22.8506 21.6898 22.8506 24.6961C22.8506 27.7023 23.7697 29.5523 23.7697 29.5523V19.8398Z" fill="white"/>
<path d="M24.2295 17.1578C24.2295 17.1578 25.1486 15.3078 25.1486 12.3015C25.1486 9.29531 24.2295 7.44531 24.2295 7.44531V17.1578Z" fill="white"/>
</g>
</g>
<defs>
<clipPath id="clip0_35_35357">
<rect width="50" height="37" fill="white" transform="translate(-1)"/>
</clipPath>
</defs>
</svg>
