<svg width="48" height="36" viewBox="0 0 48 36" fill="none" xmlns="http://www.w3.org/2000/svg">
<g clip-path="url(#clip0_35_34333)">
<mask id="mask0_35_34333" style="mask-type:luminance" maskUnits="userSpaceOnUse" x="0" y="0" width="48" height="36">
<path d="M44.16 0H3.84C1.71923 0 0 1.69661 0 3.78947V32.2105C0 34.3034 1.71923 36 3.84 36H44.16C46.2808 36 48 34.3034 48 32.2105V3.78947C48 1.69661 46.2808 0 44.16 0Z" fill="white"/>
</mask>
<g mask="url(#mask0_35_34333)">
<path d="M0 0H48V36H0V0Z" fill="#EE1C25"/>
<path d="M5.75958 13.3196L8.99954 3.59961L12.2395 13.3196L3.59961 7.37961H14.3995L5.75958 13.3196Z" fill="#FFFF00"/>
<path d="M19.8128 3.78643L16.4785 4.52534L18.7026 1.93359L18.4844 5.42175L16.6341 2.33368L19.8128 3.78643Z" fill="#FFFF00"/>
<path d="M23.1783 8.05038L19.8184 7.43827L22.8736 5.91198L21.3197 9.04252L20.8118 5.47852L23.1783 8.05038Z" fill="#FFFF00"/>
<path d="M22.6872 14.0341L19.8691 12.1049L23.2812 11.9574L20.5856 14.182L21.5754 10.7207L22.6872 14.0341Z" fill="#FFFF00"/>
<path d="M18.4497 17.9428L16.5954 15.0747L19.7997 16.2566L16.4541 17.2674L18.704 14.457L18.4497 17.9428Z" fill="#FFFF00"/>
</g>
</g>
<defs>
<clipPath id="clip0_35_34333">
<rect width="48" height="36" fill="white"/>
</clipPath>
</defs>
</svg>
