<svg width="48" height="36" viewBox="0 0 48 36" fill="none" xmlns="http://www.w3.org/2000/svg">
<g clip-path="url(#clip0_35_34836)">
<mask id="mask0_35_34836" style="mask-type:luminance" maskUnits="userSpaceOnUse" x="-1" y="0" width="50" height="36">
<path d="M44.5883 0H3.4118C1.24598 0 -0.509766 1.69661 -0.509766 3.78947V32.2105C-0.509766 34.3034 1.24598 36 3.4118 36H44.5883C46.7541 36 48.5098 34.3034 48.5098 32.2105V3.78947C48.5098 1.69661 46.7541 0 44.5883 0Z" fill="white"/>
</mask>
<g mask="url(#mask0_35_34836)">
<path fill-rule="evenodd" clip-rule="evenodd" d="M-0.509766 0H48.5098V36H-0.509766V0Z" fill="#229E45"/>
<path fill-rule="evenodd" clip-rule="evenodd" d="M24.1071 32.7008L47.2 18.0233L23.9693 3.30078L0.799805 18.0533L24.1071 32.7008Z" fill="#F8E509"/>
<path fill-rule="evenodd" clip-rule="evenodd" d="M34.1712 18C34.1712 23.2725 29.7978 27.5475 24.398 27.5475C22.4683 27.5445 20.5829 26.9814 18.98 25.9294C17.3772 24.8773 16.129 23.3835 15.393 21.6369C14.657 19.8903 14.4663 17.9692 14.8452 16.1164C15.2241 14.2638 16.1554 12.5627 17.5214 11.2281C18.8875 9.89365 20.6269 8.98571 22.5199 8.61909C24.4129 8.25248 26.3742 8.44364 28.1563 9.16842C29.9383 9.89318 31.4608 11.1191 32.5315 12.691C33.6021 14.263 34.1727 16.1105 34.1712 18Z" fill="#2B49A3"/>
<path fill-rule="evenodd" clip-rule="evenodd" d="M21.1892 23.7222L20.8828 23.5496L20.5764 23.6996L20.6454 23.3622L20.4003 23.1071L20.745 23.0696L20.9135 22.7697L21.059 23.0847L21.396 23.1446L21.1432 23.3696M27.7303 25.3422L27.4315 25.1696L27.1252 25.3196L27.1864 24.9822L26.949 24.7346L27.2937 24.6972L27.4545 24.3897L27.6077 24.7047L27.9447 24.7646L27.6843 24.9971M24.9116 22.7471L24.6512 22.5972L24.3831 22.7322L24.4444 22.4397L24.23 22.2222L24.5363 22.1922L24.6742 21.9222L24.7967 22.1996L25.0955 22.2521L24.8657 22.4547M31.5293 21.8172L31.2689 21.6671L31.0007 21.8021L31.062 21.5097L30.8553 21.2996L31.154 21.2696L31.2918 21.0072L31.4144 21.2772L31.7055 21.3297L31.4833 21.5246M24.7967 19.8746L24.4904 19.7097L24.184 19.8596L24.2453 19.5147L24.0078 19.2672L24.3525 19.2296L24.5133 18.9221L24.6665 19.2371L25.0035 19.2972L24.7431 19.5372M16.7314 16.9122L16.4251 16.7472L16.1187 16.8971L16.1954 16.5522L15.9426 16.3046L16.2949 16.2671L16.4481 15.9596L16.6012 16.2746L16.9383 16.3347L16.6856 16.5672M17.7042 20.8571L17.3978 20.6846L17.0914 20.8347L17.1604 20.4971L16.9153 20.2497L17.26 20.2047L17.4208 19.9046L17.574 20.2196L17.911 20.2796L17.6582 20.5122M27.7686 15.4646L27.4928 15.3146L27.217 15.4496L27.2783 15.1496L27.0639 14.9246L27.3703 14.8872L27.5157 14.6172L27.646 14.9022L27.9523 14.9546L27.7226 15.1572M27.2094 18.0296L27.0026 17.9097L26.7805 18.0146L26.8264 17.7747L26.6579 17.6022L26.903 17.5721L27.0179 17.3622L27.1175 17.5872L27.3473 17.6246L27.1788 17.7896M16.2872 21.5696L16.0805 21.4572L15.8736 21.5547L15.9196 21.3297L15.7588 21.1646L15.9885 21.1346L16.0958 20.9322L16.1954 21.1422L16.4251 21.1872L16.249 21.3372M31.5829 22.4846L31.4144 22.4022L31.2458 22.4771L31.2842 22.3046L31.154 22.1847L31.3378 22.1621L31.4297 22.0122L31.5062 22.1621L31.6978 22.1996L31.5522 22.3122" fill="#FFFFEF"/>
<path fill-rule="evenodd" clip-rule="evenodd" d="M16.2872 21.5691L16.0805 21.4566L15.8736 21.5541L15.9196 21.3291L15.7588 21.1641L15.9885 21.1341L16.0958 20.9316L16.1954 21.1416L16.4251 21.1866L16.249 21.3366" fill="#FFFFEF"/>
<path fill-rule="evenodd" clip-rule="evenodd" d="M16.2872 21.5696L16.0805 21.4572L15.8736 21.5547L15.9196 21.3297L15.7588 21.1646L15.9885 21.1346L16.0958 20.9322L16.1954 21.1422L16.4251 21.1872L16.249 21.3372M19.4888 21.5622L19.2897 21.4572L19.0829 21.5547L19.1288 21.3297L18.968 21.1646L19.1978 21.1346L19.305 20.9322L19.4046 21.1422L19.6344 21.1796L19.4582 21.3372M19.0906 22.6121L18.8914 22.4997L18.6846 22.6046L18.7306 22.3796L18.5697 22.2071L18.7995 22.1772L18.9067 21.9746L19.0063 22.1847L19.236 22.2297L19.0599 22.3796M25.7542 20.7146L25.555 20.5946L25.3406 20.6997L25.3865 20.4747L25.2333 20.3022L25.4631 20.2796L25.5704 20.0772L25.6622 20.2872L25.892 20.3246L25.7235 20.4822M23.801 20.7072L23.5942 20.5946L23.3874 20.6997L23.4334 20.4747L23.2802 20.3022L23.51 20.2796L23.6172 20.0697L23.7091 20.2872L23.9389 20.3246L23.7704 20.4822M18.5008 20.0471L18.3706 19.9722L18.2404 20.0322L18.2709 19.8897L18.1714 19.7846L18.3169 19.7696L18.3782 19.6421L18.4395 19.7771L18.5851 19.7997L18.4778 19.8972M31.3302 23.3022L31.1309 23.1896L30.9242 23.2946L30.9702 23.0696L30.8093 22.8972L31.0391 22.8672L31.1463 22.6646L31.2458 22.8746L31.4757 22.9196L31.2995 23.0696M29.7063 23.5196L29.5378 23.4146L29.3616 23.5046L29.4 23.3097L29.2698 23.1747L29.4612 23.1521L29.5532 22.9796L29.6298 23.1596L29.8212 23.1896L29.6758 23.3246M30.4723 23.4972L30.3191 23.4072L30.1582 23.4822L30.1889 23.3097L30.0663 23.1822L30.2425 23.1596L30.3267 23.0096L30.4033 23.1596L30.5795 23.1971L30.4493 23.3172M32.6782 21.6072L32.525 21.5321L32.3718 21.6072L32.4101 21.4346L32.2875 21.3071L32.4637 21.2847L32.5403 21.1346L32.6169 21.2922L32.7777 21.3222L32.6552 21.4421M29.6834 24.5772L29.4919 24.4722L29.2851 24.5622L29.331 24.3522L29.1778 24.2022L29.4076 24.1796L29.5072 23.9922L29.5991 24.1871L29.8289 24.2246L29.6527 24.3671M29.6987 25.4322L29.5149 25.3272L29.331 25.4247L29.377 25.2146L29.2314 25.0647L29.4383 25.0346L29.5302 24.8472L29.6145 25.0421L29.8212 25.0796L29.668 25.2296M28.2128 23.4972L28.0672 23.4072L27.9141 23.4822L27.9447 23.3172L27.8298 23.1896L27.9983 23.1747L28.0749 23.0246L28.1515 23.1747L28.32 23.2046L28.1974 23.3246M26.8341 23.4972L26.6809 23.4072L26.5277 23.4822L26.566 23.3172L26.4435 23.1896L26.6197 23.1747L26.6962 23.0246L26.7728 23.1747L26.9337 23.2046L26.8111 23.3246M24.4827 21.4796L24.3295 21.3971L24.1763 21.4722L24.2146 21.2996L24.0921 21.1796L24.2606 21.1572L24.3371 21.0072L24.4138 21.1572L24.5823 21.1947L24.4598 21.3071M24.7431 25.5821L24.6206 25.5147L24.4827 25.5821L24.5133 25.4322L24.4138 25.3272L24.5593 25.3121L24.6282 25.1846L24.6895 25.3196L24.8351 25.3422L24.7278 25.4396M21.1892 18.9447L20.8828 18.7722L20.5764 18.9221L20.6454 18.5847L20.4003 18.3371L20.745 18.2921L20.9135 17.9922L21.059 18.3072L21.396 18.3672L21.1432 18.5996" fill="#FFFFEF"/>
<path fill-rule="evenodd" clip-rule="evenodd" d="M33.5286 21.4349C33.7184 20.9527 33.867 20.4561 33.9729 19.9499C28.7798 15.4873 22.9971 13.1999 15.69 13.6724C15.425 14.1745 15.2072 14.6991 15.0391 15.2399C23.6941 14.4299 30.0513 18.1798 33.5286 21.4349Z" fill="white"/>
<path d="M31.1996 18.9292L31.3758 19.0267C31.3495 19.0776 31.3415 19.1357 31.3528 19.1917C31.3708 19.246 31.4091 19.2915 31.4601 19.3192C31.5137 19.3567 31.5673 19.3792 31.6132 19.3717C31.6592 19.3717 31.6899 19.3492 31.7128 19.3192C31.7262 19.2993 31.7317 19.2752 31.7281 19.2517C31.7219 19.224 31.7087 19.1982 31.6898 19.1767C31.6745 19.1542 31.6363 19.1017 31.575 19.0417C31.512 18.978 31.4648 18.901 31.4371 18.8167C31.4179 18.7529 31.4229 18.6844 31.4511 18.6238C31.4792 18.5633 31.5286 18.5146 31.5903 18.4867C31.646 18.4639 31.7076 18.4587 31.7665 18.4717C31.8384 18.488 31.9063 18.5186 31.9656 18.5617C32.0728 18.6367 32.1418 18.7117 32.1647 18.8017C32.1753 18.8438 32.1767 18.8876 32.1688 18.9303C32.1609 18.9729 32.1438 19.0135 32.1187 19.0492L31.935 18.9367C31.9579 18.8917 31.9656 18.8467 31.9503 18.8092C31.9427 18.7717 31.912 18.7342 31.8583 18.7042C31.819 18.6732 31.7709 18.6549 31.7205 18.6517C31.7066 18.6512 31.6928 18.6545 31.6807 18.6611C31.6685 18.6677 31.6585 18.6774 31.6516 18.6892C31.6363 18.7117 31.6363 18.7342 31.6439 18.7642C31.6516 18.7942 31.6898 18.8542 31.7665 18.9292C31.843 19.0042 31.889 19.0717 31.9196 19.1167C31.947 19.1658 31.9593 19.2217 31.9553 19.2775C31.9512 19.3333 31.9309 19.3868 31.8967 19.4317C31.8608 19.4827 31.8101 19.5219 31.7511 19.5442C31.6937 19.5701 31.6295 19.5779 31.5673 19.5667C31.4983 19.5517 31.4294 19.5217 31.3528 19.4692C31.2379 19.3942 31.169 19.3117 31.1461 19.2217C31.1211 19.1197 31.1376 19.012 31.192 18.9217L31.1996 18.9292ZM30.3112 18.3592L30.5027 18.4567C30.4789 18.5085 30.4735 18.5666 30.4874 18.6217C30.507 18.6732 30.5451 18.7158 30.5946 18.7417C30.6559 18.7792 30.7018 18.7942 30.7477 18.7867C30.7937 18.7867 30.8243 18.7642 30.8474 18.7267C30.8589 18.7089 30.8643 18.6878 30.8626 18.6667C30.8626 18.6442 30.8474 18.6142 30.8243 18.5917C30.7851 18.5453 30.7442 18.5003 30.7018 18.4567C30.6176 18.3742 30.5639 18.3067 30.5486 18.2467C30.5361 18.2081 30.5324 18.1673 30.5376 18.1271C30.5429 18.0869 30.5572 18.0484 30.5792 18.0142C30.6083 17.968 30.6511 17.9313 30.7018 17.9092C30.7544 17.8854 30.8131 17.8776 30.8703 17.8867C30.9412 17.8984 31.0088 17.9239 31.0694 17.9617C31.1843 18.0367 31.2532 18.1117 31.2763 18.1942C31.2902 18.2363 31.2947 18.281 31.2894 18.325C31.2841 18.369 31.2692 18.4113 31.2456 18.4492L31.0541 18.3442C31.0772 18.2917 31.0848 18.2542 31.0694 18.2167C31.0541 18.1792 31.0235 18.1417 30.9699 18.1117C30.9275 18.0819 30.8765 18.0661 30.8243 18.0667C30.8118 18.0675 30.7996 18.0714 30.7889 18.0779C30.7782 18.0845 30.7693 18.0935 30.763 18.1042C30.7477 18.1267 30.7477 18.1492 30.7554 18.1792C30.763 18.2092 30.809 18.2692 30.8856 18.3442C30.9623 18.4192 31.0158 18.4792 31.0388 18.5242C31.0695 18.5712 31.0858 18.6259 31.0858 18.6817C31.0858 18.7375 31.0695 18.7922 31.0388 18.8392C31.0058 18.8915 30.9578 18.9332 30.901 18.9592C30.8435 18.9851 30.7793 18.9929 30.7172 18.9817C30.6383 18.9687 30.5628 18.9406 30.495 18.8992C30.396 18.8475 30.3197 18.7621 30.2805 18.6592C30.251 18.559 30.262 18.4516 30.3112 18.3592ZM29.2235 18.0742L29.7826 17.1742L30.4567 17.5867L30.3648 17.7367L29.8746 17.4367L29.7521 17.6392L30.2116 17.9167L30.1121 18.0667L29.6525 17.7892L29.4993 18.0367L30.0125 18.3367L29.9206 18.4867L29.2235 18.0742ZM27.638 16.7992L27.7224 16.6492L28.1359 16.8517L27.9444 17.2267C27.8831 17.2417 27.8066 17.2492 27.7147 17.2417C27.6264 17.2321 27.5407 17.2067 27.4619 17.1667C27.3692 17.1225 27.29 17.0553 27.2322 16.9717C27.1794 16.8941 27.1526 16.8023 27.1556 16.7092C27.1594 16.6123 27.1856 16.5173 27.2322 16.4317C27.2781 16.3415 27.3467 16.2641 27.4313 16.2067C27.5123 16.1519 27.6086 16.123 27.707 16.1242C27.7836 16.1242 27.8602 16.1467 27.9521 16.1992C28.0746 16.2517 28.1513 16.3267 28.1895 16.4092C28.2294 16.4911 28.2376 16.5843 28.2126 16.6717L28.0057 16.6117C28.0183 16.5615 28.0129 16.5084 27.9904 16.4617C27.9675 16.4167 27.9291 16.3867 27.8678 16.3567C27.8322 16.3368 27.7926 16.3244 27.7516 16.3206C27.7107 16.3167 27.6694 16.3213 27.6304 16.3342C27.5538 16.3567 27.4849 16.4242 27.4313 16.5292C27.3776 16.6342 27.3547 16.7317 27.3776 16.8142C27.3882 16.8533 27.4075 16.8898 27.4339 16.9208C27.4604 16.9519 27.4934 16.9769 27.5309 16.9942C27.5691 17.0167 27.6151 17.0317 27.6611 17.0317C27.7068 17.0385 27.7532 17.0385 27.7989 17.0317L27.8602 16.9117L27.638 16.7992ZM20.7294 15.1267L20.8826 14.0767L21.2042 14.1292L21.2885 14.8642L21.5873 14.1892L21.9089 14.2342L21.7557 15.2692L21.5489 15.2392L21.6791 14.4217L21.3422 15.2092L21.1353 15.1792L21.0511 14.3317L20.9285 15.1567L20.7294 15.1267ZM19.6494 14.9992L19.749 13.9492L20.5378 14.0242L20.5226 14.2042L19.9481 14.1517L19.9251 14.3767L20.4613 14.4292L20.4383 14.6092L19.9022 14.5567L19.8792 14.8417L20.4766 14.8942L20.4613 15.0742L19.6494 14.9992Z" fill="#309E3A"/>
<path d="M16.0721 14.3466C16.0721 14.2341 16.0951 14.1517 16.1258 14.0766C16.1525 14.0233 16.1889 13.9751 16.2329 13.9342C16.2722 13.8953 16.3191 13.8647 16.3709 13.8442C16.4474 13.8216 16.524 13.8066 16.6006 13.8066C16.7615 13.8066 16.884 13.8666 16.9836 13.9566C17.031 14.0139 17.0663 14.08 17.0872 14.1508C17.1083 14.2216 17.1147 14.2959 17.1062 14.3691C17.1062 14.5341 17.0525 14.6691 16.9529 14.7666C16.9018 14.8129 16.8413 14.8482 16.7753 14.8702C16.7093 14.8921 16.6394 14.9003 16.57 14.8941C16.5016 14.8948 16.4336 14.8819 16.3704 14.856C16.3072 14.8303 16.25 14.7922 16.2023 14.7442C16.1071 14.6337 16.0602 14.4907 16.0721 14.3466Z" fill="#309E3A"/>
<path d="M16.2939 14.3466C16.2939 14.459 16.317 14.549 16.3706 14.6165C16.4241 14.6765 16.4932 14.714 16.585 14.714C16.6248 14.7167 16.6646 14.7107 16.7018 14.6965C16.7388 14.6822 16.7723 14.66 16.7995 14.6315C16.8531 14.5716 16.8761 14.4815 16.8837 14.354C16.8837 14.234 16.8685 14.144 16.8072 14.084C16.7822 14.0538 16.7507 14.0294 16.7149 14.0125C16.6791 13.9956 16.64 13.9867 16.6003 13.9865C16.56 13.9852 16.5199 13.9926 16.4829 14.0082C16.4459 14.0238 16.4128 14.0471 16.3859 14.0765C16.3246 14.1365 16.3016 14.2265 16.2939 14.3466Z" fill="#F7FFFF"/>
<path d="M17.3359 14.8879L17.3512 13.8379H17.8108C17.9257 13.8379 18.0023 13.8529 18.0559 13.8754C18.1096 13.8904 18.1478 13.9279 18.1785 13.9729C18.2092 14.0179 18.2245 14.0779 18.2245 14.1454C18.2251 14.2175 18.1977 14.2872 18.1479 14.3404C18.0912 14.3923 18.0184 14.424 17.941 14.4304L18.0559 14.5204C18.0865 14.5504 18.1249 14.6104 18.1708 14.6929L18.301 14.9029H18.0406L17.8874 14.6629L17.7803 14.5129C17.7616 14.4922 17.7379 14.4767 17.7112 14.4679C17.6764 14.4579 17.6403 14.4529 17.6041 14.4529H17.5581V14.8879H17.3359Z" fill="#309E3A"/>
<path d="M17.5654 14.2876H17.7187C17.8258 14.2876 17.8947 14.2876 17.9178 14.2726C17.9407 14.2726 17.9637 14.2502 17.9791 14.2351C17.9944 14.2201 18.002 14.1826 18.002 14.1602C18.002 14.1152 17.9944 14.0851 17.9714 14.0702C17.956 14.0476 17.9254 14.0326 17.8947 14.0252H17.7416L17.5654 14.0176V14.2876Z" fill="white"/>
<path d="M18.5614 13.8906L18.9598 13.9132C19.044 13.9132 19.1129 13.9207 19.1589 13.9356C19.2185 13.9568 19.2713 13.993 19.312 14.0407C19.3562 14.0931 19.3876 14.1547 19.404 14.2207C19.4269 14.2881 19.4346 14.3707 19.4269 14.4681C19.4269 14.5447 19.414 14.6207 19.3887 14.6931C19.358 14.7682 19.3121 14.8281 19.2585 14.8731C19.2138 14.9091 19.1614 14.9348 19.1053 14.9482C19.0593 14.9631 18.9904 14.9631 18.9138 14.9631L18.5078 14.9407L18.5614 13.8906Z" fill="#309E3A"/>
<path d="M18.7678 14.0781L18.7295 14.7756H19.0206C19.0588 14.7756 19.0895 14.7606 19.1124 14.7382C19.1355 14.7156 19.1584 14.6856 19.1737 14.6406C19.1891 14.5956 19.2044 14.5281 19.2044 14.4456L19.1967 14.2581C19.1858 14.2186 19.1647 14.1824 19.1355 14.1532C19.11 14.1281 19.0783 14.11 19.0435 14.1006C18.9856 14.088 18.9266 14.0805 18.8673 14.0781H18.7678Z" fill="white"/>
<path d="M23.8164 15.7642L24.0692 14.7441L24.4062 14.8192L24.6513 14.8941C24.7048 14.9241 24.7508 14.9691 24.7739 15.0367C24.8044 15.0967 24.8044 15.1641 24.7892 15.2466C24.7739 15.3067 24.7508 15.3592 24.7126 15.3967C24.6844 15.4296 24.6493 15.4561 24.6096 15.4742C24.5699 15.4924 24.5266 15.5018 24.4828 15.5017C24.4292 15.5017 24.3526 15.4867 24.253 15.4641L24.1228 15.4266L24.0308 15.8167L23.8164 15.7642Z" fill="#309E3A"/>
<path d="M24.2302 14.9688L24.1689 15.2537L24.2838 15.2838C24.3604 15.2987 24.4217 15.3137 24.4523 15.3062C24.4821 15.3021 24.5099 15.2891 24.5319 15.2691C24.5538 15.2489 24.5688 15.2226 24.5748 15.1938C24.5748 15.1562 24.5748 15.1262 24.5595 15.0962C24.5428 15.0658 24.5157 15.0419 24.483 15.0287L24.3374 14.9912L24.2379 14.9688H24.2302Z" fill="white"/>
<path d="M24.8115 16.0584L25.1715 15.0684L25.5928 15.2184C25.7077 15.2559 25.7766 15.2934 25.8226 15.3234C25.8608 15.3609 25.8915 15.3984 25.8992 15.4584C25.9068 15.5184 25.9145 15.5709 25.8992 15.6309C25.8685 15.7059 25.8226 15.7584 25.7613 15.7959C25.7001 15.8259 25.6234 15.8334 25.5315 15.8184C25.5621 15.8559 25.5928 15.8934 25.6081 15.9384L25.6694 16.1409L25.7153 16.3734L25.4779 16.2909L25.4013 16.0209C25.3874 15.9598 25.3695 15.8997 25.3477 15.8409C25.3375 15.8175 25.3218 15.797 25.3017 15.7809C25.2864 15.7584 25.2558 15.7434 25.2022 15.7284L25.1639 15.7134L25.0107 16.1334L24.8115 16.0584Z" fill="#309E3A"/>
<path d="M25.2254 15.5561L25.3709 15.6086C25.4705 15.6461 25.5318 15.6611 25.5625 15.6611C25.5854 15.6611 25.6084 15.6611 25.6314 15.6387C25.6543 15.6236 25.6696 15.6011 25.6773 15.5711C25.6927 15.5412 25.6927 15.5111 25.6773 15.4811C25.666 15.452 25.6442 15.4281 25.616 15.4137L25.4629 15.3612L25.3096 15.3086L25.2178 15.5561H25.2254Z" fill="white"/>
<path d="M26.0668 16.0202C26.0931 15.9324 26.1374 15.8508 26.197 15.7803C26.2357 15.735 26.2824 15.6969 26.3348 15.6677C26.3823 15.6415 26.4342 15.6238 26.4881 15.6152C26.5647 15.6152 26.6412 15.6152 26.7254 15.6453C26.794 15.6618 26.858 15.6924 26.9135 15.7352C26.969 15.7778 27.0146 15.8315 27.0472 15.8927C27.1085 16.0127 27.1085 16.1552 27.0625 16.3203C27.0246 16.462 26.9309 16.5833 26.8021 16.6577C26.6872 16.7253 26.5494 16.7327 26.4038 16.6877C26.3355 16.6707 26.2716 16.6399 26.2162 16.5973C26.1608 16.5546 26.1151 16.5012 26.0821 16.4403C26.0514 16.3746 26.0343 16.3038 26.0316 16.2318C26.029 16.1597 26.0409 16.0878 26.0668 16.0202Z" fill="#309E3A"/>
<path d="M26.2817 16.08C26.2512 16.1925 26.2435 16.29 26.2817 16.365C26.3201 16.44 26.3737 16.485 26.4579 16.515C26.5345 16.5374 26.6112 16.53 26.6877 16.485C26.7643 16.4474 26.8103 16.365 26.8486 16.245C26.8868 16.1324 26.8868 16.0424 26.8486 15.9675C26.8334 15.9319 26.8105 15.9 26.7814 15.8741C26.7522 15.8481 26.7176 15.8288 26.6801 15.8174C26.6423 15.8047 26.6023 15.8002 26.5626 15.8041C26.523 15.808 26.4847 15.8202 26.4503 15.84C26.3737 15.885 26.3201 15.96 26.2817 16.08Z" fill="white"/>
<path d="M28.1592 17.4828L28.6494 16.5527L29.0554 16.7553C29.1318 16.7912 29.2017 16.8394 29.2621 16.8978C29.3005 16.9353 29.3234 16.9803 29.3234 17.0403C29.3234 17.1003 29.3234 17.1528 29.2927 17.2053C29.2633 17.2727 29.2084 17.3264 29.1396 17.3552C29.063 17.3703 28.9863 17.3703 28.9021 17.3403C28.9328 17.3853 28.9481 17.4303 28.9634 17.4678C28.9787 17.5128 28.9863 17.5803 28.9941 17.6777L29.0094 17.9178L28.7796 17.8052L28.749 17.5278C28.7453 17.4649 28.7376 17.4022 28.7259 17.3403C28.7207 17.3122 28.7074 17.2862 28.6877 17.2653L28.5957 17.2128L28.5574 17.1903L28.3506 17.5803L28.1592 17.4828Z" fill="#309E3A"/>
<path d="M28.6338 17.0408L28.7793 17.1158C28.8711 17.1608 28.9325 17.1907 28.9555 17.1907C28.9784 17.1907 29.0091 17.1907 29.032 17.1758C29.0551 17.1683 29.0704 17.1457 29.0857 17.1158C29.1009 17.0858 29.1086 17.0557 29.1009 17.0258C29.0915 16.9959 29.0728 16.9697 29.0473 16.9508C29.0025 16.9238 28.9565 16.8988 28.9095 16.8757L28.7563 16.8008L28.6338 17.0408Z" fill="white"/>
<path d="M32.1274 19.4018C32.177 19.3246 32.2422 19.2582 32.3189 19.2067C32.3704 19.1744 32.4276 19.1516 32.4874 19.1392C32.543 19.1281 32.6003 19.1281 32.6559 19.1392C32.7325 19.1542 32.8014 19.1842 32.8704 19.2292C32.93 19.2656 32.9812 19.3137 33.0208 19.3705C33.0603 19.4273 33.0874 19.4916 33.1001 19.5592C33.1232 19.6867 33.0848 19.8292 32.993 19.9717C32.916 20.0957 32.7921 20.1847 32.6482 20.2192C32.5796 20.2337 32.5087 20.2338 32.4401 20.2196C32.3715 20.2054 32.3067 20.1772 32.2499 20.1367C32.1903 20.1003 32.1391 20.0522 32.0995 19.9954C32.06 19.9386 32.033 19.8743 32.0202 19.8068C31.9972 19.6718 32.0355 19.5368 32.1274 19.4018Z" fill="#309E3A"/>
<path d="M32.3192 19.5221C32.2426 19.6196 32.2196 19.7096 32.2349 19.7921C32.2406 19.8301 32.2544 19.8664 32.2755 19.8988C32.2967 19.9311 32.3246 19.9586 32.3575 19.9796C32.4341 20.032 32.5107 20.047 32.5873 20.0246C32.6639 20.002 32.7404 19.9495 32.8094 19.8446C32.8784 19.7395 32.909 19.6495 32.8937 19.5746C32.886 19.4995 32.84 19.4321 32.7711 19.3795C32.7022 19.327 32.6179 19.3195 32.5413 19.3421C32.4647 19.357 32.3882 19.417 32.3115 19.5221H32.3192Z" fill="white"/>
<path d="M22.6055 15.3365L22.7816 14.6016L23.3331 14.7291L23.3102 14.849L22.9042 14.759L22.866 14.924L23.2413 15.0066L23.2106 15.1341L22.8353 15.0441L22.7893 15.2465L23.2106 15.344L23.18 15.464L22.6055 15.3365Z" fill="#309E3A"/>
</g>
</g>
<defs>
<clipPath id="clip0_35_34836">
<rect width="50" height="36" fill="white" transform="translate(-1)"/>
</clipPath>
</defs>
</svg>
