<svg width="48" height="36" viewBox="0 0 48 36" fill="none" xmlns="http://www.w3.org/2000/svg">
<g clip-path="url(#clip0_35_35263)">
<path d="M-3 0H51V36H-3V0Z" fill="white"/>
<path d="M-3 12H51V36H-3V12Z" fill="#0B4EA2"/>
<path d="M-3 24H51V36H-3V24Z" fill="#EE1C25"/>
<path d="M20.3905 8.73047C20.3905 8.73047 20.6705 11.5355 20.6705 17.1455C20.6305 22.8755 16.3455 25.7755 13.2005 27.3005C10.0555 25.7755 5.77047 22.8755 5.73047 17.1455C5.73047 11.5355 6.01047 8.73047 6.01047 8.73047H20.3905Z" fill="#EE1C25"/>
<path d="M12.5647 24.0004V16.9854C10.1897 16.9854 9.51469 17.1954 8.80469 17.4104C8.87147 16.6936 8.87147 15.9722 8.80469 15.2554C9.51469 15.4704 10.1897 15.6804 12.5647 15.6804V13.7304C11.8147 13.7304 10.7797 13.7604 9.58969 14.1654C9.65678 13.447 9.65678 12.7238 9.58969 12.0054C10.7797 12.4054 11.8147 12.4354 12.5647 12.4354C12.5647 11.8704 12.3897 10.6554 12.1697 9.65039C12.855 9.7114 13.5444 9.7114 14.2297 9.65039C14.0097 10.6554 13.8347 11.8704 13.8347 12.4354C14.5847 12.4354 15.6197 12.4054 16.8097 12.0054C16.7426 12.7238 16.7426 13.447 16.8097 14.1654C15.6197 13.7604 14.5847 13.7304 13.8347 13.7304V15.6804C16.2097 15.6804 16.8847 15.4704 17.5947 15.2554C17.5279 15.9722 17.5279 16.6936 17.5947 17.4104C16.8847 17.1954 16.2097 16.9854 13.8347 16.9854V24.0004H12.5647Z" fill="white"/>
<mask id="mask0_35_35263" style="mask-type:luminance" maskUnits="userSpaceOnUse" x="5" y="8" width="16" height="20">
<path d="M20.3905 8.73047C20.3905 8.73047 20.6705 11.5355 20.6705 17.1455C20.6305 22.8755 16.3455 25.7755 13.2005 27.3005C10.0555 25.7755 5.77047 22.8755 5.73047 17.1455C5.73047 11.5355 6.01047 8.73047 6.01047 8.73047H20.3905Z" fill="white"/>
</mask>
<g mask="url(#mask0_35_35263)">
<path d="M9.3158 29.5161C8.91021 29.5159 8.51055 29.3494 8.15039 29.0304C7.79023 28.7114 7.48009 28.2493 7.24601 27.6829C7.01194 27.1164 6.86076 26.4622 6.80517 25.7752C6.74958 25.0881 6.79121 24.3883 6.92656 23.7345C7.06191 23.0806 7.28703 22.4919 7.58301 22.0176C7.87899 21.5434 8.2372 21.1976 8.62754 21.0091C9.01788 20.8207 9.42896 20.7952 9.82627 20.9347C10.2236 21.0743 10.5955 21.3748 10.9108 21.8111C11.1842 21.1697 11.5322 20.6515 11.9288 20.2952C12.3253 19.939 12.7602 19.7539 13.2008 19.7539C13.6414 19.7539 14.0763 19.939 14.4728 20.2952C14.8694 20.6515 15.2174 21.1697 15.4908 21.8111C15.8061 21.3748 16.178 21.0743 16.5753 20.9347C16.9726 20.7952 17.3837 20.8207 17.7741 21.0091C18.1644 21.1976 18.5226 21.5434 18.8186 22.0176C19.1146 22.4919 19.3397 23.0806 19.475 23.7345C19.6104 24.3883 19.652 25.0881 19.5964 25.7752C19.5408 26.4622 19.3897 27.1164 19.1556 27.6829C18.9215 28.2493 18.6114 28.7114 18.2512 29.0304C17.8911 29.3494 17.4914 29.5159 17.0858 29.5161H9.3158Z" fill="#0B4EA2"/>
</g>
<path d="M20.3905 8.73047C20.3905 8.73047 20.6705 11.5355 20.6705 17.1455C20.6305 22.8755 16.3455 25.7755 13.2005 27.3005C10.0555 25.7755 5.77047 22.8755 5.73047 17.1455C5.73047 11.5355 6.01047 8.73047 6.01047 8.73047H20.3905Z" stroke="white" stroke-width="0.54"/>
</g>
<defs>
<clipPath id="clip0_35_35263">
<rect width="54" height="36" fill="white" transform="translate(-3)"/>
</clipPath>
</defs>
</svg>
