<svg width="48" height="36" viewBox="0 0 48 36" fill="none" xmlns="http://www.w3.org/2000/svg">
<g clip-path="url(#clip0_35_34457)">
<mask id="mask0_35_34457" style="mask-type:luminance" maskUnits="userSpaceOnUse" x="-1" y="-1" width="50" height="37">
<path d="M44.5883 -1H3.4118C1.24598 -1 -0.509766 0.743733 -0.509766 2.89474V32.1053C-0.509766 34.2563 1.24598 36 3.4118 36H44.5883C46.7541 36 48.5098 34.2563 48.5098 32.1053V2.89474C48.5098 0.743733 46.7541 -1 44.5883 -1Z" fill="white"/>
</mask>
<g mask="url(#mask0_35_34457)">
<mask id="mask1_35_34457" style="mask-type:luminance" maskUnits="userSpaceOnUse" x="-1" y="-1" width="50" height="37">
<path d="M-0.507812 -1H48.5142V36H-0.507812V-1Z" fill="white"/>
</mask>
<g mask="url(#mask1_35_34457)">
<path fill-rule="evenodd" clip-rule="evenodd" d="M-8.16992 -1H56.1683V36H-8.16992V-1Z" fill="white"/>
<path fill-rule="evenodd" clip-rule="evenodd" d="M-8.16992 23.8457H56.1683V36.0008H-8.16992V23.8457Z" fill="#DA0000"/>
<path fill-rule="evenodd" clip-rule="evenodd" d="M4.06641 24.3652H7.58491V24.6037H4.06641V24.3652ZM4.59059 25.5793H4.83473V25.8178H4.59059V25.5793ZM7.59926 25.5793V25.8178H6.89556V25.572L7.59926 25.5793ZM7.97265 24.3652H8.2168V25.8106H7.97265V24.3652Z" fill="white"/>
<path fill-rule="evenodd" clip-rule="evenodd" d="M9.38036 25.5728V25.8185H8.04474V25.5728H9.38036ZM6.89585 25.002H7.12562V25.8185H6.88867L6.89585 25.002Z" fill="white"/>
<path fill-rule="evenodd" clip-rule="evenodd" d="M9.17898 24.3652H9.4231V25.8106H9.17898V24.3652ZM8.57583 24.3652H8.81281V25.8106H8.57583V24.3652ZM5.35892 24.9433V25.1891H4.06641V24.9433H5.35892ZM8.1809 24.9433V25.1891H6.88839V24.9433H8.1809Z" fill="white"/>
<path fill-rule="evenodd" clip-rule="evenodd" d="M6.89585 25.0078H7.12562V25.81H6.88867L6.89585 25.0078Z" fill="white"/>
<path fill-rule="evenodd" clip-rule="evenodd" d="M6.89585 25.0078H7.12562V25.81H6.88867L6.89585 25.0078Z" fill="white"/>
<path fill-rule="evenodd" clip-rule="evenodd" d="M6.8962 25.0078H7.12597V25.81H6.88902L6.8962 25.0078ZM4.07422 25.0078H4.31118V25.81H4.07422V25.0078ZM6.14224 25.0078H6.38638V25.81H6.14224V25.0078ZM5.11541 25.0078H5.35955V25.81H5.11541V25.0078Z" fill="white"/>
<path fill-rule="evenodd" clip-rule="evenodd" d="M6.30692 25.5721V25.8178H5.22266V25.5721H6.30692ZM6.37873 24.9434V25.1891H5.68939V24.9434H6.37873Z" fill="white"/>
<path fill-rule="evenodd" clip-rule="evenodd" d="M-1.7207 24.3652H1.79779V24.6037H-1.7207V24.3652ZM-1.19652 25.5793H-0.952378V25.8178H-1.2037L-1.19652 25.5793ZM1.81215 25.5793V25.8178H1.10846V25.572L1.81215 25.5793ZM2.18555 24.3652H2.42968V25.8106H2.18555V24.3652Z" fill="white"/>
<path fill-rule="evenodd" clip-rule="evenodd" d="M3.59387 25.5728V25.8185H2.25828V25.5728H3.59387ZM1.10938 25.002H1.34634V25.8185H1.10938V25.002Z" fill="white"/>
<path fill-rule="evenodd" clip-rule="evenodd" d="M3.39189 24.3652H3.63603V25.8106H3.39189V24.3652ZM2.78871 24.3652H3.02567V25.8106H2.78871V24.3652ZM-0.428194 24.9433V25.1891H-1.7207V24.9433H-0.428194ZM2.39378 24.9433V25.1891H1.10127V24.9433H2.39378Z" fill="white"/>
<path fill-rule="evenodd" clip-rule="evenodd" d="M1.10938 25.0078H1.34634V25.81H1.10938V25.0078Z" fill="white"/>
<path fill-rule="evenodd" clip-rule="evenodd" d="M1.10938 25.0078H1.34634V25.81H1.10938V25.0078Z" fill="white"/>
<path fill-rule="evenodd" clip-rule="evenodd" d="M1.10909 25.0078H1.34604V25.81H1.10909V25.0078ZM-1.71289 25.0078H-1.47593V25.81H-1.71289V25.0078ZM0.355121 25.0078H0.592082V25.81H0.355121V25.0078ZM-0.671703 25.0078H-0.427562V25.81H-0.671703V25.0078Z" fill="white"/>
<path fill-rule="evenodd" clip-rule="evenodd" d="M0.520452 25.5721V25.8178H-0.556641V25.5721H0.520452ZM0.592256 24.9434V25.1891H-0.0970818V24.9434H0.592256Z" fill="white"/>
<path fill-rule="evenodd" clip-rule="evenodd" d="M9.80273 24.3652H13.3213V24.6037H9.80273V24.3652ZM10.327 25.5793H10.5711V25.8178H10.327V25.5793ZM13.3356 25.5793V25.8178H12.632V25.572L13.3356 25.5793ZM13.7162 24.3652H13.9604V25.8106H13.7162V24.3652Z" fill="white"/>
<path fill-rule="evenodd" clip-rule="evenodd" d="M15.1173 25.5728V25.8185H13.7817V25.5728H15.1173ZM12.6328 25.002H12.877V25.8185H12.6328V25.002Z" fill="white"/>
<path fill-rule="evenodd" clip-rule="evenodd" d="M14.9154 24.3652H15.1595V25.8106H14.9154V24.3652ZM14.3121 24.3652H14.5564V25.8106H14.305L14.3121 24.3652ZM11.0953 24.9433V25.1891H9.80273V24.9433H11.0953ZM13.9172 24.9433V25.1891H12.6247V24.9433H13.9172Z" fill="white"/>
<path fill-rule="evenodd" clip-rule="evenodd" d="M12.6328 25.0078H12.877V25.81H12.6328V25.0078Z" fill="white"/>
<path fill-rule="evenodd" clip-rule="evenodd" d="M12.6328 25.0078H12.877V25.81H12.6328V25.0078Z" fill="white"/>
<path fill-rule="evenodd" clip-rule="evenodd" d="M12.6326 25.0078H12.8767V25.81H12.6326V25.0078ZM9.81055 25.0078H10.0548V25.81H9.81055V25.0078ZM11.8786 25.0078H12.1227V25.81H11.8786V25.0078ZM10.8518 25.0078H11.0959V25.81H10.8518V25.0078Z" fill="white"/>
<path fill-rule="evenodd" clip-rule="evenodd" d="M12.0505 25.5721V25.8178H10.959V25.5721H12.0505ZM12.1222 24.9434V25.1891H11.4329V24.9434H12.1222Z" fill="white"/>
<path fill-rule="evenodd" clip-rule="evenodd" d="M15.5762 24.3652H19.1019V24.6037H15.5833L15.5762 24.3652ZM16.1075 25.5793H16.3445V25.8178H16.1075V25.5793ZM19.109 25.5793V25.8178H18.4053V25.572L19.109 25.5793ZM19.4896 24.3652H19.7337V25.8106H19.4896V24.3652Z" fill="white"/>
<path fill-rule="evenodd" clip-rule="evenodd" d="M20.896 25.5728V25.8185H19.5604V25.5728H20.896ZM18.4043 25.002H18.6484V25.8185H18.4043V25.002Z" fill="white"/>
<path fill-rule="evenodd" clip-rule="evenodd" d="M20.6966 24.3652H20.9407V25.8106H20.6966V24.3652ZM20.0862 24.3652H20.3304V25.8106H20.0862V24.3652ZM16.8694 24.9433V25.1891H15.584V24.9433H16.8694ZM19.6913 24.9433V25.1891H18.4059V24.9433H19.6913Z" fill="white"/>
<path fill-rule="evenodd" clip-rule="evenodd" d="M18.4043 25.0078H18.6484V25.81H18.4043V25.0078Z" fill="white"/>
<path fill-rule="evenodd" clip-rule="evenodd" d="M18.4043 25.0078H18.6484V25.81H18.4043V25.0078Z" fill="white"/>
<path fill-rule="evenodd" clip-rule="evenodd" d="M18.4059 25.0078H18.6502V25.81H18.4059V25.0078ZM15.584 25.0078H15.8281V25.81H15.584V25.0078ZM17.652 25.0078H17.8961V25.81H17.652V25.0078ZM16.6324 25.0078H16.8694V25.81H16.6324V25.0078Z" fill="white"/>
<path fill-rule="evenodd" clip-rule="evenodd" d="M17.8225 25.5721V25.8178H16.7383V25.5721H17.8225ZM17.8943 24.9434V25.1891H17.2049V24.9434H17.8943Z" fill="white"/>
<path fill-rule="evenodd" clip-rule="evenodd" d="M21.377 24.3652H24.8954V24.6037H21.377V24.3652ZM21.9011 25.5793H22.1453V25.8178H21.9011V25.5793ZM24.9098 25.5793V25.8178H24.2061V25.572L24.9098 25.5793ZM25.2904 24.3652H25.5273V25.8106H25.2904V24.3652Z" fill="white"/>
<path fill-rule="evenodd" clip-rule="evenodd" d="M26.6896 25.5728V25.8185H25.354V25.5728H26.6896ZM24.2051 25.002H24.4493V25.8185H24.2051V25.002Z" fill="white"/>
<path fill-rule="evenodd" clip-rule="evenodd" d="M26.4895 24.3652H26.7336V25.8106H26.4895V24.3652ZM25.8864 24.3652H26.1305V25.8106H25.8864V24.3652ZM22.6694 24.9433V25.1891H21.377V24.9433H22.6694ZM25.4914 24.9433V25.1891H24.1989V24.9433H25.4914Z" fill="white"/>
<path fill-rule="evenodd" clip-rule="evenodd" d="M24.2051 25.0078H24.4493V25.81H24.2051V25.0078Z" fill="white"/>
<path fill-rule="evenodd" clip-rule="evenodd" d="M24.2051 25.0078H24.4493V25.81H24.2051V25.0078Z" fill="white"/>
<path fill-rule="evenodd" clip-rule="evenodd" d="M24.2067 25.0078H24.4508V25.81H24.2067V25.0078ZM21.3848 25.0078H21.6217V25.81H21.3848V25.0078ZM23.4528 25.0078H23.6969V25.81H23.4528V25.0078ZM22.4259 25.0078H22.6701V25.81H22.4188L22.4259 25.0078Z" fill="white"/>
<path fill-rule="evenodd" clip-rule="evenodd" d="M23.6246 25.5721V25.8178H22.5332V25.5721H23.6246ZM23.6964 24.9434V25.1891H22.9927V24.9434H23.6964Z" fill="white"/>
<path fill-rule="evenodd" clip-rule="evenodd" d="M-8.16992 -1H56.1683V11.1551H-8.16992V-1Z" fill="#239F40"/>
<path fill-rule="evenodd" clip-rule="evenodd" d="M27.209 24.3652H30.7275V24.6037H27.209V24.3652ZM27.7332 25.5793H27.9773V25.8178H27.7332V25.5793ZM30.7419 25.5793V25.8178H30.031V25.572L30.7419 25.5793ZM31.1224 24.3652H31.3594V25.8106H31.1224V24.3652Z" fill="white"/>
<path fill-rule="evenodd" clip-rule="evenodd" d="M32.5229 25.5728V25.8185H31.1873V25.5728H32.5229ZM30.0385 25.002H30.2826V25.8185H30.0312L30.0385 25.002Z" fill="white"/>
<path fill-rule="evenodd" clip-rule="evenodd" d="M32.3288 24.3652H32.5658V25.8106H32.3288V24.3652ZM31.7184 24.3652H31.9626V25.8106H31.7184V24.3652ZM28.5015 24.9433V25.1891H27.209V24.9433H28.5015ZM31.3235 24.9433V25.1891H30.031V24.9433H31.3235Z" fill="white"/>
<path fill-rule="evenodd" clip-rule="evenodd" d="M30.0312 25.0078H30.2826V25.81H30.0312V25.0078Z" fill="white"/>
<path fill-rule="evenodd" clip-rule="evenodd" d="M30.0312 25.0078H30.2826V25.81H30.0312V25.0078Z" fill="white"/>
<path fill-rule="evenodd" clip-rule="evenodd" d="M30.0316 25.0078H30.283V25.81H30.0316V25.0078ZM27.2168 25.0078H27.461V25.81H27.2168V25.0078ZM29.2848 25.0078H29.529V25.81H29.2848V25.0078ZM28.2581 25.0078H28.5022V25.81H28.2581V25.0078Z" fill="white"/>
<path fill-rule="evenodd" clip-rule="evenodd" d="M29.4567 25.5721V25.8178H28.3652V25.5721H29.4567ZM29.5285 24.9434V25.1891H28.8392V24.9434H29.5285Z" fill="white"/>
<path fill-rule="evenodd" clip-rule="evenodd" d="M33.002 24.3652H36.5205V24.6037H33.002V24.3652ZM33.5262 25.5793H33.7703V25.8178H33.5262V25.5793ZM36.542 25.5793V25.8178H35.8311V25.572L36.542 25.5793ZM36.9154 24.3652H37.1595V25.8106H36.9154V24.3652Z" fill="white"/>
<path fill-rule="evenodd" clip-rule="evenodd" d="M38.3165 25.5728V25.8185H36.981V25.5728H38.3165ZM35.832 25.002H36.0761V25.8185H35.832V25.002Z" fill="white"/>
<path fill-rule="evenodd" clip-rule="evenodd" d="M38.1224 24.3652H38.3593V25.8106H38.1224V24.3652ZM37.512 24.3652H37.7561V25.8106H37.512V24.3652ZM34.2951 24.9433V25.1891H33.0098V24.9433H34.2951ZM37.1171 24.9433V25.1891H35.8317V24.9433H37.1171Z" fill="white"/>
<path fill-rule="evenodd" clip-rule="evenodd" d="M35.832 25.0078H36.0761V25.81H35.832V25.0078Z" fill="white"/>
<path fill-rule="evenodd" clip-rule="evenodd" d="M35.832 25.0078H36.0761V25.81H35.832V25.0078Z" fill="white"/>
<path fill-rule="evenodd" clip-rule="evenodd" d="M35.8317 25.0078H36.0758V25.81H35.8317V25.0078ZM33.0098 25.0078H33.2539V25.81H33.0098V25.0078ZM35.0778 25.0078H35.3219V25.81H35.0778V25.0078ZM34.0509 25.0078H34.2951V25.81H34.0581L34.0509 25.0078Z" fill="white"/>
<path fill-rule="evenodd" clip-rule="evenodd" d="M35.2503 25.5721V25.8178H34.166V25.5721H35.2503ZM35.3221 24.9434V25.1891H34.6255V24.9434H35.3221Z" fill="white"/>
<path fill-rule="evenodd" clip-rule="evenodd" d="M38.8047 24.3652H42.3231V24.6037H38.8047V24.3652ZM39.3288 25.5793H39.573V25.8178H39.3288V25.5793ZM42.3375 25.5793V25.8178H41.6338V25.572L42.3375 25.5793ZM42.7109 24.3652H42.9551V25.8106H42.7109V24.3652Z" fill="white"/>
<path fill-rule="evenodd" clip-rule="evenodd" d="M44.1186 25.5728V25.8185H42.783V25.5728H44.1186ZM41.627 25.002H41.8711V25.8185H41.627V25.002Z" fill="white"/>
<path fill-rule="evenodd" clip-rule="evenodd" d="M43.9172 24.3652H44.1614V25.8106H43.9172V24.3652ZM43.3141 24.3652H43.5511V25.8106H43.3141V24.3652ZM40.0971 24.9433V25.1891H38.8047V24.9433H40.0971ZM42.9191 24.9433V25.1891H41.6266V24.9433H42.9191Z" fill="white"/>
<path fill-rule="evenodd" clip-rule="evenodd" d="M41.6348 25.0078H41.8717V25.81H41.6348V25.0078Z" fill="white"/>
<path fill-rule="evenodd" clip-rule="evenodd" d="M41.6348 25.0078H41.8717V25.81H41.6348V25.0078Z" fill="white"/>
<path fill-rule="evenodd" clip-rule="evenodd" d="M41.6338 25.0078H41.8708V25.8099H41.6338V25.0078ZM38.8047 25.0078H39.0488V25.8099H38.8047V25.0078ZM40.8799 25.0078H41.1168V25.8099H40.8799V25.0078ZM39.853 25.0078H40.0971V25.8099H39.853V25.0078Z" fill="white"/>
<path fill-rule="evenodd" clip-rule="evenodd" d="M41.0453 25.5721V25.8178H39.9609V25.5721H41.0453ZM41.117 24.9434V25.1891H40.4277V24.9434H41.117Z" fill="white"/>
<path fill-rule="evenodd" clip-rule="evenodd" d="M44.6367 24.3652H48.1551V24.6037H44.6367V24.3652ZM45.1608 25.5793H45.4051V25.8178H45.1608V25.5793ZM48.1696 25.5793V25.8178H47.4658V25.572L48.1696 25.5793ZM48.543 24.3652H48.7871V25.8106H48.543V24.3652Z" fill="white"/>
<path fill-rule="evenodd" clip-rule="evenodd" d="M49.9494 25.5728V25.8185H48.6138V25.5728H49.9494ZM47.4648 25.002H47.7018V25.8185H47.4648V25.002Z" fill="white"/>
<path fill-rule="evenodd" clip-rule="evenodd" d="M49.7493 24.3652H49.9934V25.8106H49.7493V24.3652ZM49.1461 24.3652H49.3831V25.8106H49.1461V24.3652ZM45.9292 24.9433V25.1891H44.6367V24.9433H45.9292ZM48.7512 24.9433V25.1891H47.4587V24.9433H48.7512Z" fill="white"/>
<path fill-rule="evenodd" clip-rule="evenodd" d="M47.4648 25.0078H47.7018V25.81H47.4648V25.0078Z" fill="white"/>
<path fill-rule="evenodd" clip-rule="evenodd" d="M47.4648 25.0078H47.7018V25.81H47.4648V25.0078Z" fill="white"/>
<path fill-rule="evenodd" clip-rule="evenodd" d="M47.4665 25.0078H47.7035V25.81H47.4665V25.0078ZM44.6445 25.0078H44.8815V25.81H44.6445V25.0078ZM46.7126 25.0078H46.9567V25.81H46.7126V25.0078ZM45.6857 25.0078H45.9298V25.81H45.6857V25.0078Z" fill="white"/>
<path fill-rule="evenodd" clip-rule="evenodd" d="M46.8772 25.5721V25.8178H45.793V25.5721H46.8772ZM46.949 24.9434V25.1891H46.2596V24.9434H46.949Z" fill="white"/>
<path fill-rule="evenodd" clip-rule="evenodd" d="M4.06641 9.36328H7.58491V9.60904H4.06641V9.36328ZM4.59059 10.5919H4.83473V10.8231H4.59059V10.5919ZM7.59926 10.5774V10.8231H6.89556V10.5774H7.59926ZM7.97265 9.36328H8.2168V10.8231H7.97265V9.36328Z" fill="white"/>
<path fill-rule="evenodd" clip-rule="evenodd" d="M9.38036 10.5767V10.8225H8.04474V10.5767H9.38036ZM6.89585 10.0059H7.12562V10.8225H6.88867L6.89585 10.0059Z" fill="white"/>
<path fill-rule="evenodd" clip-rule="evenodd" d="M9.17898 9.36328H9.4231V10.8231H9.17898V9.36328ZM8.57583 9.36328H8.81281V10.8231H8.57583V9.36328ZM5.35892 9.94145V10.1871H4.06641V9.94866L5.35892 9.94145ZM8.1809 9.94145V10.1871H6.88839V9.94866L8.1809 9.94145Z" fill="white"/>
<path fill-rule="evenodd" clip-rule="evenodd" d="M6.89585 10.0059H7.12562V10.8225H6.88867L6.89585 10.0059Z" fill="white"/>
<path fill-rule="evenodd" clip-rule="evenodd" d="M6.89585 10.0059H7.12562V10.8225H6.88867L6.89585 10.0059Z" fill="white"/>
<path fill-rule="evenodd" clip-rule="evenodd" d="M6.8962 10.0059H7.12597V10.8225H6.88902L6.8962 10.0059ZM4.07422 10.0059H4.31118V10.8225H4.07422V10.0059ZM6.14224 10.0059H6.38638V10.8225H6.14224V10.0059ZM5.11541 10.0059H5.35955V10.8225H5.11541V10.0059Z" fill="white"/>
<path fill-rule="evenodd" clip-rule="evenodd" d="M6.30692 10.5779V10.8237H5.22266V10.5779H6.30692ZM6.37873 9.94922V10.1877H5.68939V9.94922H6.37873Z" fill="white"/>
<path fill-rule="evenodd" clip-rule="evenodd" d="M-1.7207 9.36328H1.79779V9.60894H-1.7207V9.36328ZM-1.19652 10.5918H-0.952378V10.823H-1.2037L-1.19652 10.5918ZM1.81215 10.5773V10.823H1.10846V10.5773H1.81215ZM2.18555 9.36328H2.42968V10.823H2.18555V9.36328Z" fill="white"/>
<path fill-rule="evenodd" clip-rule="evenodd" d="M3.59387 10.5767V10.8225H2.25828V10.5767H3.59387ZM1.10938 10.0059H1.34634V10.8225H1.10938V10.0059Z" fill="white"/>
<path fill-rule="evenodd" clip-rule="evenodd" d="M3.39189 9.36328H3.63603V10.823H3.39189V9.36328ZM2.78871 9.36328H3.02567V10.823H2.78871V9.36328ZM-0.428194 9.94136V10.1871H-1.7207V9.94856L-0.428194 9.94136ZM2.39378 9.94136V10.1871H1.10127V9.94856L2.39378 9.94136Z" fill="white"/>
<path fill-rule="evenodd" clip-rule="evenodd" d="M1.10938 10.0059H1.34634V10.8225H1.10938V10.0059Z" fill="white"/>
<path fill-rule="evenodd" clip-rule="evenodd" d="M1.10938 10.0059H1.34634V10.8225H1.10938V10.0059Z" fill="white"/>
<path fill-rule="evenodd" clip-rule="evenodd" d="M1.10909 10.0059H1.34604V10.8225H1.10909V10.0059ZM-1.71289 10.0059H-1.47593V10.8225H-1.71289V10.0059ZM0.355121 10.0059H0.592082V10.8225H0.355121V10.0059ZM-0.671703 10.0059H-0.427562V10.8225H-0.671703V10.0059Z" fill="white"/>
<path fill-rule="evenodd" clip-rule="evenodd" d="M0.520452 10.5779V10.8237H-0.556641V10.5779H0.520452ZM0.592256 9.94922V10.1878H-0.0970818V9.94922H0.592256Z" fill="white"/>
<path fill-rule="evenodd" clip-rule="evenodd" d="M9.80273 9.36328H13.3213V9.60894H9.80273V9.36328ZM10.327 10.5918H10.5711V10.823H10.327V10.5918ZM13.3356 10.5773V10.823H12.632V10.5773H13.3356ZM13.7162 9.36328H13.9604V10.823H13.7162V9.36328Z" fill="white"/>
<path fill-rule="evenodd" clip-rule="evenodd" d="M15.1173 10.5767V10.8225H13.7817V10.5767H15.1173ZM12.6328 10.0059H12.877V10.8225H12.6328V10.0059Z" fill="white"/>
<path fill-rule="evenodd" clip-rule="evenodd" d="M14.9154 9.36328H15.1595V10.823H14.9154V9.36328ZM14.3121 9.36328H14.5564V10.823H14.305L14.3121 9.36328ZM11.0953 9.94136V10.1871H9.80273V9.94856L11.0953 9.94136ZM13.9172 9.94136V10.1871H12.6247V9.94856L13.9172 9.94136Z" fill="white"/>
<path fill-rule="evenodd" clip-rule="evenodd" d="M12.6328 10.0059H12.877V10.8225H12.6328V10.0059Z" fill="white"/>
<path fill-rule="evenodd" clip-rule="evenodd" d="M12.6328 10.0059H12.877V10.8225H12.6328V10.0059Z" fill="white"/>
<path fill-rule="evenodd" clip-rule="evenodd" d="M12.6326 10.0059H12.8767V10.8225H12.6326V10.0059ZM9.81055 10.0059H10.0548V10.8225H9.81055V10.0059ZM11.8786 10.0059H12.1227V10.8225H11.8786V10.0059ZM10.8518 10.0059H11.0959V10.8225H10.8518V10.0059Z" fill="white"/>
<path fill-rule="evenodd" clip-rule="evenodd" d="M12.0505 10.5779V10.8237H10.959V10.5779H12.0505ZM12.1222 9.94922V10.1878H11.4329V9.94922H12.1222Z" fill="white"/>
<path fill-rule="evenodd" clip-rule="evenodd" d="M15.5762 9.36328H19.1019V9.60894H15.5833L15.5762 9.36328ZM16.1075 10.5918H16.3445V10.823H16.1075V10.5918ZM19.109 10.5773V10.823H18.4053V10.5773H19.109ZM19.4896 9.36328H19.7337V10.823H19.4896V9.36328Z" fill="white"/>
<path fill-rule="evenodd" clip-rule="evenodd" d="M20.896 10.5767V10.8225H19.5604V10.5767H20.896ZM18.4043 10.0059H18.6484V10.8225H18.4043V10.0059Z" fill="white"/>
<path fill-rule="evenodd" clip-rule="evenodd" d="M20.6966 9.36328H20.9407V10.823H20.6966V9.36328ZM20.0862 9.36328H20.3304V10.823H20.0862V9.36328ZM16.8694 9.94136V10.1871H15.584V9.94856L16.8694 9.94136ZM19.6913 9.94136V10.1871H18.4059V9.94856L19.6913 9.94136Z" fill="white"/>
<path fill-rule="evenodd" clip-rule="evenodd" d="M18.4043 10.0059H18.6484V10.8225H18.4043V10.0059Z" fill="white"/>
<path fill-rule="evenodd" clip-rule="evenodd" d="M18.4043 10.0059H18.6484V10.8225H18.4043V10.0059Z" fill="white"/>
<path fill-rule="evenodd" clip-rule="evenodd" d="M18.4059 10.0059H18.6502V10.8225H18.4059V10.0059ZM15.584 10.0059H15.8281V10.8225H15.584V10.0059ZM17.652 10.0059H17.8961V10.8225H17.652V10.0059ZM16.6324 10.0059H16.8694V10.8225H16.6324V10.0059Z" fill="white"/>
<path fill-rule="evenodd" clip-rule="evenodd" d="M17.8225 10.5779V10.8237H16.7383V10.5779H17.8225ZM17.8943 9.94922V10.1878H17.2049V9.94922H17.8943Z" fill="white"/>
<path fill-rule="evenodd" clip-rule="evenodd" d="M21.377 9.36328H24.8954V9.60894H21.377V9.36328ZM21.9011 10.5918H22.1453V10.823H21.9011V10.5918ZM24.9098 10.5773V10.823H24.2061V10.5773H24.9098ZM25.2904 9.36328H25.5273V10.823H25.2904V9.36328Z" fill="white"/>
<path fill-rule="evenodd" clip-rule="evenodd" d="M26.6896 10.5767V10.8225H25.354V10.5767H26.6896ZM24.2051 10.0059H24.4493V10.8225H24.2051V10.0059Z" fill="white"/>
<path fill-rule="evenodd" clip-rule="evenodd" d="M26.4895 9.36328H26.7336V10.823H26.4895V9.36328ZM25.8864 9.36328H26.1305V10.823H25.8864V9.36328ZM22.6694 9.94136V10.1871H21.377V9.94856L22.6694 9.94136ZM25.4914 9.94136V10.1871H24.1989V9.94856L25.4914 9.94136Z" fill="white"/>
<path fill-rule="evenodd" clip-rule="evenodd" d="M24.2051 10.0059H24.4493V10.8225H24.2051V10.0059Z" fill="white"/>
<path fill-rule="evenodd" clip-rule="evenodd" d="M24.2051 10.0059H24.4493V10.8225H24.2051V10.0059Z" fill="white"/>
<path fill-rule="evenodd" clip-rule="evenodd" d="M24.2067 10.0059H24.4508V10.8225H24.2067V10.0059ZM21.3848 10.0059H21.6217V10.8225H21.3848V10.0059ZM23.4528 10.0059H23.6969V10.8225H23.4528V10.0059ZM22.4259 10.0059H22.6701V10.8225H22.4188L22.4259 10.0059Z" fill="white"/>
<path fill-rule="evenodd" clip-rule="evenodd" d="M23.6246 10.5779V10.8237H22.5332V10.5779H23.6246ZM23.6964 9.94922V10.1878H22.9927V9.94922H23.6964Z" fill="white"/>
<path fill-rule="evenodd" clip-rule="evenodd" d="M27.209 9.36328H30.7275V9.60894H27.209V9.36328ZM27.7332 10.5918H27.9773V10.823H27.7332V10.5918ZM30.7419 10.5773V10.823H30.031V10.5773H30.7419ZM31.1224 9.36328H31.3594V10.823H31.1224V9.36328Z" fill="white"/>
<path fill-rule="evenodd" clip-rule="evenodd" d="M32.5229 10.5767V10.8225H31.1873V10.5767H32.5229ZM30.0385 10.0059H30.2826V10.8225H30.0312L30.0385 10.0059Z" fill="white"/>
<path fill-rule="evenodd" clip-rule="evenodd" d="M32.3288 9.36328H32.5658V10.823H32.3288V9.36328ZM31.7184 9.36328H31.9626V10.823H31.7184V9.36328ZM28.5015 9.94136V10.1871H27.209V9.94856L28.5015 9.94136ZM31.3235 9.94136V10.1871H30.031V9.94856L31.3235 9.94136Z" fill="white"/>
<path fill-rule="evenodd" clip-rule="evenodd" d="M30.0312 10.0059H30.2826V10.8225H30.0312V10.0059Z" fill="white"/>
<path fill-rule="evenodd" clip-rule="evenodd" d="M30.0312 10.0059H30.2826V10.8225H30.0312V10.0059Z" fill="white"/>
<path fill-rule="evenodd" clip-rule="evenodd" d="M30.0316 10.0059H30.283V10.8225H30.0316V10.0059ZM27.2168 10.0059H27.461V10.8225H27.2168V10.0059ZM29.2848 10.0059H29.529V10.8225H29.2848V10.0059ZM28.2581 10.0059H28.5022V10.8225H28.2581V10.0059Z" fill="white"/>
<path fill-rule="evenodd" clip-rule="evenodd" d="M29.4567 10.5779V10.8237H28.3652V10.5779H29.4567ZM29.5285 9.94922V10.1878H28.8392V9.94922H29.5285Z" fill="white"/>
<path fill-rule="evenodd" clip-rule="evenodd" d="M33.002 9.36328H36.5205V9.60894H33.002V9.36328ZM33.5262 10.5918H33.7703V10.823H33.5262V10.5918ZM36.542 10.5773V10.823H35.8311V10.5773H36.542ZM36.9154 9.36328H37.1595V10.823H36.9154V9.36328Z" fill="white"/>
<path fill-rule="evenodd" clip-rule="evenodd" d="M38.3165 10.5767V10.8225H36.981V10.5767H38.3165ZM35.832 10.0059H36.0761V10.8225H35.832V10.0059Z" fill="white"/>
<path fill-rule="evenodd" clip-rule="evenodd" d="M38.1224 9.36328H38.3593V10.823H38.1224V9.36328ZM37.512 9.36328H37.7561V10.823H37.512V9.36328ZM34.2951 9.94136V10.1871H33.0098V9.94856L34.2951 9.94136ZM37.1171 9.94136V10.1871H35.8317V9.94856L37.1171 9.94136Z" fill="white"/>
<path fill-rule="evenodd" clip-rule="evenodd" d="M35.832 10.0059H36.0761V10.8225H35.832V10.0059Z" fill="white"/>
<path fill-rule="evenodd" clip-rule="evenodd" d="M35.832 10.0059H36.0761V10.8225H35.832V10.0059Z" fill="white"/>
<path fill-rule="evenodd" clip-rule="evenodd" d="M35.8317 10.0059H36.0758V10.8225H35.8317V10.0059ZM33.0098 10.0059H33.2539V10.8225H33.0098V10.0059ZM35.0778 10.0059H35.3219V10.8225H35.0778V10.0059ZM34.0509 10.0059H34.2951V10.8225H34.0581L34.0509 10.0059Z" fill="white"/>
<path fill-rule="evenodd" clip-rule="evenodd" d="M35.2503 10.5779V10.8237H34.166V10.5779H35.2503ZM35.3221 9.94922V10.1878H34.6255V9.94922H35.3221Z" fill="white"/>
<path fill-rule="evenodd" clip-rule="evenodd" d="M38.8047 9.36328H42.3231V9.60894H38.8047V9.36328ZM39.3288 10.5918H39.573V10.823H39.3288V10.5918ZM42.3375 10.5773V10.823H41.6338V10.5773H42.3375ZM42.7109 9.36328H42.9551V10.823H42.7109V9.36328Z" fill="white"/>
<path fill-rule="evenodd" clip-rule="evenodd" d="M44.1186 10.5767V10.8225H42.783V10.5767H44.1186ZM41.627 10.0059H41.8711V10.8225H41.627V10.0059Z" fill="white"/>
<path fill-rule="evenodd" clip-rule="evenodd" d="M43.9172 9.36328H44.1614V10.823H43.9172V9.36328ZM43.3141 9.36328H43.5511V10.823H43.3141V9.36328ZM40.0971 9.94136V10.1871H38.8047V9.94856L40.0971 9.94136ZM42.9191 9.94136V10.1871H41.6266V9.94856L42.9191 9.94136Z" fill="white"/>
<path fill-rule="evenodd" clip-rule="evenodd" d="M41.6348 10.0059H41.8717V10.8225H41.6348V10.0059Z" fill="white"/>
<path fill-rule="evenodd" clip-rule="evenodd" d="M41.6348 10.0059H41.8717V10.8225H41.6348V10.0059Z" fill="white"/>
<path fill-rule="evenodd" clip-rule="evenodd" d="M41.6338 10.0059H41.8708V10.8225H41.6338V10.0059ZM38.8047 10.0059H39.0488V10.8225H38.8047V10.0059ZM40.8799 10.0059H41.1168V10.8225H40.8799V10.0059ZM39.853 10.0059H40.0971V10.8225H39.853V10.0059Z" fill="white"/>
<path fill-rule="evenodd" clip-rule="evenodd" d="M41.0453 10.5779V10.8237H39.9609V10.5779H41.0453ZM41.117 9.94922V10.1878H40.4277V9.94922H41.117Z" fill="white"/>
<path fill-rule="evenodd" clip-rule="evenodd" d="M44.6367 9.36328H48.1551V9.60894H44.6367V9.36328ZM45.1608 10.5918H45.4051V10.823H45.1608V10.5918ZM48.1696 10.5773V10.823H47.4658V10.5773H48.1696ZM48.543 9.36328H48.7871V10.823H48.543V9.36328Z" fill="white"/>
<path fill-rule="evenodd" clip-rule="evenodd" d="M49.9494 10.5767V10.8225H48.6138V10.5767H49.9494ZM47.4648 10.0059H47.7018V10.8225H47.4648V10.0059Z" fill="white"/>
<path fill-rule="evenodd" clip-rule="evenodd" d="M49.7493 9.36328H49.9934V10.823H49.7493V9.36328ZM49.1461 9.36328H49.3831V10.823H49.1461V9.36328ZM45.9292 9.94136V10.1871H44.6367V9.94856L45.9292 9.94136ZM48.7512 9.94136V10.1871H47.4587V9.94856L48.7512 9.94136Z" fill="white"/>
<path fill-rule="evenodd" clip-rule="evenodd" d="M47.4648 10.0059H47.7018V10.8225H47.4648V10.0059Z" fill="white"/>
<path fill-rule="evenodd" clip-rule="evenodd" d="M47.4648 10.0059H47.7018V10.8225H47.4648V10.0059Z" fill="white"/>
<path fill-rule="evenodd" clip-rule="evenodd" d="M47.4665 10.0059H47.7035V10.8225H47.4665V10.0059ZM44.6445 10.0059H44.8815V10.8225H44.6445V10.0059ZM46.7126 10.0059H46.9567V10.8225H46.7126V10.0059ZM45.6857 10.0059H45.9298V10.8225H45.6857V10.0059Z" fill="white"/>
<path fill-rule="evenodd" clip-rule="evenodd" d="M46.8772 10.5779V10.8237H45.793V10.5779H46.8772ZM46.949 9.94922V10.1878H46.2596V9.94922H46.949Z" fill="white"/>
<path fill-rule="evenodd" clip-rule="evenodd" d="M0.676588 23.5352H1.10742V24.2939H0.676588V23.5352ZM12.2015 23.5352H12.6323V24.2939H12.2015V23.5352ZM-8.16992 23.5352H-7.73909V24.2939H-8.16992V23.5352ZM-2.31773 23.5352H-1.88689V24.2939H-2.31773V23.5352ZM3.49138 23.5352H3.92222V24.2939H3.49138V23.5352ZM6.36363 23.5352H6.79446V24.2939H6.36363V23.5352ZM9.30047 23.5352H9.73135V24.2939H9.30047V23.5352ZM15.0737 23.5352H15.5045V24.2939H15.0737V23.5352ZM29.6504 23.5352H30.0883V24.2939H29.6575L29.6504 23.5352ZM18.0106 23.5352H18.4415V24.2939H18.0106V23.5352ZM20.8828 23.5352H21.3136V24.2939H20.8828V23.5352ZM23.791 23.5352H24.2218V24.2939H23.791V23.5352ZM26.6919 23.5352H27.1227V24.2939H26.6919V23.5352ZM49.8997 23.5352H50.3305V24.2939H49.8997V23.5352ZM32.4723 23.5352H32.9031V24.2939H32.4723V23.5352ZM35.402 23.5352H35.8328V24.2939H35.402V23.5352ZM38.3676 23.5352H38.7984V24.2939H38.3676V23.5352ZM41.1537 23.5352H41.5845V24.2939H41.1537V23.5352ZM44.1193 23.5352H44.5501V24.2939H44.1193V23.5352ZM47.0202 23.5352H47.4511V24.2939H47.0202V23.5352ZM55.6154 23.5352H56.0463V24.2939H55.6154V23.5352ZM52.8293 23.5352H53.2602V24.2939H52.8293V23.5352ZM-5.2546 23.5352H-4.82376V24.2939H-5.2546V23.5352Z" fill="#D90000"/>
<path fill-rule="evenodd" clip-rule="evenodd" d="M0.676588 10.75H1.10742V11.5088H0.676588V10.75ZM12.2015 10.75H12.6323V11.5088H12.2015V10.75ZM-8.16992 10.75H-7.73909V11.5088H-8.16992V10.75ZM-2.31773 10.75H-1.88689V11.5088H-2.31773V10.75ZM3.49138 10.75H3.92222V11.5088H3.49138V10.75ZM6.36363 10.75H6.79446V11.5088H6.36363V10.75ZM9.30047 10.75H9.73135V11.5088H9.30047V10.75ZM15.0737 10.75H15.5045V11.5088H15.0737V10.75ZM29.6504 10.75H30.0883V11.5088H29.6575L29.6504 10.75ZM18.0106 10.75H18.4415V11.5088H18.0106V10.75ZM20.8828 10.75H21.3136V11.5088H20.8828V10.75ZM23.791 10.75H24.2218V11.5088H23.791V10.75ZM26.6919 10.75H27.1227V11.5088H26.6919V10.75ZM49.8997 10.75H50.3305V11.5088H49.8997V10.75ZM32.4723 10.75H32.9031V11.5088H32.4723V10.75ZM35.402 10.75H35.8328V11.5088H35.402V10.75ZM38.3676 10.75H38.7984V11.5088H38.3676V10.75ZM41.1537 10.75H41.5845V11.5088H41.1537V10.75ZM44.1193 10.75H44.5501V11.5088H44.1193V10.75ZM47.0202 10.75H47.4511V11.5088H47.0202V10.75ZM55.6154 10.75H56.0463V11.5088H55.6154V10.75ZM52.8293 10.75H53.2602V11.5088H52.8293V10.75ZM-5.2546 10.75H-4.82376V11.5088H-5.2546V10.75Z" fill="#239E3F"/>
<path fill-rule="evenodd" clip-rule="evenodd" d="M25.71 13.2734C26.3132 14.025 28.1873 18.1586 24.5826 20.8758C22.8808 22.1621 23.9363 22.2199 23.9866 22.4368C26.7153 20.9842 27.5985 19.0042 27.5769 17.2336C27.5626 15.4704 26.6291 13.9094 25.71 13.2734Z" fill="#DA0000"/>
<path fill-rule="evenodd" clip-rule="evenodd" d="M26.0688 13.0781C26.7351 13.4861 27.3029 14.038 27.7312 14.6939C28.1596 15.3497 28.4377 16.0932 28.5457 16.8705C28.6535 17.6478 28.5884 18.4395 28.3551 19.1885C28.1216 19.9373 27.7259 20.6247 27.1961 21.2008C29.1493 20.7672 31.6481 14.957 26.0688 13.0781ZM21.9328 13.0781C21.2671 13.4867 20.6999 14.0391 20.2722 14.6952C19.8446 15.3514 19.5671 16.095 19.46 16.8723C19.3528 17.6496 19.4185 18.4411 19.6524 19.1896C19.8863 19.9382 20.2826 20.6252 20.8126 21.2008C18.8523 20.7672 16.3607 14.957 21.9328 13.0781Z" fill="#DA0000"/>
<path fill-rule="evenodd" clip-rule="evenodd" d="M22.2931 13.2734C21.69 14.025 19.8158 18.1586 23.4205 20.8758C25.1151 22.1621 24.0668 22.2199 24.0165 22.4367C21.2878 20.9841 20.4046 19.0042 20.4262 17.2336C20.4406 15.4704 21.374 13.9094 22.2931 13.2734Z" fill="#DA0000"/>
<path fill-rule="evenodd" clip-rule="evenodd" d="M27.4602 22.0603C26.3903 22.0747 25.0475 21.9158 24.0495 21.3883C24.2146 21.7135 24.351 21.9158 24.5161 22.2337C25.464 22.3277 26.7781 22.4361 27.4602 22.0603ZM20.6387 22.0603C21.7086 22.0747 23.0513 21.9158 24.0495 21.3883C23.8843 21.7135 23.7479 21.9158 23.5827 22.2337C22.6348 22.3277 21.3208 22.4361 20.6387 22.0603ZM22.599 12.0371C22.8144 12.6152 23.3816 12.7019 23.9848 12.3622C24.43 12.6224 25.1122 12.6441 25.3492 12.0659C25.5287 13.4969 24.035 13.1499 23.9848 12.8754C23.4247 13.4173 22.3907 13.1066 22.599 12.0371Z" fill="#DA0000"/>
<path fill-rule="evenodd" clip-rule="evenodd" d="M24.0306 22.9631L24.5907 22.3127L24.6696 13.6336L24.0018 13.041L23.334 13.6047L23.4705 22.3489L24.0306 22.9631Z" fill="#DA0000"/>
</g>
</g>
</g>
<defs>
<clipPath id="clip0_35_34457">
<rect width="50" height="37" fill="white" transform="translate(-1 -1)"/>
</clipPath>
</defs>
</svg>
