<svg width="48" height="36" viewBox="0 0 48 36" fill="none" xmlns="http://www.w3.org/2000/svg">
<g clip-path="url(#clip0_35_34189)">
<mask id="mask0_35_34189" style="mask-type:luminance" maskUnits="userSpaceOnUse" x="-1" y="0" width="50" height="36">
<path d="M44.5883 0H3.4118C1.24598 0 -0.509766 1.69661 -0.509766 3.78947V32.2105C-0.509766 34.3034 1.24598 36 3.4118 36H44.5883C46.7541 36 48.5098 34.3034 48.5098 32.2105V3.78947C48.5098 1.69661 46.7541 0 44.5883 0Z" fill="white"/>
</mask>
<g mask="url(#mask0_35_34189)">
<path fill-rule="evenodd" clip-rule="evenodd" d="M-0.509766 0H48.5098V36H-0.509766V0Z" fill="white"/>
<path fill-rule="evenodd" clip-rule="evenodd" d="M-0.509766 0H15.8276V36H-0.509766V0Z" fill="#009246"/>
<path fill-rule="evenodd" clip-rule="evenodd" d="M32.1729 0H48.5102V36H32.1729V0Z" fill="#CE2B37"/>
<g clip-path="url(#clip1_35_34189)">
<mask id="mask1_35_34189" style="mask-type:luminance" maskUnits="userSpaceOnUse" x="-1" y="0" width="50" height="37">
<path d="M44.5883 0H3.4118C1.24598 0 -0.509766 1.74373 -0.509766 3.89474V33.1053C-0.509766 35.2563 1.24598 37 3.4118 37H44.5883C46.7541 37 48.5098 35.2563 48.5098 33.1053V3.89474C48.5098 1.74373 46.7541 0 44.5883 0Z" fill="white"/>
</mask>
<g mask="url(#mask1_35_34189)">
<mask id="mask2_35_34189" style="mask-type:luminance" maskUnits="userSpaceOnUse" x="-1" y="0" width="50" height="37">
<path d="M-0.509766 0H48.5122V37H-0.509766V0Z" fill="white"/>
</mask>
<g mask="url(#mask2_35_34189)">
<path fill-rule="evenodd" clip-rule="evenodd" d="M-0.509766 0H48.5195V37H-0.509766V0Z" fill="white"/>
<path fill-rule="evenodd" clip-rule="evenodd" d="M4.86133 11.2259L9.94739 3.54297L11.2252 4.40151L6.13916 12.0844L4.86133 11.2259ZM6.77808 12.5137L11.8642 4.83078L13.142 5.68933L8.05592 13.3723L6.77808 12.5137ZM8.69484 13.8015L13.7809 6.11861L15.0588 6.97715L9.97268 14.6601L8.69484 13.8015Z" fill="#000001"/>
<path fill-rule="evenodd" clip-rule="evenodd" d="M32.8984 30.0443L37.9845 22.3613L39.2624 23.2199L34.1763 30.9029L32.8984 30.0443ZM34.8152 31.3321L39.9013 23.6492L41.1791 24.5077L36.093 32.1907L34.8152 31.3321ZM36.732 32.62L41.818 24.937L43.0959 25.7955L38.0098 33.4785L36.732 32.62Z" fill="#000001"/>
<path d="M34.8135 25.7812L41.1856 30.0582" stroke="white" stroke-width="0.8125"/>
<path fill-rule="evenodd" clip-rule="evenodd" d="M16.333 13.3558C17.6804 11.3208 19.7792 9.91104 22.1677 9.4366C24.5563 8.96219 27.039 9.46203 29.0696 10.8262C31.1002 12.1903 32.5124 14.307 32.9955 16.7106C33.4786 19.1142 32.9931 21.6078 31.6458 23.6429L16.333 13.3558Z" fill="#CD2E3A"/>
<path fill-rule="evenodd" clip-rule="evenodd" d="M16.3161 13.3691C14.9681 15.4052 14.4824 17.9001 14.9657 20.305C15.449 22.7098 16.8618 24.8276 18.8932 26.1925C20.9247 27.5573 23.4084 28.0574 25.798 27.5827C28.1876 27.108 30.2874 25.6975 31.6352 23.6614C32.3092 22.6434 32.5521 21.3959 32.3104 20.1935C32.0687 18.9911 31.3624 17.9322 30.3467 17.2498C29.3309 16.5674 28.089 16.3173 26.8942 16.5546C25.6995 16.7919 24.6496 17.4973 23.9756 18.5153L16.3161 13.3691Z" fill="#0047A0"/>
<path d="M23.987 18.5176C25.3909 16.3969 24.8138 13.5252 22.6979 12.1037C20.5821 10.6821 17.7287 11.249 16.3248 13.3696C14.9208 15.4904 15.498 18.362 17.6138 19.7836C19.7297 21.2052 22.5831 20.6384 23.987 18.5176Z" fill="#CD2E3A"/>
<path fill-rule="evenodd" clip-rule="evenodd" d="M9.96992 33.4804L4.88379 25.7975L6.16162 24.939L11.2477 32.6218L9.96992 33.4804ZM11.8866 32.1926L6.80054 24.5097L8.07838 23.6511L13.1644 31.334L11.8866 32.1926ZM13.8033 30.9047L8.7173 23.2219L9.99511 22.3633L15.0812 30.0462L13.8033 30.9047Z" fill="#000001"/>
<path fill-rule="evenodd" clip-rule="evenodd" d="M38.0089 14.6621L32.9229 6.97911L34.2007 6.12056L39.2868 13.8035L38.0089 14.6621ZM39.9257 13.3742L34.8395 5.69128L36.1174 4.83274L41.2034 12.5157L39.9257 13.3742ZM41.8424 12.0864L36.7563 4.40347L38.0341 3.54492L43.1202 11.2279L41.8424 12.0864Z" fill="#000001"/>
<path d="M9.02539 28.5643L10.9371 27.2812M34.8327 11.2428L37.063 9.74584M38.9747 8.46277L40.8864 7.17969" stroke="white" stroke-width="0.8125"/>
</g>
</g>
</g>
</g>
</g>
<defs>
<clipPath id="clip0_35_34189">
<rect width="50" height="36" fill="white" transform="translate(-1)"/>
</clipPath>
<clipPath id="clip1_35_34189">
<rect width="50" height="37" fill="white" transform="translate(-1)"/>
</clipPath>
</defs>
</svg>
