<svg width="48" height="36" viewBox="0 0 48 36" fill="none" xmlns="http://www.w3.org/2000/svg">
<g clip-path="url(#clip0_35_34346)">
<mask id="mask0_35_34346" style="mask-type:luminance" maskUnits="userSpaceOnUse" x="0" y="0" width="48" height="36">
<path d="M44.16 0H3.84C1.71923 0 0 1.69661 0 3.78947V32.2105C0 34.3034 1.71923 36 3.84 36H44.16C46.2808 36 48 34.3034 48 32.2105V3.78947C48 1.69661 46.2808 0 44.16 0Z" fill="white"/>
</mask>
<g mask="url(#mask0_35_34346)">
<mask id="mask1_35_34346" style="mask-type:luminance" maskUnits="userSpaceOnUse" x="0" y="0" width="48" height="36">
<path d="M0 0H48V36H0V0Z" fill="white"/>
</mask>
<g mask="url(#mask1_35_34346)">
<path d="M0 0H54V36H0V0Z" fill="#FF0000"/>
<path d="M0 0H27V18H0V0Z" fill="#000095"/>
<path d="M11.5508 9.51711L11.3633 10.2371L12.0683 10.4321L11.9333 9.89956L11.5508 9.51711ZM15.0683 9.89956L14.9333 10.4321L15.6384 10.2371L15.4509 9.51711L15.0683 9.89956ZM11.9333 8.09961L11.5508 8.48211L11.6933 8.99961L11.9333 8.09961Z" fill="white"/>
<path d="M11.6933 9L11.5508 9.51755L11.9333 9.9L11.6933 9Z" fill="white"/>
<path d="M11.5506 8.48242L11.0332 8.99992L11.5506 9.51746L11.6932 8.99992L11.5506 8.48242ZM12.6007 10.5674L12.9832 10.9499L13.5007 10.8074L12.6007 10.5674ZM14.0182 10.9499L14.7382 11.1375L14.9332 10.4324L14.4007 10.5674L14.0182 10.9499Z" fill="white"/>
<path d="M14.4009 10.5678L14.9334 10.4328L15.0684 9.90039L14.4009 10.5678ZM12.0684 10.4328L12.2633 11.1378L12.9833 10.9504L12.6009 10.5678L12.0684 10.4328ZM13.5009 10.8079L14.0184 10.9504L14.4009 10.5678L13.5009 10.8079Z" fill="white"/>
<path d="M12.9833 10.9509L13.5008 11.4684L14.0184 10.9509L13.5008 10.8083L12.9833 10.9509ZM12.0683 7.56836L11.3633 7.76336L11.5508 8.48336L11.9333 8.10086L12.0683 7.56836ZM11.9333 9.90084L12.0683 10.4334L12.6008 10.5684L11.9333 9.90084ZM15.3083 9.00086L15.4509 8.48336L15.0683 8.10086L15.3083 9.00086Z" fill="white"/>
<path d="M12.5991 7.43164L12.0666 7.56664L11.9316 8.09914L12.5991 7.43164ZM15.0666 8.09914L14.9316 7.56664L14.3991 7.43164L15.0666 8.09914ZM15.4491 9.51665L15.9666 8.99914L15.4491 8.48164L15.3066 8.99914L15.4491 9.51665Z" fill="white"/>
<path d="M15.0683 8.10086L14.4008 7.43336L13.5008 7.19336L12.6008 7.43336L11.9334 8.10086L11.6934 9.00086L11.9334 9.9009L12.6008 10.5683L13.5008 10.8084L14.4008 10.5683L15.0683 9.9009L15.3083 9.00086L15.0683 8.10086Z" fill="white"/>
<path d="M15.0684 9.90078L15.4509 9.51833L15.3084 9.00078L15.0684 9.90078ZM15.4509 8.48328L15.6384 7.76328L14.9334 7.56828L15.0684 8.10078L15.4509 8.48328ZM14.9334 7.56828L14.7384 6.86328L14.0184 7.05078L14.4009 7.43328L14.9334 7.56828ZM12.9833 7.05078L12.2633 6.86328L12.0684 7.56828L12.6009 7.43328L12.9833 7.05078ZM13.5009 7.19329L12.9833 7.05078L12.6009 7.43328L13.5009 7.19329Z" fill="white"/>
<path d="M14.0175 7.0507L13.5 6.5332L12.9824 7.0507L13.5 7.1932L14.0175 7.0507Z" fill="white"/>
<path d="M14.4007 7.43328L14.0182 7.05078L13.5007 7.19328L14.4007 7.43328ZM12.9832 10.9508L12.2632 11.1382L12.6007 12.3833L13.5007 11.4683L12.9832 10.9508ZM12.6007 12.3833L13.5007 15.7508L14.4007 12.3833L13.5007 11.4683L12.6007 12.3833ZM12.0682 10.4333L11.3632 10.2382L11.0332 11.4683L12.2632 11.1382L12.0682 10.4333Z" fill="white"/>
<path d="M11.0329 11.4678L10.1329 14.8504L12.6004 12.3829L12.2629 11.1378L11.0329 11.4678ZM10.1329 9.90039L7.65039 12.3829L11.0329 11.4678L11.3629 10.2378L10.1329 9.90039Z" fill="white"/>
<path d="M11.5503 9.51667L11.0328 8.99922L10.1328 9.89922L11.3628 10.2367L11.5503 9.51667ZM11.5503 8.48172L11.3628 7.76172L10.1328 8.09922L11.0328 8.99922L11.5503 8.48172Z" fill="white"/>
<path d="M10.1325 8.09961L6.75 8.99961L10.1325 9.89956L11.0325 8.99961L10.1325 8.09961ZM16.8825 9.89956L15.6375 10.2371L15.9675 11.4671L19.35 12.3821L16.8825 9.89956Z" fill="white"/>
<path d="M14.9325 10.4325L14.7375 11.1375L15.9675 11.4675L15.6375 10.2375L14.9325 10.4325ZM14.0175 10.95L13.5 11.4675L14.4 12.3825L14.7375 11.1375L14.0175 10.95ZM15.45 9.51755L15.6375 10.2375L16.8825 9.9L15.9675 9L15.45 9.51755Z" fill="white"/>
<path d="M14.4004 12.3832L16.8829 14.8507L15.9679 11.4682L14.7379 11.1382L14.4004 12.3832ZM14.9329 7.5682L15.6379 7.7632L15.9679 6.5332L14.7379 6.8632L14.9329 7.5682Z" fill="white"/>
<path d="M16.8829 8.10039L19.3503 5.63289L15.9679 6.53289L15.6379 7.76289L16.8829 8.10039ZM15.9679 6.53289L16.8829 3.15039L14.4004 5.63289L14.7379 6.86289L15.9679 6.53289ZM16.8829 9.90044L20.2504 9.00039L16.8829 8.10039L15.9679 9.00039L16.8829 9.90044Z" fill="white"/>
<path d="M15.4503 8.48289L15.9678 9.00039L16.8828 8.10039L15.6378 7.76289L15.4503 8.48289ZM12.6003 5.63289L10.1328 3.15039L11.0328 6.53289L12.2628 6.86289L12.6003 5.63289Z" fill="white"/>
<path d="M12.0682 7.5682L12.2632 6.8632L11.0332 6.5332L11.3632 7.7632L12.0682 7.5682Z" fill="white"/>
<path d="M11.0329 6.53281L7.65039 5.63281L10.1329 8.10032L11.3629 7.76282L11.0329 6.53281ZM14.0179 7.05031L14.7379 6.86282L14.4004 5.63281L13.5004 6.53281L14.0179 7.05031Z" fill="white"/>
<path d="M14.3996 5.6325L13.4996 2.25L12.5996 5.6325L13.4996 6.5325L14.3996 5.6325Z" fill="white"/>
<path d="M12.9817 7.05031L13.4993 6.53281L12.5993 5.63281L12.2617 6.86282L12.9817 7.05031Z" fill="white"/>
<path d="M13.5005 12.8329C15.6171 12.8329 17.333 11.1171 17.333 9.00047C17.333 6.88383 15.6171 5.16797 13.5005 5.16797C11.3839 5.16797 9.66797 6.88383 9.66797 9.00047C9.66797 11.1171 11.3839 12.8329 13.5005 12.8329Z" fill="#000095"/>
<path d="M13.4997 12.3822C15.3677 12.3822 16.8821 10.8678 16.8821 8.99968C16.8821 7.13158 15.3677 5.61719 13.4997 5.61719C11.6316 5.61719 10.1172 7.13158 10.1172 8.99968C10.1172 10.8678 11.6316 12.3822 13.4997 12.3822Z" fill="white"/>
</g>
</g>
</g>
<defs>
<clipPath id="clip0_35_34346">
<rect width="48" height="36" fill="white"/>
</clipPath>
</defs>
</svg>
