<svg width="48" height="36" viewBox="0 0 48 36" fill="none" xmlns="http://www.w3.org/2000/svg">
<g clip-path="url(#clip0_35_34072)">
<mask id="mask0_35_34072" style="mask-type:luminance" maskUnits="userSpaceOnUse" x="-1" y="0" width="50" height="37">
<path d="M44.5883 0H3.4118C1.24598 0 -0.509766 1.74373 -0.509766 3.89474V33.1053C-0.509766 35.2563 1.24598 37 3.4118 37H44.5883C46.7541 37 48.5098 35.2563 48.5098 33.1053V3.89474C48.5098 1.74373 46.7541 0 44.5883 0Z" fill="white"/>
</mask>
<g mask="url(#mask0_35_34072)">
<mask id="mask1_35_34072" style="mask-type:luminance" maskUnits="userSpaceOnUse" x="-1" y="0" width="50" height="37">
<path d="M-0.509766 0H48.5098V37H-0.509766V0Z" fill="white"/>
</mask>
<g mask="url(#mask1_35_34072)">
<path fill-rule="evenodd" clip-rule="evenodd" d="M-3.57324 0H51.5738V37H-3.57324V0Z" fill="white"/>
<path d="M24.0041 30.0022C30.3156 30.0022 35.4321 24.853 35.4321 18.5012C35.4321 12.1492 30.3156 7 24.0041 7C17.6926 7 12.5762 12.1492 12.5762 18.5012C12.5762 24.853 17.6926 30.0022 24.0041 30.0022Z" fill="#BC002D"/>
</g>
</g>
</g>
<defs>
<clipPath id="clip0_35_34072">
<rect width="50" height="37" fill="white" transform="translate(-1)"/>
</clipPath>
</defs>
</svg>
