<svg width="48" height="36" viewBox="0 0 48 36" fill="none" xmlns="http://www.w3.org/2000/svg">
<g clip-path="url(#clip0_35_32980)">
<mask id="mask0_35_32980" style="mask-type:luminance" maskUnits="userSpaceOnUse" x="-1" y="0" width="50" height="36">
<path d="M44.5883 0H3.4118C1.24598 0 -0.509766 1.69661 -0.509766 3.78947V32.2105C-0.509766 34.3034 1.24598 36 3.4118 36H44.5883C46.7541 36 48.5098 34.3034 48.5098 32.2105V3.78947C48.5098 1.69661 46.7541 0 44.5883 0Z" fill="white"/>
</mask>
<g mask="url(#mask0_35_32980)">
<mask id="mask1_35_32980" style="mask-type:luminance" maskUnits="userSpaceOnUse" x="-1" y="0" width="50" height="37">
<path d="M-0.519531 0H48.6332V36.096H-0.519531V0Z" fill="white"/>
</mask>
<g mask="url(#mask1_35_32980)">
<path fill-rule="evenodd" clip-rule="evenodd" d="M-13.2422 0.24707H61.4912V35.356H-13.2422V0.24707Z" fill="#FFC621"/>
<path fill-rule="evenodd" clip-rule="evenodd" d="M-13.3857 24.1465H61.4413V36.0963H-13.3857V24.1465Z" fill="#EF2118"/>
<path fill-rule="evenodd" clip-rule="evenodd" d="M-13.2422 0H61.4912V12.69H-13.2422V0Z" fill="#298C08"/>
<path d="M22.805 26.2579C27.0931 26.2579 30.5692 22.8541 30.5692 18.6553C30.5692 14.4565 27.0931 11.0527 22.805 11.0527C18.5171 11.0527 15.041 14.4565 15.041 18.6553C15.041 22.8541 18.5171 26.2579 22.805 26.2579Z" fill="#006BC6"/>
<path fill-rule="evenodd" clip-rule="evenodd" d="M19.3229 13.2679L18.8549 13.585L20.5468 15.9116L21.0005 15.6296L19.3229 13.2679ZM21.4396 18.7669L20.7412 18.2874L21.0293 17.392L17.5661 17.4414L16.5582 16.6871L21.2884 16.6378L22.1668 14.0363L22.6419 15.0938L21.4396 18.7669ZM26.9474 13.7825L26.4939 13.4441L24.7443 15.7283L25.1475 16.0597L26.9474 13.7825ZM22.2388 17.4133L22.4908 16.6236H23.4484L22.354 13.3947L22.7859 12.2314L24.2619 16.6306L27.0555 16.6659L26.177 17.4203L22.2388 17.4133ZM28.7617 21.0228L28.9561 20.5011L26.1987 19.5635L25.997 20.057L28.7617 21.0228ZM23.7867 17.7517L24.6291 17.7446L24.9243 18.6329L27.7178 16.6236L28.985 16.6659L25.1619 19.3943L25.9899 22.0169L24.9819 21.4247L23.7867 17.7517ZM22.3611 24.9427L22.93 24.9567L22.9515 22.1015L22.4188 22.0663L22.3611 24.9427ZM23.9452 19.2815L24.2187 20.064L23.4484 20.6281L26.2851 22.5809L26.6451 23.7653L22.7859 21.0863L20.518 22.6866L20.7701 21.5587L23.9379 19.2815H23.9452ZM16.5078 20.198L16.6734 20.7267L19.4597 19.8667L19.3157 19.3591L16.5078 20.198ZM22.498 19.9159L21.8212 20.4165L21.0436 19.8737L20.0212 23.1167L18.9845 23.8216L20.3885 19.4013L18.1277 17.7798L19.3013 17.6671L22.498 19.9159Z" fill="#FFC621"/>
</g>
</g>
</g>
<defs>
<clipPath id="clip0_35_32980">
<rect width="50" height="36" fill="white" transform="translate(-1)"/>
</clipPath>
</defs>
</svg>
