<svg width="525" height="526" viewBox="0 0 525 526" fill="none" xmlns="http://www.w3.org/2000/svg">
<path d="M131.353 263.955C58.9956 263.955 0.273646 205.359 0.000939515 132.933L0.000939494 132.433C-0.271767 59.3695 58.8592 1.18334e-05 131.853 8.63673e-06L329.063 0C364.787 -1.56455e-06 393.829 28.8431 394.102 64.6012V66.876C394.375 102.998 365.151 132.433 329.063 132.433H326.79C290.884 132.433 261.751 161.595 261.751 197.534V198.854C261.751 234.794 290.884 263.955 326.79 263.955H394.102C466.368 263.955 525 322.596 525 394.977C525 467.313 466.415 526 394.102 526H393.148C320.882 526 262.251 467.358 262.251 394.977C262.251 322.596 203.664 263.955 131.353 263.955Z" fill="url(#paint0_linear_35_20632)" fill-opacity="0.6"/>
<defs>
<linearGradient id="paint0_linear_35_20632" x1="149.922" y1="131.225" x2="411.949" y2="425.175" gradientUnits="userSpaceOnUse">
<stop stop-color="#A255FF"/>
<stop offset="1" stop-color="#9A52F0" stop-opacity="0"/>
</linearGradient>
</defs>
</svg>
