<svg width="34" height="34" viewBox="0 0 34 34" fill="none" xmlns="http://www.w3.org/2000/svg">
<rect width="34" height="34" rx="4" fill="#F4B800"/>
<g clip-path="url(#clip0_4481_72)">
<path d="M27.0841 17C27.0841 17.9552 26.943 18.8746 26.6946 19.75H24.7686C25.0757 18.8883 25.2508 17.9653 25.2508 17C25.2508 12.4515 21.5502 8.75 17.0008 8.75C15.437 8.75 13.9795 9.19367 12.7346 9.9545L14.4369 12.4167H8.02573L9.9984 6L11.6942 8.45025C13.237 7.48867 15.0474 6.91667 17.0008 6.91667C22.5686 6.91667 27.0841 11.4313 27.0841 17ZM21.2596 24.051C20.0157 24.8082 18.561 25.25 17.0008 25.25C12.4514 25.25 8.75081 21.5485 8.75081 17C8.75081 16.0347 8.9259 15.1117 9.23206 14.25H7.30706C7.05865 15.1254 6.91748 16.0448 6.91748 17C6.91748 22.5688 11.4321 27.0833 17.0008 27.0833C18.9506 27.0833 20.7582 26.5141 22.2991 25.5553L23.9977 28L25.9704 21.5934H19.5592L21.2596 24.051ZM21.5841 14.6249L20.2816 13.3333L15.602 18.0844L13.6971 16.0833L12.4175 17.3988L15.6258 20.6667L21.5841 14.6249Z" fill="white"/>
</g>
<defs>
<clipPath id="clip0_4481_72">
<rect width="22" height="22" fill="white" transform="translate(6 6)"/>
</clipPath>
</defs>
</svg>
