<svg width="24" height="24" viewBox="0 0 24 24" fill="none" xmlns="http://www.w3.org/2000/svg">
<path d="M10.9996 8.99961H12.9996V11.9996H15.9996V13.9996H12.9996V16.9996H10.9996V13.9996H7.99961V11.9996H10.9996V8.99961Z" fill="#0037FF"/>
<path fill-rule="evenodd" clip-rule="evenodd" d="M3.49961 2.34961C2.03605 2.34961 0.849609 3.53606 0.849609 4.99961V17.9996C0.849609 19.4632 2.03606 20.6496 3.49961 20.6496H20.4996C21.9632 20.6496 23.1496 19.4632 23.1496 17.9996V7.99961C23.1496 6.53606 21.9632 5.34961 20.4996 5.34961H11.8041L9.30405 2.34961H3.49961ZM2.14961 4.99961C2.14961 4.25402 2.75402 3.64961 3.49961 3.64961H8.69517L11.1952 6.64961H20.4996C21.2452 6.64961 21.8496 7.25402 21.8496 7.99961V17.9996C21.8496 18.7452 21.2452 19.3496 20.4996 19.3496H3.49961C2.75402 19.3496 2.14961 18.7452 2.14961 17.9996V4.99961Z" fill="#0037FF"/>
</svg>
