<svg width="24" height="24" viewBox="0 0 24 24" fill="none" xmlns="http://www.w3.org/2000/svg">
<path fill-rule="evenodd" clip-rule="evenodd" d="M12 2C17.5192 2 22 6.48083 22 12C22 17.5192 17.5192 22 12 22C6.48083 22 2 17.5192 2 12C2 6.48083 6.48083 2 12 2ZM14.1308 15.3333H9.86833C10.3233 17.3833 11.0692 18.7617 12 20.12C12.995 18.6692 13.7008 17.2783 14.1308 15.3333ZM8.16667 15.3333H4.36083C5.39083 17.6875 7.4475 19.4767 9.99 20.0967C9.11667 18.6525 8.50417 17.0483 8.16667 15.3333ZM19.6392 15.3333H15.8333C15.5075 16.99 14.9208 18.5725 14.0208 20.0783C16.5308 19.4425 18.6183 17.6658 19.6392 15.3333ZM7.96833 10.3333H3.83333C3.61083 11.4275 3.61083 12.5708 3.83333 13.6667H7.92917C7.83 12.5592 7.845 11.44 7.96833 10.3333ZM14.3525 10.3333H9.64667C9.50917 11.4383 9.4925 12.56 9.6025 13.6667H14.3967C14.5075 12.56 14.4892 11.4392 14.3525 10.3333ZM20.1667 10.3333H16.0308C16.1542 11.44 16.1692 12.5592 16.0708 13.6667H20.1667C20.3833 12.5958 20.3942 11.46 20.1667 10.3333ZM10.0367 3.8925C7.4725 4.5025 5.3975 6.2975 4.36083 8.66667H8.23833C8.60083 6.965 9.22 5.34583 10.0367 3.8925ZM11.9992 3.8525C11.0917 5.3275 10.4075 6.73 9.94667 8.66667H14.0525C13.6075 6.795 12.9383 5.37667 11.9992 3.8525ZM13.9725 3.91C14.8167 5.42 15.4167 7.04333 15.7608 8.66667H19.6392C18.6125 6.32 16.5042 4.535 13.9725 3.91Z" fill="white"/>
</svg>
