<svg width="157" height="57" viewBox="0 0 157 57" fill="none" xmlns="http://www.w3.org/2000/svg">
<rect y="13" width="31" height="31" rx="4.76923" fill="#23E6A8"/>
<path d="M14.25 21C14.25 20.3096 13.6904 19.75 13 19.75C12.3097 19.75 11.75 20.3096 11.75 21H14.25ZM13 34.4616H11.75V35.148L12.3293 35.5163L13 34.4616ZM19.25 21C19.25 20.3096 18.6904 19.75 18 19.75C17.3097 19.75 16.75 20.3096 16.75 21H19.25ZM18 34.4616L18.6708 35.5164L19.25 35.148V34.4616H18ZM15.5 36.0513L14.8292 37.1061C15.2385 37.3664 15.7614 37.3664 16.1707 37.1061L15.5 36.0513ZM23.75 23C23.75 22.3096 23.1904 21.75 22.5 21.75C21.8097 21.75 21.25 22.3096 21.25 23H23.75ZM21.25 34C21.25 34.6904 21.8097 35.25 22.5 35.25C23.1904 35.25 23.75 34.6904 23.75 34H21.25ZM28.25 25.5C28.25 24.8096 27.6904 24.25 27 24.25C26.3097 24.25 25.75 24.8096 25.75 25.5H28.25ZM25.75 31.5C25.75 32.1904 26.3097 32.75 27 32.75C27.6904 32.75 28.25 32.1904 28.25 31.5H25.75ZM5.25 25.5C5.25 24.8096 4.69036 24.25 4 24.25C3.30964 24.25 2.75 24.8096 2.75 25.5H5.25ZM2.75 31.5C2.75 32.1904 3.30964 32.75 4 32.75C4.69036 32.75 5.25 32.1904 5.25 31.5H2.75ZM9.75 23C9.75 22.3096 9.19036 21.75 8.5 21.75C7.80964 21.75 7.25 22.3096 7.25 23H9.75ZM7.25 34C7.25 34.6904 7.80964 35.25 8.5 35.25C9.19036 35.25 9.75 34.6904 9.75 34H7.25ZM13 21H11.75V34.4616H13H14.25V21H13ZM18 21H16.75V34.4616H18H19.25V21H18ZM18 34.4616L17.3293 33.4067L14.8292 34.9965L15.5 36.0513L16.1707 37.1061L18.6708 35.5164L18 34.4616ZM13 34.4616L12.3293 35.5163L14.8292 37.1061L15.5 36.0513L16.1707 34.9965L13.6708 33.4068L13 34.4616ZM22.5 23H21.25V34H22.5H23.75V23H22.5ZM27 25.5H25.75V31.5H27H28.25V25.5H27ZM4 25.5H2.75V31.5H4H5.25V25.5H4ZM8.5 23H7.25V34H8.5H9.75V23H8.5Z" fill="#0D1016"/>
<path d="M52.5267 22.1458H55.1313L49.5896 36H46.7633L41.2217 22.1458H43.8263L48.1765 33.4231L52.5267 22.1458ZM58.319 30.1813C58.5591 31.4189 59.1225 32.3794 60.0092 33.0629C60.9144 33.7464 62.0227 34.0881 63.3342 34.0881C65.163 34.0881 66.493 33.4139 67.3242 32.0654L69.3746 33.2292C68.0262 35.3165 65.9942 36.3602 63.2788 36.3602C61.0806 36.3602 59.2888 35.6767 57.9034 34.3098C56.5364 32.9244 55.853 31.1788 55.853 29.0729C55.853 26.9856 56.5272 25.2492 57.8757 23.8637C59.2241 22.4783 60.9698 21.7856 63.1125 21.7856C65.1445 21.7856 66.7978 22.506 68.0723 23.9469C69.3654 25.3692 70.0119 27.0872 70.0119 29.1006C70.0119 29.4516 69.9842 29.8118 69.9288 30.1813H58.319ZM63.1125 24.0577C61.8195 24.0577 60.7481 24.4272 59.8984 25.166C59.0487 25.8865 58.5222 26.8562 58.319 28.0754H67.5736C67.3704 26.7639 66.8532 25.7664 66.0219 25.0829C65.1907 24.3994 64.2209 24.0577 63.1125 24.0577ZM75.1936 24.4733C75.9879 22.7554 77.4287 21.8965 79.5161 21.8965V24.4179C78.3339 24.3625 77.3179 24.6765 76.4682 25.36C75.6185 26.0435 75.1936 27.1426 75.1936 28.6573V36H72.783V22.1458H75.1936V24.4733ZM89.5223 21.7856C91.4619 21.7856 93.1151 22.4968 94.4821 23.9192C95.849 25.3231 96.5325 27.041 96.5325 29.0729C96.5325 31.1049 95.849 32.832 94.4821 34.2544C93.1151 35.6583 91.4619 36.3602 89.5223 36.3602C87.2317 36.3602 85.4861 35.4458 84.2854 33.6171V36H81.8748V16.6042H84.2854V24.5287C85.4861 22.7 87.2317 21.7856 89.5223 21.7856ZM89.2175 34.0327C90.6029 34.0327 91.7666 33.5617 92.7087 32.6196C93.6508 31.659 94.1219 30.4768 94.1219 29.0729C94.1219 27.669 93.6508 26.496 92.7087 25.554C91.7666 24.5934 90.6029 24.1131 89.2175 24.1131C87.8136 24.1131 86.6406 24.5934 85.6985 25.554C84.7564 26.496 84.2854 27.669 84.2854 29.0729C84.2854 30.4768 84.7564 31.659 85.6985 32.6196C86.6406 33.5617 87.8136 34.0327 89.2175 34.0327ZM110.88 22.1458H113.291V36H110.88V33.6171C109.68 35.4458 107.934 36.3602 105.643 36.3602C103.704 36.3602 102.05 35.6583 100.684 34.2544C99.3166 32.832 98.6331 31.1049 98.6331 29.0729C98.6331 27.041 99.3166 25.3231 100.684 23.9192C102.05 22.4968 103.704 21.7856 105.643 21.7856C107.934 21.7856 109.68 22.7 110.88 24.5287V22.1458ZM105.948 34.0327C107.352 34.0327 108.525 33.5617 109.467 32.6196C110.409 31.659 110.88 30.4768 110.88 29.0729C110.88 27.669 110.409 26.496 109.467 25.554C108.525 24.5934 107.352 24.1131 105.948 24.1131C104.563 24.1131 103.399 24.5934 102.457 25.554C101.515 26.496 101.044 27.669 101.044 29.0729C101.044 30.4768 101.515 31.659 102.457 32.6196C103.399 33.5617 104.563 34.0327 105.948 34.0327ZM116.943 36V15.7729H119.354V36H116.943ZM124.251 19.6244C123.789 19.6244 123.401 19.4674 123.087 19.1533C122.773 18.8393 122.616 18.4606 122.616 18.0173C122.616 17.574 122.773 17.1953 123.087 16.8812C123.401 16.5488 123.789 16.3825 124.251 16.3825C124.694 16.3825 125.073 16.5488 125.387 16.8812C125.701 17.1953 125.858 17.574 125.858 18.0173C125.858 18.4606 125.701 18.8393 125.387 19.1533C125.073 19.4674 124.694 19.6244 124.251 19.6244ZM123.031 36V22.1458H125.442V36H123.031ZM136.019 21.7856C137.645 21.7856 138.947 22.3028 139.926 23.3373C140.905 24.3533 141.394 25.7387 141.394 27.4935V36H138.984V27.6321C138.984 26.5053 138.679 25.6371 138.069 25.0275C137.46 24.3994 136.619 24.0854 135.548 24.0854C134.347 24.0854 133.377 24.4641 132.639 25.2215C131.9 25.9603 131.53 27.1056 131.53 28.6573V36H129.12V22.1458H131.53V24.1408C132.509 22.5707 134.006 21.7856 136.019 21.7856ZM156.48 36H153.488L147.17 29.4331V36H144.76V16.6042H147.17V28.2694L153.155 22.1458H156.259L149.636 28.8512L156.48 36Z" fill="#1D252B"/>
</svg>
