<svg width="40" height="40" viewBox="0 0 40 40" fill="none" xmlns="http://www.w3.org/2000/svg">
<path d="M15.4167 27.9386L29.1667 20L15.4167 12.0614V27.9386Z" fill="white"/>
<path fill-rule="evenodd" clip-rule="evenodd" d="M40 20C40 31.0457 31.0457 40 20 40C8.95431 40 0 31.0457 0 20C0 8.9543 8.95431 0 20 0C31.0457 0 40 8.9543 40 20ZM36.6667 20C36.6667 29.2047 29.2047 36.6667 20 36.6667C10.7953 36.6667 3.33333 29.2047 3.33333 20C3.33333 10.7953 10.7953 3.33333 20 3.33333C29.2047 3.33333 36.6667 10.7953 36.6667 20Z" fill="white"/>
</svg>
