<svg width="40" height="40" viewBox="0 0 40 40" fill="none" xmlns="http://www.w3.org/2000/svg">
<path d="M20.0013 3.33333C21.8396 3.33333 23.3346 4.82833 23.3346 6.66667V18.3333C23.3346 20.1717 21.8396 21.6667 20.0013 21.6667C18.163 21.6667 16.668 20.1717 16.668 18.3333V6.66667C16.668 4.82833 18.163 3.33333 20.0013 3.33333ZM20.0013 0C16.3196 0 13.3346 2.985 13.3346 6.66667V18.3333C13.3346 22.015 16.3196 25 20.0013 25C23.683 25 26.668 22.015 26.668 18.3333V6.66667C26.668 2.985 23.683 0 20.0013 0ZM33.3346 15V18.3333C33.3346 25.6967 27.3646 31.6667 20.0013 31.6667C12.638 31.6667 6.66797 25.6967 6.66797 18.3333V15H10.0013V18.3333C10.0013 23.8483 14.4863 28.3333 20.0013 28.3333C25.5163 28.3333 30.0013 23.8483 30.0013 18.3333V15H33.3346ZM21.668 36.6667V33.3333H18.3346V36.6667H11.668V40H28.3346V36.6667H21.668Z" fill="#1D252B"/>
</svg>
