<svg width="40" height="40" viewBox="0 0 40 40" fill="none" xmlns="http://www.w3.org/2000/svg">
<path d="M19.9998 3.33333C21.8382 3.33333 23.3332 4.82833 23.3332 6.66667V18.3333C23.3332 20.1717 21.8382 21.6667 19.9998 21.6667C18.1615 21.6667 16.6665 20.1717 16.6665 18.3333V6.66667C16.6665 4.82833 18.1615 3.33333 19.9998 3.33333ZM19.9998 0C16.3182 0 13.3332 2.985 13.3332 6.66667V18.3333C13.3332 22.015 16.3182 25 19.9998 25C23.6815 25 26.6665 22.015 26.6665 18.3333V6.66667C26.6665 2.985 23.6815 0 19.9998 0ZM33.3332 15V18.3333C33.3332 25.6967 27.3632 31.6667 19.9998 31.6667C12.6365 31.6667 6.6665 25.6967 6.6665 18.3333V15H9.99984V18.3333C9.99984 23.8483 14.4848 28.3333 19.9998 28.3333C25.5148 28.3333 29.9998 23.8483 29.9998 18.3333V15H33.3332ZM21.6665 36.6667V33.3333H18.3332V36.6667H11.6665V40H28.3332V36.6667H21.6665Z" fill="white"/>
</svg>
