<svg width="24" height="25" viewBox="0 0 24 25" fill="none" xmlns="http://www.w3.org/2000/svg">
<path d="M15.573 17.0279C14.2419 18.1421 12.5274 18.8144 10.6581 18.8144C6.4308 18.8144 3 15.3836 3 11.1572C3 6.9308 6.4308 3.5 10.6581 3.5C14.8836 3.5 18.3153 6.9308 18.3153 11.1572C18.3153 13.0274 17.643 14.7428 16.5288 16.0721L20.8029 20.3471C20.9343 20.4785 21 20.6513 21 20.825C21 21.3533 20.5167 21.5 20.325 21.5C20.1522 21.5 19.9794 21.4343 19.8471 21.302L15.573 17.0279ZM10.6581 4.8509C7.1769 4.8509 4.3518 7.6769 4.3518 11.1572C4.3518 14.6375 7.1769 17.4635 10.6581 17.4635C14.1375 17.4635 16.9644 14.6375 16.9644 11.1572C16.9644 7.6769 14.1375 4.8509 10.6581 4.8509Z" fill="#929BA2"/>
</svg>
