<svg width="34" height="34" viewBox="0 0 34 34" fill="none" xmlns="http://www.w3.org/2000/svg">
<rect width="34" height="34" rx="4" fill="#469FFD"/>
<g clip-path="url(#clip0_4481_453)">
<path d="M28 19.0048V14.9952C26.031 14.2931 25.5012 14.2601 25.2253 13.5937C24.9475 12.9254 25.3013 12.5221 26.196 10.6392L23.3608 7.804C21.5036 8.68675 21.0801 9.05433 20.4054 8.77475C19.739 8.49792 19.7014 7.95983 19.0057 6H14.9952C14.2949 7.96533 14.2619 8.49792 13.5937 8.77475C12.9043 9.06167 12.4909 8.68308 10.6392 7.804L7.804 10.6392C8.69958 12.523 9.0525 12.9245 8.77475 13.5946C8.49792 14.261 7.96717 14.2949 6 14.9952V19.0057C7.96075 19.7023 8.49792 19.739 8.77475 20.4063C9.05342 21.0792 8.7005 21.4761 7.804 23.3608L10.6392 26.196C12.4717 25.3252 12.9034 24.9374 13.5937 25.2253C14.261 25.5021 14.294 26.0319 14.9952 28H19.0048C19.6996 26.0466 19.7372 25.5039 20.4137 25.2216C21.0966 24.9393 21.5008 25.3123 23.3608 26.1951L26.196 23.3598C25.3022 21.4807 24.9475 21.0755 25.2253 20.4054C25.5002 19.7399 26.0319 19.706 28 19.0048ZM23.5312 19.7051C23.0023 20.9829 23.4689 21.9583 23.9786 22.9849L22.9849 23.9786C21.983 23.4808 21.004 22.9923 19.7097 23.5294C18.43 24.062 18.0688 25.0813 17.704 26.1667H16.2978C15.933 25.0804 15.5728 24.0611 14.2968 23.5312C12.996 22.9923 11.9987 23.49 11.016 23.9786L10.0233 22.9849C10.5338 21.9601 11.0004 20.9866 10.4697 19.7033C9.93892 18.4282 8.91958 18.0679 7.83333 17.7031V16.2978C8.91958 15.933 9.93892 15.5728 10.4688 14.2958C10.9986 13.018 10.5311 12.0418 10.0214 11.0151L11.0151 10.0214C12.0069 10.5146 12.9969 11.0087 14.2968 10.4688C15.5728 9.93983 15.933 8.91958 16.2978 7.83333H17.704C18.0688 8.91958 18.43 9.93892 19.706 10.4688C21.0068 11.0078 22.0032 10.51 22.9867 10.0214L23.9804 11.0151C23.4708 12.0427 23.0042 13.0198 23.5331 14.2968C24.062 15.5718 25.0813 15.9321 26.1685 16.2978V17.704C25.0795 18.0688 24.0583 18.4291 23.5312 19.7051ZM17 14.25C18.5162 14.25 19.75 15.4838 19.75 17C19.75 18.5162 18.5162 19.75 17 19.75C15.4838 19.75 14.25 18.5162 14.25 17C14.25 15.4838 15.4838 14.25 17 14.25ZM17 12.4167C14.4682 12.4167 12.4167 14.4682 12.4167 17C12.4167 19.5318 14.4682 21.5833 17 21.5833C19.5318 21.5833 21.5833 19.5318 21.5833 17C21.5833 14.4682 19.5318 12.4167 17 12.4167Z" fill="white"/>
</g>
<defs>
<clipPath id="clip0_4481_453">
<rect width="22" height="22" fill="white" transform="translate(6 6)"/>
</clipPath>
</defs>
</svg>
