<svg width="170" height="72" viewBox="0 0 170 72" fill="none" xmlns="http://www.w3.org/2000/svg">
<path d="M46.9217 28.3424C46.9217 12.6897 47.4647 0 48.1338 0C48.803 0 49.3459 12.6897 49.3459 28.3424C49.3459 30.9973 49.3297 33.5632 49.3012 36C49.3305 38.4368 49.3459 41.0026 49.3459 43.6576C49.3459 59.3103 48.803 72 48.1338 72C47.4647 72 46.9217 59.3103 46.9217 43.6576C46.9217 41.0048 46.9379 38.4409 46.9664 36.0059L46.9663 35.9992L46.9664 35.9934C46.9371 33.5586 46.9217 30.9941 46.9217 28.3424Z" fill="url(#paint0_linear_35_7324)"/>
<path d="M168.788 3.38136C168.119 3.38136 167.576 14.8788 167.576 29.0614C167.576 31.4561 167.591 33.7722 167.621 35.9718L167.621 35.9991L167.621 36.0276C167.592 38.2273 167.576 40.5428 167.576 42.9384C167.576 57.1211 168.118 68.6185 168.788 68.6185C169.457 68.6185 170 57.1211 170 42.9384C170 40.5445 169.984 38.2306 169.955 36.0323L169.955 35.9991L169.955 35.9667C169.984 33.7687 170 31.4543 170 29.0614C170 14.8788 169.457 3.38136 168.788 3.38136Z" fill="url(#paint1_linear_35_7324)"/>
<path d="M164.224 31.0545C164.224 20.9462 164.767 12.7518 165.436 12.7518C166.106 12.7518 166.649 20.9462 166.649 31.0545C166.649 32.7606 166.632 34.41 166.603 35.9762L166.604 36L166.603 36.0229C166.632 37.5897 166.649 39.238 166.649 40.9438C166.649 51.0521 166.106 59.2465 165.436 59.2465C164.767 59.2465 164.224 51.0521 164.224 40.9438C164.224 39.2371 164.24 37.587 164.269 36.0203L164.269 36L164.27 35.9792C164.24 34.4121 164.224 32.7616 164.224 31.0545Z" fill="url(#paint2_linear_35_7324)"/>
<path d="M160.873 29.0614C160.873 14.8788 161.416 3.38136 162.085 3.38136C162.754 3.38136 163.297 14.8788 163.297 29.0614C163.297 31.4663 163.281 33.792 163.252 35.9999C163.282 38.2079 163.297 40.5327 163.297 42.9384C163.297 57.1211 162.754 68.6185 162.085 68.6185C161.416 68.6185 160.873 57.1211 160.873 42.9384C160.873 40.5346 160.889 38.2116 160.918 36.0052L160.917 35.9991L160.918 35.9939C160.888 33.7877 160.873 31.4641 160.873 29.0614Z" fill="url(#paint3_linear_35_7324)"/>
<path d="M157.521 31.0545C157.521 20.9462 158.064 12.7518 158.733 12.7518C159.403 12.7518 159.945 20.9462 159.945 31.0545C159.945 32.7686 159.929 34.4255 159.901 35.9982L159.901 36L159.901 36.0009C159.93 37.5742 159.945 39.23 159.945 40.9438C159.945 51.0521 159.403 59.2465 158.733 59.2465C158.064 59.2465 157.521 51.0521 157.521 40.9438C157.521 39.2294 157.538 37.5722 157.566 35.9992C157.537 34.4261 157.521 32.7689 157.521 31.0545Z" fill="url(#paint4_linear_35_7324)"/>
<path d="M154.17 31.0545C154.17 20.9462 154.713 12.7518 155.382 12.7518C156.051 12.7518 156.594 20.9462 156.594 31.0545C156.594 32.7686 156.578 34.4255 156.549 35.9982L156.549 36L156.549 36.0009C156.579 37.5742 156.594 39.23 156.594 40.9438C156.594 51.0521 156.051 59.2465 155.382 59.2465C154.713 59.2465 154.17 51.0521 154.17 40.9438C154.17 39.2294 154.186 37.5722 154.215 35.9992C154.185 34.4261 154.17 32.7689 154.17 31.0545Z" fill="url(#paint5_linear_35_7324)"/>
<path d="M150.818 30.2692C150.818 18.556 151.361 9.05979 152.031 9.05979C152.7 9.05979 153.243 18.5552 153.243 30.2692C153.243 32.2557 153.226 34.176 153.198 35.9991C153.227 37.823 153.243 39.7425 153.243 41.729C153.243 53.4422 152.7 62.9384 152.031 62.9384C151.361 62.9384 150.818 53.443 150.818 41.729C150.818 39.7444 150.835 37.8258 150.863 36.0043L150.863 36L150.863 35.9949C150.834 34.1731 150.818 32.2542 150.818 30.2692Z" fill="url(#paint6_linear_35_7324)"/>
<path d="M147.467 29.0614C147.467 14.8788 148.01 3.38136 148.679 3.38136C149.348 3.38136 149.891 14.8788 149.891 29.0614C149.891 31.4663 149.875 33.792 149.846 35.9999C149.876 38.2079 149.891 40.5327 149.891 42.9384C149.891 57.1211 149.348 68.6185 148.679 68.6185C148.01 68.6185 147.467 57.1211 147.467 42.9384C147.467 40.5343 147.482 38.2109 147.512 36.0042L147.512 35.9991L147.512 35.9949C147.482 33.7884 147.467 31.4645 147.467 29.0614Z" fill="url(#paint7_linear_35_7324)"/>
<path d="M144.114 30.7628C144.114 20.0588 144.657 11.3814 145.327 11.3814C145.996 11.3814 146.539 20.0588 146.539 30.7628C146.539 32.5698 146.523 34.3162 146.494 35.9753L146.495 36.0001L146.494 36.0237C146.523 37.6826 146.539 39.4295 146.539 41.2355C146.539 51.9395 145.996 60.6169 145.327 60.6169C144.657 60.6169 144.114 51.9395 144.114 41.2355C144.114 39.4198 144.131 37.6654 144.159 35.9992C144.131 34.333 144.114 32.5785 144.114 30.7628Z" fill="url(#paint8_linear_35_7324)"/>
<path d="M140.763 29.0614C140.763 14.8788 141.306 3.38136 141.975 3.38136C142.644 3.38136 143.187 14.8788 143.187 29.0614C143.187 31.4545 143.171 33.769 143.143 35.9672L143.143 35.9991L143.143 36.0314C143.172 38.23 143.187 40.5441 143.187 42.9384C143.187 57.1211 142.644 68.6185 141.975 68.6185C141.306 68.6185 140.763 57.1211 140.763 42.9384C140.763 40.5327 140.779 38.2079 140.808 35.9999C140.779 33.792 140.763 31.4663 140.763 29.0614Z" fill="url(#paint9_linear_35_7324)"/>
<path d="M137.412 29.0614C137.412 14.8788 137.955 3.38136 138.624 3.38136C139.293 3.38136 139.836 14.8788 139.836 29.0614C139.836 31.4545 139.82 33.769 139.792 35.9672L139.792 35.9991L139.792 36.0314C139.821 38.23 139.836 40.5441 139.836 42.9384C139.836 57.1211 139.293 68.6185 138.624 68.6185C137.954 68.6185 137.412 57.1211 137.412 42.9384C137.412 40.5327 137.428 38.2079 137.456 35.9999C137.428 33.792 137.412 31.4663 137.412 29.0614Z" fill="url(#paint10_linear_35_7324)"/>
<path d="M134.06 30.8755C134.06 20.4012 134.603 11.9101 135.272 11.9101C135.941 11.9101 136.484 20.4012 136.484 30.8755C136.484 32.6374 136.468 34.3406 136.44 35.9588L136.44 35.9999L136.44 36.0403C136.468 37.6583 136.484 39.362 136.484 41.1227C136.484 51.5971 135.941 60.0882 135.272 60.0882C134.602 60.0882 134.06 51.5971 134.06 41.1227C134.06 39.3462 134.076 37.6294 134.105 35.9991C134.076 34.3689 134.06 32.652 134.06 30.8755Z" fill="url(#paint11_linear_35_7324)"/>
<path d="M130.709 30.8755C130.709 20.4012 131.252 11.9101 131.921 11.9101C132.59 11.9101 133.133 20.4012 133.133 30.8755C133.133 32.6517 133.117 34.3682 133.088 35.9981L133.088 35.9999L133.088 36.0009C133.117 37.6306 133.133 39.3477 133.133 41.1227C133.133 51.5971 132.59 60.0882 131.921 60.0882C131.252 60.0882 130.709 51.5971 130.709 41.1227C130.709 39.3462 130.725 37.6294 130.753 35.9991C130.725 34.3689 130.709 32.652 130.709 30.8755Z" fill="url(#paint12_linear_35_7324)"/>
<path d="M127.357 29.0614C127.357 14.8788 127.9 3.38136 128.569 3.38136C129.238 3.38136 129.781 14.8788 129.781 29.0614C129.781 31.4543 129.765 33.7687 129.736 35.9667L129.737 35.9991L129.736 36.0323C129.765 38.2306 129.781 40.5445 129.781 42.9384C129.781 57.1211 129.238 68.6185 128.569 68.6185C127.899 68.6185 127.357 57.1211 127.357 42.9384C127.357 40.5327 127.373 38.2079 127.402 35.9999C127.373 33.792 127.357 31.4663 127.357 29.0614Z" fill="url(#paint13_linear_35_7324)"/>
<path d="M124.006 30.5372C124.006 19.3715 124.549 10.319 125.218 10.319C125.887 10.319 126.43 19.3707 126.43 30.5372C126.43 32.4211 126.414 34.2427 126.385 35.9738L126.385 35.9992L126.385 36.0254C126.414 37.7559 126.43 39.5777 126.43 41.4627C126.43 52.6283 125.887 61.6808 125.218 61.6808C124.548 61.6808 124.006 52.6292 124.006 41.4627C124.006 39.5693 124.022 37.7389 124.05 35.9999C124.022 34.261 124.006 32.4306 124.006 30.5372Z" fill="url(#paint14_linear_35_7324)"/>
<path d="M120.654 31.4885C120.654 22.2669 121.197 14.7907 121.866 14.7907C122.536 14.7907 123.079 22.2669 123.079 31.4885C123.079 33.0526 123.062 34.5643 123.034 36.0001C123.063 37.4358 123.079 38.9476 123.079 40.5116C123.079 49.7333 122.536 57.2095 121.866 57.2095C121.197 57.2095 120.654 49.7333 120.654 40.5116C120.654 38.9489 120.67 37.4384 120.699 36.0038L120.699 36.0001L120.699 35.9964C120.67 34.5617 120.654 33.0512 120.654 31.4885Z" fill="url(#paint15_linear_35_7324)"/>
<path d="M117.303 29.0614C117.303 14.8788 117.846 3.38136 118.515 3.38136C119.184 3.38136 119.727 14.8788 119.727 29.0614C119.727 31.4543 119.711 33.7687 119.682 35.9667L119.682 35.9991L119.682 36.0323C119.711 38.2306 119.727 40.5445 119.727 42.9384C119.727 57.1211 119.184 68.6185 118.515 68.6185C117.845 68.6185 117.303 57.1211 117.303 42.9384C117.303 40.5327 117.319 38.2079 117.347 35.9999C117.319 33.792 117.303 31.4663 117.303 29.0614Z" fill="url(#paint16_linear_35_7324)"/>
<path d="M113.951 31.4622C113.951 22.1883 114.494 14.6696 115.163 14.6696C115.832 14.6696 116.375 22.1875 116.375 31.4622C116.375 33.0275 116.359 34.5402 116.33 35.9778L116.331 35.9993L116.33 36.0206C116.359 37.4581 116.375 38.9708 116.375 40.536C116.375 49.8099 115.832 57.3286 115.163 57.3286C114.493 57.3286 113.951 49.8108 113.951 40.536C113.951 38.9699 113.967 37.4564 113.996 36.0182L113.996 35.9993L113.996 35.9803C113.967 34.5428 113.951 33.0284 113.951 31.4622Z" fill="url(#paint17_linear_35_7324)"/>
<path d="M110.6 29.9154C110.6 17.4791 111.143 7.39694 111.812 7.39694C112.481 7.39694 113.024 17.4791 113.024 29.9154C113.024 32.0239 113.008 34.0621 112.979 35.9975L112.979 35.9991L112.979 36.0008C113.009 37.9362 113.024 39.9744 113.024 42.0829C113.024 54.5193 112.481 64.6014 111.812 64.6014C111.143 64.6014 110.6 54.5193 110.6 42.0829C110.6 39.9738 110.616 37.935 110.645 35.9992C110.616 34.0633 110.6 32.0245 110.6 29.9154Z" fill="url(#paint18_linear_35_7324)"/>
<path d="M107.248 30.8755C107.248 20.4012 107.791 11.9101 108.46 11.9101C109.13 11.9101 109.673 20.4012 109.673 30.8755C109.673 32.6454 109.656 34.3561 109.627 35.9809L109.628 35.9999L109.627 36.0182C109.656 37.6427 109.673 39.354 109.673 41.1227C109.673 51.5971 109.13 60.0882 108.46 60.0882C107.79 60.0882 107.248 51.5971 107.248 41.1227C107.248 39.3479 107.265 37.6326 107.293 36.0037L107.293 35.9999L107.293 35.9953C107.265 34.3662 107.248 32.6507 107.248 30.8755Z" fill="url(#paint19_linear_35_7324)"/>
<path d="M103.897 30.8755C103.897 20.4012 104.44 11.9101 105.109 11.9101C105.778 11.9101 106.321 20.4012 106.321 30.8755C106.321 32.6434 106.305 34.3522 106.276 35.9753L106.276 35.9999L106.276 36.0237C106.305 37.6466 106.321 39.356 106.321 41.1227C106.321 51.5971 105.778 60.0882 105.109 60.0882C104.44 60.0882 103.897 51.5971 103.897 41.1227C103.897 39.3539 103.913 37.6442 103.942 36.0203L103.942 35.9999L103.942 35.9788C103.913 34.3546 103.897 32.6447 103.897 30.8755Z" fill="url(#paint20_linear_35_7324)"/>
<path d="M100.545 31.4885C100.545 22.2669 101.088 14.7907 101.757 14.7907C102.427 14.7907 102.97 22.2669 102.97 31.4885C102.97 33.0521 102.953 34.5634 102.925 35.9988L102.925 36.0001L102.925 36.0013C102.954 37.4367 102.97 38.948 102.97 40.5116C102.97 49.7333 102.427 57.2095 101.757 57.2095C101.088 57.2095 100.545 49.7333 100.545 40.5116C100.545 38.9476 100.562 37.4358 100.59 36.0001C100.562 34.5643 100.545 33.0526 100.545 31.4885Z" fill="url(#paint21_linear_35_7324)"/>
<path d="M97.1938 31.2098C97.1938 21.4186 97.7368 13.4815 98.4059 13.4815C99.0751 13.4815 99.6181 21.4186 99.6181 31.2098C99.6181 32.8619 99.602 34.459 99.5729 35.977L99.5733 35.9992L99.5729 36.0222C99.6019 37.5396 99.6181 39.1378 99.6181 40.7902C99.6181 50.5814 99.0751 58.5185 98.4059 58.5185C97.7368 58.5185 97.1938 50.5814 97.1938 40.7902C97.1938 39.1297 97.2101 37.5248 97.2386 36C97.2101 34.4752 97.1938 32.8703 97.1938 31.2098Z" fill="url(#paint22_linear_35_7324)"/>
<path d="M93.8424 29.0614C93.8424 14.8788 94.3853 3.38136 95.0545 3.38136C95.7236 3.38136 96.2666 14.8788 96.2666 29.0614C96.2666 31.4655 96.2504 33.7903 96.2219 35.9976L96.2219 35.9991L96.2219 36.0014C96.2512 38.2089 96.2666 40.5333 96.2666 42.9384C96.2666 57.1211 95.7236 68.6185 95.0545 68.6185C94.3853 68.6185 93.8424 57.1211 93.8424 42.9384C93.8424 40.5431 93.8585 38.228 93.8876 36.0286L93.8872 35.9991L93.8876 35.9705C93.8585 33.7713 93.8424 31.4557 93.8424 29.0614Z" fill="url(#paint23_linear_35_7324)"/>
<path d="M90.4909 30.8755C90.4909 20.4012 91.0339 11.9101 91.7031 11.9101C92.3722 11.9101 92.9152 20.4012 92.9152 30.8755C92.9152 32.652 92.8989 34.3689 92.8704 35.9991C92.8997 37.6294 92.9152 39.347 92.9152 41.1227C92.9152 51.5971 92.3722 60.0882 91.7031 60.0882C91.0339 60.0882 90.4909 51.5971 90.4909 41.1227C90.4909 39.3479 90.5072 37.6326 90.5356 36.0037L90.5356 35.9999L90.5356 35.9953C90.5072 34.3662 90.4909 32.6507 90.4909 30.8755Z" fill="url(#paint24_linear_35_7324)"/>
<path d="M87.1393 31.2098C87.1393 21.4186 87.6823 13.4815 88.3514 13.4815C89.0206 13.4815 89.5636 21.4186 89.5636 31.2098C89.5636 32.8697 89.5473 34.474 89.5188 35.9983L89.5188 35.9992L89.5188 36.0009C89.5481 37.5246 89.5636 39.1301 89.5636 40.7902C89.5636 50.5814 89.0206 58.5185 88.3514 58.5185C87.6823 58.5185 87.1393 50.5814 87.1393 40.7902C87.1393 39.1297 87.1556 37.5248 87.1841 36C87.1556 34.4752 87.1393 32.8703 87.1393 31.2098Z" fill="url(#paint25_linear_35_7324)"/>
<path d="M83.7879 29.0614C83.7879 14.8788 84.3309 3.38136 85 3.38136C85.6692 3.38136 86.2121 14.8788 86.2121 29.0614C86.2121 31.4655 86.1959 33.7903 86.1674 35.9976L86.1674 35.9991L86.1674 36.0014C86.1967 38.2089 86.2121 40.5333 86.2121 42.9384C86.2121 57.1211 85.6692 68.6185 85 68.6185C84.3309 68.6185 83.7879 57.1211 83.7879 42.9384C83.7879 40.5327 83.8042 38.2079 83.8327 35.9999C83.8034 33.792 83.7879 31.4663 83.7879 29.0614Z" fill="url(#paint26_linear_35_7324)"/>
<path d="M80.4364 30.1753C80.4364 18.2709 80.9794 8.62028 81.6486 8.62028C82.3177 8.62028 82.8607 18.2709 82.8607 30.1753C82.8607 32.1945 82.8444 34.1459 82.8159 35.9992C82.8452 37.8526 82.8607 39.8039 82.8607 41.8231C82.8607 53.7283 82.3177 63.379 81.6486 63.379C80.9794 63.379 80.4364 53.7283 80.4364 41.8231C80.4364 39.8054 80.4527 37.8553 80.4811 36.0032L80.4811 35.9992L80.4811 35.9953C80.4519 34.1432 80.4364 32.1931 80.4364 30.1753Z" fill="url(#paint27_linear_35_7324)"/>
<path d="M77.085 29.0614C77.085 14.8788 77.628 3.38136 78.2971 3.38136C78.9663 3.38136 79.5093 14.8788 79.5093 29.0614C79.5093 31.4663 79.493 33.792 79.4645 35.9999C79.4938 38.2079 79.5093 40.5327 79.5093 42.9384C79.5093 57.1211 78.9663 68.6185 78.2971 68.6185C77.6271 68.6185 77.085 57.1211 77.085 42.9384C77.085 40.5346 77.1012 38.2116 77.1297 36.0052L77.1296 35.9991L77.1297 35.9939C77.1004 33.7877 77.085 31.4641 77.085 29.0614Z" fill="url(#paint28_linear_35_7324)"/>
<path d="M73.7334 30.9524C73.7334 20.6358 74.2763 12.273 74.9455 12.273C75.6146 12.273 76.1576 20.6358 76.1576 30.9524C76.1576 32.7016 76.1414 34.3928 76.1129 35.9983L76.1129 36L76.1129 36.001C76.1422 37.6062 76.1576 39.2971 76.1576 41.046C76.1576 51.3626 75.6146 59.7255 74.9455 59.7255C74.2755 59.7255 73.7334 51.3626 73.7334 41.046C73.7334 39.2965 73.7496 37.6049 73.7781 35.9992C73.7488 34.3935 73.7334 32.702 73.7334 30.9524Z" fill="url(#paint29_linear_35_7324)"/>
<path d="M70.3819 30.7628C70.3819 20.0588 70.9249 11.3814 71.5941 11.3814C72.2632 11.3814 72.8062 20.0588 72.8062 30.7628C72.8062 32.5782 72.7899 34.3323 72.7614 35.9982L72.7615 36.0001L72.7615 36.001C72.7907 37.6667 72.8062 39.4213 72.8062 41.2355C72.8062 51.9395 72.2632 60.6169 71.5941 60.6169C70.9249 60.6169 70.3819 51.9395 70.3819 41.2355C70.3819 39.4198 70.3982 37.6654 70.4267 35.9992C70.3974 34.333 70.3819 32.5785 70.3819 30.7628Z" fill="url(#paint30_linear_35_7324)"/>
<path d="M67.0305 32.5303C67.0305 25.439 67.5735 19.6903 68.2426 19.6903C68.9118 19.6903 69.4548 25.439 69.4548 32.5303C69.4548 33.7328 69.4385 34.8945 69.41 35.9982L69.41 35.9991L69.41 36.0001C69.4393 37.1038 69.4548 38.2663 69.4548 39.468C69.4548 46.5593 68.9118 52.308 68.2426 52.308C67.5727 52.308 67.0305 46.5593 67.0305 39.468C67.0305 38.2651 67.0468 37.1023 67.0753 35.9991C67.046 34.8952 67.0305 33.7331 67.0305 32.5303Z" fill="url(#paint31_linear_35_7324)"/>
<path d="M63.6791 30.9524C63.6791 20.6358 64.222 12.273 64.8912 12.273C65.5604 12.273 66.1033 20.6358 66.1033 30.9524C66.1033 32.6954 66.0872 34.3809 66.0581 35.9812L66.0584 36L66.0581 36.018C66.0872 37.6181 66.1033 39.3033 66.1033 41.046C66.1033 51.3626 65.5604 59.7255 64.8912 59.7255C64.2212 59.7255 63.6791 51.3626 63.6791 41.046C63.6791 39.2981 63.6953 37.6081 63.7237 36.0038L63.7237 36L63.7238 35.9955C63.6945 34.3909 63.6791 32.7006 63.6791 30.9524Z" fill="url(#paint32_linear_35_7324)"/>
<path d="M60.3274 29.0614C60.3274 14.8788 60.8704 3.38136 61.5396 3.38136C62.2087 3.38136 62.7517 14.8788 62.7517 29.0614C62.7517 31.4655 62.7354 33.7903 62.7069 35.9976L62.707 35.9991L62.7069 36.0014C62.7362 38.2089 62.7517 40.5333 62.7517 42.9384C62.7517 57.1211 62.2087 68.6185 61.5396 68.6185C60.8704 68.6185 60.3274 57.1211 60.3274 42.9384C60.3274 40.5327 60.3437 38.2079 60.3722 35.9999C60.3429 33.792 60.3274 31.4663 60.3274 29.0614Z" fill="url(#paint33_linear_35_7324)"/>
<path d="M56.976 30.5372C56.976 19.3715 57.5189 10.319 58.1881 10.319C58.8573 10.319 59.4003 19.3707 59.4003 30.5372C59.4003 32.4296 59.384 34.2592 59.3555 35.9973L59.3555 35.9992L59.3555 36.0018C59.3848 37.7393 59.4003 39.5691 59.4003 41.4627C59.4003 52.6283 58.8573 61.6808 58.1881 61.6808C57.5181 61.6808 56.976 52.6292 56.976 41.4627C56.976 39.5693 56.9923 37.7389 57.0208 35.9999C56.9915 34.261 56.976 32.4306 56.976 30.5372Z" fill="url(#paint34_linear_35_7324)"/>
<path d="M53.6246 32.2287C53.6246 24.5204 54.1675 18.2708 54.8367 18.2708C55.5058 18.2708 56.0488 24.5196 56.0488 32.2287C56.0488 33.5296 56.0327 34.7867 56.0037 35.9817L56.0041 35.9991L56.0037 36.0173C56.0327 37.2125 56.0488 38.47 56.0488 39.7711C56.0488 47.4794 55.5058 53.729 54.8367 53.729C54.1667 53.729 53.6246 47.4802 53.6246 39.7711C53.6246 38.4636 53.6408 37.2003 53.6693 35.9999C53.64 34.7995 53.6246 33.5353 53.6246 32.2287Z" fill="url(#paint35_linear_35_7324)"/>
<path d="M50.2731 30.5372C50.2731 19.3715 50.8161 10.319 51.4852 10.319C52.1544 10.319 52.6974 19.3707 52.6974 30.5372C52.6974 32.4299 52.6811 34.2597 52.6526 35.9981L52.6527 35.9992L52.6526 36.0011C52.6819 37.7388 52.6974 39.5689 52.6974 41.4627C52.6974 52.6283 52.1544 61.6808 51.4852 61.6808C50.8161 61.6808 50.2731 52.6292 50.2731 41.4627C50.2731 39.5693 50.2894 37.7389 50.3179 35.9999C50.2886 34.261 50.2731 32.4306 50.2731 30.5372Z" fill="url(#paint36_linear_35_7324)"/>
<path d="M43.5693 29.9711C43.5693 17.6475 44.1122 7.65769 44.7814 7.65769C45.4506 7.65769 45.9935 17.6475 45.9935 29.9711C45.9935 32.0414 45.9775 34.0428 45.9488 35.9451L45.9496 35.9992L45.9487 36.0541C45.9775 37.9567 45.9935 39.9584 45.9935 42.0291C45.9935 54.3527 45.4506 64.3425 44.7814 64.3425C44.1122 64.3425 43.5693 54.3527 43.5693 42.0291C43.5693 39.9388 43.5855 37.9188 43.6148 36.0001C43.5855 34.0814 43.5693 32.0605 43.5693 29.9711Z" fill="url(#paint37_linear_35_7324)"/>
<path d="M40.2178 33.6956C40.2178 29.0765 40.7608 25.332 41.4299 25.332C42.0991 25.332 42.6421 29.0765 42.6421 33.6956C42.6421 34.4751 42.6259 35.2288 42.5977 35.9444L42.5982 35.9554L42.5977 35.9659C42.6267 36.6818 42.6421 37.4351 42.6421 38.2146C42.6421 42.8336 42.0991 46.5781 41.4299 46.5781C40.7608 46.5781 40.2178 42.8336 40.2178 38.2146C40.2178 37.4311 40.2341 36.6739 40.2626 35.9551C40.2341 35.2362 40.2178 34.479 40.2178 33.6956Z" fill="url(#paint38_linear_35_7324)"/>
<path d="M36.8664 33.1479C36.8664 26.5751 37.4093 21.2462 38.0785 21.2462C38.7477 21.2462 39.2906 26.5746 39.2906 33.1479C39.2906 34.2568 39.2745 35.329 39.2463 36.348L39.2467 36.3632L39.2463 36.3786C39.2753 37.3973 39.2906 38.4697 39.2906 39.5793C39.2906 46.1522 38.7477 51.4811 38.0785 51.4811C37.4093 51.4811 36.8664 46.1527 36.8664 39.5793C36.8664 38.4648 36.8827 37.3873 36.9111 36.3636C36.8827 35.34 36.8664 34.2625 36.8664 33.1479Z" fill="url(#paint39_linear_35_7324)"/>
<path d="M33.5147 34.3646C33.5147 30.2787 34.0577 26.9663 34.7269 26.9663C35.396 26.9663 35.939 30.2787 35.939 34.3646C35.939 35.0543 35.9229 35.7209 35.8947 36.3542L35.8951 36.3636L35.8947 36.3727C35.9237 37.0061 35.939 37.6727 35.939 38.3624C35.939 42.4486 35.396 45.761 34.7269 45.761C34.0569 45.761 33.5147 42.4486 33.5147 38.3624C33.5147 37.6694 33.531 36.9996 33.5603 36.3635C33.531 35.7274 33.5147 35.0576 33.5147 34.3646Z" fill="url(#paint40_linear_35_7324)"/>
<path d="M30.1633 31.7925C30.1633 23.1927 30.7063 16.2215 31.3754 16.2215C32.0454 16.2215 32.5876 23.1927 32.5876 31.7925C32.5876 33.2508 32.5713 34.6602 32.5428 35.9984L32.5429 35.9999C32.5721 37.338 32.5876 38.7487 32.5876 40.206C32.5876 48.8058 32.0446 55.777 31.3754 55.777C30.7063 55.777 30.1633 48.8058 30.1633 40.206C30.1633 38.7473 30.1796 37.3377 30.2081 35.9992C30.1796 34.6607 30.1633 33.2511 30.1633 31.7925Z" fill="url(#paint41_linear_35_7324)"/>
<path d="M26.8119 29.0614C26.8119 14.8788 27.3549 3.38136 28.024 3.38136C28.6932 3.38136 29.2361 14.8788 29.2361 29.0614C29.2361 31.4655 29.2199 33.7903 29.1914 35.9976L29.1914 35.9991L29.1914 36.0014C29.2207 38.2089 29.2361 40.5333 29.2361 42.9384C29.2361 57.1211 28.6932 68.6185 28.024 68.6185C27.3549 68.6185 26.8119 57.1211 26.8119 42.9384C26.8119 40.5327 26.8281 38.2079 26.8566 35.9999C26.8281 33.792 26.8119 31.4663 26.8119 29.0614Z" fill="url(#paint42_linear_35_7324)"/>
<path d="M23.4604 30.5372C23.4604 19.3715 24.0034 10.319 24.6726 10.319C25.3417 10.319 25.8847 19.3707 25.8847 30.5372C25.8847 32.4211 25.8686 34.2427 25.8396 35.9738L25.84 35.9992L25.8395 36.0254C25.8686 37.7559 25.8847 39.5777 25.8847 41.4627C25.8847 52.6283 25.3417 61.6808 24.6726 61.6808C24.0026 61.6808 23.4604 52.6292 23.4604 41.4627C23.4604 39.5774 23.4766 37.7546 23.5057 36.0224L23.5053 35.9992L23.5056 35.9768C23.4766 34.2448 23.4604 32.4222 23.4604 30.5372Z" fill="url(#paint43_linear_35_7324)"/>
<path d="M20.109 31.2531C20.109 21.551 20.652 13.6858 21.3212 13.6858C21.9911 13.6858 22.5333 21.551 22.5333 31.2531C22.5333 32.8989 22.517 34.4891 22.4885 35.9992C22.5178 37.5093 22.5333 39.1003 22.5333 40.7453C22.5333 50.4474 21.9903 58.3126 21.3212 58.3126C20.652 58.3126 20.109 50.4474 20.109 40.7453C20.109 39.1009 20.1253 37.512 20.1537 36.0031L20.1537 35.9992L20.1537 35.9953C20.1253 34.4864 20.109 32.8975 20.109 31.2531Z" fill="url(#paint44_linear_35_7324)"/>
<path d="M16.7573 29.0614C16.7573 14.8788 17.3003 3.38136 17.9695 3.38136C18.6387 3.38136 19.1816 14.8788 19.1816 29.0614C19.1816 31.4652 19.1654 33.7897 19.1369 35.9967L19.1369 35.9991L19.1369 36.0023C19.1662 38.2096 19.1816 40.5336 19.1816 42.9384C19.1816 57.1211 18.6387 68.6185 17.9695 68.6185C17.3003 68.6185 16.7573 57.1211 16.7573 42.9384C16.7573 40.5327 16.7736 38.2079 16.8021 35.9999C16.7736 33.792 16.7573 31.4663 16.7573 29.0614Z" fill="url(#paint45_linear_35_7324)"/>
<path d="M13.4059 31.4149C13.4059 22.0421 13.9489 14.4441 14.6181 14.4441C15.2872 14.4441 15.8302 22.0421 15.8302 31.4149C15.8302 32.9963 15.8141 34.5251 15.7851 35.9779L15.7855 35.9992L15.785 36.0212C15.8141 37.4735 15.8302 39.0034 15.8302 40.5851C15.8302 49.9579 15.2872 57.5559 14.6181 57.5559C13.9481 57.5559 13.4059 49.9579 13.4059 40.5851C13.4059 38.9957 13.4222 37.4586 13.4507 36C13.4222 34.5406 13.4059 33.0043 13.4059 31.4149Z" fill="url(#paint46_linear_35_7324)"/>
<path d="M10.0545 31.7925C10.0545 23.1927 10.5975 16.2215 11.2666 16.2215C11.9358 16.2215 12.4788 23.1927 12.4788 31.7925C12.4788 33.2508 12.4625 34.6602 12.434 35.9984L12.4341 35.9999C12.4633 37.338 12.4788 38.7487 12.4788 40.206C12.4788 48.8058 11.9358 55.777 11.2666 55.777C10.5975 55.777 10.0545 48.8058 10.0545 40.206C10.0545 38.7473 10.0708 37.3377 10.0993 35.9992C10.0708 34.6607 10.0545 33.2511 10.0545 31.7925Z" fill="url(#paint47_linear_35_7324)"/>
<path d="M6.70307 32.5303C6.70307 25.439 7.24603 19.6903 7.91519 19.6903C8.58435 19.6903 9.12733 25.439 9.12733 32.5303C9.12733 33.7331 9.11106 34.8952 9.08257 35.9991C9.11187 37.1031 9.12733 38.2659 9.12733 39.468C9.12733 46.5593 8.58435 52.308 7.91519 52.308C7.24603 52.308 6.70307 46.5593 6.70307 39.468C6.70307 38.2662 6.71932 37.1043 6.74776 36.002L6.74769 35.9991L6.74776 35.9963C6.71932 34.8932 6.70307 33.7321 6.70307 32.5303Z" fill="url(#paint48_linear_35_7324)"/>
<path d="M3.35144 32.2088C3.35144 27.0568 3.89442 22.8805 4.56358 22.8805C5.23274 22.8805 5.7757 27.0568 5.7757 32.2088C5.7757 33.0781 5.75959 33.9184 5.73056 34.7171L5.73098 34.7287L5.73054 34.7409C5.75958 35.5394 5.7757 36.3803 5.7757 37.2498C5.7757 42.4018 5.23274 46.5781 4.56358 46.5781C3.89361 46.5781 3.35144 42.4018 3.35144 37.2498C3.35144 36.3798 3.36758 35.5388 3.39665 34.7396L3.39625 34.7287L3.39662 34.7185C3.36757 33.9194 3.35144 33.0786 3.35144 32.2088Z" fill="url(#paint49_linear_35_7324)"/>
<path d="M0 33.7473C0 30.9049 0.542983 28.6006 1.21215 28.6006C1.88131 28.6006 2.42427 30.9049 2.42427 33.7473C2.42427 34.2291 2.40801 34.6951 2.37952 35.1374C2.40881 35.5799 2.42427 36.0464 2.42427 36.5285C2.42427 39.3709 1.88131 41.6752 1.21215 41.6752C0.542983 41.6752 0 39.3709 0 36.5285C0 36.0484 0.0161356 35.5844 0.045202 35.1436C0.0450654 35.1417 0.0449412 35.1397 0.044817 35.1377C0.0449412 35.1358 0.0450778 35.1339 0.045202 35.132C0.016148 34.6912 0 34.2271 0 33.7473Z" fill="url(#paint50_linear_35_7324)"/>
<defs>
<linearGradient id="paint0_linear_35_7324" x1="50.5" y1="36" x2="170" y2="36" gradientUnits="userSpaceOnUse">
<stop stop-color="#1C6CE4"/>
<stop offset="1" stop-color="#F2F3F5"/>
</linearGradient>
<linearGradient id="paint1_linear_35_7324" x1="50.5" y1="36" x2="170" y2="36" gradientUnits="userSpaceOnUse">
<stop stop-color="#1C6CE4"/>
<stop offset="1" stop-color="#F2F3F5"/>
</linearGradient>
<linearGradient id="paint2_linear_35_7324" x1="50.5" y1="36" x2="170" y2="36" gradientUnits="userSpaceOnUse">
<stop stop-color="#1C6CE4"/>
<stop offset="1" stop-color="#F2F3F5"/>
</linearGradient>
<linearGradient id="paint3_linear_35_7324" x1="50.5" y1="36" x2="170" y2="36" gradientUnits="userSpaceOnUse">
<stop stop-color="#1C6CE4"/>
<stop offset="1" stop-color="#F2F3F5"/>
</linearGradient>
<linearGradient id="paint4_linear_35_7324" x1="50.5" y1="36" x2="170" y2="36" gradientUnits="userSpaceOnUse">
<stop stop-color="#1C6CE4"/>
<stop offset="1" stop-color="#F2F3F5"/>
</linearGradient>
<linearGradient id="paint5_linear_35_7324" x1="50.5" y1="36" x2="170" y2="36" gradientUnits="userSpaceOnUse">
<stop stop-color="#1C6CE4"/>
<stop offset="1" stop-color="#F2F3F5"/>
</linearGradient>
<linearGradient id="paint6_linear_35_7324" x1="50.5" y1="36" x2="170" y2="36" gradientUnits="userSpaceOnUse">
<stop stop-color="#1C6CE4"/>
<stop offset="1" stop-color="#F2F3F5"/>
</linearGradient>
<linearGradient id="paint7_linear_35_7324" x1="50.5" y1="36" x2="170" y2="36" gradientUnits="userSpaceOnUse">
<stop stop-color="#1C6CE4"/>
<stop offset="1" stop-color="#F2F3F5"/>
</linearGradient>
<linearGradient id="paint8_linear_35_7324" x1="50.5" y1="36" x2="170" y2="36" gradientUnits="userSpaceOnUse">
<stop stop-color="#1C6CE4"/>
<stop offset="1" stop-color="#F2F3F5"/>
</linearGradient>
<linearGradient id="paint9_linear_35_7324" x1="50.5" y1="36" x2="170" y2="36" gradientUnits="userSpaceOnUse">
<stop stop-color="#1C6CE4"/>
<stop offset="1" stop-color="#F2F3F5"/>
</linearGradient>
<linearGradient id="paint10_linear_35_7324" x1="50.5" y1="36" x2="170" y2="36" gradientUnits="userSpaceOnUse">
<stop stop-color="#1C6CE4"/>
<stop offset="1" stop-color="#F2F3F5"/>
</linearGradient>
<linearGradient id="paint11_linear_35_7324" x1="50.5" y1="36" x2="170" y2="36" gradientUnits="userSpaceOnUse">
<stop stop-color="#1C6CE4"/>
<stop offset="1" stop-color="#F2F3F5"/>
</linearGradient>
<linearGradient id="paint12_linear_35_7324" x1="50.5" y1="36" x2="170" y2="36" gradientUnits="userSpaceOnUse">
<stop stop-color="#1C6CE4"/>
<stop offset="1" stop-color="#F2F3F5"/>
</linearGradient>
<linearGradient id="paint13_linear_35_7324" x1="50.5" y1="36" x2="170" y2="36" gradientUnits="userSpaceOnUse">
<stop stop-color="#1C6CE4"/>
<stop offset="1" stop-color="#F2F3F5"/>
</linearGradient>
<linearGradient id="paint14_linear_35_7324" x1="50.5" y1="36" x2="170" y2="36" gradientUnits="userSpaceOnUse">
<stop stop-color="#1C6CE4"/>
<stop offset="1" stop-color="#F2F3F5"/>
</linearGradient>
<linearGradient id="paint15_linear_35_7324" x1="50.5" y1="36" x2="170" y2="36" gradientUnits="userSpaceOnUse">
<stop stop-color="#1C6CE4"/>
<stop offset="1" stop-color="#F2F3F5"/>
</linearGradient>
<linearGradient id="paint16_linear_35_7324" x1="50.5" y1="36" x2="170" y2="36" gradientUnits="userSpaceOnUse">
<stop stop-color="#1C6CE4"/>
<stop offset="1" stop-color="#F2F3F5"/>
</linearGradient>
<linearGradient id="paint17_linear_35_7324" x1="50.5" y1="36" x2="170" y2="36" gradientUnits="userSpaceOnUse">
<stop stop-color="#1C6CE4"/>
<stop offset="1" stop-color="#F2F3F5"/>
</linearGradient>
<linearGradient id="paint18_linear_35_7324" x1="50.5" y1="36" x2="170" y2="36" gradientUnits="userSpaceOnUse">
<stop stop-color="#1C6CE4"/>
<stop offset="1" stop-color="#F2F3F5"/>
</linearGradient>
<linearGradient id="paint19_linear_35_7324" x1="50.5" y1="36" x2="170" y2="36" gradientUnits="userSpaceOnUse">
<stop stop-color="#1C6CE4"/>
<stop offset="1" stop-color="#F2F3F5"/>
</linearGradient>
<linearGradient id="paint20_linear_35_7324" x1="50.5" y1="36" x2="170" y2="36" gradientUnits="userSpaceOnUse">
<stop stop-color="#1C6CE4"/>
<stop offset="1" stop-color="#F2F3F5"/>
</linearGradient>
<linearGradient id="paint21_linear_35_7324" x1="50.5" y1="36" x2="170" y2="36" gradientUnits="userSpaceOnUse">
<stop stop-color="#1C6CE4"/>
<stop offset="1" stop-color="#F2F3F5"/>
</linearGradient>
<linearGradient id="paint22_linear_35_7324" x1="50.5" y1="36" x2="170" y2="36" gradientUnits="userSpaceOnUse">
<stop stop-color="#1C6CE4"/>
<stop offset="1" stop-color="#F2F3F5"/>
</linearGradient>
<linearGradient id="paint23_linear_35_7324" x1="50.5" y1="36" x2="170" y2="36" gradientUnits="userSpaceOnUse">
<stop stop-color="#1C6CE4"/>
<stop offset="1" stop-color="#F2F3F5"/>
</linearGradient>
<linearGradient id="paint24_linear_35_7324" x1="50.5" y1="36" x2="170" y2="36" gradientUnits="userSpaceOnUse">
<stop stop-color="#1C6CE4"/>
<stop offset="1" stop-color="#F2F3F5"/>
</linearGradient>
<linearGradient id="paint25_linear_35_7324" x1="50.5" y1="36" x2="170" y2="36" gradientUnits="userSpaceOnUse">
<stop stop-color="#1C6CE4"/>
<stop offset="1" stop-color="#F2F3F5"/>
</linearGradient>
<linearGradient id="paint26_linear_35_7324" x1="50.5" y1="36" x2="170" y2="36" gradientUnits="userSpaceOnUse">
<stop stop-color="#1C6CE4"/>
<stop offset="1" stop-color="#F2F3F5"/>
</linearGradient>
<linearGradient id="paint27_linear_35_7324" x1="50.5" y1="36" x2="170" y2="36" gradientUnits="userSpaceOnUse">
<stop stop-color="#1C6CE4"/>
<stop offset="1" stop-color="#F2F3F5"/>
</linearGradient>
<linearGradient id="paint28_linear_35_7324" x1="50.5" y1="36" x2="170" y2="36" gradientUnits="userSpaceOnUse">
<stop stop-color="#1C6CE4"/>
<stop offset="1" stop-color="#F2F3F5"/>
</linearGradient>
<linearGradient id="paint29_linear_35_7324" x1="50.5" y1="36" x2="170" y2="36" gradientUnits="userSpaceOnUse">
<stop stop-color="#1C6CE4"/>
<stop offset="1" stop-color="#F2F3F5"/>
</linearGradient>
<linearGradient id="paint30_linear_35_7324" x1="50.5" y1="36" x2="170" y2="36" gradientUnits="userSpaceOnUse">
<stop stop-color="#1C6CE4"/>
<stop offset="1" stop-color="#F2F3F5"/>
</linearGradient>
<linearGradient id="paint31_linear_35_7324" x1="50.5" y1="36" x2="170" y2="36" gradientUnits="userSpaceOnUse">
<stop stop-color="#1C6CE4"/>
<stop offset="1" stop-color="#F2F3F5"/>
</linearGradient>
<linearGradient id="paint32_linear_35_7324" x1="50.5" y1="36" x2="170" y2="36" gradientUnits="userSpaceOnUse">
<stop stop-color="#1C6CE4"/>
<stop offset="1" stop-color="#F2F3F5"/>
</linearGradient>
<linearGradient id="paint33_linear_35_7324" x1="50.5" y1="36" x2="170" y2="36" gradientUnits="userSpaceOnUse">
<stop stop-color="#1C6CE4"/>
<stop offset="1" stop-color="#F2F3F5"/>
</linearGradient>
<linearGradient id="paint34_linear_35_7324" x1="50.5" y1="36" x2="170" y2="36" gradientUnits="userSpaceOnUse">
<stop stop-color="#1C6CE4"/>
<stop offset="1" stop-color="#F2F3F5"/>
</linearGradient>
<linearGradient id="paint35_linear_35_7324" x1="50.5" y1="36" x2="170" y2="36" gradientUnits="userSpaceOnUse">
<stop stop-color="#1C6CE4"/>
<stop offset="1" stop-color="#F2F3F5"/>
</linearGradient>
<linearGradient id="paint36_linear_35_7324" x1="50.5" y1="36" x2="170" y2="36" gradientUnits="userSpaceOnUse">
<stop stop-color="#1C6CE4"/>
<stop offset="1" stop-color="#F2F3F5"/>
</linearGradient>
<linearGradient id="paint37_linear_35_7324" x1="50.5" y1="36" x2="170" y2="36" gradientUnits="userSpaceOnUse">
<stop stop-color="#1C6CE4"/>
<stop offset="1" stop-color="#F2F3F5"/>
</linearGradient>
<linearGradient id="paint38_linear_35_7324" x1="50.5" y1="36" x2="170" y2="36" gradientUnits="userSpaceOnUse">
<stop stop-color="#1C6CE4"/>
<stop offset="1" stop-color="#F2F3F5"/>
</linearGradient>
<linearGradient id="paint39_linear_35_7324" x1="50.5" y1="36" x2="170" y2="36" gradientUnits="userSpaceOnUse">
<stop stop-color="#1C6CE4"/>
<stop offset="1" stop-color="#F2F3F5"/>
</linearGradient>
<linearGradient id="paint40_linear_35_7324" x1="50.5" y1="36" x2="170" y2="36" gradientUnits="userSpaceOnUse">
<stop stop-color="#1C6CE4"/>
<stop offset="1" stop-color="#F2F3F5"/>
</linearGradient>
<linearGradient id="paint41_linear_35_7324" x1="50.5" y1="36" x2="170" y2="36" gradientUnits="userSpaceOnUse">
<stop stop-color="#1C6CE4"/>
<stop offset="1" stop-color="#F2F3F5"/>
</linearGradient>
<linearGradient id="paint42_linear_35_7324" x1="50.5" y1="36" x2="170" y2="36" gradientUnits="userSpaceOnUse">
<stop stop-color="#1C6CE4"/>
<stop offset="1" stop-color="#F2F3F5"/>
</linearGradient>
<linearGradient id="paint43_linear_35_7324" x1="50.5" y1="36" x2="170" y2="36" gradientUnits="userSpaceOnUse">
<stop stop-color="#1C6CE4"/>
<stop offset="1" stop-color="#F2F3F5"/>
</linearGradient>
<linearGradient id="paint44_linear_35_7324" x1="50.5" y1="36" x2="170" y2="36" gradientUnits="userSpaceOnUse">
<stop stop-color="#1C6CE4"/>
<stop offset="1" stop-color="#F2F3F5"/>
</linearGradient>
<linearGradient id="paint45_linear_35_7324" x1="50.5" y1="36" x2="170" y2="36" gradientUnits="userSpaceOnUse">
<stop stop-color="#1C6CE4"/>
<stop offset="1" stop-color="#F2F3F5"/>
</linearGradient>
<linearGradient id="paint46_linear_35_7324" x1="50.5" y1="36" x2="170" y2="36" gradientUnits="userSpaceOnUse">
<stop stop-color="#1C6CE4"/>
<stop offset="1" stop-color="#F2F3F5"/>
</linearGradient>
<linearGradient id="paint47_linear_35_7324" x1="50.5" y1="36" x2="170" y2="36" gradientUnits="userSpaceOnUse">
<stop stop-color="#1C6CE4"/>
<stop offset="1" stop-color="#F2F3F5"/>
</linearGradient>
<linearGradient id="paint48_linear_35_7324" x1="50.5" y1="36" x2="170" y2="36" gradientUnits="userSpaceOnUse">
<stop stop-color="#1C6CE4"/>
<stop offset="1" stop-color="#F2F3F5"/>
</linearGradient>
<linearGradient id="paint49_linear_35_7324" x1="50.5" y1="36" x2="170" y2="36" gradientUnits="userSpaceOnUse">
<stop stop-color="#1C6CE4"/>
<stop offset="1" stop-color="#F2F3F5"/>
</linearGradient>
<linearGradient id="paint50_linear_35_7324" x1="50.5" y1="36" x2="170" y2="36" gradientUnits="userSpaceOnUse">
<stop stop-color="#1C6CE4"/>
<stop offset="1" stop-color="#F2F3F5"/>
</linearGradient>
</defs>
</svg>
