<svg width="20" height="20" viewBox="0 0 20 20" fill="none" xmlns="http://www.w3.org/2000/svg">
<path d="M9.36039 2.22228C9.45642 2.02489 9.65762 1.8999 9.87712 1.8999C10.0974 1.8999 10.2978 2.02489 10.3938 2.22228C11.1361 3.74501 12.4135 6.36824 12.4135 6.36824C12.4135 6.36824 15.3179 6.7676 17.003 7.00005C17.3101 7.04196 17.4984 7.30185 17.4984 7.56936C17.4984 7.71416 17.4435 7.86125 17.3223 7.97785C16.0953 9.15 13.9827 11.1719 13.9827 11.1719C13.9827 11.1719 14.4986 14.0428 14.7974 15.7081C14.8607 16.0602 14.5878 16.3803 14.2319 16.3803C14.1389 16.3803 14.0459 16.3582 13.9613 16.3125C12.4615 15.5138 9.87712 14.1396 9.87712 14.1396C9.87712 14.1396 7.29275 15.5138 5.79288 16.3125C5.70829 16.3582 5.61455 16.3803 5.52157 16.3803C5.16718 16.3803 4.89281 16.0594 4.95683 15.7081C5.25635 14.0428 5.77231 11.1719 5.77231 11.1719C5.77231 11.1719 3.65893 9.15 2.43267 7.97785C2.31073 7.86125 2.25586 7.71416 2.25586 7.57012C2.25586 7.30185 2.44563 7.0412 2.752 7.00005C4.43706 6.7676 7.34076 6.36824 7.34076 6.36824C7.34076 6.36824 8.61885 3.74501 9.36039 2.22228Z" fill="#FFC201"/>
</svg>
