<svg width="20" height="20" viewBox="0 0 20 20" fill="none" xmlns="http://www.w3.org/2000/svg">
<path d="M9.4541 2.39502C9.47002 2.39502 9.48476 2.39997 9.49707 2.40771L9.52539 2.43896C9.8965 3.20024 10.4014 4.23735 10.8135 5.0835C11.0195 5.50652 11.2027 5.88216 11.334 6.15186C11.3996 6.28657 11.4529 6.39459 11.4893 6.46924C11.5074 6.50642 11.5207 6.5356 11.5303 6.55518C11.535 6.56497 11.5396 6.57263 11.542 6.57764C11.5432 6.58002 11.5433 6.58227 11.5439 6.5835L11.5449 6.58447V6.58545L11.6611 6.82275L11.9229 6.85889H11.9248C11.9262 6.85908 11.9289 6.85948 11.9316 6.85986C11.9372 6.86062 11.9453 6.86229 11.9561 6.86377C11.9777 6.86674 12.0096 6.87081 12.0508 6.87646C12.1335 6.88784 12.254 6.90476 12.4033 6.92529C12.7019 6.96636 13.1176 7.02297 13.5859 7.0874L16.5127 7.49072C16.5274 7.49273 16.537 7.49711 16.543 7.50049C16.5492 7.50403 16.5552 7.50863 16.5605 7.51514C16.5726 7.52972 16.5801 7.55062 16.5801 7.56982C16.58 7.57932 16.578 7.58748 16.5752 7.59424L16.5557 7.62061C15.9421 8.2067 15.1078 9.0052 14.4268 9.65674C14.0861 9.98264 13.7836 10.2722 13.5664 10.48C13.4579 10.5838 13.3707 10.6676 13.3105 10.7251C13.2805 10.7538 13.257 10.7764 13.2412 10.7915C13.2336 10.7988 13.2276 10.8043 13.2236 10.8081L13.2178 10.814L13.0254 10.9976L13.0723 11.2593V11.2612C13.0725 11.2626 13.0737 11.2653 13.0742 11.2681C13.0752 11.2735 13.0762 11.282 13.0781 11.2925C13.082 11.3139 13.0874 11.3455 13.0947 11.3862C13.1094 11.4679 13.1307 11.5865 13.1572 11.7339C13.2103 12.029 13.284 12.44 13.3672 12.9028L13.8867 15.7954C13.8945 15.8387 13.861 15.8853 13.8086 15.8853L13.7744 15.8765L13.7715 15.8755L11.167 14.4888C10.7502 14.2671 10.38 14.0705 10.1143 13.9292C9.98146 13.8586 9.87438 13.8023 9.80078 13.7632C9.76398 13.7436 9.73512 13.7285 9.71582 13.7183C9.70636 13.7132 9.69924 13.7092 9.69434 13.7065C9.69187 13.7052 9.68972 13.7043 9.68848 13.7036L9.6875 13.7026H9.68652L9.4541 13.5786L9.22168 13.7026L9.21387 13.7065C9.20894 13.7092 9.20176 13.7133 9.19238 13.7183C9.17309 13.7285 9.14416 13.7436 9.10742 13.7632C9.03383 13.8023 8.92659 13.8587 8.79395 13.9292C8.52831 14.0705 8.15871 14.2672 7.74219 14.4888L5.13672 15.8755L5.13477 15.8765C5.12622 15.8811 5.11366 15.8853 5.09863 15.8853C5.05982 15.8852 5.03198 15.8582 5.02344 15.8276L5.02148 15.7974V15.7954C5.17124 14.9628 5.37559 13.8286 5.54199 12.9028C5.62518 12.4401 5.69892 12.029 5.75195 11.7339C5.77845 11.5865 5.79977 11.4679 5.81445 11.3862C5.82177 11.3455 5.8272 11.3139 5.83105 11.2925C5.83296 11.2819 5.83495 11.2735 5.83594 11.2681C5.83643 11.2653 5.83666 11.2626 5.83691 11.2612V11.2593L5.88379 10.9976L5.69238 10.814L5.34961 11.1724C5.66185 10.846 5.68899 10.8165 5.69141 10.814L5.66797 10.7905C5.65221 10.7755 5.62856 10.7537 5.59863 10.7251C5.5385 10.6676 5.4513 10.5838 5.34277 10.48C5.12548 10.2721 4.82227 9.98275 4.48145 9.65674L2.35254 7.61963C2.34072 7.60833 2.33554 7.59931 2.33301 7.59326C2.33026 7.58668 2.32812 7.57882 2.32812 7.56982C2.3282 7.55089 2.33625 7.53014 2.34863 7.51514C2.35419 7.50849 2.36002 7.50301 2.36621 7.49951L2.39551 7.49072H2.39648C3.23893 7.37451 4.38669 7.2163 5.32324 7.0874C5.79138 7.02297 6.20738 6.96635 6.50586 6.92529C6.65493 6.90478 6.77481 6.88783 6.85742 6.87646C6.89855 6.87081 6.93049 6.86675 6.95215 6.86377C6.96272 6.86232 6.97102 6.86063 6.97656 6.85986C6.97933 6.85948 6.982 6.85908 6.9834 6.85889H6.98535L7.24707 6.82275L7.36328 6.58545V6.58447L7.36426 6.5835C7.36488 6.58223 7.36597 6.58014 7.36719 6.57764C7.36963 6.57263 7.37319 6.5649 7.37793 6.55518C7.38747 6.53559 7.40179 6.50645 7.41992 6.46924C7.45628 6.39462 7.5087 6.28633 7.57422 6.15186C7.7056 5.8822 7.88868 5.50645 8.09473 5.0835L9.38281 2.43896C9.39529 2.41332 9.42289 2.39508 9.4541 2.39502Z" stroke="#FFC201" stroke-width="0.990763"/>
</svg>
