<svg width="34" height="34" viewBox="0 0 34 34" fill="none" xmlns="http://www.w3.org/2000/svg">
<rect width="34" height="34" rx="4" fill="#40B449"/>
<path d="M14.4792 21.3662L22.0417 17L14.4792 12.6338V21.3662Z" fill="white"/>
<path fill-rule="evenodd" clip-rule="evenodd" d="M28 17C28 23.0751 23.0751 28 17 28C10.9249 28 6 23.0751 6 17C6 10.9249 10.9249 6 17 6C23.0751 6 28 10.9249 28 17ZM26.1667 17C26.1667 22.0626 22.0626 26.1667 17 26.1667C11.9374 26.1667 7.83333 22.0626 7.83333 17C7.83333 11.9374 11.9374 7.83333 17 7.83333C22.0626 7.83333 26.1667 11.9374 26.1667 17Z" fill="white"/>
</svg>
