<svg width="34" height="34" viewBox="0 0 34 34" fill="none" xmlns="http://www.w3.org/2000/svg">
<rect width="34" height="34" rx="4" fill="#7B42BC"/>
<path d="M16.9984 7.83333C18.0095 7.83333 18.8317 8.65558 18.8317 9.66667V16.0833C18.8317 17.0944 18.0095 17.9167 16.9984 17.9167C15.9873 17.9167 15.165 17.0944 15.165 16.0833V9.66667C15.165 8.65558 15.9873 7.83333 16.9984 7.83333ZM16.9984 6C14.9735 6 13.3317 7.64175 13.3317 9.66667V16.0833C13.3317 18.1082 14.9735 19.75 16.9984 19.75C19.0233 19.75 20.665 18.1082 20.665 16.0833V9.66667C20.665 7.64175 19.0233 6 16.9984 6ZM24.3317 14.25V16.0833C24.3317 20.1332 21.0482 23.4167 16.9984 23.4167C12.9485 23.4167 9.66504 20.1332 9.66504 16.0833V14.25H11.4984V16.0833C11.4984 19.1166 13.9651 21.5833 16.9984 21.5833C20.0316 21.5833 22.4984 19.1166 22.4984 16.0833V14.25H24.3317ZM17.915 26.1667V24.3333H16.0817V26.1667H12.415V28H21.5817V26.1667H17.915Z" fill="white"/>
</svg>
